<?xml version="1.0" standalone="no"?>
<!DOCTYPE svg PUBLIC "-//W3C//DTD SVG 20010904//EN"
 "http://www.w3.org/TR/2001/REC-SVG-20010904/DTD/svg10.dtd">
<svg version="1.0" xmlns="http://www.w3.org/2000/svg"
 width="896.000000pt" height="896.000000pt" viewBox="0 0 896.000000 896.000000"
 preserveAspectRatio="xMidYMid meet">
<metadata>
Created by potrace 1.11, written by Peter Selinger 2001-2013
</metadata>
<g transform="translate(0.000000,896.000000) scale(0.100000,-0.100000)"
fill="#000000" stroke="none">
<path d="M4097 8815 c-34 -18 -86 -47 -115 -64 -29 -17 -56 -31 -59 -31 -4 0
-14 -6 -22 -14 -9 -7 -38 -25 -65 -40 -176 -97 -855 -493 -875 -510 -50 -44
-65 -129 -35 -189 18 -34 48 -60 104 -92 65 -37 185 -106 200 -115 8 -6 110
-64 225 -130 116 -66 217 -125 225 -130 8 -6 22 -13 30 -17 8 -4 55 -31 104
-60 49 -29 90 -53 92 -53 3 0 23 -12 45 -26 50 -31 123 -72 168 -95 36 -17 89
-18 132 -1 32 13 77 65 86 100 4 15 7 331 7 702 l1 675 -23 37 c-28 45 -60 66
-117 77 -41 8 -52 5 -108 -24z"/>
<path d="M4715 8826 c-39 -18 -73 -51 -87 -84 -14 -33 -18 -1346 -5 -1407 10
-49 39 -82 92 -106 78 -35 52 -48 720 351 247 148 244 146 295 175 170 96 264
161 283 198 33 64 20 144 -30 189 -24 22 -302 188 -314 188 -5 0 -9 4 -9 9 0
5 -8 11 -17 14 -10 4 -36 18 -58 32 -22 13 -47 28 -55 31 -8 4 -22 12 -30 19
-8 7 -35 23 -60 36 -25 13 -49 28 -55 32 -5 4 -64 39 -130 77 -66 39 -127 74
-135 80 -8 5 -77 46 -153 90 -148 87 -197 102 -252 76z"/>
<path d="M2064 7630 c-22 -9 -74 -38 -117 -64 -43 -25 -83 -46 -88 -46 -5 0
-9 -4 -9 -10 0 -5 -4 -10 -9 -10 -4 0 -48 -23 -97 -51 -141 -82 -144 -84 -237
-138 -49 -28 -93 -51 -98 -51 -5 0 -9 -4 -9 -9 0 -5 -8 -11 -17 -14 -17 -6
-76 -38 -153 -85 -19 -12 -42 -25 -50 -29 -8 -4 -55 -31 -104 -60 -49 -29 -92
-53 -95 -53 -4 0 -18 -8 -31 -17 -99 -74 -123 -158 -68 -239 18 -26 102 -88
118 -86 3 0 12 -5 20 -12 8 -8 35 -25 60 -38 48 -27 78 -44 180 -103 36 -21
79 -46 95 -55 17 -9 49 -28 72 -43 24 -15 44 -27 47 -27 2 0 77 -43 166 -95
89 -52 164 -95 165 -95 2 0 39 -21 82 -47 124 -75 221 -120 248 -118 31 4 115
44 115 55 0 5 8 16 18 26 16 16 17 66 20 715 2 691 2 698 -19 733 -42 71 -131
100 -205 66z"/>
<path d="M2669 7640 c-34 -10 -77 -47 -97 -85 -14 -27 -16 -105 -17 -700 -1
-710 0 -725 45 -768 35 -31 101 -56 126 -47 12 5 24 6 27 4 5 -5 119 54 167
86 14 9 50 30 80 46 30 16 57 32 60 35 3 3 30 19 60 36 30 16 74 42 97 56 24
15 45 27 48 27 3 0 30 16 60 35 30 19 55 32 55 28 0 -3 8 1 18 9 9 8 136 84
282 168 146 84 267 156 268 161 2 5 10 16 19 24 23 24 29 115 8 155 -18 34
-62 80 -77 80 -4 0 -27 12 -51 27 -23 15 -51 33 -62 39 -25 14 -39 21 -330
189 -132 75 -251 144 -265 153 -14 9 -28 15 -32 14 -5 -1 -8 2 -8 8 0 6 -4 10
-10 10 -5 0 -38 17 -72 38 -35 21 -70 41 -78 45 -8 4 -44 25 -80 46 -133 81
-180 97 -241 81z"/>
<path d="M6027 7616 c-34 -18 -143 -80 -242 -138 -99 -58 -243 -141 -321 -186
-77 -44 -156 -89 -175 -101 -19 -11 -63 -36 -99 -57 -228 -128 -299 -175 -321
-210 -39 -63 -25 -156 31 -201 16 -14 204 -125 338 -200 23 -13 93 -54 155
-90 62 -36 130 -75 152 -87 22 -13 85 -49 140 -81 55 -32 114 -66 131 -76 17
-9 42 -23 55 -31 13 -7 26 -15 29 -18 4 -4 29 -18 115 -64 11 -6 23 -15 26
-19 3 -4 19 -10 35 -12 16 -2 31 -4 34 -5 16 -6 60 5 91 22 37 20 66 60 75
101 5 21 8 260 3 282 -1 6 0 15 1 20 2 12 2 458 -1 465 -1 3 0 10 1 15 4 20 2
474 -3 482 -2 4 -1 17 3 28 9 26 -14 111 -37 137 -54 60 -130 68 -216 24z"/>
<path d="M6638 7629 c-49 -25 -77 -60 -84 -104 -7 -44 -9 -1311 -1 -1361 9
-68 80 -126 151 -126 36 0 136 39 136 53 0 5 4 9 10 9 5 0 31 13 58 29 49 29
99 57 187 107 28 15 52 32 53 36 2 4 8 8 13 8 6 0 48 23 95 50 47 28 89 50 94
50 6 0 10 4 10 8 0 4 12 13 28 19 15 7 45 23 67 37 22 14 56 33 75 44 19 11
102 58 184 106 82 47 152 86 157 86 5 0 9 5 9 10 0 6 6 10 13 10 38 1 88 80
89 138 0 64 -26 108 -87 147 -68 43 -458 265 -466 265 -5 0 -9 5 -9 10 0 6 -5
10 -10 10 -6 0 -40 18 -76 40 -36 22 -68 40 -70 40 -2 0 -32 17 -67 39 -35 21
-73 42 -85 45 -12 4 -22 12 -22 17 0 5 -4 9 -10 9 -5 0 -73 38 -152 84 -79 46
-154 87 -168 92 -42 13 -87 11 -122 -7z"/>
<path d="M679 6488 c-43 -11 -80 -42 -102 -84 -15 -29 -16 -105 -17 -707 0
-759 -3 -733 71 -781 71 -48 120 -40 252 38 43 25 82 46 87 46 6 0 10 5 10 10
0 6 4 10 9 10 9 0 153 81 161 91 3 3 19 12 35 21 17 8 48 25 70 38 22 12 56
31 75 42 19 11 49 28 65 39 17 10 44 26 60 34 17 9 44 24 60 34 17 10 46 27
65 38 282 160 371 217 392 251 28 46 29 117 1 164 -16 27 -108 94 -173 125 -8
4 -96 54 -195 111 -99 58 -196 114 -215 124 -19 11 -76 44 -127 74 -51 30 -96
54 -102 54 -5 0 -11 3 -13 8 -4 9 -235 142 -248 142 -6 0 -10 5 -10 10 0 6 -6
10 -14 10 -8 0 -16 3 -18 8 -5 11 -90 51 -118 55 -14 2 -41 0 -61 -5z"/>
<path d="M4054 6477 c-22 -11 -70 -39 -109 -62 -38 -23 -77 -45 -85 -48 -8 -4
-28 -15 -45 -25 -101 -62 -277 -162 -285 -162 -6 0 -10 -4 -10 -8 0 -4 -12
-13 -27 -20 -16 -6 -44 -21 -63 -33 -101 -62 -342 -199 -350 -199 -4 0 -10 -4
-12 -8 -1 -4 -34 -25 -73 -45 -81 -44 -132 -96 -141 -143 -15 -81 24 -148 113
-194 26 -14 50 -28 53 -31 3 -4 30 -20 60 -36 30 -16 143 -81 250 -143 298
-173 382 -220 390 -220 5 0 10 -3 12 -8 2 -4 81 -52 176 -106 144 -82 180 -99
215 -99 57 0 101 25 135 75 l27 42 0 674 c1 701 0 718 -42 764 -46 51 -128 66
-189 35z"/>
<path d="M4655 6482 c-48 -19 -82 -56 -94 -102 -6 -21 -10 -305 -10 -700 0
-638 1 -667 20 -706 23 -48 83 -86 138 -87 40 -1 84 19 226 103 50 29 115 66
145 83 30 17 58 35 62 41 4 6 8 8 8 4 0 -4 25 8 55 27 30 19 59 35 65 35 5 0
10 5 10 10 0 6 5 10 10 10 9 0 114 59 300 168 19 12 73 42 120 68 47 26 87 50
90 53 3 3 19 13 35 21 145 71 188 167 120 272 -13 20 -37 42 -52 50 -15 8 -73
41 -128 73 -55 32 -138 80 -185 107 -47 27 -92 53 -100 58 -12 8 -117 68 -417
241 -18 11 -50 29 -70 40 -21 12 -83 47 -138 79 -111 65 -152 75 -210 52z"/>
<path d="M8110 6493 c-35 -6 -94 -25 -100 -33 -6 -8 -282 -168 -327 -189 -18
-8 -33 -19 -33 -23 0 -4 -4 -8 -10 -8 -8 0 -183 -99 -230 -130 -8 -6 -24 -14
-35 -20 -11 -5 -42 -23 -70 -40 -27 -16 -61 -35 -75 -42 -14 -7 -48 -27 -77
-45 -29 -18 -54 -33 -57 -33 -3 0 -50 -27 -105 -60 -122 -74 -146 -103 -146
-181 0 -90 21 -109 254 -242 20 -11 50 -28 66 -38 17 -10 44 -25 60 -34 17 -8
37 -19 45 -24 22 -15 144 -86 160 -95 8 -4 24 -12 35 -19 11 -7 67 -39 125
-72 58 -33 107 -63 108 -67 2 -4 8 -8 14 -8 11 0 145 -77 171 -98 9 -8 17 -12
17 -8 0 4 12 -1 28 -12 56 -39 141 -80 175 -85 48 -6 108 22 143 69 l29 37 1
675 c0 371 -2 687 -4 703 -9 61 -101 130 -162 122z"/>
<path d="M2673 5336 c-39 -14 -74 -42 -99 -80 -18 -29 -19 -60 -19 -722 l0
-692 31 -39 c37 -46 74 -66 131 -68 37 -2 61 8 180 78 76 44 153 88 171 98 40
23 56 33 267 154 94 54 184 106 200 115 254 146 414 245 429 266 27 38 33 115
12 158 -15 31 -96 108 -96 90 0 -4 -8 0 -17 8 -10 9 -38 27 -63 40 -25 14 -63
36 -85 48 -22 13 -78 45 -125 72 -47 27 -92 53 -100 58 -20 13 -294 171 -350
202 -25 14 -116 66 -202 117 -170 98 -214 114 -265 97z"/>
<path d="M6100 5340 c-31 -6 -136 -55 -150 -71 -3 -3 -114 -68 -248 -145 -133
-76 -256 -147 -273 -157 -16 -9 -121 -70 -232 -134 -111 -64 -226 -130 -255
-147 -90 -52 -121 -148 -73 -231 14 -26 101 -89 151 -112 8 -3 38 -20 65 -37
28 -17 61 -37 75 -44 14 -6 32 -16 40 -22 45 -30 294 -170 301 -170 5 0 9 -4
9 -10 0 -5 4 -10 10 -10 5 0 31 -13 58 -29 26 -15 68 -39 93 -53 52 -30 215
-124 314 -181 39 -23 77 -43 85 -45 57 -15 122 -1 163 35 24 23 47 73 47 103
-1 14 0 129 0 255 1 127 0 232 -1 235 -1 3 0 10 1 15 2 12 2 458 -1 465 -1 3
0 10 1 15 1 6 1 80 1 165 -1 85 -2 164 -2 174 0 46 -60 116 -114 133 -16 5
-46 6 -65 3z"/>
<path d="M6664 5336 c-48 -17 -84 -47 -101 -86 -13 -30 -16 -123 -17 -695 -1
-363 2 -675 6 -694 18 -89 123 -152 202 -120 28 11 101 52 386 217 52 31 110
62 128 71 17 8 32 19 32 23 0 4 5 8 10 8 6 0 27 11 48 23 20 13 57 35 82 49
25 14 86 49 135 78 50 29 114 65 143 81 28 16 69 39 90 52 20 12 50 29 66 37
113 57 143 186 62 265 -17 17 -159 105 -316 195 -157 90 -292 169 -301 177 -9
7 -18 11 -21 8 -3 -3 -11 1 -18 10 -7 8 -18 15 -25 15 -8 0 -15 3 -17 8 -3 7
-69 45 -115 67 -13 5 -23 13 -23 18 0 4 -4 7 -10 7 -5 0 -47 22 -92 49 -46 27
-100 58 -120 70 -21 11 -54 30 -73 41 -52 29 -104 39 -141 26z"/>
<path d="M2065 5327 c-16 -7 -41 -19 -55 -29 -21 -14 -271 -157 -410 -236 -25
-14 -78 -45 -118 -69 -41 -24 -76 -43 -80 -43 -3 0 -13 -6 -21 -14 -9 -8 -38
-26 -66 -40 -27 -15 -57 -31 -65 -37 -45 -28 -293 -169 -299 -169 -3 0 -21
-14 -39 -31 -86 -81 -75 -198 26 -261 54 -33 75 -46 92 -55 8 -4 60 -34 115
-66 55 -33 118 -69 140 -82 58 -32 92 -52 268 -154 86 -50 162 -91 167 -91 6
0 10 -4 10 -10 0 -5 5 -10 10 -10 6 0 29 -12 53 -27 23 -15 60 -37 82 -49 22
-11 56 -31 75 -42 100 -61 146 -80 187 -77 59 3 104 33 131 85 l22 44 0 673
c0 750 2 725 -68 774 -42 29 -108 36 -157 16z"/>
<path d="M690 4212 c-43 -18 -87 -62 -97 -99 -4 -15 -7 -332 -7 -703 0 -599 2
-678 16 -705 49 -92 159 -117 248 -55 14 10 57 34 95 55 39 21 77 43 85 50 8
7 20 14 25 16 10 4 109 60 213 122 26 15 56 32 67 37 11 6 35 20 54 31 19 11
98 57 175 101 78 45 143 85 144 89 2 5 10 9 18 9 7 0 38 16 68 35 30 19 58 35
61 35 3 0 34 19 69 42 61 40 104 96 91 119 -4 5 -2 9 3 9 16 0 -4 78 -29 115
-13 19 -27 35 -32 35 -4 0 -36 17 -70 38 -80 48 -91 55 -157 93 -53 31 -76 44
-165 94 -22 13 -101 59 -176 102 -74 44 -142 82 -150 86 -8 4 -29 16 -48 27
-192 117 -402 230 -431 233 -19 2 -51 -3 -70 -11z"/>
<path d="M8125 4219 c-43 -10 -86 -31 -200 -100 -55 -33 -112 -65 -127 -72
-16 -6 -28 -15 -28 -19 0 -4 -4 -8 -10 -8 -5 0 -39 -18 -75 -40 -36 -22 -67
-40 -69 -40 -2 0 -55 -30 -117 -66 -115 -68 -416 -241 -477 -276 -94 -52 -115
-72 -135 -119 -27 -66 -5 -149 50 -186 16 -11 82 -51 148 -89 66 -38 134 -77
150 -87 17 -10 38 -20 48 -23 9 -4 17 -10 17 -15 0 -5 4 -9 9 -9 5 0 65 -32
133 -71 67 -39 143 -83 168 -97 25 -14 124 -71 220 -127 273 -159 279 -162
329 -159 54 3 113 41 134 87 15 32 17 103 17 718 l0 682 -24 41 c-34 58 -101
89 -161 75z"/>
<path d="M4065 4177 c-16 -8 -75 -40 -130 -72 -55 -32 -113 -65 -130 -74 -16
-9 -31 -19 -33 -23 -2 -5 -8 -8 -13 -8 -5 0 -39 -18 -75 -40 -36 -22 -67 -40
-69 -40 -2 0 -38 -20 -80 -45 -65 -39 -465 -270 -563 -326 -65 -37 -81 -51
-101 -84 -24 -42 -23 -128 4 -168 16 -26 222 -157 245 -157 6 0 10 -4 10 -10
0 -5 6 -10 13 -10 7 0 36 -15 65 -34 28 -19 52 -33 52 -31 0 3 16 -6 35 -20
20 -13 49 -30 65 -37 17 -7 30 -17 30 -21 0 -5 4 -6 9 -3 5 3 14 -1 21 -9 7
-8 19 -15 26 -15 8 0 14 -4 14 -10 0 -5 4 -10 10 -10 5 0 33 -14 62 -31 55
-33 94 -56 163 -94 22 -13 81 -46 130 -75 50 -29 106 -62 125 -73 141 -82 182
-92 243 -61 37 20 65 48 80 84 7 17 11 249 12 703 1 664 0 679 -20 717 -11 22
-32 48 -47 60 -35 26 -113 35 -153 17z"/>
<path d="M4654 4179 c-33 -9 -72 -48 -91 -91 -9 -19 -11 -202 -10 -715 l2
-688 23 -33 c29 -39 89 -72 134 -72 41 1 69 15 353 180 127 73 243 141 260
149 16 9 32 18 35 21 3 3 25 16 50 29 25 14 48 29 52 35 4 6 8 8 8 4 0 -4 16
4 36 17 20 14 43 25 50 25 7 0 14 4 16 8 2 5 80 52 174 106 94 53 181 106 193
117 37 35 55 94 45 148 -7 37 -67 111 -90 111 -8 0 -14 5 -14 10 0 6 -5 10
-11 10 -6 0 -48 22 -93 49 -44 27 -108 64 -141 82 -33 17 -66 36 -73 42 -19
15 -95 57 -114 64 -10 3 -18 9 -18 13 0 4 -8 10 -17 14 -10 3 -31 14 -48 23
-16 10 -64 38 -105 61 -41 23 -82 47 -90 52 -52 33 -172 100 -180 100 -6 0
-10 5 -10 10 0 6 -4 10 -10 10 -5 0 -33 14 -62 31 -148 88 -183 99 -254 78z"/>
<path d="M6680 3059 c-14 -6 -36 -20 -48 -32 -53 -49 -52 -39 -52 -754 1 -365
3 -678 7 -694 3 -16 20 -44 37 -63 27 -29 47 -39 106 -53 20 -4 100 17 100 27
0 4 8 10 18 13 9 3 42 20 72 38 30 18 73 42 95 54 22 12 76 44 120 70 44 26
96 57 115 68 80 45 559 321 603 348 27 16 52 29 56 29 5 0 26 16 49 35 66 59
77 158 23 223 -17 19 -222 144 -401 244 -97 55 -105 59 -135 78 -16 10 -41 25
-55 33 -14 7 -115 65 -225 129 -393 227 -374 218 -420 217 -22 0 -51 -5 -65
-10z"/>
<path d="M2085 3039 c-29 -8 -125 -57 -135 -68 -5 -6 -59 -36 -134 -75 -22
-12 -49 -29 -60 -38 -11 -10 -23 -18 -27 -18 -4 0 -62 -32 -130 -71 -149 -86
-372 -215 -414 -239 -232 -133 -292 -172 -313 -203 -28 -42 -34 -91 -16 -143
13 -39 67 -94 91 -94 7 0 13 -4 13 -10 0 -5 5 -10 11 -10 6 0 65 -32 132 -72
67 -39 143 -83 169 -97 98 -54 393 -226 398 -231 3 -4 25 -16 50 -29 25 -12
77 -42 117 -66 74 -44 165 -96 218 -123 90 -47 209 18 221 120 3 23 7 45 10
49 2 4 1 10 -4 13 -4 2 -5 32 -2 64 3 33 2 72 -1 86 -4 14 -4 26 -1 26 7 0 7
138 0 145 -2 2 -1 31 2 64 3 32 2 71 -1 85 -4 14 -4 26 -1 26 7 0 7 138 0 145
-2 2 -1 31 2 64 3 32 2 71 -1 85 -4 14 -4 26 -1 26 7 0 7 138 0 145 -2 2 -1
31 2 64 3 32 2 71 -1 85 -4 14 -4 26 0 26 7 0 6 32 -2 131 -8 94 -103 162
-192 138z"/>
<path d="M2665 3030 c-17 -5 -43 -22 -57 -37 -56 -58 -55 -42 -54 -774 1 -643
2 -677 20 -705 54 -84 132 -106 224 -61 26 13 141 78 255 145 115 67 213 122
218 122 5 0 9 5 9 10 0 6 4 10 10 10 8 0 226 124 515 293 161 94 185 121 185
204 0 80 -24 104 -215 215 -77 44 -156 90 -175 101 -19 11 -53 30 -75 42 -60
34 -248 144 -265 155 -8 5 -28 16 -45 25 -16 8 -46 24 -65 36 -354 212 -415
240 -485 219z"/>
<path d="M6075 3032 c-11 -2 -31 -12 -45 -22 -14 -9 -74 -45 -135 -79 -60 -34
-123 -70 -140 -80 -16 -10 -50 -29 -75 -43 -25 -14 -68 -39 -96 -55 -27 -17
-70 -41 -95 -55 -24 -14 -89 -51 -144 -83 -55 -32 -120 -69 -145 -83 -25 -13
-49 -28 -55 -32 -5 -5 -37 -23 -70 -41 -33 -18 -62 -35 -65 -38 -3 -3 -27 -17
-53 -31 -58 -30 -82 -54 -100 -100 -21 -55 -10 -121 29 -161 15 -16 93 -66
173 -112 80 -46 217 -125 305 -176 87 -50 163 -91 167 -91 5 0 9 -4 9 -10 0
-5 4 -10 9 -10 4 0 102 -55 217 -122 339 -197 344 -199 430 -157 32 15 48 32
64 64 19 40 21 61 21 242 0 109 -1 203 -2 208 -1 6 0 15 1 20 2 12 2 458 -1
465 -1 3 0 10 1 15 7 33 0 429 -9 462 -21 77 -109 125 -196 105z"/>
<path d="M4080 1876 c-32 -11 -179 -90 -250 -135 -63 -39 -245 -141 -252 -141
-4 0 -8 -3 -8 -7 0 -5 -10 -13 -23 -19 -51 -24 -142 -78 -145 -85 -2 -5 -12
-9 -23 -9 -10 0 -19 -3 -19 -7 0 -5 -10 -13 -23 -19 -12 -6 -62 -34 -111 -62
-49 -29 -92 -52 -96 -52 -4 0 -17 -9 -30 -20 -13 -11 -29 -20 -37 -20 -7 0
-13 -4 -13 -9 0 -5 -8 -11 -17 -14 -31 -10 -104 -55 -130 -79 -51 -46 -67
-127 -38 -184 19 -40 49 -65 115 -100 30 -16 57 -32 58 -36 2 -5 10 -8 18 -8
8 0 14 -4 14 -10 0 -5 4 -10 10 -10 5 0 81 -41 167 -91 180 -104 184 -107 313
-180 52 -29 97 -57 98 -61 2 -5 7 -8 11 -8 5 0 48 -23 97 -51 49 -29 105 -61
124 -72 19 -10 64 -36 100 -57 100 -58 122 -63 185 -42 53 17 90 57 102 112
11 48 11 1336 0 1379 -19 74 -121 124 -197 97z"/>
<path d="M4640 1866 c-47 -27 -68 -52 -80 -95 -12 -49 -12 -1353 1 -1390 13
-37 60 -82 102 -96 32 -11 50 -11 87 -3 13 3 158 81 200 108 8 5 53 32 100 58
47 27 175 101 285 164 236 136 266 153 325 187 25 14 47 29 48 33 2 4 8 8 14
8 19 0 203 112 226 138 28 32 45 95 36 135 -8 38 -60 107 -80 107 -8 0 -14 5
-14 10 0 6 -4 10 -9 10 -4 0 -91 48 -192 107 -101 58 -204 117 -229 131 -40
23 -75 43 -135 79 -108 64 -268 153 -276 153 -5 0 -9 5 -9 10 0 6 -4 10 -8 10
-5 0 -68 34 -140 76 -149 86 -191 96 -252 60z"/>
</g>
</svg>
