<svg width="24" height="19" viewBox="0 0 24 19" fill="none" xmlns="http://www.w3.org/2000/svg">
<path d="M24.0001 13.3C23.4001 8.8 22.5001 4.4 18.8001 0.5C18.5001 0.2 18.1001 0 17.7001 0H1.70008C0.900081 0 0.200081 0.6 0.200081 1.4C8.12858e-05 5.8 -0.0999187 10.8 0.200081 15C0.200081 17.2 2.00008 19 4.20008 19C6.40008 19 8.20008 17.2 8.20008 15H14.1001C14.1001 17.2 15.9001 19 18.1001 19C20.3001 19 22.1001 17.2 22.1001 15H22.5001C23.4001 15 24.1001 14.2 24.0001 13.3ZM4.10008 17C3.00008 17 2.10008 16.1 2.10008 15C2.10008 13.9 3.00008 13 4.10008 13C5.20008 13 6.10008 13.9 6.10008 15C6.10008 16.1 5.20008 17 4.10008 17ZM13.3001 6V2H16.8001C17.1001 2 17.4001 2.1 17.6001 2.4C18.4001 3.4 19.0001 4.4 19.6001 5.5C20.0001 6.2 19.5001 7 18.7001 7H14.3001C13.8001 7 13.3001 6.6 13.3001 6ZM18.0001 17C16.9001 17 16.0001 16.1 16.0001 15C16.0001 13.9 16.9001 13 18.0001 13C19.1001 13 20.0001 13.9 20.0001 15C20.0001 16.1 19.1001 17 18.0001 17Z" fill="#00AAE5"/>
</svg>
