<svg width="24" height="26" viewBox="0 0 24 26" fill="none" xmlns="http://www.w3.org/2000/svg">
<path d="M23.2193 23.4008V11.6519C23.2193 11.0387 22.7343 10.5416 22.1359 10.5416H16.9906V7.34495C16.9906 7.04303 16.8309 6.76476 16.5737 6.61773L12.396 4.23034C12.3729 4.21715 12.3491 4.20558 12.3252 4.19492V2.83251H14.5749C14.7544 2.83251 14.9 2.68334 14.9 2.49939V0.816792C14.9 0.632842 14.7544 0.483666 14.5749 0.483666H12.3252V0.333126C12.3252 0.149175 12.1798 0 12.0002 0C11.8206 0 11.6752 0.149175 11.6752 0.333126V4.19492C11.6512 4.20564 11.6274 4.21721 11.6044 4.23034L7.42657 6.6178C7.16916 6.76476 7.00962 7.04309 7.00962 7.34502V10.5416H1.86421C1.26577 10.5416 0.78075 11.0387 0.78075 11.6519V23.4007C0.320407 23.6142 0 24.0886 0 24.6399C0 25.3911 0.594253 26 1.3273 26H22.6727C23.4057 26 24 25.3911 24 24.6399C23.9999 24.0886 23.6796 23.6142 23.2193 23.4008ZM19.0311 14.4116C19.0311 14.0544 19.3137 13.7648 19.6625 13.7648H20.8427C21.1913 13.7648 21.4739 14.0544 21.4739 14.4116V15.621C21.4739 15.9782 21.1913 16.2678 20.8427 16.2678H19.6626C19.3138 16.2678 19.0312 15.9782 19.0312 15.621V14.4116H19.0311ZM19.0311 18.2975C19.0311 17.9404 19.3137 17.6508 19.6625 17.6508H20.8427C21.1913 17.6508 21.4739 17.9404 21.4739 18.2975V19.5069C21.4739 19.864 21.1913 20.1536 20.8427 20.1536H19.6626C19.3138 20.1536 19.0312 19.864 19.0312 19.5069V18.2975H19.0311ZM15.239 14.4116C15.239 14.0544 15.5214 13.7648 15.87 13.7648H17.0503C17.3987 13.7648 17.6814 14.0544 17.6814 14.4116V15.621C17.6814 15.9782 17.3987 16.2678 17.0503 16.2678H15.87C15.5214 16.2678 15.239 15.9782 15.239 15.621V14.4116ZM15.239 18.2975C15.239 17.9404 15.5214 17.6508 15.87 17.6508H17.0503C17.3987 17.6508 17.6814 17.9404 17.6814 18.2975V19.5069C17.6814 19.864 17.3987 20.1536 17.0503 20.1536H15.87C15.5214 20.1536 15.239 19.864 15.239 19.5069V18.2975ZM12 7.34755C12.9874 7.34755 13.7879 8.16773 13.7879 9.17952C13.7879 10.1913 12.9875 11.0114 12 11.0114C11.0126 11.0114 10.2122 10.1912 10.2122 9.17945C10.2122 8.16766 11.0126 7.34755 12 7.34755ZM10.2097 17.8644C10.2097 17.5072 10.4922 17.2176 10.8411 17.2176H13.159C13.5076 17.2176 13.7902 17.5072 13.7902 17.8644V22.9597C13.7902 23.0764 13.7598 23.1856 13.707 23.2801H10.2933C10.2405 23.1856 10.2099 23.0764 10.2099 22.9597L10.2097 17.8644ZM6.31844 14.4116C6.31844 14.0544 6.60098 13.7648 6.94955 13.7648H8.12981C8.47838 13.7648 8.76092 14.0544 8.76092 14.4116V15.621C8.76092 15.9782 8.47838 16.2678 8.12981 16.2678H6.94955C6.60098 16.2678 6.31844 15.9782 6.31844 15.621V14.4116ZM6.31844 18.2975C6.31844 17.9404 6.60098 17.6508 6.94955 17.6508H8.12981C8.47838 17.6508 8.76092 17.9404 8.76092 18.2975V19.5069C8.76092 19.864 8.47838 20.1536 8.12981 20.1536H6.94955C6.60098 20.1536 6.31844 19.864 6.31844 19.5069V18.2975ZM2.52589 14.4116C2.52589 14.0544 2.80843 13.7648 3.15719 13.7648H4.33732C4.68602 13.7648 4.96862 14.0544 4.96862 14.4116V15.621C4.96862 15.9782 4.68602 16.2678 4.33732 16.2678H3.15725C2.80849 16.2678 2.52596 15.9782 2.52596 15.621V14.4116H2.52589ZM2.52589 18.2975C2.52589 17.9404 2.80843 17.6508 3.15719 17.6508H4.33732C4.68602 17.6508 4.96862 17.9404 4.96862 18.2975V19.5069C4.96862 19.864 4.68602 20.1536 4.33732 20.1536H3.15725C2.80849 20.1536 2.52596 19.864 2.52596 19.5069V18.2975H2.52589Z" fill="#FF3A53"/>
</svg>
