<svg width="540" height="589" viewBox="0 0 540 589" fill="none" xmlns="http://www.w3.org/2000/svg">
<path d="M442.253 57.9109C443.933 59.4952 443.268 62.3038 441.056 62.967L421.613 68.7966C419.401 69.4596 417.301 67.4805 417.831 65.2335L422.499 45.4681C423.03 43.2197 425.796 42.39 427.477 43.9751L442.253 57.9109Z" fill="#FFE500"/>
<path opacity="0.3" d="M8.59781 21.6761C6.37929 21.0539 5.66117 18.2668 7.30284 16.65L20.4983 3.65476C22.1456 2.03244 24.9316 2.80479 25.5085 5.04372L30.1452 23.0398C30.7221 25.2787 28.6562 27.3012 26.4301 26.6769L8.59781 21.6761Z" fill="#46B2FF"/>
<path d="M344.383 274.763C345.049 274.378 345.883 274.859 345.883 275.629V318.397C345.883 319.167 345.049 319.648 344.383 319.263L307.351 297.883C306.685 297.498 306.685 296.536 307.351 296.151L344.383 274.763Z" fill="#46B2FF"/>
<path d="M316.898 302.846C317.564 303.231 317.564 304.193 316.898 304.578L309.689 308.74C309.022 309.125 308.189 308.644 308.189 307.874V299.549C308.189 298.779 309.022 298.298 309.689 298.683L316.898 302.846Z" fill="#46B2FF"/>
<path d="M298.836 546.015C300.627 544.558 303.324 545.587 303.69 547.867L309.374 583.246C309.741 585.526 307.501 587.347 305.343 586.525L271.856 573.755C269.698 572.932 269.24 570.082 271.032 568.625L298.836 546.015Z" fill="#FF3A53"/>
<path d="M93.2646 179.08C92.122 177.079 93.568 174.59 95.8721 174.592L104.137 174.599C106.449 174.6 107.89 177.107 106.728 179.106L102.562 186.276C101.4 188.275 98.5092 188.264 97.3627 186.257L93.2646 179.08Z" fill="#46B2FF"/>
<path fill-rule="evenodd" clip-rule="evenodd" d="M492.902 346.128L519.131 463.588C519.702 466.147 518.11 468.689 515.557 469.294C513.004 469.898 510.439 468.339 509.801 465.797L479.764 346.128H492.902Z" fill="#BCD9E8"/>
<path fill-rule="evenodd" clip-rule="evenodd" d="M315.139 311.962L312.901 482.757C312.867 485.378 310.733 487.484 308.113 487.484C305.492 487.484 303.359 485.378 303.325 482.757L301.087 311.962C301.052 309.294 303.205 307.11 305.875 307.11H310.35C313.02 307.11 315.174 309.294 315.139 311.962Z" fill="#A4CFE5"/>
<path fill-rule="evenodd" clip-rule="evenodd" d="M416.212 349.25L389.983 466.71C389.411 469.269 391.004 471.811 393.556 472.416C396.109 473.02 398.674 471.462 399.312 468.92L429.35 349.25H416.212Z" fill="#A4CFE5"/>
<path fill-rule="evenodd" clip-rule="evenodd" d="M175.198 440.056L213.963 286.152C218.689 286.284 223.416 286.412 228.143 286.52L184.468 442.512C183.763 445.036 181.156 446.525 178.62 445.852C176.083 445.18 174.559 442.598 175.198 440.056Z" fill="#A4CFE5"/>
<path fill-rule="evenodd" clip-rule="evenodd" d="M363.499 300.199L386.009 433.511C386.423 435.876 384.858 438.135 382.499 438.579C380.138 439.024 377.859 437.49 377.382 435.137L351.053 300.199H363.499Z" fill="#E0ECF4"/>
<path fill-rule="evenodd" clip-rule="evenodd" d="M264.325 289.497L241.816 418.126C241.402 420.492 242.966 422.751 245.327 423.195C247.687 423.64 249.967 422.105 250.442 419.752L276.771 289.497H264.325Z" fill="#E0ECF4"/>
<path fill-rule="evenodd" clip-rule="evenodd" d="M391.504 279.258C265.943 265.912 183.168 273.056 168.445 282.023C150.363 293.037 186.943 297.816 223.753 302.912C254.051 307.106 269.45 327.002 313.212 325.033C356.974 323.065 366.215 300.358 387.701 296.678C420.398 291.077 407.257 280.932 391.504 279.258Z" fill="url(#paint0_linear)"/>
<path fill-rule="evenodd" clip-rule="evenodd" d="M409.933 453.167C436.877 456.082 489.306 458.827 508.242 450.48C509.59 449.885 509.885 448.106 509.878 446.663C509.849 441.191 503.157 439.408 490.816 438.029C480.965 436.928 467.91 436.361 454.057 436.432C440.204 436.503 427.155 437.203 417.316 438.404C404.99 439.908 398.315 441.76 398.344 447.232C398.351 448.676 398.946 450.023 400.018 451.031C401.731 452.64 404.31 452.558 409.933 453.167Z" fill="#FCE88B"/>
<path fill-rule="evenodd" clip-rule="evenodd" d="M463.44 336.42L468.608 496.233C468.687 498.684 466.786 500.744 464.341 500.857C461.895 500.968 459.815 499.089 459.672 496.641L450.327 337.019C450.181 334.524 452.098 332.391 454.589 332.278L458.765 332.087C461.257 331.973 463.359 333.923 463.44 336.42Z" fill="#A4CFE5"/>
<path fill-rule="evenodd" clip-rule="evenodd" d="M392.514 279.687H336.553V287.044H395.443V282.591C395.443 280.987 394.131 279.687 392.514 279.687Z" fill="#397FB5"/>
<path fill-rule="evenodd" clip-rule="evenodd" d="M321.795 230.297L341.685 282.627L334.732 285.26L313.801 230.19L318.009 228.597C319.525 228.023 321.219 228.784 321.795 230.297Z" fill="#397FB5"/>
<path fill-rule="evenodd" clip-rule="evenodd" d="M323.073 233.534L338.338 273.936L335.535 275.004L320.269 234.602L323.073 233.534Z" fill="#FFFFFE"/>
<path fill-rule="evenodd" clip-rule="evenodd" d="M338.068 289.05H393.227C394.451 289.05 395.443 288.053 395.443 286.821C395.443 285.59 394.451 284.591 393.227 284.591H331.869C332.774 287.259 335.267 289.05 338.068 289.05Z" fill="#3A3A3A"/>
<path fill-rule="evenodd" clip-rule="evenodd" d="M332.281 286.242L312.332 232.471C312.049 231.709 312.436 230.863 313.196 230.579L314.588 230.06C315.348 229.776 316.192 230.164 316.474 230.925L337.446 287.454L336.053 287.974C334.535 288.54 332.846 287.765 332.281 286.242Z" fill="#3A3A3A"/>
<path fill-rule="evenodd" clip-rule="evenodd" d="M341.015 282.808H374.029V279.687H342.495L341.015 282.808Z" fill="#364E7D"/>
<path fill-rule="evenodd" clip-rule="evenodd" d="M411.913 151.422C406.667 156.163 403.353 160.636 403.726 167.698C404.354 179.597 411.334 188.088 420.623 193.297C424.711 195.59 425.194 206.319 423.775 213.532C421.616 224.511 429.49 239.048 443.283 242.449C470.094 249.059 482.2 233.322 487.539 221.436C493.28 208.655 490.36 193.631 480.788 183.401C467.005 168.672 451.263 146.211 429.883 144.634C422.181 144.065 416.108 147.631 411.913 151.422Z" fill="#3A3A3A"/>
<path fill-rule="evenodd" clip-rule="evenodd" d="M366.294 257.504C367.336 255.576 373.651 253.892 379.4 255.148C379.4 255.148 380.333 263.268 379.966 263.856C377.75 262.07 372.388 262.112 370.653 262.853C368.742 263.668 366.742 262.685 367.667 260.697C367.849 260.304 368.26 259.928 368.835 259.585C368.778 259.596 368.712 259.611 368.662 259.619C366.612 259.949 365.407 259.147 366.294 257.504Z" fill="#DF5455"/>
<path fill-rule="evenodd" clip-rule="evenodd" d="M364.762 258.863C365.814 260.652 367.882 258.345 370.244 258.345C373.691 258.345 377.905 260.085 377.905 261.991C377.905 263.602 373.469 264.194 371.298 263.768C367.77 263.075 365.886 264.491 366.723 266.218C367.167 267.135 368.213 267.526 370.983 268.303C374.335 269.244 379.329 273.675 389.621 276.04C396.437 277.606 403.689 280.894 415.966 281.411C443.149 282.556 457.453 266.628 458.126 265.823C454.12 262.838 444.763 253.196 443.546 252.485C430.444 272.931 401.282 267.112 395.432 264.589C391.248 262.8 387.233 255.976 379.17 253.864C370.937 251.708 363.711 257.075 364.762 258.863Z" fill="#E88273"/>
<path fill-rule="evenodd" clip-rule="evenodd" d="M410.922 182.866C413.685 187.397 409.822 191.103 411.382 192.57C412.953 194.023 415.446 193.245 416.699 194.912C417.951 196.591 418.57 201.386 422.954 205.031C424.535 206.346 426.509 206.286 427.584 206.238C427.62 206.238 427.643 206.238 427.679 206.227H427.69C428.482 206.203 429.356 206.014 430.231 205.801C430.231 205.801 430.243 205.789 430.255 205.789C432.582 205.222 435.029 204.382 436.754 205.069C437.002 205.163 437.227 205.281 437.439 205.447C437.889 205.789 438.361 206.203 438.786 206.711C440.192 208.319 440.613 216.325 440.074 220.743C439.441 225.931 437.477 231.973 437.477 231.973L461.025 210.979C461.025 210.979 450.686 208.023 447.979 201.711C447.377 200.34 447.141 198.803 447.46 197.101C448.204 193.105 448.689 188.081 448.405 183.212C448.027 176.509 446.195 170.09 441.623 167.028C426.177 156.696 407.369 163.484 407.369 163.484C404.226 175.133 409.396 180.364 410.922 182.866Z" fill="#F39986"/>
<path fill-rule="evenodd" clip-rule="evenodd" d="M427.565 206.294H427.613C428.408 206.27 429.287 206.081 430.166 205.868C430.166 205.868 430.178 205.856 430.19 205.856C432.529 205.288 434.987 204.446 436.721 205.134C436.97 205.228 437.196 205.347 437.409 205.512C437.861 205.856 438.336 206.27 438.763 206.779C439.345 205.24 441.471 203.452 447.289 201.984C447.538 201.925 447.776 201.853 448.001 201.771C455.388 199.343 452.466 190.333 448.429 183.24C446.078 179.095 443.335 175.603 442.052 174.453C438.49 171.304 437.695 173.886 437.695 173.886C445.116 187.309 439.772 203.156 427.565 206.294Z" fill="#DF5455"/>
<path fill-rule="evenodd" clip-rule="evenodd" d="M406.375 183.548C407.938 186.963 410.004 189.352 410.989 188.883C411.975 188.415 411.506 185.266 409.942 181.85C408.379 178.435 406.314 176.046 405.328 176.515C404.343 176.983 404.812 180.132 406.375 183.548Z" stroke="#FFFFFE" stroke-width="1.756"/>
<path fill-rule="evenodd" clip-rule="evenodd" d="M432.25 252.222C432.25 253.611 432.451 254.715 432.688 255.554V255.566C434.2 261.025 439.315 267.831 443.403 273.562H443.415C445.388 276.339 447.136 278.855 448.129 280.853C449.581 283.783 445.31 289.287 450.396 290.601C450.692 295.044 491.401 305.417 489.505 293.669C497.874 286.961 488.718 282.838 484.977 260.836C483.195 250.36 482.283 230.255 475.501 219.62C468.732 208.986 455.064 205.441 455.064 205.441C451.011 219.916 438.406 224.229 438.406 224.229C438.406 224.229 432.253 244.08 432.25 252.222Z" fill="#FCE88B"/>
<path fill-rule="evenodd" clip-rule="evenodd" d="M432.696 255.513C434.206 260.98 439.314 267.798 443.395 273.539H443.407C444.586 273.775 445.754 273.692 446.863 273.219C449.858 271.917 468.107 234.512 450.696 243.672C445.4 246.467 441.26 256.554 432.696 255.513Z" fill="#EDBE62"/>
<path fill-rule="evenodd" clip-rule="evenodd" d="M304.646 407.713C313.093 398.213 338.642 390.051 338.642 390.051C338.828 391.827 339.37 396.779 335.814 400.623C331.738 405.028 324.161 412.791 319.225 415.711C312.369 419.766 301.31 420.505 301.31 413.89C301.31 411.128 303.831 408.628 304.646 407.713Z" fill="#FFFFFE"/>
<path fill-rule="evenodd" clip-rule="evenodd" d="M333.859 381.431C336.754 382.368 337.571 383.872 338.199 386.677C339.997 394.696 337.399 398.048 333.91 401.126C330.307 404.306 323.113 412.07 316.536 414.628C305.732 418.832 301.723 415.715 302.824 410.391C303.217 408.493 304.292 406.795 305.692 405.453C312.245 399.17 314.938 396.244 321.107 390.543C323.6 388.24 331.024 380.513 333.859 381.431Z" fill="#FF3A53"/>
<path fill-rule="evenodd" clip-rule="evenodd" d="M314.916 415.234C310.265 410.979 306.199 406.185 306.31 404.989C306.31 404.989 300.199 410.969 301.799 413.855C305.245 420.076 314.916 415.234 314.916 415.234Z" fill="#FFFFFE"/>
<path fill-rule="evenodd" clip-rule="evenodd" d="M429.013 417.029C429.013 417.029 433.152 427.429 433.843 429.008C434.535 430.588 438.471 433.87 437.736 439.077C437.16 443.163 414.182 446.236 414.182 446.236C414.182 446.236 422.85 435.272 422.629 431.524C422.476 428.907 418.825 420.136 418.825 420.136L429.013 417.029Z" fill="#FFFFFE"/>
<path fill-rule="evenodd" clip-rule="evenodd" d="M417.576 426.054C417.576 426.054 428.337 427.992 431.885 424.671C431.885 424.671 425.119 390.056 421.438 375.954C417.438 360.657 409.744 343.625 409.744 343.625C409.744 343.625 411.89 343.201 415.062 343.153C423.217 343.07 439.476 343.141 453.229 341.652C458.496 341.097 463.372 340.365 467.207 339.432C484.96 335.109 436.825 311.486 416.314 310.305C405.129 309.666 396.879 313.34 391.683 316.824C387.339 319.73 385.138 322.506 385.138 322.506C384.866 323.014 384.629 323.545 384.44 324.1C377.883 341.25 398.013 381.607 417.576 426.054Z" fill="#364E7D"/>
<path fill-rule="evenodd" clip-rule="evenodd" d="M383.401 330.872C391.391 316.068 423.294 333.591 409.847 343.675C419.503 342.385 439.529 343.19 453.259 341.695C453.508 340.866 453.508 339.929 453.223 338.874C449.7 325.907 422.393 316.071 401.681 315.163C385.651 314.459 383.631 328.215 383.41 330.482C383.39 330.683 383.401 330.872 383.401 330.872Z" fill="#37315A"/>
<path fill-rule="evenodd" clip-rule="evenodd" d="M436.711 432.773C436.711 432.773 436.019 430.315 435.102 430.96C434.028 431.715 428.863 433.937 426.865 434.303C424.866 434.669 422.071 435.046 421.145 434.534C420.219 434.021 419.535 436.933 419.535 436.933C419.535 436.933 423.096 438.109 427.827 437.189C432.158 436.347 436.711 432.773 436.711 432.773Z" fill="#FFFFFE"/>
<path fill-rule="evenodd" clip-rule="evenodd" d="M397.229 465.759C397.726 466.512 398.33 466.749 398.33 466.749L443.175 447.169C443.175 447.169 443.613 437.327 436.699 432.636C436.699 432.636 430.365 436.09 426.116 436.455C421.297 436.868 419.947 435.571 419.947 435.571C419.947 435.571 419.072 438.33 416.929 441.653C416.739 441.971 416.514 442.301 416.277 442.631C415.922 443.15 415.532 443.681 415.093 444.211C414.857 444.529 414.584 444.847 414.312 445.154C413.85 445.697 413.342 446.226 412.809 446.722C412.525 447.016 412.217 447.299 411.909 447.547C411.708 447.735 411.507 447.912 411.305 448.077C411.068 448.36 410.784 448.655 410.464 448.95C410.181 449.209 409.873 449.468 409.542 449.739C407.943 451.036 405.883 452.356 404.06 453.618C400.876 455.809 397.703 458.061 396.945 460.749C396.211 463.365 396.649 464.897 397.229 465.759Z" fill="#FF3A53"/>
<path fill-rule="evenodd" clip-rule="evenodd" d="M397.449 465.857L409.72 461.114C409.72 461.114 408.168 457.54 404.257 453.594C401.083 455.808 397.922 458.082 397.166 460.797C396.434 463.44 396.871 464.987 397.449 465.857Z" fill="#FFFFFE"/>
<path fill-rule="evenodd" clip-rule="evenodd" d="M398.545 468.533L445.188 447.892L443.648 444.453L397.005 465.094L398.545 468.533Z" fill="#FFFFFE"/>
<path fill-rule="evenodd" clip-rule="evenodd" d="M488.533 338.445C446.44 337.316 411.933 337.118 412.861 345.294C413.791 353.487 417.401 354.377 452.275 354.574C487.149 354.771 498.971 354.031 499.365 347.719C499.759 341.407 496.015 338.646 488.533 338.445Z" fill="#FCE88B"/>
<path fill-rule="evenodd" clip-rule="evenodd" d="M409.72 449.899C410.197 450.264 410.792 450.777 411.375 451.405C411.491 451.53 411.655 451.587 411.818 451.587C411.946 451.587 412.085 451.541 412.202 451.439C412.447 451.233 412.458 450.868 412.249 450.641C411.689 450.035 411.118 449.523 410.628 449.135C410.349 449.385 410.046 449.636 409.72 449.899Z" fill="#FFFFFE"/>
<path fill-rule="evenodd" clip-rule="evenodd" d="M411.951 447.726C412.501 448.09 413.393 448.747 414.237 449.616C414.359 449.745 414.519 449.804 414.69 449.804C414.836 449.804 414.983 449.757 415.106 449.651C415.35 449.428 415.362 449.064 415.13 448.818C414.311 447.973 413.479 447.327 412.88 446.905C412.586 447.198 412.268 447.48 411.951 447.726Z" fill="#FFFFFE"/>
<path fill-rule="evenodd" clip-rule="evenodd" d="M414.405 445.178C415.016 445.462 415.896 445.924 416.776 446.564C416.886 446.647 417.008 446.683 417.143 446.683C417.326 446.683 417.51 446.599 417.632 446.446C417.828 446.185 417.779 445.818 417.51 445.616C416.666 445.012 415.86 444.549 415.211 444.23C414.968 444.549 414.686 444.87 414.405 445.178Z" fill="#FFFFFE"/>
<path fill-rule="evenodd" clip-rule="evenodd" d="M416.413 442.716C416.967 443 417.663 443.396 418.372 443.894C418.478 443.973 418.596 444.007 418.726 444.007C418.903 444.007 419.08 443.928 419.198 443.781C419.386 443.532 419.339 443.181 419.08 442.989C418.348 442.468 417.64 442.06 417.062 441.777C416.873 442.083 416.649 442.399 416.413 442.716Z" fill="#FFFFFE"/>
<path fill-rule="evenodd" clip-rule="evenodd" d="M316.112 407.888C316.309 407.888 316.502 407.785 316.614 407.602C316.784 407.32 316.698 406.951 316.421 406.778C313.328 404.842 311.574 401.755 311.556 401.723C311.395 401.437 311.036 401.337 310.753 401.5C310.47 401.663 310.371 402.03 310.533 402.318C310.61 402.455 312.456 405.703 315.803 407.798C315.9 407.859 316.006 407.888 316.112 407.888Z" fill="#FFFFFE"/>
<path fill-rule="evenodd" clip-rule="evenodd" d="M318.564 405.658C318.762 405.658 318.956 405.556 319.067 405.372C319.238 405.091 319.15 404.721 318.874 404.548C315.792 402.619 314.026 399.526 314.009 399.494C313.848 399.208 313.487 399.107 313.206 399.272C312.923 399.435 312.825 399.801 312.986 400.088C313.063 400.225 314.91 403.474 318.256 405.569C318.353 405.629 318.459 405.658 318.564 405.658Z" fill="#FFFFFE"/>
<path fill-rule="evenodd" clip-rule="evenodd" d="M321.242 403.651C321.44 403.651 321.633 403.55 321.743 403.365C321.914 403.084 321.828 402.715 321.551 402.541C318.468 400.612 316.703 397.517 316.685 397.487C316.524 397.2 316.164 397.101 315.882 397.265C315.6 397.428 315.501 397.794 315.663 398.082C315.74 398.219 317.587 401.467 320.934 403.563C321.03 403.623 321.136 403.651 321.242 403.651Z" fill="#FFFFFE"/>
<path fill-rule="evenodd" clip-rule="evenodd" d="M323.696 400.976C323.893 400.976 324.086 400.874 324.198 400.69C324.368 400.409 324.282 400.039 324.004 399.866C320.922 397.938 319.157 394.844 319.14 394.812C318.979 394.525 318.618 394.425 318.336 394.59C318.054 394.753 317.956 395.118 318.117 395.407C318.193 395.544 320.041 398.793 323.388 400.887C323.484 400.948 323.591 400.976 323.696 400.976Z" fill="#FFFFFE"/>
<path fill-rule="evenodd" clip-rule="evenodd" d="M375.785 268.479C383.816 268.695 388.624 271.197 393.036 272.325C401.908 274.592 433.664 274.888 439.761 262.415C445.926 249.807 452.38 214.939 466.835 217.628C473.841 218.932 478.207 235.645 473.672 245.308C471.307 250.348 467.757 248.66 467.757 248.66C467.757 248.66 456.028 279.621 441.702 285.537C419.736 294.609 396.162 283.316 389.487 282.751C388.14 282.638 386.947 282.442 385.882 282.193C382.526 281.409 379.048 281.772 375.822 282.983C374.647 283.423 373.713 283.483 373.092 282.677C372.128 281.426 374.528 279.567 377.003 278.094C376.612 277.927 376.232 277.809 375.845 277.771C373.12 277.509 369.34 283.065 367.455 280.163C365.731 277.509 374.238 273.23 374.238 273.23C374.238 273.23 371.004 273.248 369.181 274.198C367.078 275.292 365.139 279.029 363.592 277.649C362.046 276.269 367.274 268.25 375.785 268.479Z" fill="#F39986"/>
<path fill-rule="evenodd" clip-rule="evenodd" d="M338.454 386.002C339.534 390.841 332.195 395.891 328.108 393.803C323.986 391.697 324.71 388.38 324.905 387.504C325.251 385.947 327.474 383.162 330.256 382.23C336.291 380.207 338.454 386.002 338.454 386.002Z" fill="#FFFFFE"/>
<path fill-rule="evenodd" clip-rule="evenodd" d="M342.809 360.621C342.809 360.621 331.146 380.033 326.804 386.141C324.446 390.387 328.134 393.891 332.597 392.361C334.088 391.85 335.317 390.781 336.213 389.479C340.948 382.594 354.176 365.476 354.176 365.476L342.809 360.621Z" fill="#FFFFFE"/>
<path fill-rule="evenodd" clip-rule="evenodd" d="M330.789 378.198C328.522 384.705 341.978 385.592 341.978 385.592C379.63 349.106 380.299 326.489 391.529 323.531C407.699 320.774 437.449 345.364 470.18 342.015C502.9 338.668 496.985 318.745 489.591 293.711C488.172 295.426 473.007 298.443 450.389 290.612C450.189 291.842 449.396 297.332 448.415 298.018C447.693 298.527 446.794 298.786 445.859 298.715C445.776 298.704 445.694 298.692 445.611 298.68C422.863 295.226 389.633 295.119 382.049 298.419C358.891 308.495 330.789 378.198 330.789 378.198Z" fill="#364E7D"/>
<path fill-rule="evenodd" clip-rule="evenodd" d="M418.232 181.657C418.906 183.029 420.035 183.86 420.755 183.512C421.474 183.164 421.511 181.77 420.837 180.398C420.163 179.025 419.034 178.195 418.315 178.542C417.596 178.89 417.559 180.284 418.232 181.657Z" fill="#37315A"/>
<path fill-rule="evenodd" clip-rule="evenodd" d="M421.766 178.246C417.301 176.576 416.279 178.169 416.748 179.654C416.883 180.081 415.839 180.59 414.851 179.927C414.851 179.927 416.046 180.133 416.277 179.499C416.392 179.184 415.204 177.938 416.551 177.029C419.224 175.228 421.766 178.246 421.766 178.246Z" fill="#37315A"/>
<path fill-rule="evenodd" clip-rule="evenodd" d="M448.416 298.13C452.442 297.712 460.589 297.863 468.653 301.667C469.233 301.945 469.447 302.653 469.139 303.198C468.926 303.558 468.546 303.766 468.144 303.766C467.978 303.766 467.812 303.732 467.646 303.65C465.326 302.502 447.397 299.684 445.857 298.813C446.794 298.883 447.693 298.628 448.416 298.13Z" fill="#37315A"/>
<path fill-rule="evenodd" clip-rule="evenodd" d="M395.887 319.454C399.662 320.881 392.674 324.571 392.674 324.571L388.083 325.17C393.986 321.426 394.363 318.879 395.887 319.454Z" fill="#37315A"/>
<path fill-rule="evenodd" clip-rule="evenodd" d="M409.412 172.293C420.176 177.678 432.964 181.287 438.73 176.524C446.64 188.814 432.528 214.794 454.808 214.005C468.648 214.005 473.34 218.032 479.777 235.14C493.077 270.486 537.779 261.517 539.45 240.266C540.798 223.133 527.549 219.542 525.585 209.893C523.715 200.711 525.752 197.82 525.752 187.707C525.752 173.051 512.954 164.48 497.628 165.41C478.742 166.556 464.339 158.243 454.982 148.222C449.038 141.855 438.294 138.086 430.264 139.191C408.989 142.117 401.519 158.139 402.702 165.625C403.248 169.085 406.009 170.59 409.412 172.293Z" fill="#3A3A3A"/>
<path fill-rule="evenodd" clip-rule="evenodd" d="M419.756 197.415C420.1 197.415 423.14 197.306 426.917 193.647C427.179 193.393 427.187 192.975 426.935 192.712C426.681 192.449 426.266 192.441 426.003 192.695C422.53 196.06 419.815 196.092 419.756 196.092C419.755 196.092 419.752 196.092 419.749 196.092C419.391 196.092 419.095 196.381 419.089 196.742C419.083 197.105 419.366 197.406 419.728 197.415C419.733 197.415 419.742 197.415 419.756 197.415Z" fill="#DF5455"/>
<path fill-rule="evenodd" clip-rule="evenodd" d="M424.074 180.47C430.058 179.073 440.936 173.851 441.396 173.63L440.825 172.443C440.715 172.497 429.618 177.824 423.774 179.188L424.074 180.47Z" fill="#FFFFFE"/>
<path fill-rule="evenodd" clip-rule="evenodd" d="M434.258 176.902C434.258 180.104 436.854 182.699 440.058 182.699C443.26 182.699 445.857 180.104 445.857 176.902C445.857 173.701 443.26 171.105 440.058 171.105C436.854 171.105 434.258 173.701 434.258 176.902Z" fill="#F39986"/>
<path fill-rule="evenodd" clip-rule="evenodd" d="M438.754 180.47C437.332 180.47 439.308 173.211 441.511 174.939C442.093 175.395 440.145 176.656 439.853 177.56C439.349 179.119 439.761 180.47 438.754 180.47Z" fill="#DF5455"/>
<path fill-rule="evenodd" clip-rule="evenodd" d="M412.602 175.896C415.826 173.348 422.623 173.868 421.94 172.974C421.588 172.511 419.02 171.425 415.219 172.374C410.418 173.573 411.666 176.637 412.602 175.896Z" fill="#37315A"/>
<path fill-rule="evenodd" clip-rule="evenodd" d="M414.36 184.145C416.398 187.91 420.118 189.866 422.668 188.513C425.218 187.161 425.633 183.012 423.595 179.247C421.556 175.482 417.837 173.525 415.287 174.878C412.737 176.231 412.322 180.38 414.36 184.145Z" stroke="#FFFFFE" stroke-width="1.756"/>
<path fill-rule="evenodd" clip-rule="evenodd" d="M411.615 184.706C411.618 184.706 412.245 184.069 414.182 184.028L414.155 182.699C411.575 182.754 410.703 183.749 410.613 183.862L411.615 184.706Z" fill="#FFFFFE"/>
<path fill-rule="evenodd" clip-rule="evenodd" d="M268.741 197.08C268.741 209.702 281.774 219.933 297.851 219.933C313.929 219.933 326.962 209.702 326.962 197.08C326.962 184.459 313.929 174.227 297.851 174.227C281.774 174.227 268.741 184.459 268.741 197.08Z" fill="#BCE4F5"/>
<path fill-rule="evenodd" clip-rule="evenodd" d="M314.058 208.117L319.074 219.543C319.433 220.36 318.521 221.153 317.755 220.687L301.309 210.695L314.058 208.117Z" fill="#BCE4F5"/>
<path fill-rule="evenodd" clip-rule="evenodd" d="M307.332 199.867C307.332 201.221 308.43 202.32 309.786 202.32C311.141 202.32 312.239 201.221 312.239 199.867C312.239 198.512 311.141 197.415 309.786 197.415C308.43 197.415 307.332 198.512 307.332 199.867Z" fill="white"/>
<path fill-rule="evenodd" clip-rule="evenodd" d="M295.063 200.536C295.063 202.26 296.46 203.657 298.186 203.657C299.91 203.657 301.309 202.26 301.309 200.536C301.309 198.812 299.91 197.415 298.186 197.415C296.46 197.415 295.063 198.812 295.063 200.536Z" fill="white"/>
<path fill-rule="evenodd" clip-rule="evenodd" d="M283.464 195.073C283.464 197.105 285.112 198.753 287.145 198.753C289.177 198.753 290.825 197.105 290.825 195.073C290.825 193.042 289.177 191.395 287.145 191.395C285.112 191.395 283.464 193.042 283.464 195.073Z" fill="white"/>
<path fill-rule="evenodd" clip-rule="evenodd" d="M260.711 269.541C260.711 270.465 266.054 271.214 272.645 271.214C279.236 271.214 284.579 270.465 284.579 269.541C284.579 268.618 279.236 267.869 272.645 267.869C266.054 267.869 260.711 268.618 260.711 269.541Z" fill="#C63346"/>
<path fill-rule="evenodd" clip-rule="evenodd" d="M258.926 255.039V257.029C258.926 259.313 260.035 261.351 261.764 262.639C262.17 262.943 262.611 263.201 263.076 263.424C263.995 263.845 265.032 264.079 266.117 264.079H268.813C268.896 264.079 268.98 264.079 269.051 264.055C270.124 263.939 270.972 263.049 270.972 261.96C270.972 261.234 270.59 260.589 270.005 260.203C269.659 259.981 269.254 259.852 268.813 259.852H266.117C265.701 259.852 265.306 259.758 264.948 259.594C263.935 259.161 263.244 258.177 263.244 257.029V255.039C263.244 253.88 262.276 252.931 261.084 252.931C259.892 252.931 258.926 253.88 258.926 255.039Z" fill="#26AF75"/>
<path fill-rule="evenodd" clip-rule="evenodd" d="M263.165 263.428C264.081 263.846 265.116 264.079 266.197 264.079H268.885C268.968 264.079 269.051 264.079 269.122 264.056C270.015 262.985 270.11 261.343 270.074 260.226C269.729 260.005 269.325 259.877 268.885 259.877H266.197C265.782 259.877 265.389 259.784 265.032 259.62C265.353 261.797 264.283 263.043 263.165 263.428Z" fill="#229C69"/>
<path fill-rule="evenodd" clip-rule="evenodd" d="M286.587 255.039V257.029C286.587 259.313 285.477 261.351 283.748 262.639C283.343 262.943 282.902 263.201 282.437 263.424C281.518 263.845 280.481 264.079 279.395 264.079H276.7C276.617 264.079 276.534 264.079 276.461 264.055C275.389 263.939 274.541 263.049 274.541 261.96C274.541 261.234 274.923 260.589 275.508 260.203C275.854 259.981 276.26 259.852 276.7 259.852H279.395C279.813 259.852 280.206 259.758 280.564 259.594C281.578 259.161 282.269 258.177 282.269 257.029V255.039C282.269 253.88 283.235 252.931 284.428 252.931C285.62 252.931 286.587 253.88 286.587 255.039Z" fill="#26AF75"/>
<path fill-rule="evenodd" clip-rule="evenodd" d="M282.571 263.428C281.655 263.846 280.621 264.079 279.538 264.079H276.851C276.768 264.079 276.685 264.079 276.613 264.056C275.721 262.985 275.626 261.343 275.662 260.226C276.007 260.005 276.412 259.877 276.851 259.877H279.538C279.955 259.877 280.347 259.784 280.704 259.62C280.383 261.797 281.453 263.043 282.571 263.428Z" fill="#229C69"/>
<path fill-rule="evenodd" clip-rule="evenodd" d="M272.756 278.571H272.757C276.452 278.571 279.448 275.583 279.448 271.897V250.242C279.448 246.555 276.452 243.567 272.756 243.567C269.061 243.567 266.064 246.555 266.064 250.242V271.897C266.064 275.583 269.061 278.571 272.756 278.571Z" fill="#2EB5BB"/>
<path fill-rule="evenodd" clip-rule="evenodd" d="M266.064 250.24V271.887C266.064 275.584 269.061 278.571 272.756 278.571C276.452 278.571 279.448 275.584 279.448 271.887V250.24C279.448 246.555 276.452 243.567 272.756 243.567C270.908 243.567 269.239 244.311 268.03 245.516C266.811 246.733 266.064 248.398 266.064 250.24Z" fill="#239C69"/>
<path fill-rule="evenodd" clip-rule="evenodd" d="M266.064 250.215V261.062C266.064 264.732 269.061 266.532 272.756 266.532C276.452 266.532 279.448 264.732 279.448 261.062V250.215C279.448 246.543 276.452 243.567 272.756 243.567C270.908 243.567 269.239 244.308 268.03 245.509C266.811 246.721 266.064 248.379 266.064 250.215Z" fill="#26AF75"/>
<path fill-rule="evenodd" clip-rule="evenodd" d="M277.898 248.026C278.073 248.026 278.246 247.96 278.379 247.827L279.695 246.511C279.961 246.246 279.961 245.816 279.695 245.55C279.429 245.284 278.999 245.284 278.733 245.549L277.417 246.865C277.151 247.13 277.151 247.561 277.417 247.827C277.55 247.959 277.724 248.026 277.898 248.026Z" fill="#FFFFFE"/>
<path fill-rule="evenodd" clip-rule="evenodd" d="M267.614 248.026C267.789 248.026 267.963 247.959 268.096 247.827C268.361 247.561 268.361 247.13 268.096 246.865L266.78 245.549C266.514 245.284 266.084 245.284 265.817 245.55C265.552 245.816 265.552 246.246 265.817 246.511L267.133 247.827C267.266 247.96 267.441 248.026 267.614 248.026Z" fill="#FFFFFE"/>
<path fill-rule="evenodd" clip-rule="evenodd" d="M266.95 254.715C267.242 254.715 267.51 254.535 267.598 254.257C267.704 253.918 267.501 253.561 267.143 253.459L265.372 252.958C265.012 252.857 264.638 253.05 264.531 253.389C264.425 253.728 264.628 254.086 264.986 254.187L266.757 254.689C266.822 254.707 266.886 254.715 266.95 254.715Z" fill="#FFFFFE"/>
<path fill-rule="evenodd" clip-rule="evenodd" d="M285.708 256.276C285.842 256.276 285.978 256.24 286.096 256.165L287.631 255.188C287.94 254.991 288.018 254.601 287.803 254.317C287.589 254.032 287.164 253.961 286.853 254.158L285.319 255.135C285.009 255.332 284.931 255.722 285.147 256.006C285.28 256.182 285.492 256.276 285.708 256.276Z" fill="#FFFFFE"/>
<path fill-rule="evenodd" clip-rule="evenodd" d="M286.379 261.181C286.616 261.181 286.846 261.045 286.961 260.807C287.126 260.469 286.998 260.055 286.677 259.883L285.084 259.027C284.762 258.854 284.369 258.988 284.205 259.326C284.041 259.664 284.168 260.077 284.49 260.25L286.082 261.106C286.177 261.157 286.279 261.181 286.379 261.181Z" fill="#FFFFFE"/>
<path fill-rule="evenodd" clip-rule="evenodd" d="M259.804 256.276C260.02 256.276 260.233 256.182 260.365 256.006C260.581 255.722 260.503 255.332 260.194 255.135L258.659 254.158C258.349 253.961 257.925 254.032 257.709 254.317C257.494 254.601 257.572 254.991 257.881 255.188L259.416 256.165C259.534 256.24 259.67 256.276 259.804 256.276Z" fill="#FFFFFE"/>
<path fill-rule="evenodd" clip-rule="evenodd" d="M258.911 261.181C259.01 261.181 259.112 261.157 259.208 261.106L260.8 260.25C261.122 260.077 261.249 259.663 261.084 259.325C260.92 258.989 260.527 258.854 260.205 259.026L258.613 259.882C258.291 260.055 258.164 260.469 258.328 260.807C258.444 261.045 258.673 261.181 258.911 261.181Z" fill="#FFFFFE"/>
<path fill-rule="evenodd" clip-rule="evenodd" d="M278.563 254.715C278.627 254.715 278.691 254.707 278.756 254.689L280.527 254.187C280.885 254.086 281.088 253.728 280.981 253.389C280.876 253.05 280.501 252.857 280.14 252.958L278.37 253.459C278.012 253.561 277.808 253.918 277.915 254.257C278.002 254.535 278.271 254.715 278.563 254.715Z" fill="#FFFFFE"/>
<path fill-rule="evenodd" clip-rule="evenodd" d="M264.953 262.073C265.014 262.073 265.076 262.065 265.138 262.048L266.912 261.562C267.271 261.464 267.478 261.105 267.377 260.761C267.275 260.416 266.903 260.216 266.544 260.314L264.769 260.8C264.411 260.898 264.203 261.257 264.305 261.602C264.39 261.887 264.66 262.073 264.953 262.073Z" fill="#FFFFFE"/>
<path fill-rule="evenodd" clip-rule="evenodd" d="M264.961 269.43C265.135 269.43 265.309 269.364 265.442 269.231L266.758 267.915C267.023 267.65 267.023 267.219 266.758 266.953C266.492 266.689 266.061 266.689 265.795 266.954L264.48 268.269C264.214 268.535 264.214 268.966 264.48 269.231C264.613 269.364 264.787 269.43 264.961 269.43Z" fill="#FFFFFE"/>
<path fill-rule="evenodd" clip-rule="evenodd" d="M280.557 262.073C280.852 262.073 281.122 261.887 281.206 261.602C281.309 261.257 281.1 260.898 280.742 260.8L278.969 260.314C278.608 260.216 278.238 260.416 278.135 260.76C278.033 261.104 278.241 261.464 278.599 261.562L280.373 262.048C280.434 262.065 280.497 262.073 280.557 262.073Z" fill="#FFFFFE"/>
<path fill-rule="evenodd" clip-rule="evenodd" d="M280.329 269.876C280.503 269.876 280.678 269.81 280.811 269.678C281.076 269.412 281.076 268.981 280.811 268.716L279.495 267.4C279.229 267.135 278.799 267.134 278.532 267.4C278.266 267.665 278.266 268.096 278.532 268.362L279.848 269.677C279.981 269.81 280.155 269.876 280.329 269.876Z" fill="#FFFFFE"/>
<path fill-rule="evenodd" clip-rule="evenodd" d="M272.757 245.351C273.127 245.351 273.426 245.056 273.426 244.692V242.889C273.426 242.525 273.127 242.229 272.757 242.229C272.387 242.229 272.087 242.525 272.087 242.889V244.692C272.087 245.056 272.387 245.351 272.757 245.351Z" fill="#FFFFFE"/>
<path fill-rule="evenodd" clip-rule="evenodd" d="M272.757 250.925C273.127 250.925 273.426 250.63 273.426 250.265V248.463C273.426 248.098 273.127 247.803 272.757 247.803C272.387 247.803 272.087 248.098 272.087 248.463V250.265C272.087 250.63 272.387 250.925 272.757 250.925Z" fill="#FFFFFE"/>
<path fill-rule="evenodd" clip-rule="evenodd" d="M272.757 260.512C273.126 260.512 273.426 260.217 273.426 259.853V258.05C273.426 257.686 273.126 257.391 272.757 257.391C272.386 257.391 272.087 257.686 272.087 258.05V259.853C272.087 260.217 272.386 260.512 272.757 260.512Z" fill="#FFFFFE"/>
<path fill-rule="evenodd" clip-rule="evenodd" d="M275.4 255.384C275.64 255.384 275.869 255.246 275.977 255.01L276.712 253.406C276.86 253.082 276.723 252.698 276.404 252.546C276.085 252.395 275.708 252.535 275.558 252.86L274.824 254.463C274.675 254.788 274.813 255.172 275.132 255.323C275.219 255.365 275.31 255.384 275.4 255.384Z" fill="#FFFFFE"/>
<path fill-rule="evenodd" clip-rule="evenodd" d="M270.336 255.384C270.426 255.384 270.517 255.365 270.604 255.323C270.922 255.172 271.061 254.788 270.912 254.463L270.177 252.859C270.029 252.535 269.651 252.395 269.332 252.546C269.014 252.697 268.875 253.082 269.024 253.406L269.758 255.01C269.866 255.246 270.096 255.384 270.336 255.384Z" fill="#FFFFFE"/>
<path fill-rule="evenodd" clip-rule="evenodd" d="M275.4 264.971C275.64 264.971 275.869 264.833 275.977 264.598L276.712 262.993C276.86 262.669 276.723 262.284 276.404 262.133C276.085 261.982 275.706 262.123 275.558 262.447L274.824 264.051C274.675 264.375 274.813 264.76 275.132 264.911C275.219 264.952 275.31 264.971 275.4 264.971Z" fill="#FFFFFE"/>
<path fill-rule="evenodd" clip-rule="evenodd" d="M270.336 264.971C270.426 264.971 270.517 264.952 270.604 264.911C270.922 264.76 271.061 264.375 270.912 264.051L270.177 262.447C270.029 262.123 269.651 261.983 269.332 262.133C269.014 262.284 268.875 262.669 269.024 262.993L269.758 264.598C269.866 264.833 270.096 264.971 270.336 264.971Z" fill="#FFFFFE"/>
<path fill-rule="evenodd" clip-rule="evenodd" d="M274.284 271.437C274.524 271.437 274.753 271.299 274.862 271.063L275.596 269.459C275.745 269.136 275.607 268.75 275.289 268.599C274.97 268.449 274.592 268.589 274.443 268.912L273.708 270.516C273.56 270.841 273.698 271.225 274.016 271.377C274.103 271.418 274.195 271.437 274.284 271.437Z" fill="#FFFFFE"/>
<path fill-rule="evenodd" clip-rule="evenodd" d="M271.451 271.437C271.541 271.437 271.632 271.418 271.719 271.377C272.037 271.225 272.176 270.841 272.027 270.516L271.292 268.912C271.144 268.588 270.766 268.449 270.447 268.599C270.129 268.75 269.99 269.135 270.139 269.459L270.874 271.063C270.982 271.299 271.212 271.437 271.451 271.437Z" fill="#FFFFFE"/>
<path fill-rule="evenodd" clip-rule="evenodd" d="M272.645 290.611C279.236 290.611 284.579 285.238 284.579 278.61V269.452C282.148 271.503 263.216 271.806 260.711 269.43V278.61C260.711 285.238 266.054 290.611 272.645 290.611Z" fill="#FF3A53"/>
<path fill-rule="evenodd" clip-rule="evenodd" d="M471.726 241.35C471.581 243.845 467.941 248.472 467.941 248.472C469.989 239.076 471.87 238.855 471.726 241.35Z" fill="#E36666"/>
<defs>
<linearGradient id="paint0_linear" x1="342.5" y1="278" x2="286" y2="321.5" gradientUnits="userSpaceOnUse">
<stop stop-color="#A4CEE5"/>
<stop offset="1" stop-color="#CEE7F4"/>
</linearGradient>
</defs>
</svg>
