<svg width="43" height="43" viewBox="0 0 43 43" fill="none" xmlns="http://www.w3.org/2000/svg">
<path d="M21.4999 0C33.3732 0 43 9.62662 43 21.5001C43 33.3735 33.3734 43 21.5001 43C9.62677 43 0 33.3734 0 21.5001C0 9.62677 9.62529 0 21.4999 0Z" fill="#3F729B"/>
<path d="M28.9199 9.40356H14.0783C11.4996 9.40356 9.40332 11.5012 9.40332 14.0785V28.9216C9.40332 31.5003 11.5009 33.5965 14.0783 33.5965H28.9214C31.5 33.5965 33.5963 31.4989 33.5963 28.9216V14.0785C33.5961 11.5012 31.4985 9.40356 28.9199 9.40356ZM30.3927 12.1086L30.9221 12.1072V16.1224L26.8775 16.1358L26.864 12.1207L30.3927 12.1086ZM21.4998 17.4526C24.8552 17.4526 25.5471 20.6023 25.5471 21.5012C25.5471 23.7305 23.7304 25.5472 21.4998 25.5472C19.2679 25.5472 17.4525 23.7305 17.4525 21.5012C17.451 20.6023 18.1445 17.4526 21.4998 17.4526ZM30.945 28.6286C30.945 29.9066 29.9063 30.9466 28.6257 30.9466H14.3281C13.0489 30.9466 12.0088 29.9079 12.0088 28.6286V18.8072H15.3682C15.0564 19.5744 14.8803 20.6225 14.8803 21.5014C14.8803 25.1484 17.8473 28.1167 21.4957 28.1167C25.144 28.1167 28.1095 25.1484 28.1095 21.5014C28.1095 20.6225 27.9334 19.5744 27.623 18.8072H30.9421V28.6286H30.945Z" fill="white"/>
</svg>
