<svg width="154" height="56" viewBox="0 0 154 56" fill="none" xmlns="http://www.w3.org/2000/svg">
<path d="M1.49999 15.5457C0.833325 15.1608 0 15.6419 0 16.4117V24.4664C0 25.2361 0.833174 25.7173 1.49984 25.3325L8.47696 21.306C9.14377 20.9212 9.14386 19.9588 8.47712 19.5739L1.49999 15.5457Z" fill="#FF3A53"/>
<path d="M2.33229 26.7767C1.66581 27.1616 1.66581 28.1236 2.33228 28.5085L9.31033 32.5389C9.977 32.9239 10.8105 32.4428 10.8105 31.6729V23.6123C10.8105 22.8424 9.977 22.3613 9.31033 22.7463L2.33229 26.7767Z" fill="#FF3A53"/>
<path d="M2.33259 12.3732C1.66605 12.7581 1.66613 13.7203 2.33274 14.1051L9.31049 18.1337C9.97715 18.5186 10.8105 18.0374 10.8105 17.2676V9.20895C10.8105 8.43907 9.977 7.95796 9.31033 8.34301L2.33259 12.3732Z" fill="#FF3A53"/>
<path d="M13.9727 8.34275C13.306 7.95779 12.4727 8.43892 12.4727 9.20875V17.2678C12.4727 18.0376 13.3059 18.5187 13.9726 18.1339L20.9523 14.1052C21.619 13.7204 21.6191 12.7581 20.9524 12.3731L13.9727 8.34275Z" fill="#FFE500"/>
<path d="M13.9727 22.7461C13.306 22.3611 12.4727 22.8422 12.4727 23.6121V31.6731C12.4727 32.443 13.306 32.9241 13.9727 32.5391L20.9528 28.5086C21.6193 28.1237 21.6193 27.1615 20.9528 26.7766L13.9727 22.7461Z" fill="#FF3A53"/>
<path d="M13.9726 37.149C13.3059 36.7642 12.4727 37.2453 12.4727 38.015V46.0721C12.4727 46.8419 13.3059 47.323 13.9726 46.9382L20.952 42.9097C21.6188 42.5248 21.6188 41.5624 20.952 41.1775L13.9726 37.149Z" fill="#FF3A53"/>
<path d="M14.8051 48.3801C14.1386 48.7652 14.1389 49.7274 14.8055 50.1121L21.7833 54.139C22.4499 54.5237 23.2831 54.0426 23.2831 53.2729V45.2142C23.2831 44.4442 22.4495 43.9631 21.7828 44.3483L14.8051 48.3801Z" fill="#46B2FF"/>
<path d="M14.8052 33.9777C14.1387 34.3626 14.1388 35.3248 14.8054 35.7096L21.7831 39.7381C22.4498 40.123 23.2831 39.6419 23.2831 38.8721V30.8134C23.2831 30.0436 22.4496 29.5625 21.783 29.9475L14.8052 33.9777Z" fill="#46B2FF"/>
<path d="M2.27497 41.1359C1.60843 41.5208 1.60851 42.483 2.27512 42.8678L9.25285 46.8963C9.91952 47.2812 10.7528 46.8001 10.7528 46.0303V37.9716C10.7528 37.2018 9.91937 36.7207 9.2527 37.1057L2.27497 41.1359Z" fill="#FF3A53"/>
<path d="M14.806 19.5739C14.1393 19.9588 14.1393 20.9212 14.8062 21.306L21.7833 25.3325C22.4499 25.7173 23.2831 25.2361 23.2831 24.4664V16.4117C23.2831 15.6419 22.4498 15.1608 21.7831 15.5457L14.806 19.5739Z" fill="#FF3A53"/>
<path d="M1.66113 29.7351C0.994461 29.3503 0.161133 29.8314 0.161133 30.6012V38.6579C0.161133 39.4277 0.994459 39.9088 1.66113 39.5239L8.63856 35.4955C9.30523 35.1106 9.30523 34.1484 8.63855 33.7635L1.66113 29.7351Z" fill="#FF3A53"/>
<path d="M26.8542 0.896654C26.1876 0.500945 25.3438 0.981357 25.3438 1.75655V9.91339C25.3438 10.6887 26.1878 11.1691 26.8544 10.7732L33.7233 6.69395C34.3759 6.3064 34.3758 5.36167 33.7231 4.97424L26.8542 0.896654Z" fill="#FFE500"/>
<path d="M26.4453 15.5457C25.7786 15.1608 24.9453 15.6419 24.9453 16.4117V24.4664C24.9453 25.2361 25.7785 25.7173 26.4452 25.3325L33.4223 21.306C34.0891 20.9212 34.0892 19.9588 33.4224 19.5739L26.4453 15.5457Z" fill="#FFE500"/>
<path d="M26.4455 29.9475C25.7788 29.5625 24.9453 30.0436 24.9453 30.8134V38.8721C24.9453 39.6419 25.7786 40.123 26.4453 39.7381L33.423 35.7096C34.0897 35.3248 34.0897 34.3626 33.4232 33.9777L26.4455 29.9475Z" fill="#46B2FF"/>
<path d="M26.4456 44.3483C25.7789 43.9631 24.9453 44.4442 24.9453 45.2142V53.2729C24.9453 54.0426 25.7785 54.5237 26.4452 54.139L33.4229 50.1121C34.0896 49.7274 34.0898 48.7652 33.4234 48.3801L26.4456 44.3483Z" fill="#46B2FF"/>
<path d="M27.2793 41.1775C26.6127 41.5624 26.6127 42.5247 27.2793 42.9096L34.2568 46.9379C34.9234 47.3228 35.7568 46.8417 35.7568 46.0719V38.0152C35.7568 37.2454 34.9234 36.7643 34.2568 37.1492L27.2793 41.1775Z" fill="#46B2FF"/>
<path d="M27.2786 26.7767C26.6121 27.1616 26.6121 28.1236 27.2786 28.5085L34.2566 32.5389C34.9233 32.9239 35.7568 32.4428 35.7568 31.6729V23.6123C35.7568 22.8424 34.9233 22.3613 34.2566 22.7463L27.2786 26.7767Z" fill="#FFE500"/>
<path d="M27.2789 12.3732C26.6123 12.7581 26.6124 13.7203 27.279 14.1051L34.2568 18.1337C34.9234 18.5186 35.7568 18.0374 35.7568 17.2676V9.20895C35.7568 8.43907 34.9233 7.95796 34.2566 8.34301L27.2789 12.3732Z" fill="#FFE500"/>
<path d="M15.1734 4.89661C14.5069 5.28158 14.507 6.24372 15.1736 6.62858L22.1513 10.6571C22.818 11.042 23.6513 10.5609 23.6513 9.79107V1.73239C23.6513 0.962512 22.8178 0.481396 22.1511 0.866446L15.1734 4.89661Z" fill="#FFE500"/>
<path d="M38.917 8.3425C38.2503 7.95763 37.417 8.43876 37.417 9.20854V17.268C37.417 18.0377 38.2501 18.5189 38.9168 18.1342L45.8985 14.1052C46.5654 13.7204 46.5655 12.758 45.8987 12.3731L38.917 8.3425Z" fill="#FFE500"/>
<path d="M38.917 22.7458C38.2503 22.361 37.417 22.8421 37.417 23.6119V31.6733C37.417 32.4431 38.2503 32.9243 38.917 32.5394L45.899 28.5086C46.5657 28.1238 46.5657 27.1615 45.899 26.7766L38.917 22.7458Z" fill="#46B2FF"/>
<path d="M39.7523 19.5739C39.0856 19.9588 39.0856 20.9212 39.7524 21.306L46.7296 25.3325C47.3963 25.7173 48.2294 25.2361 48.2294 24.4664V16.4117C48.2294 15.6419 47.3961 15.1608 46.7294 15.5457L39.7523 19.5739Z" fill="#FFE500"/>
<path d="M39.1291 36.9358C38.4624 36.5507 37.6289 37.0318 37.6289 37.8017V45.8604C37.6289 46.6302 38.4622 47.1113 39.1289 46.7264L46.1066 42.6979C46.7732 42.313 46.7733 41.3509 46.1068 40.9659L39.1291 36.9358Z" fill="#46B2FF"/>
<path d="M39.9607 33.7659C39.2941 34.1508 39.2941 35.1129 39.9607 35.4979L46.9407 39.5284C47.6074 39.9133 48.4408 39.4322 48.4408 38.6624V30.6013C48.4408 29.8315 47.6074 29.3504 46.9407 29.7353L39.9607 33.7659Z" fill="#46B2FF"/>
<path d="M62 14.2559C62 13.9768 62.0638 13.7612 62.1915 13.6089C62.3191 13.4567 62.4979 13.3806 62.7277 13.3806H70.0042C70.4638 13.3806 70.6936 13.647 70.6936 14.1798V34.8451C70.6936 35.0481 70.7191 35.1877 70.7702 35.2638C70.8468 35.3399 70.9744 35.378 71.1531 35.378H82.6807C83.268 35.378 83.5616 35.619 83.5616 36.101V40.7822C83.5616 41.0359 83.4722 41.2388 83.2935 41.3911C83.1403 41.5433 82.9105 41.6194 82.6042 41.6194H63.034C62.6511 41.6194 62.383 41.5433 62.2298 41.3911C62.0766 41.2388 62 40.9978 62 40.668V14.2559Z" fill="#212D38"/>
<path d="M104.303 20.9541C103.69 20.2944 103.026 19.787 102.311 19.4318C101.622 19.0766 100.613 18.899 99.2858 18.899C97.9581 18.899 96.9752 19.0892 96.3369 19.4698C95.6986 19.8504 95.3794 20.3071 95.3794 20.8399C95.3794 21.7533 96.1964 22.4003 97.8305 22.7808L104.188 24.4173C106.511 25.0009 108.26 26.0284 109.435 27.5C110.609 28.9462 111.196 30.6842 111.196 32.7139C111.196 34.5914 110.698 36.2279 109.703 37.6234C108.707 39.0188 107.277 40.0971 105.413 40.8583C103.575 41.6194 101.418 42 98.9411 42C96.1326 42 93.5667 41.5433 91.2433 40.6299C88.9454 39.6912 87.3497 38.4733 86.4561 36.9764C86.3284 36.7227 86.2646 36.5324 86.2646 36.4055C86.2646 36.1518 86.405 35.9234 86.6858 35.7205L90.6305 33.0184C90.9114 32.8408 91.1667 32.752 91.3965 32.752C91.6773 32.752 91.9071 32.8661 92.0858 33.0945C92.9539 34.2108 93.8347 34.9974 94.7284 35.4541C95.622 35.9108 96.8092 36.1391 98.29 36.1391C99.7198 36.1391 100.843 35.9488 101.66 35.5682C102.503 35.1623 102.924 34.6168 102.924 33.9318C102.924 33.4497 102.72 33.0311 102.311 32.6759C101.903 32.3206 101.303 32.0542 100.511 31.8766L94.6901 30.4685C92.3922 29.9103 90.5667 28.8701 89.2135 27.3478C87.8603 25.8001 87.1837 24.0241 87.1837 22.0197C87.1837 20.3705 87.6688 18.8609 88.639 17.4908C89.6092 16.0954 90.988 15.0044 92.7752 14.2178C94.5624 13.4059 96.6305 13 98.9794 13C101.277 13 103.409 13.3806 105.375 14.1417C107.341 14.8775 108.758 15.867 109.626 17.1102C109.805 17.3386 109.894 17.5542 109.894 17.7572C109.894 17.9348 109.805 18.0997 109.626 18.252L105.452 21.2585C105.324 21.36 105.184 21.4108 105.03 21.4108C104.852 21.4108 104.609 21.2585 104.303 20.9541Z" fill="#212D38"/>
<path d="M120.548 13.3806C123.586 13.3806 125.475 13.3933 126.216 13.4186C131.194 13.5962 134.96 14.9409 137.513 17.4528C140.067 19.9392 141.343 23.2629 141.343 27.4239C141.343 30.2148 140.769 32.6759 139.62 34.8071C138.471 36.9383 136.76 38.6129 134.488 39.8307C132.216 41.0232 129.445 41.6194 126.177 41.6194H116.105C115.722 41.6194 115.441 41.5306 115.262 41.353C115.084 41.1754 114.994 40.8836 114.994 40.4777V14.332C114.994 13.9768 115.071 13.7358 115.224 13.6089C115.377 13.4567 115.645 13.3806 116.028 13.3806H120.548ZM124.071 19.3556C123.943 19.3556 123.841 19.3937 123.765 19.4698C123.714 19.5459 123.688 19.6855 123.688 19.8885V35.0735C123.688 35.3018 123.726 35.4541 123.803 35.5302C123.879 35.6063 124.02 35.6444 124.224 35.6444H124.492C127.02 35.6444 128.935 34.9974 130.237 33.7034C131.565 32.3841 132.228 30.2528 132.228 27.3097C132.228 24.7725 131.73 22.8823 130.735 21.6391C129.739 20.3959 128.284 19.6855 126.369 19.5079L124.071 19.3556Z" fill="#212D38"/>
<path d="M153.311 13.3806C153.77 13.3806 154 13.647 154 14.1798V40.5157C154 40.9217 153.898 41.2135 153.694 41.3911C153.489 41.5433 153.17 41.6194 152.736 41.6194H146.34C145.957 41.6194 145.689 41.5433 145.536 41.3911C145.383 41.2388 145.306 40.9978 145.306 40.668V14.2559C145.306 13.9768 145.37 13.7612 145.498 13.6089C145.626 13.4567 145.804 13.3806 146.034 13.3806H153.311Z" fill="#212D38"/>
</svg>
