<svg width="49" height="56" viewBox="0 0 49 56" fill="none" xmlns="http://www.w3.org/2000/svg">
<path d="M1.49999 15.5457C0.833325 15.1608 0 15.6419 0 16.4117V24.4664C0 25.2361 0.833174 25.7173 1.49984 25.3325L8.47696 21.306C9.14377 20.9212 9.14386 19.9588 8.47712 19.5739L1.49999 15.5457Z" fill="#FF3A53"/>
<path d="M2.33229 26.7767C1.66581 27.1616 1.66581 28.1236 2.33228 28.5085L9.31033 32.5389C9.977 32.9239 10.8105 32.4428 10.8105 31.6729V23.6123C10.8105 22.8424 9.977 22.3613 9.31033 22.7463L2.33229 26.7767Z" fill="#FF3A53"/>
<path d="M2.33259 12.3732C1.66605 12.7581 1.66613 13.7203 2.33274 14.1051L9.31049 18.1337C9.97715 18.5186 10.8105 18.0374 10.8105 17.2676V9.20895C10.8105 8.43907 9.977 7.95796 9.31033 8.34301L2.33259 12.3732Z" fill="#FF3A53"/>
<path d="M13.9727 8.34275C13.306 7.95779 12.4727 8.43892 12.4727 9.20875V17.2678C12.4727 18.0376 13.3059 18.5187 13.9726 18.1339L20.9523 14.1052C21.619 13.7204 21.6191 12.7581 20.9524 12.3731L13.9727 8.34275Z" fill="#FFE500"/>
<path d="M13.9727 22.7461C13.306 22.3611 12.4727 22.8422 12.4727 23.6121V31.6731C12.4727 32.443 13.306 32.9241 13.9727 32.5391L20.9528 28.5086C21.6193 28.1237 21.6193 27.1615 20.9528 26.7766L13.9727 22.7461Z" fill="#FF3A53"/>
<path d="M13.9726 37.149C13.3059 36.7642 12.4727 37.2453 12.4727 38.015V46.0721C12.4727 46.8419 13.3059 47.323 13.9726 46.9382L20.952 42.9097C21.6188 42.5248 21.6188 41.5624 20.952 41.1775L13.9726 37.149Z" fill="#FF3A53"/>
<path d="M14.8051 48.3801C14.1386 48.7652 14.1389 49.7274 14.8055 50.1121L21.7833 54.139C22.4499 54.5237 23.2831 54.0426 23.2831 53.2729V45.2142C23.2831 44.4442 22.4495 43.9631 21.7828 44.3483L14.8051 48.3801Z" fill="#46B2FF"/>
<path d="M14.8052 33.9777C14.1387 34.3626 14.1388 35.3248 14.8054 35.7096L21.7831 39.7381C22.4498 40.123 23.2831 39.6419 23.2831 38.8721V30.8134C23.2831 30.0436 22.4496 29.5625 21.783 29.9475L14.8052 33.9777Z" fill="#46B2FF"/>
<path d="M2.27497 41.1359C1.60843 41.5208 1.60851 42.483 2.27512 42.8678L9.25285 46.8963C9.91952 47.2812 10.7528 46.8001 10.7528 46.0303V37.9716C10.7528 37.2018 9.91937 36.7207 9.2527 37.1057L2.27497 41.1359Z" fill="#FF3A53"/>
<path d="M14.806 19.5739C14.1393 19.9588 14.1393 20.9212 14.8062 21.306L21.7833 25.3325C22.4499 25.7173 23.2831 25.2361 23.2831 24.4664V16.4117C23.2831 15.6419 22.4498 15.1608 21.7831 15.5457L14.806 19.5739Z" fill="#FF3A53"/>
<path d="M1.66113 29.7351C0.994461 29.3503 0.161133 29.8314 0.161133 30.6012V38.6579C0.161133 39.4277 0.994459 39.9088 1.66113 39.5239L8.63856 35.4955C9.30523 35.1106 9.30523 34.1484 8.63855 33.7635L1.66113 29.7351Z" fill="#FF3A53"/>
<path d="M26.8542 0.896654C26.1876 0.500945 25.3438 0.981357 25.3438 1.75655V9.91339C25.3438 10.6887 26.1878 11.1691 26.8544 10.7732L33.7233 6.69395C34.3759 6.3064 34.3758 5.36167 33.7231 4.97424L26.8542 0.896654Z" fill="#FFE500"/>
<path d="M26.4453 15.5457C25.7786 15.1608 24.9453 15.6419 24.9453 16.4117V24.4664C24.9453 25.2361 25.7785 25.7173 26.4452 25.3325L33.4223 21.306C34.0891 20.9212 34.0892 19.9588 33.4224 19.5739L26.4453 15.5457Z" fill="#FFE500"/>
<path d="M26.4455 29.9475C25.7788 29.5625 24.9453 30.0436 24.9453 30.8134V38.8721C24.9453 39.6419 25.7786 40.123 26.4453 39.7381L33.423 35.7096C34.0897 35.3248 34.0897 34.3626 33.4232 33.9777L26.4455 29.9475Z" fill="#46B2FF"/>
<path d="M26.4456 44.3483C25.7789 43.9631 24.9453 44.4442 24.9453 45.2142V53.2729C24.9453 54.0426 25.7785 54.5237 26.4452 54.139L33.4229 50.1121C34.0896 49.7274 34.0898 48.7652 33.4234 48.3801L26.4456 44.3483Z" fill="#46B2FF"/>
<path d="M27.2793 41.1775C26.6127 41.5624 26.6127 42.5247 27.2793 42.9096L34.2568 46.9379C34.9234 47.3228 35.7568 46.8417 35.7568 46.0719V38.0152C35.7568 37.2454 34.9234 36.7643 34.2568 37.1492L27.2793 41.1775Z" fill="#46B2FF"/>
<path d="M27.2786 26.7767C26.6121 27.1616 26.6121 28.1236 27.2786 28.5085L34.2566 32.5389C34.9233 32.9239 35.7568 32.4428 35.7568 31.6729V23.6123C35.7568 22.8424 34.9233 22.3613 34.2566 22.7463L27.2786 26.7767Z" fill="#FFE500"/>
<path d="M27.2789 12.3732C26.6123 12.7581 26.6124 13.7203 27.279 14.1051L34.2568 18.1337C34.9234 18.5186 35.7568 18.0374 35.7568 17.2676V9.20895C35.7568 8.43907 34.9233 7.95796 34.2566 8.34301L27.2789 12.3732Z" fill="#FFE500"/>
<path d="M15.1734 4.89661C14.5069 5.28158 14.507 6.24372 15.1736 6.62858L22.1513 10.6571C22.818 11.042 23.6513 10.5609 23.6513 9.79107V1.73239C23.6513 0.962512 22.8178 0.481396 22.1511 0.866446L15.1734 4.89661Z" fill="#FFE500"/>
<path d="M38.917 8.3425C38.2503 7.95763 37.417 8.43876 37.417 9.20854V17.268C37.417 18.0377 38.2501 18.5189 38.9168 18.1342L45.8985 14.1052C46.5654 13.7204 46.5655 12.758 45.8987 12.3731L38.917 8.3425Z" fill="#FFE500"/>
<path d="M38.917 22.7458C38.2503 22.361 37.417 22.8421 37.417 23.6119V31.6733C37.417 32.4431 38.2503 32.9243 38.917 32.5394L45.899 28.5086C46.5657 28.1238 46.5657 27.1615 45.899 26.7766L38.917 22.7458Z" fill="#46B2FF"/>
<path d="M39.7523 19.5739C39.0856 19.9588 39.0856 20.9212 39.7524 21.306L46.7296 25.3325C47.3963 25.7173 48.2294 25.2361 48.2294 24.4664V16.4117C48.2294 15.6419 47.3961 15.1608 46.7294 15.5457L39.7523 19.5739Z" fill="#FFE500"/>
<path d="M39.1291 36.9358C38.4624 36.5507 37.6289 37.0318 37.6289 37.8017V45.8604C37.6289 46.6302 38.4622 47.1113 39.1289 46.7264L46.1066 42.6979C46.7732 42.313 46.7733 41.3509 46.1068 40.9659L39.1291 36.9358Z" fill="#46B2FF"/>
<path d="M39.9607 33.7659C39.2941 34.1508 39.2941 35.1129 39.9607 35.4979L46.9407 39.5284C47.6074 39.9133 48.4408 39.4322 48.4408 38.6624V30.6013C48.4408 29.8315 47.6074 29.3504 46.9407 29.7353L39.9607 33.7659Z" fill="#46B2FF"/>
</svg>
