<svg width="44" height="44" viewBox="0 0 44 44" fill="none" xmlns="http://www.w3.org/2000/svg">
<path d="M22 44C34.1503 44 44 34.1503 44 22C44 9.84974 34.1503 0 22 0C9.84974 0 0 9.84974 0 22C0 34.1503 9.84974 44 22 44Z" fill="#FF3A53"/>
<path d="M23.7762 29.4599C22.113 29.3313 21.4142 28.5065 20.1098 27.7147C19.3929 31.4761 18.5168 35.0817 15.9218 36.9653C15.1198 31.2804 17.0975 27.0104 18.016 22.4781C16.4505 19.8427 18.2043 14.5382 21.5063 15.8453C25.5704 17.4524 17.9878 25.6445 23.0782 26.6676C28.3925 27.7359 30.562 17.4465 27.2661 14.0998C22.5044 9.26781 13.4057 13.9899 14.5245 20.9071C14.7971 22.5981 16.5446 23.1114 15.2226 25.4449C12.175 24.7699 11.266 22.3663 11.3828 19.1619C11.5715 13.9166 16.0959 10.2439 20.6341 9.73567C26.3736 9.0933 31.7604 11.8432 32.504 17.2418C33.3405 23.335 29.9129 29.9336 23.7762 29.4599Z" fill="#F1F2F2"/>
</svg>
