<svg width="22" height="22" viewBox="0 0 22 22" fill="none" xmlns="http://www.w3.org/2000/svg">
<path fill-rule="evenodd" clip-rule="evenodd" d="M17.6777 4.05026C14.944 1.31658 10.5118 1.31658 7.77817 4.05026C5.0445 6.78393 5.0445 11.2161 7.77817 13.9498C10.5118 16.6834 14.944 16.6834 17.6777 13.9498C20.4113 11.2161 20.4113 6.78393 17.6777 4.05026ZM6.36396 2.63604C9.87868 -0.87868 15.5772 -0.87868 19.0919 2.63604C22.6066 6.15076 22.6066 11.8493 19.0919 15.364C15.8162 18.6397 10.6436 18.8624 7.10991 16.0322L1.41421 21.7279L0 20.3137L5.69569 14.618C2.86549 11.0843 3.08825 5.91176 6.36396 2.63604Z" fill="#00AAE5"/>
</svg>
