<svg width="632" height="473" viewBox="0 0 632 473" fill="none" xmlns="http://www.w3.org/2000/svg">
<path d="M605.449 460.699C605.449 466.607 506.769 464.813 433.225 471.397C359.68 477.981 263.829 462.254 261 460.699C261 454.79 338.108 450 433.225 450C551.354 450.66 612.517 454.992 605.449 460.699Z" fill="#CBDCE2" fill-opacity="0.47"/>
<rect y="375" width="603" height="17" fill="url(#paint0_linear)"/>
<path fill-rule="evenodd" clip-rule="evenodd" d="M182.82 287.86C182.82 287.86 174.798 343.489 182.82 374.798C182.82 374.798 187.477 374.798 183.855 383.077H177.128C177.128 383.077 171.435 375.315 177.128 374.798C177.128 374.798 173.504 324.861 179.457 287.86H182.82Z" fill="#8B5D33"/>
<path fill-rule="evenodd" clip-rule="evenodd" d="M166.678 274.208C165.499 274.208 164.384 274.473 163.378 274.934C161.602 270.244 157.083 266.902 151.771 266.902C144.913 266.902 139.351 272.463 139.351 279.322C139.351 280.694 139.582 282.008 139.993 283.241C137.729 284.603 136.207 287.075 136.207 289.91C136.207 294.209 139.691 297.692 143.989 297.692C147.659 297.692 150.728 295.148 151.549 291.731C151.623 291.732 151.695 291.742 151.771 291.742C155.432 291.742 158.711 290.148 160.984 287.629C162.424 289.119 164.442 290.049 166.678 290.049C171.051 290.049 174.598 286.503 174.598 282.128C174.598 277.754 171.051 274.208 166.678 274.208Z" fill="#B6D16D"/>
<path fill-rule="evenodd" clip-rule="evenodd" d="M196.275 280.107C196.567 279.251 196.733 278.336 196.733 277.381C196.733 272.737 192.97 268.973 188.326 268.973C184.421 268.973 181.149 271.636 180.2 275.243C178.927 274.586 177.487 274.208 175.956 274.208C170.831 274.208 166.678 278.362 166.678 283.487C166.678 288.612 170.831 292.766 175.956 292.766C178.165 292.766 180.19 291.991 181.785 290.701C182.106 296.319 186.751 300.779 192.447 300.779C198.355 300.779 203.144 295.991 203.144 290.084C203.144 285.528 200.288 281.648 196.275 280.107Z" fill="#77A936"/>
<path fill-rule="evenodd" clip-rule="evenodd" d="M182.496 257.434C182.291 257.434 182.092 257.446 181.894 257.464C181.305 256.02 179.891 255 178.235 255C176.492 255 175.029 256.135 174.503 257.703C173.926 257.529 173.314 257.434 172.683 257.434C169.198 257.434 166.373 260.259 166.373 263.744C166.373 267.23 169.198 270.055 172.683 270.055C174.382 270.055 175.922 269.38 177.055 268.287C178.295 269.943 180.267 271.021 182.496 271.021C186.246 271.021 189.288 267.98 189.288 264.227C189.288 260.476 186.246 257.434 182.496 257.434Z" fill="#B6D16D"/>
<path fill-rule="evenodd" clip-rule="evenodd" d="M208.524 273.019C208.522 273.019 208.517 273.019 208.514 273.019C208.411 269.721 205.71 267.077 202.384 267.077C198.994 267.077 196.245 269.826 196.245 273.217C196.245 276.058 198.175 278.44 200.793 279.142C200.654 279.731 200.574 280.341 200.574 280.971C200.574 285.363 204.133 288.923 208.524 288.923C212.917 288.923 216.477 285.363 216.477 280.971C216.477 276.58 212.917 273.019 208.524 273.019Z" fill="#B6D16D"/>
<path fill-rule="evenodd" clip-rule="evenodd" d="M193.455 322.223C193.452 322.223 193.444 322.223 193.44 322.223C193.283 317.212 189.177 313.194 184.125 313.194C178.972 313.194 174.794 317.371 174.794 322.525C174.794 326.841 177.728 330.462 181.706 331.528C181.495 332.422 181.374 333.35 181.374 334.308C181.374 340.982 186.783 346.392 193.455 346.392C200.129 346.392 205.541 340.982 205.541 334.308C205.541 327.634 200.129 322.223 193.455 322.223Z" fill="#B6D16D"/>
<path fill-rule="evenodd" clip-rule="evenodd" d="M153.658 341.735C153.657 341.738 153.655 341.741 153.655 341.744C150.53 340.679 147.103 342.273 145.931 345.385C144.737 348.558 146.339 352.1 149.513 353.295C152.169 354.297 155.08 353.332 156.66 351.129C157.163 351.466 157.706 351.757 158.294 351.98C162.405 353.528 166.991 351.453 168.539 347.343C170.089 343.233 168.01 338.645 163.904 337.098C159.794 335.549 155.207 337.625 153.658 341.735Z" fill="#B6D16D"/>
<path fill-rule="evenodd" clip-rule="evenodd" d="M153.065 302.738C153.065 297.521 148.836 293.294 143.62 293.294C138.405 293.294 134.175 297.521 134.175 302.738C134.175 304.753 134.813 306.617 135.886 308.15C134.142 309.353 133 311.362 133 313.642C133 317.325 135.985 320.31 139.669 320.31C143.351 320.31 146.337 317.325 146.337 313.642C146.337 313.018 146.246 312.417 146.086 311.845C150.104 310.76 153.065 307.099 153.065 302.738Z" fill="#77A936"/>
<path fill-rule="evenodd" clip-rule="evenodd" d="M206.665 301.732C206.717 301.377 206.754 301.019 206.754 300.648C206.754 296.682 203.541 293.467 199.574 293.467C195.836 293.467 192.766 296.326 192.426 299.979C189.612 300.495 187.477 302.957 187.477 305.922C187.477 309.263 190.185 311.971 193.525 311.971C194.137 311.971 194.728 311.878 195.286 311.71C195.744 316.425 199.715 320.113 204.554 320.113C209.698 320.113 213.869 315.942 213.869 310.798C213.869 306.381 210.79 302.691 206.665 301.732Z" fill="#B6D16D"/>
<path fill-rule="evenodd" clip-rule="evenodd" d="M196.245 329.771C194.981 329.771 193.82 330.188 192.874 330.883C192.324 330.517 191.665 330.302 190.955 330.302C189.035 330.302 187.477 331.859 187.477 333.78C187.477 335.658 188.97 337.179 190.834 337.246C191.58 339.521 193.718 341.167 196.245 341.167C199.39 341.167 201.943 338.616 201.943 335.469C201.943 332.322 199.39 329.771 196.245 329.771Z" fill="#77A936"/>
<path fill-rule="evenodd" clip-rule="evenodd" d="M170.663 319.833C168.309 317.323 166.405 314.689 164.618 311.902C162.855 309.122 161.309 306.215 160.007 303.211C157.4 297.206 155.783 290.791 155.401 284.33C156.282 290.743 158.372 296.918 161.36 302.562C162.852 305.386 164.568 308.083 166.471 310.625C168.367 313.146 170.485 315.61 172.723 317.653L170.663 319.833Z" fill="#8B5D33"/>
<path fill-rule="evenodd" clip-rule="evenodd" d="M163.548 286.049C163.945 287.513 164.176 289.02 164.307 290.536C164.433 292.052 164.439 293.584 164.299 295.109C164.025 298.151 163.131 301.203 161.426 303.833L160.602 303.268C162.337 300.89 163.372 298.011 163.803 295.049C164.022 293.566 164.1 292.057 164.058 290.549C164.011 289.043 163.864 287.531 163.548 286.049Z" fill="#8B5D33"/>
<path fill-rule="evenodd" clip-rule="evenodd" d="M197.569 309.595C197.087 312.473 196.105 315.255 194.98 317.957C193.837 320.658 192.48 323.272 190.972 325.798C187.951 330.851 182.202 337.468 178.199 341.815V337.766C182.43 333.897 186.346 329.65 189.718 324.975C191.402 322.637 192.951 320.193 194.302 317.636C195.636 315.075 196.843 312.416 197.569 309.595Z" fill="#8B5D33"/>
<path fill-rule="evenodd" clip-rule="evenodd" d="M201.943 318.743C200.56 320.507 198.912 322.078 197.029 323.351C195.15 324.604 192.935 325.55 190.543 325.56L190.576 324.561C192.694 324.716 194.854 324.009 196.766 322.925C198.683 321.827 200.436 320.398 201.943 318.743Z" fill="#8B5D33"/>
<path fill-rule="evenodd" clip-rule="evenodd" d="M193.256 309.595C192.444 311.363 191.888 313.266 191.784 315.173C191.738 316.124 191.829 317.077 192.122 317.946C192.412 318.817 192.921 319.583 193.599 320.159L192.914 320.887C192.163 320.131 191.641 319.161 191.402 318.154C191.156 317.146 191.154 316.116 191.287 315.128C191.567 313.149 192.295 311.292 193.256 309.595Z" fill="#8B5D33"/>
<path fill-rule="evenodd" clip-rule="evenodd" d="M156.342 347.889C157.11 349.83 158.422 351.492 159.889 352.921C161.375 354.347 163.077 355.521 164.886 356.467C168.518 358.359 172.537 359.367 176.581 359.849L177.44 361.823C173.277 360.987 167.995 359.598 164.387 357.334C162.59 356.203 160.93 354.848 159.529 353.268C158.144 351.685 156.953 349.89 156.342 347.889Z" fill="#8B5D33"/>
<path fill-rule="evenodd" clip-rule="evenodd" d="M164.225 348.923C165.067 350.146 165.719 351.515 166.108 352.983C166.489 354.444 166.563 356.068 166.023 357.594L165.099 357.212C165.702 355.983 165.825 354.512 165.618 353.082C165.407 351.648 164.924 350.23 164.225 348.923Z" fill="#8B5D33"/>
<path fill-rule="evenodd" clip-rule="evenodd" d="M194.711 338.829C194.079 340.345 193.161 341.739 192.132 343.036C191.096 344.331 189.914 345.516 188.623 346.578C186.039 348.707 181.388 350.823 178.199 351.94L179.264 349.521C182.351 348.781 185.348 347.558 188.026 345.775C189.365 344.886 190.622 343.861 191.758 342.705C192.887 341.544 193.929 340.271 194.711 338.829Z" fill="#8B5D33"/>
<path fill-rule="evenodd" clip-rule="evenodd" d="M143.032 310.802C143.709 312.742 144.797 314.505 146.045 316.101C147.306 317.694 148.778 319.105 150.389 320.311C153.618 322.73 157.389 324.297 161.278 325.19L160.749 327.119C156.732 325.848 152.901 323.869 149.757 321.086C148.188 319.699 146.794 318.123 145.641 316.395C144.501 314.665 143.549 312.794 143.032 310.802Z" fill="#8B5D33"/>
<path fill-rule="evenodd" clip-rule="evenodd" d="M149.616 305.628C150.187 306.775 150.617 307.994 150.955 309.237C151.288 310.482 151.514 311.76 151.606 313.056C151.795 315.641 151.416 318.321 150.314 320.743L149.416 320.303C150.586 318.121 151.128 315.601 151.106 313.075C151.099 311.811 150.96 310.543 150.711 309.294C150.458 308.046 150.111 306.809 149.616 305.628Z" fill="#8B5D33"/>
<path fill-rule="evenodd" clip-rule="evenodd" d="M139.264 318.479C140.616 319.475 142.25 320.042 143.876 320.139C145.509 320.241 147.12 319.827 148.54 319.085L148.956 319.994C147.331 320.649 145.532 320.918 143.821 320.636C142.116 320.362 140.512 319.605 139.264 318.479Z" fill="#8B5D33"/>
<path fill-rule="evenodd" clip-rule="evenodd" d="M169.052 326.154C169.606 328.23 170.529 330.198 171.731 331.942C172.937 333.681 174.486 335.173 176.303 336.155L176.581 338.19C174.694 336.97 172.409 334.09 171.31 332.211C170.215 330.325 169.445 328.27 169.052 326.154Z" fill="#8B5D33"/>
<path fill-rule="evenodd" clip-rule="evenodd" d="M176.035 306.972C171.945 306.972 168.477 309.6 167.204 313.258C165.825 311.021 163.362 309.526 160.543 309.526C156.216 309.526 152.711 313.031 152.711 317.355C152.711 321.095 155.336 324.217 158.84 324.994C159.386 329.008 162.818 332.105 166.983 332.105C170.923 332.105 174.213 329.332 175.016 325.631C175.351 325.668 175.691 325.69 176.035 325.69C181.203 325.69 185.393 321.5 185.393 316.331C185.393 311.162 181.203 306.972 176.035 306.972Z" fill="#77A936"/>
<mask id="mask0" mask-type="alpha" maskUnits="userSpaceOnUse" x="160" y="367" width="39" height="35">
<path d="M198.065 367.643L189.124 401.569H169.14L160.198 367.643H198.065Z" fill="white"/>
</mask>
<g mask="url(#mask0)">
<path fill-rule="evenodd" clip-rule="evenodd" d="M198.065 367.643L189.124 401.569H169.14L160.198 367.643H198.065Z" fill="url(#paint1_linear)"/>
</g>
<mask id="mask1" mask-type="alpha" maskUnits="userSpaceOnUse" x="160" y="367" width="39" height="35">
<path d="M198.065 367.643C198.065 367.643 178.38 371.34 178.38 401.569H169.14L160.198 367.643H198.065Z" fill="white"/>
</mask>
<g mask="url(#mask1)">
<path fill-rule="evenodd" clip-rule="evenodd" d="M198.065 367.643C198.065 367.643 178.38 371.34 178.38 401.569H169.14L160.198 367.643H198.065Z" fill="url(#paint2_linear)"/>
</g>
<path d="M42.2673 68.184C42.8346 67.438 43.718 67 44.6552 67H148C149.657 67 151 68.3431 151 70V100C151 101.657 149.657 103 148 103H44.8542C43.8069 103 42.8355 102.454 42.2912 101.559L32.063 84.7473C31.4218 83.6932 31.4912 82.3541 32.238 81.372L42.2673 68.184Z" fill="#E7EFF1"/>
<path d="M34.3642 64.4105C34.9124 63.5331 35.8739 63 36.9085 63H148.28C149.937 63 151.28 64.3431 151.28 66V95.7081C151.28 97.365 149.937 98.7081 148.28 98.7081H36.8941C35.8674 98.7081 34.912 98.1831 34.3616 97.3164L25.013 82.5952C24.394 81.6204 24.3894 80.3768 25.0012 79.3974L34.3642 64.4105Z" fill="#46B2FF"/>
<path d="M75.6929 82.4487L76.698 77.136H78.2313L76.5749 84.6025H75.0262L73.8109 79.6077L72.5955 84.6025H71.0468L69.3904 77.136H70.9237L71.934 82.4385L73.1647 77.136H74.4673L75.6929 82.4487ZM86.2507 81.0385C86.2507 81.7735 86.1207 82.418 85.8609 82.9718C85.6011 83.5256 85.2285 83.953 84.743 84.2538C84.2609 84.5547 83.7071 84.7051 83.0815 84.7051C82.4627 84.7051 81.9106 84.5564 81.4251 84.259C80.9396 83.9615 80.5636 83.5376 80.2969 82.9872C80.0302 82.4333 79.8952 81.7975 79.8918 81.0795V80.7103C79.8918 79.9753 80.0234 79.3291 80.2867 78.7719C80.5533 78.2112 80.9277 77.7821 81.4097 77.4847C81.8952 77.1839 82.449 77.0334 83.0712 77.0334C83.6934 77.0334 84.2456 77.1839 84.7276 77.4847C85.2131 77.7821 85.5874 78.2112 85.8507 78.7719C86.1173 79.3291 86.2507 79.9736 86.2507 80.7052V81.0385ZM84.6917 80.7C84.6917 79.9171 84.5515 79.3223 84.2712 78.9155C83.9909 78.5086 83.5909 78.3052 83.0712 78.3052C82.555 78.3052 82.1567 78.5069 81.8764 78.9103C81.596 79.3103 81.4542 79.8983 81.4507 80.6744V81.0385C81.4507 81.8009 81.5909 82.3923 81.8712 82.8128C82.1516 83.2333 82.555 83.4436 83.0815 83.4436C83.5977 83.4436 83.9943 83.2419 84.2712 82.8385C84.5481 82.4316 84.6883 81.8402 84.6917 81.0641V80.7ZM91.1829 81.8693H89.9573V84.6025H88.4188V77.136H91.1931C92.0752 77.136 92.7555 77.3326 93.2341 77.7257C93.7128 78.1189 93.9521 78.6744 93.9521 79.3924C93.9521 79.9018 93.841 80.3274 93.6187 80.6693C93.3999 81.0077 93.0666 81.2778 92.6188 81.4795L94.2341 84.5307V84.6025H92.5829L91.1829 81.8693ZM89.9573 80.6231H91.1983C91.5846 80.6231 91.8837 80.5257 92.0957 80.3308C92.3077 80.1325 92.4136 79.8607 92.4136 79.5154C92.4136 79.1633 92.3128 78.8864 92.1111 78.6847C91.9128 78.483 91.6068 78.3821 91.1931 78.3821H89.9573V80.6231ZM98.5151 81.6077L97.7151 82.4692V84.6025H96.1766V77.136H97.7151V80.5206L98.392 79.5924L100.295 77.136H102.187L99.5356 80.4539L102.264 84.6025H100.433L98.5151 81.6077ZM107.765 82.6436C107.765 82.353 107.663 82.1308 107.457 81.9769C107.252 81.8197 106.883 81.6556 106.35 81.4846C105.816 81.3103 105.394 81.1393 105.083 80.9718C104.235 80.5137 103.811 79.8966 103.811 79.1206C103.811 78.7172 103.924 78.3582 104.15 78.0437C104.379 77.7257 104.705 77.4779 105.129 77.3001C105.557 77.1223 106.035 77.0334 106.565 77.0334C107.099 77.0334 107.574 77.1309 107.991 77.3257C108.408 77.5172 108.731 77.789 108.96 78.1411C109.193 78.4932 109.309 78.8932 109.309 79.3411H107.77C107.77 78.9992 107.663 78.7343 107.447 78.5462C107.232 78.3548 106.929 78.2591 106.54 78.2591C106.163 78.2591 105.871 78.3394 105.663 78.5001C105.454 78.6573 105.35 78.8659 105.35 79.1257C105.35 79.3684 105.471 79.5719 105.714 79.736C105.96 79.9001 106.321 80.0539 106.796 80.1975C107.671 80.4607 108.309 80.7872 108.709 81.177C109.109 81.5667 109.309 82.0522 109.309 82.6333C109.309 83.2795 109.064 83.7872 108.575 84.1564C108.087 84.5222 107.428 84.7051 106.601 84.7051C106.027 84.7051 105.504 84.6008 105.032 84.3923C104.56 84.1803 104.199 83.8914 103.95 83.5256C103.704 83.1598 103.581 82.7359 103.581 82.2539H105.124C105.124 83.0778 105.616 83.4897 106.601 83.4897C106.967 83.4897 107.252 83.4162 107.457 83.2692C107.663 83.1188 107.765 82.9103 107.765 82.6436ZM112.944 81.9718V84.6025H111.405V77.136H114.318C114.879 77.136 115.371 77.2386 115.795 77.4437C116.222 77.6488 116.55 77.9411 116.779 78.3206C117.008 78.6967 117.123 79.1257 117.123 79.6077C117.123 80.3394 116.872 80.9171 116.369 81.3411C115.87 81.7616 115.178 81.9718 114.292 81.9718H112.944ZM112.944 80.7257H114.318C114.725 80.7257 115.034 80.63 115.246 80.4385C115.461 80.2471 115.569 79.9736 115.569 79.618C115.569 79.2522 115.461 78.9565 115.246 78.7308C115.031 78.5052 114.733 78.389 114.354 78.3821H112.944V80.7257ZM122.537 83.0641H119.84L119.327 84.6025H117.691L120.471 77.136H121.896L124.691 84.6025H123.055L122.537 83.0641ZM120.255 81.818H122.122L121.183 79.0231L120.255 81.818ZM132.187 82.1154C132.129 82.9188 131.832 83.5513 131.295 84.0128C130.762 84.4743 130.057 84.7051 129.182 84.7051C128.225 84.7051 127.471 84.3837 126.921 83.741C126.374 83.0949 126.1 82.2094 126.1 81.0846V80.6282C126.1 79.9103 126.227 79.2778 126.48 78.7308C126.733 78.1838 127.093 77.765 127.562 77.4745C128.034 77.1804 128.581 77.0334 129.203 77.0334C130.064 77.0334 130.758 77.2642 131.285 77.7257C131.811 78.1873 132.116 78.8351 132.198 79.6693H130.659C130.622 79.1872 130.487 78.8385 130.254 78.6231C130.025 78.4044 129.675 78.295 129.203 78.295C128.69 78.295 128.305 78.4796 128.049 78.8488C127.796 79.2146 127.666 79.7838 127.659 80.5565V81.1205C127.659 81.9274 127.781 82.5171 128.023 82.8897C128.269 83.2624 128.656 83.4487 129.182 83.4487C129.657 83.4487 130.011 83.341 130.244 83.1256C130.48 82.9068 130.615 82.5701 130.649 82.1154H132.187ZM138.74 81.3667H135.786V83.3667H139.253V84.6025H134.248V77.136H139.243V78.3821H135.786V80.1616H138.74V81.3667Z" fill="white"/>
<g clip-path="url(#clip0)">
<path d="M58.1466 86.9738C58.1466 86.8645 58.1082 86.755 58.0317 86.6458C57.4191 85.9126 56.9271 85.2837 56.555 84.759C56.7847 84.3106 56.9598 83.8949 57.0797 83.5124L59.6229 83.1187C59.7216 83.1075 59.8091 83.0503 59.8856 82.9466C59.9621 82.8423 60 82.7359 60 82.6265V79.5911C60 79.4709 59.9621 79.3641 59.8856 79.2713C59.8091 79.1785 59.7161 79.1209 59.6067 79.0993L57.1127 78.722C56.9922 78.35 56.8064 77.9013 56.5549 77.3765C56.7187 77.1357 56.9651 76.8075 57.2933 76.3921C57.6213 75.9764 57.8514 75.6812 57.9823 75.5061C58.0591 75.3968 58.0972 75.2928 58.0972 75.1944C58.0972 74.8991 57.3096 74.024 55.735 72.5692C55.6257 72.4819 55.5108 72.4382 55.3901 72.4382C55.2591 72.4382 55.1498 72.476 55.0618 72.5529L53.1258 74.0131C52.6775 73.7835 52.2673 73.614 51.8954 73.5043L51.518 70.9942C51.5073 70.8849 51.4525 70.789 51.3541 70.7071C51.2556 70.6251 51.1462 70.584 51.0258 70.584H47.9744C47.7229 70.584 47.5588 70.7152 47.4823 70.9777C47.3509 71.4809 47.2252 72.3233 47.1049 73.5043C46.6346 73.6574 46.2135 73.8324 45.8417 74.0293L43.955 72.5529C43.8456 72.4761 43.7308 72.4381 43.6104 72.4381C43.4023 72.4381 42.9704 72.7607 42.3142 73.4062C41.6579 74.0514 41.2092 74.5381 40.9688 74.8663C40.8921 74.9539 40.854 75.0633 40.854 75.1946C40.854 75.2929 40.892 75.4022 40.9688 75.5226C41.5812 76.2556 42.0733 76.8845 42.4453 77.4093C42.2156 77.858 42.0407 78.2734 41.9205 78.6562L39.3774 79.0497C39.2788 79.0606 39.1914 79.1179 39.1148 79.2217C39.0383 79.3258 39 79.4323 39 79.5416V82.5769C39 82.6972 39.0383 82.8038 39.1148 82.8966C39.1914 82.9898 39.2843 83.0417 39.3939 83.0525L41.8876 83.4463C42.0189 83.8618 42.2105 84.3104 42.462 84.7916C42.2869 85.0325 42.03 85.3662 41.6909 85.7926C41.3516 86.2194 41.1275 86.5092 41.0182 86.6622C40.9416 86.7715 40.9033 86.8758 40.9033 86.9737C40.9033 87.2695 41.6909 88.1442 43.2659 89.5991C43.3753 89.6864 43.49 89.7299 43.6105 89.7299C43.7527 89.7299 43.862 89.6919 43.9385 89.6152L45.8744 88.1553C46.3227 88.3849 46.7329 88.5542 47.1049 88.6636L47.4823 91.174C47.4931 91.2833 47.5479 91.3792 47.6463 91.4611C47.7447 91.5431 47.8541 91.584 47.9744 91.584H51.0258C51.2775 91.584 51.4415 91.4528 51.5181 91.1903C51.6493 90.676 51.775 89.8285 51.8955 88.6471C52.3328 88.5164 52.7539 88.3463 53.1587 88.1388L55.0454 89.6152C55.1548 89.6919 55.2696 89.7299 55.39 89.7299C55.5978 89.7299 56.0273 89.4046 56.6781 88.7535C57.3286 88.1031 57.78 87.6132 58.0316 87.2852C58.1082 87.2089 58.1466 87.1051 58.1466 86.9738ZM52.4697 84.0538C51.6495 84.8739 50.6596 85.284 49.5003 85.284C48.3407 85.284 47.3507 84.8738 46.5306 84.0538C45.7103 83.2334 45.3001 82.2434 45.3001 81.084C45.3001 79.9247 45.7103 78.9347 46.5306 78.1145C47.3507 77.2942 48.3407 76.8841 49.5003 76.8841C50.6596 76.8841 51.6495 77.2941 52.4697 78.1145C53.2901 78.9347 53.7002 79.9247 53.7002 81.084C53.7002 82.2434 53.2901 83.2334 52.4697 84.0538Z" fill="white"/>
</g>
<path d="M69.0697 111.075C69.6397 110.394 70.4823 110 71.3706 110H148C149.657 110 151 111.343 151 113V143C151 144.657 149.657 146 148 146H71.6211C70.5926 146 69.6357 145.473 69.0858 144.604L58.1704 127.35C57.4731 126.248 57.5679 124.821 58.4048 123.821L69.0697 111.075Z" fill="#E7EFF1"/>
<path d="M61.1227 107.436C61.6676 106.544 62.6374 106 63.6825 106L148 106C149.657 106 151 107.343 151 109V139C151 140.657 149.657 142 148 142H64.1433C63.1195 142 62.1664 141.478 61.6152 140.615L52.0093 125.58C51.3918 124.613 51.3795 123.379 51.9776 122.4L61.1227 107.436Z" fill="#46B2FF"/>
<path d="M76.7503 114C76.547 114 76.3712 114.074 76.2228 114.223C76.0744 114.371 76.0001 114.547 76.0001 114.75V119.625C76.0001 119.828 75.9259 120.004 75.7775 120.152C75.6289 120.3 75.4533 120.375 75.2501 120.375C75.0468 120.375 74.871 120.3 74.7226 120.152C74.5742 120.004 74.5 119.828 74.5 119.625V114.75C74.5 114.547 74.4258 114.371 74.2773 114.223C74.1288 114.074 73.953 114 73.7499 114C73.5469 114 73.3711 114.074 73.2226 114.223C73.0742 114.371 72.9999 114.547 72.9999 114.75V119.625C72.9999 119.828 72.9257 120.004 72.7773 120.152C72.6289 120.3 72.4532 120.375 72.25 120.375C72.0468 120.375 71.871 120.3 71.7226 120.152C71.5741 120.004 71.4999 119.828 71.4999 119.625V114.75C71.4999 114.547 71.4258 114.371 71.2773 114.223C71.1289 114.074 70.9533 114 70.75 114C70.5468 114 70.3711 114.074 70.2226 114.223C70.0742 114.371 70 114.547 70 114.75V122.25C70 122.726 70.1385 123.16 70.416 123.55C70.6934 123.941 71.0547 124.214 71.4999 124.37V133.499C71.4999 133.905 71.6484 134.256 71.9453 134.554C72.2421 134.85 72.5937 134.999 72.9999 134.999H74.4998C74.9061 134.999 75.2575 134.85 75.5545 134.553C75.8514 134.257 75.9997 133.905 75.9997 133.499V124.37C76.4451 124.214 76.8062 123.941 77.0837 123.55C77.3611 123.16 77.4998 122.726 77.4998 122.249V114.75C77.4998 114.547 77.4255 114.371 77.2774 114.223C77.129 114.074 76.9534 114 76.7503 114Z" fill="white"/>
<path d="M86.277 114.223C86.1285 114.074 85.9528 114 85.7497 114H82.7499C81.7187 114 80.8359 114.367 80.1018 115.102C79.3675 115.836 79 116.719 79 117.75V127.124C79 127.226 79.0373 127.314 79.1114 127.388C79.1857 127.462 79.2736 127.499 79.3749 127.499H81.9998V133.499C81.9998 133.905 82.1484 134.257 82.4452 134.554C82.7419 134.85 83.0938 134.999 83.5 134.999H84.9997C85.406 134.999 85.7574 134.851 86.0543 134.554C86.3513 134.257 86.4999 133.905 86.4999 133.499V114.75C86.4996 114.547 86.4254 114.371 86.277 114.223Z" fill="white"/>
<path d="M116.528 125.115C116.47 125.919 116.173 126.551 115.636 127.013C115.102 127.474 114.398 127.705 113.523 127.705C112.566 127.705 111.812 127.384 111.262 126.741C110.715 126.095 110.441 125.209 110.441 124.085V123.628C110.441 122.91 110.568 122.278 110.82 121.731C111.073 121.184 111.434 120.765 111.903 120.474C112.374 120.18 112.921 120.033 113.544 120.033C114.405 120.033 115.099 120.264 115.626 120.726C116.152 121.187 116.456 121.835 116.538 122.669H115C114.962 122.187 114.827 121.839 114.595 121.623C114.366 121.404 114.015 121.295 113.544 121.295C113.031 121.295 112.646 121.48 112.39 121.849C112.137 122.215 112.007 122.784 112 123.556V124.121C112 124.927 112.121 125.517 112.364 125.89C112.61 126.262 112.997 126.449 113.523 126.449C113.998 126.449 114.352 126.341 114.585 126.126C114.82 125.907 114.955 125.57 114.99 125.115H116.528ZM122.804 126.064H120.107L119.594 127.603H117.958L120.737 120.136H122.163L124.958 127.603H123.322L122.804 126.064ZM120.522 124.818H122.389L121.45 122.023L120.522 124.818ZM131.198 124.551H128.244V127.603H126.705V120.136H131.567V121.382H128.244V123.31H131.198V124.551ZM138.002 124.367H135.048V126.367H138.514V127.603H133.509V120.136H138.504V121.382H135.048V123.162H138.002V124.367Z" fill="white"/>
<path d="M90.7507 155.758C91.2377 154.687 92.3053 154 93.4815 154H148C149.657 154 151 155.343 151 157V187C151 188.657 149.657 190 148 190H97.7569C96.6718 190 95.6713 189.414 95.1404 188.468L85.2438 170.826C84.7763 169.992 84.7338 168.986 85.1295 168.116L90.7507 155.758Z" fill="#E7EFF1"/>
<path d="M89.1227 151.436C89.6676 150.544 90.6374 150 91.6825 150H148C149.657 150 151 151.343 151 153V183C151 184.657 149.657 186 148 186H91.6825C90.6374 186 89.6676 185.456 89.1227 184.564L79.956 169.564C79.3691 168.604 79.3691 167.396 79.956 166.436L89.1227 151.436Z" fill="#FF3A53"/>
<path d="M106.33 158.866H98.3723H95.7197V161.491V162.722V172.894V174.616L103.678 179.866V177.241H106.33C107.794 177.241 108.983 176.065 108.983 174.616V161.491C108.983 160.04 107.794 158.866 106.33 158.866ZM106.329 174.616H103.677V164.116L99.6977 161.491H106.329V174.616Z" fill="white"/>
<path d="M121.879 168.317H118.925V170.317H122.391V171.553H117.386V164.086H122.381V165.332H118.925V167.112H121.879V168.317ZM127.016 166.661L128.416 164.086H130.185L128.011 167.789L130.242 171.553H128.452L127.016 168.937L125.58 171.553H123.79L126.021 167.789L123.847 164.086H125.616L127.016 166.661ZM133.707 171.553H132.169V164.086H133.707V171.553ZM141.655 165.332H139.368V171.553H137.829V165.332H135.573V164.086H141.655V165.332Z" fill="white"/>
<path d="M364.933 68.0519C364.363 67.3844 363.529 67 362.652 67H251C249.344 67 248 68.3431 248 70V99.7081C248 101.365 249.344 102.708 251 102.708H362.652C363.529 102.708 364.363 102.324 364.933 101.656L377.617 86.8022C378.575 85.6801 378.575 84.028 377.617 82.906L364.933 68.0519Z" fill="#E7EFF1"/>
<path d="M364.916 64.4105C364.368 63.5331 363.406 63 362.372 63H251C249.344 63 248 64.3431 248 66V95.7081C248 97.365 249.344 98.7081 251 98.7081H362.386C363.413 98.7081 364.368 98.1831 364.919 97.3164L374.267 82.5952C374.886 81.6204 374.891 80.3768 374.279 79.3974L364.916 64.4105Z" fill="#46B2FF"/>
<path d="M266.159 81.7642H263.205V83.7641H266.672V85H261.667V77.5335H266.661V78.7796H263.205V80.559H266.159V81.7642ZM270.163 83.7641H273.43V85H268.624V77.5335H270.163V83.7641ZM279.859 81.7642H276.905V83.7641H280.372V85H275.367V77.5335H280.362V78.7796H276.905V80.559H279.859V81.7642ZM285.084 83.1487L286.776 77.5335H288.489L285.889 85H284.284L281.694 77.5335H283.402L285.084 83.1487ZM294.072 83.4616H291.375L290.862 85H289.226L292.006 77.5335H293.431L296.226 85H294.59L294.072 83.4616ZM291.79 82.2154H293.657L292.718 79.4206L291.79 82.2154ZM302.979 78.7796H300.692V85H299.153V78.7796H296.897V77.5335H302.979V78.7796ZM310.901 81.436C310.901 82.171 310.771 82.8154 310.511 83.3693C310.251 83.9231 309.879 84.3504 309.393 84.6513C308.911 84.9521 308.357 85.1026 307.732 85.1026C307.113 85.1026 306.561 84.9538 306.075 84.6564C305.59 84.359 305.214 83.9351 304.947 83.3846C304.68 82.8308 304.545 82.1949 304.542 81.477V81.1078C304.542 80.3727 304.673 79.7266 304.937 79.1693C305.203 78.6087 305.578 78.1796 306.06 77.8822C306.545 77.5813 307.099 77.4309 307.721 77.4309C308.343 77.4309 308.896 77.5813 309.378 77.8822C309.863 78.1796 310.237 78.6087 310.501 79.1693C310.767 79.7266 310.901 80.371 310.901 81.1026V81.436ZM309.342 81.0975C309.342 80.3146 309.202 79.7197 308.921 79.3129C308.641 78.9061 308.241 78.7027 307.721 78.7027C307.205 78.7027 306.807 78.9044 306.526 79.3078C306.246 79.7078 306.104 80.2958 306.101 81.0719V81.436C306.101 82.1983 306.241 82.7898 306.521 83.2103C306.802 83.6308 307.205 83.841 307.732 83.841C308.248 83.841 308.644 83.6393 308.921 83.2359C309.198 82.8291 309.338 82.2377 309.342 81.4616V81.0975ZM315.833 82.2667H314.607V85H313.069V77.5335H315.843C316.725 77.5335 317.406 77.73 317.884 78.1232C318.363 78.5163 318.602 79.0719 318.602 79.7898C318.602 80.2992 318.491 80.7249 318.269 81.0667C318.05 81.4052 317.717 81.6753 317.269 81.877L318.884 84.9282V85H317.233L315.833 82.2667ZM314.607 81.0206H315.848C316.235 81.0206 316.534 80.9231 316.746 80.7283C316.958 80.53 317.064 80.2582 317.064 79.9129C317.064 79.5608 316.963 79.2839 316.761 79.0821C316.563 78.8804 316.257 78.7796 315.843 78.7796H314.607V81.0206ZM324.698 83.0411C324.698 82.7505 324.596 82.5282 324.391 82.3744C324.186 82.2171 323.816 82.053 323.283 81.8821C322.75 81.7077 322.328 81.5368 322.016 81.3693C321.169 80.9112 320.745 80.2941 320.745 79.518C320.745 79.1146 320.857 78.7557 321.083 78.4411C321.312 78.1232 321.639 77.8753 322.063 77.6976C322.49 77.5198 322.969 77.4309 323.498 77.4309C324.032 77.4309 324.507 77.5283 324.924 77.7232C325.341 77.9146 325.664 78.1864 325.893 78.5386C326.126 78.8907 326.242 79.2907 326.242 79.7385H324.704C324.704 79.3967 324.596 79.1317 324.381 78.9437C324.165 78.7522 323.863 78.6565 323.473 78.6565C323.097 78.6565 322.804 78.7369 322.596 78.8975C322.387 79.0548 322.283 79.2633 322.283 79.5232C322.283 79.7659 322.404 79.9693 322.647 80.1334C322.893 80.2975 323.254 80.4514 323.729 80.5949C324.604 80.8582 325.242 81.1847 325.642 81.5744C326.042 81.9642 326.242 82.4496 326.242 83.0308C326.242 83.6769 325.998 84.1846 325.509 84.5539C325.02 84.9197 324.362 85.1026 323.534 85.1026C322.96 85.1026 322.437 84.9983 321.965 84.7897C321.493 84.5778 321.133 84.2889 320.883 83.9231C320.637 83.5573 320.514 83.1334 320.514 82.6513H322.057C322.057 83.4752 322.55 83.8872 323.534 83.8872C323.9 83.8872 324.186 83.8137 324.391 83.6667C324.596 83.5163 324.698 83.3077 324.698 83.0411Z" fill="white"/>
<rect x="343" y="73" width="7" height="16" rx="1" fill="white"/>
<rect x="351" y="73" width="7" height="16" rx="1" fill="white"/>
<path d="M325.178 111.07C324.608 110.392 323.768 110 322.882 110H251.161C249.504 110 248.161 111.343 248.161 113V142.708C248.161 144.365 249.504 145.708 251.161 145.708H322.882C323.768 145.708 324.608 145.316 325.178 144.638L337.659 129.784C338.596 128.668 338.596 127.04 337.659 125.924L325.178 111.07Z" fill="#E7EFF1"/>
<path d="M338.158 107.436C337.613 106.544 336.643 106 335.598 106L251.28 106C249.623 106 248.28 107.343 248.28 109V139C248.28 140.657 249.623 142 251.28 142H335.137C336.161 142 337.114 141.478 337.665 140.615L347.271 125.58C347.888 124.613 347.901 123.379 347.303 122.4L338.158 107.436Z" fill="#46B2FF"/>
<path d="M322.653 120.257C322.503 119.854 322.099 119.626 321.688 119.626C321.482 119.626 321.464 119.631 321.341 119.631H318.017C317.894 119.631 317.786 119.631 317.67 119.631C317.2 119.631 316.855 119.854 316.705 120.257L314.93 125.655C314.761 126.111 314.989 126.619 315.44 126.789C315.891 126.96 316.394 126.729 316.563 126.274L317.035 125.003C317.035 125.003 317.069 124.875 317.069 125.434V132.928C317.069 133.583 317.595 134.114 318.243 134.114C318.892 134.114 319.418 133.583 319.418 132.928V128.032C319.418 128.032 319.412 127.989 319.458 127.989C319.568 127.989 319.789 127.989 319.899 127.989C319.942 127.989 319.94 128.032 319.94 128.032V132.928C319.94 133.583 320.466 134.114 321.115 134.114C321.763 134.114 322.289 133.583 322.289 132.928V125.434C322.289 124.866 322.338 125.045 322.338 125.045L322.795 126.274C322.964 126.73 323.467 126.96 323.918 126.789C324.369 126.619 324.597 126.111 324.428 125.655L322.653 120.257Z" fill="white"/>
<path d="M319.703 119.032C321.095 119.032 322.224 117.914 322.224 116.536C322.224 115.158 321.095 114.04 319.703 114.04C318.31 114.04 317.181 115.158 317.181 116.536C317.181 117.914 318.31 119.032 319.703 119.032Z" fill="white"/>
<path d="M330.958 119.044C332.351 119.044 333.48 117.915 333.48 116.522C333.48 115.129 332.351 114 330.958 114C329.566 114 328.437 115.129 328.437 116.522C328.437 117.915 329.566 119.044 330.958 119.044Z" fill="white"/>
<path d="M335.918 125.535L333.766 120.294C333.643 120.029 333.534 119.675 333.028 119.675C332.841 119.675 332.656 119.675 332.442 119.675H329.809C329.591 119.675 329.478 119.675 329.209 119.675C328.705 119.675 328.442 120.003 328.298 120.299L326.063 125.501C325.85 125.938 326.028 126.466 326.459 126.68C326.892 126.894 327.415 126.714 327.628 126.277L327.796 125.932C327.796 125.932 327.848 125.839 327.828 125.942C327.707 126.582 327.371 128.509 327.371 128.509C327.289 128.91 327.557 129.239 327.966 129.239C327.966 129.239 328.696 129.239 328.94 129.239C329.009 129.239 328.997 129.291 328.997 129.291V133.164C328.997 133.813 329.401 134.153 329.9 134.153C330.398 134.153 330.802 133.813 330.802 133.164V129.276C330.802 129.276 330.8 129.237 330.841 129.239C330.893 129.24 331.026 129.239 331.085 129.239C331.119 129.239 331.115 129.28 331.115 129.28V133.164C331.115 133.813 331.519 134.153 332.018 134.153C332.516 134.153 332.921 133.813 332.921 133.164V129.301C332.921 129.301 332.915 129.239 332.989 129.239C333.251 129.239 334.036 129.239 334.036 129.239C334.445 129.239 334.72 128.909 334.646 128.507C334.646 128.507 334.31 126.44 334.22 125.877C334.194 125.715 334.462 126.289 334.462 126.289C334.667 126.729 335.063 126.913 335.499 126.707C335.935 126.5 336.123 125.976 335.918 125.535Z" fill="white"/>
<path d="M311.599 155.483C311.061 154.564 310.076 154 309.011 154H254.28C252.623 154 251.28 155.343 251.28 157V187C251.28 188.657 252.623 190 254.28 190H309.011C310.076 190 311.061 189.436 311.599 188.517L320.391 173.517C320.94 172.58 320.94 171.42 320.391 170.483L311.599 155.483Z" fill="#E7EFF1"/>
<path d="M310.158 151.436C309.613 150.544 308.643 150 307.598 150H251.28C249.623 150 248.28 151.343 248.28 153V183C248.28 184.657 249.623 186 251.28 186H307.598C308.643 186 309.613 185.456 310.158 184.564L319.324 169.564C319.911 168.604 319.911 167.396 319.324 166.436L310.158 151.436Z" fill="#46B2FF"/>
<path d="M267.574 170.056C267.297 170.388 266.906 170.646 266.4 170.831C265.894 171.012 265.333 171.103 264.718 171.103C264.072 171.103 263.504 170.962 263.015 170.682C262.53 170.398 262.154 169.988 261.887 169.451C261.624 168.915 261.489 168.284 261.482 167.559V167.051C261.482 166.306 261.607 165.662 261.856 165.118C262.109 164.571 262.472 164.154 262.944 163.867C263.419 163.576 263.974 163.431 264.61 163.431C265.496 163.431 266.188 163.643 266.687 164.067C267.186 164.487 267.482 165.101 267.574 165.908H266.077C266.008 165.48 265.856 165.168 265.62 164.969C265.388 164.771 265.067 164.672 264.656 164.672C264.133 164.672 263.735 164.868 263.461 165.262C263.188 165.655 263.05 166.239 263.046 167.015V167.492C263.046 168.275 263.195 168.867 263.492 169.267C263.79 169.667 264.226 169.867 264.8 169.867C265.378 169.867 265.79 169.744 266.036 169.497V168.21H264.636V167.077H267.574V170.056ZM272.45 166.898L274.004 163.533H275.686L273.235 168.292V171H271.671V168.292L269.219 163.533H270.907L272.45 166.898ZM279.428 163.533L281.346 168.949L283.254 163.533H285.274V171H283.731V168.959L283.885 165.436L281.869 171H280.813L278.803 165.441L278.957 168.959V171H277.418V163.533H279.428Z" fill="white"/>
<path d="M161 70C161 68.3431 162.343 67 164 67H241C242.657 67 244 68.3431 244 70V187C244 188.657 242.657 190 241 190H164C162.343 190 161 188.657 161 187V70Z" fill="#E7EFF1"/>
<path d="M158 66C158 64.3431 159.343 63 161 63H239C240.657 63 242 64.3431 242 66V183C242 184.657 240.657 186 239 186H161C159.343 186 158 184.657 158 183V66Z" fill="#4E5F88"/>
<path d="M166 73C166 71.8954 166.895 71 168 71H233C234.105 71 235 71.8954 235 73V176C235 177.105 234.105 178 233 178H168C166.895 178 166 177.105 166 176V73Z" fill="#4E5F88" stroke="#46ACF8" stroke-width="2"/>
<path d="M188.148 164H195.418C196.052 164 196.566 163.482 196.566 162.842C196.566 162.202 196.052 161.684 195.418 161.684H189.296V154.033H197.867V156.677C197.306 156.753 196.872 157.236 196.872 157.824C196.872 158.463 197.386 158.982 198.02 158.982H200.01C200.644 158.982 201.158 158.463 201.158 157.824C201.158 157.236 200.725 156.753 200.163 156.677V148.636C200.163 147.996 199.649 147.478 199.015 147.478C198.381 147.478 197.867 147.996 197.867 148.636V151.717H189.296V145.316H208.658V149.871H204.602C203.968 149.871 203.454 150.39 203.454 151.029C203.454 151.669 203.968 152.188 204.602 152.188H208.658V153.423C208.658 154.062 209.172 154.581 209.806 154.581H214.704V161.684H210.954V159.754C210.954 159.114 210.44 158.596 209.806 158.596C209.172 158.596 208.658 159.114 208.658 159.754V161.684H202.995C202.361 161.684 201.847 162.202 201.847 162.842C201.847 163.482 202.361 164 202.995 164H215.852C216.486 164 217 163.482 217 162.842V144.158C217 143.518 216.486 143 215.852 143H188.148C187.514 143 187 143.518 187 144.158V162.842C187 163.482 187.514 164 188.148 164ZM210.954 152.265V149.949H214.704V152.265H210.954ZM214.704 147.632H210.954V145.316H214.704V147.632Z" fill="white"/>
<path d="M205.773 114H199V87.8906L190.914 90.3984V84.8906L205.047 79.8281H205.773V114Z" fill="white"/>
<path d="M192.159 123.949H189.205V127H187.667V119.533H192.528V120.78H189.205V122.708H192.159V123.949ZM196.009 125.764H199.276V127H194.471V119.533H196.009V125.764ZM207.018 123.436C207.018 124.171 206.888 124.815 206.628 125.369C206.369 125.923 205.996 126.35 205.51 126.651C205.028 126.952 204.475 127.103 203.849 127.103C203.23 127.103 202.678 126.954 202.193 126.656C201.707 126.359 201.331 125.935 201.064 125.385C200.798 124.831 200.663 124.195 200.659 123.477V123.108C200.659 122.373 200.791 121.727 201.054 121.169C201.321 120.609 201.695 120.18 202.177 119.882C202.663 119.581 203.216 119.431 203.839 119.431C204.461 119.431 205.013 119.581 205.495 119.882C205.981 120.18 206.355 120.609 206.618 121.169C206.885 121.727 207.018 122.371 207.018 123.103V123.436ZM205.459 123.097C205.459 122.315 205.319 121.72 205.039 121.313C204.758 120.906 204.358 120.703 203.839 120.703C203.322 120.703 202.924 120.904 202.644 121.308C202.364 121.708 202.222 122.296 202.218 123.072V123.436C202.218 124.198 202.358 124.79 202.639 125.21C202.919 125.631 203.322 125.841 203.849 125.841C204.365 125.841 204.762 125.639 205.039 125.236C205.316 124.829 205.456 124.238 205.459 123.462V123.097ZM211.95 124.267H210.725V127H209.186V119.533H211.961C212.843 119.533 213.523 119.73 214.002 120.123C214.48 120.516 214.72 121.072 214.72 121.79C214.72 122.299 214.608 122.725 214.386 123.067C214.167 123.405 213.834 123.675 213.386 123.877L215.002 126.928V127H213.35L211.95 124.267ZM210.725 123.021H211.966C212.352 123.021 212.651 122.923 212.863 122.728C213.075 122.53 213.181 122.258 213.181 121.913C213.181 121.561 213.08 121.284 212.879 121.082C212.68 120.88 212.374 120.78 211.961 120.78H210.725V123.021Z" fill="white"/>
<path d="M267.287 122.78H265V129H263.461V122.78H261.205V121.533H267.287V122.78ZM275.209 125.436C275.209 126.171 275.079 126.815 274.819 127.369C274.559 127.923 274.187 128.35 273.701 128.651C273.219 128.952 272.665 129.103 272.04 129.103C271.421 129.103 270.869 128.954 270.383 128.656C269.898 128.359 269.522 127.935 269.255 127.385C268.989 126.831 268.854 126.195 268.85 125.477V125.108C268.85 124.373 268.982 123.727 269.245 123.169C269.512 122.609 269.886 122.18 270.368 121.882C270.854 121.581 271.407 121.431 272.03 121.431C272.652 121.431 273.204 121.581 273.686 121.882C274.171 122.18 274.546 122.609 274.809 123.169C275.076 123.727 275.209 124.371 275.209 125.103V125.436ZM273.65 125.097C273.65 124.315 273.51 123.72 273.23 123.313C272.949 122.906 272.549 122.703 272.03 122.703C271.513 122.703 271.115 122.904 270.835 123.308C270.554 123.708 270.412 124.296 270.409 125.072V125.436C270.409 126.198 270.549 126.79 270.83 127.21C271.11 127.631 271.513 127.841 272.04 127.841C272.556 127.841 272.953 127.639 273.23 127.236C273.506 126.829 273.647 126.238 273.65 125.462V125.097ZM279.013 129H277.475V121.533H279.013V129ZM283.032 127.764H286.299V129H281.494V121.533H283.032V127.764ZM292.729 125.764H289.775V127.764H293.242V129H288.236V121.533H293.231V122.78H289.775V124.559H292.729V125.764ZM300.917 122.78H298.63V129H297.092V122.78H294.835V121.533H300.917V122.78ZM306.639 127.041C306.639 126.75 306.537 126.528 306.332 126.374C306.126 126.217 305.757 126.053 305.224 125.882C304.691 125.708 304.268 125.537 303.957 125.369C303.109 124.911 302.685 124.294 302.685 123.518C302.685 123.115 302.798 122.756 303.024 122.441C303.253 122.123 303.579 121.875 304.003 121.698C304.431 121.52 304.909 121.431 305.439 121.431C305.973 121.431 306.448 121.528 306.865 121.723C307.282 121.915 307.605 122.186 307.834 122.539C308.067 122.891 308.183 123.291 308.183 123.739H306.644C306.644 123.397 306.537 123.132 306.321 122.944C306.106 122.752 305.803 122.657 305.414 122.657C305.038 122.657 304.745 122.737 304.537 122.898C304.328 123.055 304.224 123.263 304.224 123.523C304.224 123.766 304.345 123.969 304.588 124.133C304.834 124.298 305.195 124.451 305.67 124.595C306.545 124.858 307.183 125.185 307.583 125.574C307.983 125.964 308.183 126.45 308.183 127.031C308.183 127.677 307.938 128.185 307.449 128.554C306.961 128.92 306.303 129.103 305.475 129.103C304.901 129.103 304.378 128.998 303.906 128.79C303.434 128.578 303.073 128.289 302.824 127.923C302.578 127.557 302.455 127.133 302.455 126.651H303.998C303.998 127.475 304.491 127.887 305.475 127.887C305.841 127.887 306.126 127.814 306.332 127.667C306.537 127.516 306.639 127.308 306.639 127.041Z" fill="white"/>
<path fill-rule="evenodd" clip-rule="evenodd" d="M582.274 282.776C582.274 282.776 581.745 273.715 579.34 272.306C576.936 270.902 578.327 273.705 578.327 273.705C578.327 273.705 579.674 280.282 579.974 282.945C579.989 283.075 582.274 282.776 582.274 282.776Z" fill="#FF3A53"/>
<path fill-rule="evenodd" clip-rule="evenodd" d="M518.599 92.7157C518.599 92.7157 541.174 90.8388 540.555 114.542C539.937 138.241 536.175 141.805 540.57 158.554C544.96 175.302 518.56 149.044 518.56 149.044L518.599 92.7157Z" fill="#293856"/>
<path fill-rule="evenodd" clip-rule="evenodd" d="M499.523 156.382C499.523 156.382 467.545 176.297 464.836 174.176C461.054 171.214 450.777 145.952 450.777 145.952L442.73 149.776C442.73 149.776 452.329 193.459 465.265 190.242C478.196 187.026 507.884 168.705 507.884 168.705L499.523 156.382Z" fill="#EEA987"/>
<path fill-rule="evenodd" clip-rule="evenodd" d="M543.294 238.704C543.294 238.704 551.611 249.278 554.544 256.273C557.478 263.268 562.372 278.603 561.718 290.477C561.065 302.351 557.153 324.64 558.296 329.684C559.433 334.727 560.576 345.138 561.798 348.717C563.02 352.297 567.909 362.707 568.403 373.446C568.892 384.18 561.553 431.358 561.878 435.749C562.207 440.146 553.566 437.542 553.566 437.542C553.566 437.542 550.633 394.919 549.002 387.596C547.37 380.277 545.415 355.389 543.948 353.596C542.481 351.809 538.47 333.263 539.089 330.331C539.713 327.404 523.085 283.482 522.107 274.694C521.129 265.912 496.609 238.704 496.609 238.704C496.609 238.704 518.031 230.529 543.294 238.704Z" fill="#EEA987"/>
<path fill-rule="evenodd" clip-rule="evenodd" d="M503.446 238.954C503.446 238.954 503.022 243.385 502.533 245.013C502.044 246.641 490.799 288.124 489.657 304.065C488.515 320.012 485.581 333.534 485.092 336.939C484.603 340.345 485.581 351.731 486.559 354.663C487.537 357.591 481.67 426.73 481.181 428.358C480.692 429.981 485.092 430.469 488.19 429.981C491.288 429.493 506.933 379.228 505.955 370.764C504.978 362.306 504 344.268 506.774 336.939C509.542 329.606 534.486 276.573 534.646 273.322C534.81 270.066 545.442 214.021 503.446 238.954Z" fill="#EEA987"/>
<path fill-rule="evenodd" clip-rule="evenodd" d="M553.398 432.753C553.398 432.753 552.595 438.369 551.717 439.902C550.838 441.431 548.429 449.237 547.331 450.696C546.234 452.155 543.824 463.093 547.331 464.407C550.839 465.722 559.1 467.907 561.874 463.531C564.652 459.155 565.017 454.779 564.583 451.423C564.144 448.067 560.806 432.673 560.851 431.15C560.896 429.626 553.398 432.753 553.398 432.753Z" fill="#EEA987"/>
<path fill-rule="evenodd" clip-rule="evenodd" d="M548.799 447.659C548.799 447.659 548.42 456.163 554.85 456.163C561.286 456.163 564.134 448.426 564.134 448.426C564.134 448.426 566.324 452.225 564.134 460.32C561.939 468.415 552.805 466.737 550.759 466.444C548.714 466.155 539.016 463.591 548.799 447.659Z" fill="#FF3A53"/>
<path fill-rule="evenodd" clip-rule="evenodd" d="M481.729 424.758C481.729 424.758 477.185 432.873 474.486 434.521C471.118 436.567 464.588 443.144 462.308 443.448C460.028 443.751 451.827 445.2 453.408 449.82C454.71 453.604 474.266 453.062 476.471 451.165C478.676 449.268 485.271 442.457 487.935 442.611C490.594 442.761 489.607 452.434 489.607 452.434H492.495C492.495 452.434 493.503 443.025 493.628 441.406C493.987 436.617 490.564 433.097 490.415 430.364C490.26 427.631 490.105 425.594 490.105 425.594L481.729 424.758Z" fill="#FF3A53"/>
<path fill-rule="evenodd" clip-rule="evenodd" d="M463.185 443.219C463.185 443.219 469.63 445.439 474.594 442.596C479.553 439.748 489.076 435.427 492.439 435.397C492.439 435.397 490.608 429.796 490.568 429.169C490.528 428.541 490.329 425.589 490.329 425.589L482.002 424.26C482.002 424.26 476.604 432.171 474.225 434.033C471.845 435.895 465.749 440.54 463.185 443.219Z" fill="#EEA987"/>
<path fill-rule="evenodd" clip-rule="evenodd" d="M496.015 238.159C496.015 238.159 493.696 247.798 492.837 250.601C491.984 253.409 486.487 296.947 485.135 324.176C485.135 324.176 518.026 336.622 563.259 334.546C563.259 334.546 564.362 284.521 560.201 270.371C556.045 256.217 548.522 242.974 542.84 238.891C537.786 235.257 496.015 238.159 496.015 238.159Z" fill="#FF3A53"/>
<path fill-rule="evenodd" clip-rule="evenodd" d="M571.347 262.602C571.347 262.602 570.678 266.665 569.441 270.583C568.209 274.501 567.072 275.751 567.57 277.991C567.94 279.689 569.86 280.959 570.349 280.416C570.833 279.873 571.068 273.286 573.801 273.316C576.535 273.346 572.983 281.471 574.61 280.874C576.241 280.276 582.507 276.856 582.113 273.535C581.719 270.215 579.209 267.815 579.374 262.856C579.519 258.355 578.112 256.479 578.112 256.479L571.347 262.602Z" fill="#EEA987"/>
<path fill-rule="evenodd" clip-rule="evenodd" d="M440.734 148.088C440.734 148.088 444.551 153.037 446.905 153.565C449.255 154.087 451.78 148.377 451.78 148.377L450.428 143.463L440.734 148.088Z" fill="#EEA886"/>
<path fill-rule="evenodd" clip-rule="evenodd" d="M450.149 146.245C450.149 146.245 451.974 140.534 452.229 139.653C452.478 138.772 451.585 136.188 449.964 133.728C448.388 131.338 446.402 128.705 445.709 128.018C445.349 127.659 445.15 127.256 443.957 127.789C442.77 128.326 442.057 129.432 442.057 129.432C442.057 129.432 440.276 129.407 439.503 130.836C439.503 130.836 437.826 130.885 437.218 132.653C437.218 132.653 435.581 132.747 435.247 134.067C435.247 134.067 436.035 136.506 436.065 137.492C436.095 138.478 438.086 143.437 440.725 147.898C440.725 147.898 444.651 151.273 450.149 146.245Z" fill="#EEA886"/>
<path fill-rule="evenodd" clip-rule="evenodd" d="M445.918 138.86C445.918 138.86 443.947 141.14 443.718 142.062C443.493 142.978 437.741 139.562 437.741 139.562C437.741 139.562 443.074 136.545 445.918 138.86Z" fill="#CF8C6C"/>
<path fill-rule="evenodd" clip-rule="evenodd" d="M446.013 128.75C446.013 128.75 449.191 135.476 448.123 136.053C447.061 136.636 446.317 136.203 446.317 136.203L446.148 139.573C446.148 139.573 444.776 141.744 442.805 139.618C442.805 139.618 441.732 141.774 440.081 139.499C440.081 139.499 438.734 140.609 437.781 139.688C436.829 138.767 435.247 134.221 435.247 134.221C435.247 134.221 435.342 133.111 437.218 132.807C437.218 132.807 437.702 131.08 439.503 130.99C439.503 130.99 440.525 129.218 442.471 129.138C442.471 129.138 443.583 127.555 445.709 128.172C445.709 128.172 445.898 128.456 446.013 128.75Z" fill="#DB9C7C"/>
<path fill-rule="evenodd" clip-rule="evenodd" d="M451.991 139.469C451.991 139.469 448.134 136.084 445.216 135.158C444.552 134.954 443.874 134.869 443.43 135.402C442.991 135.934 443.2 137.254 444.797 138.802C446.393 140.355 447.745 143.089 447.745 143.089C447.745 143.089 449.85 144.204 451.991 139.469Z" fill="#EEA886"/>
<path fill-rule="evenodd" clip-rule="evenodd" d="M442.231 128.978C442.231 128.978 446.168 135.968 446.123 136.789C446.078 137.611 448.702 136.212 448.692 135.51C448.677 134.808 445.838 128.584 445.469 128.012C445.105 127.434 442.935 127.016 442.231 128.978Z" fill="#EEA886"/>
<path fill-rule="evenodd" clip-rule="evenodd" d="M446.101 129.339C446.101 129.339 439.825 117.659 438.902 118.083C437.56 118.7 437.919 121.936 443.212 130.659C448.355 139.137 446.101 129.339 446.101 129.339Z" fill="#EEA886"/>
<path fill-rule="evenodd" clip-rule="evenodd" d="M497.552 180.789L484.636 163.693C484.636 163.693 507.724 145.849 514.848 157.196C514.848 157.196 515.357 175.89 497.552 180.789Z" fill="#425E95"/>
<path fill-rule="evenodd" clip-rule="evenodd" d="M490.143 180.086C490.507 185.816 493.441 190.576 493.93 192.652C494.418 194.723 493.93 199.482 494.543 204.242C495.152 209.002 496.988 231.694 496.374 238.162C495.765 244.629 540.849 241.707 544.276 239.755C544.276 239.755 536.678 226.203 536.479 220.592C536.404 218.665 535.257 212.661 538.435 208.27C540.111 205.95 543.224 198.571 546.332 193.174C546.332 193.174 545.753 192.054 546.332 193.174C547.534 191.083 548.796 188.992 549.679 187.444C550.827 185.413 551.465 183.013 551.465 183.013C551.465 183.013 553.471 158.12 547.968 155.317C542.465 152.509 539.532 152.021 534.154 151.777C528.776 151.533 525.229 150.433 525.229 150.433L512.637 151.777C512.637 151.777 504.566 154.585 501.388 154.829C498.21 155.073 494.174 161.903 494.543 166.295C494.907 170.686 489.774 174.35 490.143 180.086Z" fill="#364E7D"/>
<path fill-rule="evenodd" clip-rule="evenodd" d="M573.381 272.946C573.381 272.946 569.739 273.877 569.953 286.169L574.079 285.482C574.079 285.482 574.004 278.686 575.232 274.987C575.232 274.987 575.022 272.582 573.381 272.946Z" fill="#FF3A53"/>
<path fill-rule="evenodd" clip-rule="evenodd" d="M558.47 288.97L590.583 279.879L590.488 319.35L558.53 338.463L558.47 288.97Z" fill="#364E7D"/>
<path fill-rule="evenodd" clip-rule="evenodd" d="M558.47 338.463L562.496 339.205L593.576 319.912L593.192 280.063L590.523 279.879L558.47 338.463Z" fill="#364E7D"/>
<path fill-rule="evenodd" clip-rule="evenodd" d="M542.634 152.923C542.634 152.923 552.631 152.888 557.156 161.675C561.681 170.458 562.17 179.733 563.273 183.024C564.37 186.32 567.249 205.702 568.346 208.51C569.449 211.313 575.984 230.366 577.575 241.1C579.162 251.839 579.501 262.732 579.501 262.732L571.474 262.478C571.474 262.478 563.512 233.269 560.768 226.313C558.423 220.369 557.526 209.988 556.179 206.329C554.837 202.67 546.52 176.925 544.809 175.093C543.098 173.266 534.103 154.546 542.634 152.923Z" fill="#EEA886"/>
<path fill-rule="evenodd" clip-rule="evenodd" d="M545.755 188.541L566.13 182.134C566.13 182.134 559.884 152.137 542.478 152.939C528.509 153.586 545.755 188.541 545.755 188.541Z" fill="#425E95"/>
<path fill-rule="evenodd" clip-rule="evenodd" d="M520.707 94.8907C515.115 93.9746 502.309 95.3786 498.682 110.041C498.682 110.041 498.672 114.103 499.285 117.364C499.899 120.63 496.003 129.602 496.691 130.145C497.375 130.687 500.358 131.618 500.358 131.618C500.358 131.618 502.478 142.148 506.06 142.472C509.642 142.79 523.486 141.546 531.298 129.642C539.116 117.738 543.306 98.5799 520.707 94.8907Z" fill="#EEA886"/>
<path fill-rule="evenodd" clip-rule="evenodd" d="M511.391 138.523C511.391 138.523 511.666 139.996 511.925 142.167C512.055 143.272 512.18 144.562 512.264 145.926C512.489 149.705 512.369 154.081 511.077 156.854C511.077 156.854 518.091 161.19 525.609 150.765C525.609 150.765 524.876 137.751 529.191 130.875C533.507 123.995 511.391 138.523 511.391 138.523Z" fill="#EEA886"/>
<path fill-rule="evenodd" clip-rule="evenodd" d="M496 109C496 109 504.5 118.5 515.946 119.802C524.871 122.092 529.59 132.094 529.59 132.094C529.59 132.094 545.374 116.382 535.851 101.132C526.322 85.8823 496 90.5 496 109Z" fill="#293856"/>
<path fill-rule="evenodd" clip-rule="evenodd" d="M512.074 141.765C512.204 142.87 512.329 144.159 512.413 145.523C520.281 141.715 524.616 136.492 524.616 136.492C519.991 139.798 512.074 141.765 512.074 141.765Z" fill="#A77860"/>
<path fill-rule="evenodd" clip-rule="evenodd" d="M517.562 120.003C517.562 120.003 526.687 144.493 525.594 150.383C525.594 150.383 530.424 149.556 539.024 152.18C539.024 152.18 534.869 108.492 517.562 120.003Z" fill="#293856"/>
<path fill-rule="evenodd" clip-rule="evenodd" d="M528.466 151.153C528.466 151.153 525.463 169.519 514.333 167.443C503.208 165.372 511.649 151.915 511.649 151.915C511.649 151.915 515.994 148.021 528.466 151.153Z" fill="#EEA886"/>
<path fill-rule="evenodd" clip-rule="evenodd" d="M419.174 434.739C419.174 434.739 420.281 442.476 420.421 443.636C420.561 444.801 432.733 442.954 432.733 442.954L433.716 433.738C433.716 433.738 420.695 433.644 419.174 434.739Z" fill="#5C544D"/>
<path fill-rule="evenodd" clip-rule="evenodd" d="M420.342 442.723C420.342 442.723 416.486 447.388 412.754 449.419C409.027 451.451 403.166 452.257 400.961 454.358C399.364 455.877 395.159 462.419 410.654 462.284C426.144 462.155 433.612 463.21 435.273 460.701C436.93 458.197 432.869 442.2 432.869 442.2C432.869 442.2 429.202 443.529 420.342 442.723Z" fill="#3A3A3A"/>
<path fill-rule="evenodd" clip-rule="evenodd" d="M331.87 434.739C331.87 434.739 332.978 442.476 333.117 443.636C333.257 444.801 345.425 442.954 345.425 442.954L346.412 433.738C346.412 433.738 333.392 433.644 331.87 434.739Z" fill="#5C544D"/>
<path fill-rule="evenodd" clip-rule="evenodd" d="M332.71 442.723C332.71 442.723 328.854 447.388 325.122 449.419C321.391 451.451 307.667 453.118 305.461 455.224C303.87 456.743 301.221 462.857 323.017 462.284C338.502 461.881 345.98 463.21 347.642 460.701C349.298 458.197 345.237 442.2 345.237 442.2C345.237 442.2 341.78 443.619 332.71 442.723Z" fill="#3A3A3A"/>
<path fill-rule="evenodd" clip-rule="evenodd" d="M414.94 235.087C414.94 235.087 421.416 254.29 420.562 270.839C419.709 287.388 423.915 305.5 425.631 322.786C427.547 342.059 435.384 387.688 435.669 397.999C435.953 408.305 434.451 441.229 434.451 441.229L418.762 441.587C418.762 441.587 405.586 361.824 402.169 353.684C398.756 345.544 381.835 287.517 381.266 281.005C380.697 274.498 414.94 235.087 414.94 235.087Z" fill="#364E7D"/>
<path fill-rule="evenodd" clip-rule="evenodd" d="M348.921 238.231C348.921 238.231 340.306 283.592 339.168 293.723C338.031 303.85 337.272 342.738 336.704 349.071C336.135 355.399 332.907 431.911 329.874 441.316H349.934C349.934 441.316 365.334 385.699 365.334 359.382C365.334 333.065 377.233 302.167 384.91 284.806C392.588 267.441 410.169 267.033 414.888 234.816C414.888 234.816 355.317 228.015 348.921 238.231Z" fill="#364E7D"/>
<path fill-rule="evenodd" clip-rule="evenodd" d="M389.16 83.4461C389.16 83.4461 373.35 77.5513 366.057 89.5649C358.768 101.573 359.471 125.625 367.439 128.583C375.411 131.54 387.384 129.992 391.465 122.474C395.545 114.961 399.227 104.093 399.052 96.8287C398.873 89.5698 393.31 85.5421 389.16 83.4461Z" fill="#EEA886"/>
<path fill-rule="evenodd" clip-rule="evenodd" d="M370.238 127.65C370.238 127.65 370.877 131.787 369.824 133.823C368.766 135.865 389.709 135.914 389.709 135.914C389.709 135.914 391.41 124.832 394.633 115.467C397.856 106.107 370.238 127.65 370.238 127.65Z" fill="#EEA886"/>
<path fill-rule="evenodd" clip-rule="evenodd" d="M395.515 120C395.515 120 392.761 120.921 386.86 120C380.958 119.074 374.522 108.29 372.058 107.428C369.593 106.567 369.573 105.123 369.573 105.123L368.027 107.373L365.413 107.538C365.413 107.538 364.941 93.1524 357.568 93.7672C353.966 90.9094 367.937 74.9872 386.86 81.5889C386.86 81.5889 402.392 86.0868 401.863 94.3365C401.339 102.586 398.767 115.893 395.515 120Z" fill="#FCE88B"/>
<path fill-rule="evenodd" clip-rule="evenodd" d="M368.787 133.774C368.787 133.774 368.857 129.881 370.623 129.507C372.394 129.134 390.144 127.431 392.314 128.282V132.818C392.314 132.818 388.129 135.387 368.787 133.774Z" fill="#E2D2CA"/>
<path fill-rule="evenodd" clip-rule="evenodd" d="M369.75 102.179C370.079 100.795 373.606 96.8373 374.958 101.074C376.305 105.306 372.918 111.002 371.027 110.514C369.136 110.026 368.912 105.684 369.75 102.179Z" fill="#EEA886"/>
<path fill-rule="evenodd" clip-rule="evenodd" d="M368.771 133.483C368.771 133.483 359.042 136.973 347.773 141.758C347.773 141.758 334.807 146.587 333.405 160.876C332.657 168.458 324.565 208.716 323.048 212.121C321.532 215.527 303.587 270.242 302.953 271.377C302.325 272.513 317.601 278.84 318.613 278.338C319.621 277.835 335.984 228.431 337.631 224.772C337.631 224.772 347.049 195.154 347.299 190.738C347.299 190.738 347.573 203.324 348.077 206.854C348.586 210.389 339.701 278.975 339.955 280.867C340.205 282.759 380.32 285.163 396.373 283.401C412.427 281.633 425.383 277.944 425.383 277.944C425.383 277.944 412.752 223.816 413.141 217.812C413.984 204.738 418.364 180.108 418.364 180.108L431.455 204.738L417.585 243.008L420.637 257.044C420.637 257.044 449.669 213.879 450.681 209.592C451.694 205.301 449.155 199.834 447.514 196.304C445.867 192.769 435.077 165.884 432.547 162.101C430.018 158.317 425.747 143.162 415.421 138.945C406.785 135.415 392.298 132.527 392.298 132.527L368.771 133.483Z" fill="#293856"/>
<path fill-rule="evenodd" clip-rule="evenodd" d="M347.35 297.464L274 278.694L287.121 227.623L360.471 246.393L347.35 297.464Z" fill="url(#paint3_linear)"/>
<path fill-rule="evenodd" clip-rule="evenodd" d="M296.456 282.883C296.456 282.883 294.36 286.263 293.592 287.229C292.829 288.195 295.478 288.797 296.61 287.822C297.743 286.846 296.456 282.883 296.456 282.883Z" fill="#C98462"/>
<path fill-rule="evenodd" clip-rule="evenodd" d="M311.893 294.283C311.893 294.283 313.13 292.999 313.394 292.167C313.394 292.167 313.763 290.629 314.093 289.549C314.197 289.205 314.297 288.911 314.382 288.722C314.736 287.955 315.739 286.367 316.058 284.276C316.382 282.19 317.295 272.825 317.295 272.825L311.613 271.396L307.048 270.436C307.048 270.436 297.191 280.253 296.662 282.16C296.612 282.349 296.567 282.534 296.542 282.713C296.253 284.376 296.737 285.73 296.687 286.616C296.667 286.945 296.717 290.201 297.475 290.808C298.528 291.655 299.605 291.819 300.488 291.535C300.488 291.535 302.623 293.103 304.409 293.009C304.409 293.009 306.335 294.517 308.52 293.771C308.52 293.771 310.645 295.08 311.893 294.283Z" fill="#DE9D7D"/>
<path fill-rule="evenodd" clip-rule="evenodd" d="M334.005 235.057C334.005 235.057 320.984 274.408 318.594 278.536C318.594 278.536 309.046 276.534 302.935 271.575L317.227 229.112L334.005 235.057Z" fill="#293856"/>
<circle cx="300.5" cy="169.5" r="7.5" fill="white"/>
<rect x="296.308" y="157.23" width="7.23077" height="9.53846" rx="2" stroke="white" stroke-width="2"/>
<path d="M625.993 218.723C628.233 220.836 627.347 224.581 624.398 225.465L608.271 230.3C605.322 231.184 602.522 228.545 603.229 225.549L607.101 209.156C607.809 206.158 611.497 205.051 613.738 207.165L625.993 218.723Z" fill="#FFE500" fill-opacity="0.64"/>
<path opacity="0.3" d="M163.085 14.858C161.04 13.7972 160.904 10.9222 162.841 9.67356L173.428 2.84676C175.371 1.5938 177.941 2.91718 178.05 5.22666L178.646 17.8532C178.755 20.1627 176.321 21.7222 174.268 20.6577L163.085 14.858Z" fill="#46B2FF"/>
<path d="M38.8404 289.978C41.2292 288.036 44.8251 289.407 45.3135 292.447L49.8873 320.917C50.3757 323.957 47.3899 326.386 44.5128 325.289L17.5651 315.013C14.6877 313.916 14.0774 310.115 16.4666 308.173L38.8404 289.978Z" fill="#FF3A53" fill-opacity="0.5"/>
<defs>
<linearGradient id="paint0_linear" x1="603" y1="375" x2="-40.5605" y2="375" gradientUnits="userSpaceOnUse">
<stop stop-color="#CBDCE2" stop-opacity="0"/>
<stop offset="0.244792" stop-color="#CBDCE2"/>
<stop offset="0.591617" stop-color="#CBDCE2"/>
<stop offset="0.93345" stop-color="#CBDCE2" stop-opacity="0"/>
</linearGradient>
<linearGradient id="paint1_linear" x1="160.198" y1="384.605" x2="198.066" y2="384.605" gradientUnits="userSpaceOnUse">
<stop stop-color="#FF9444"/>
<stop offset="1" stop-color="#E4D19C"/>
</linearGradient>
<linearGradient id="paint2_linear" x1="160.198" y1="384.605" x2="198.066" y2="384.605" gradientUnits="userSpaceOnUse">
<stop stop-color="#D9A67F"/>
<stop offset="1" stop-color="#FFD663"/>
</linearGradient>
<linearGradient id="paint3_linear" x1="287.516" y1="231.155" x2="348.338" y2="299.349" gradientUnits="userSpaceOnUse">
<stop stop-color="#CEE7F4"/>
<stop offset="0.977351" stop-color="#E5EFF7"/>
</linearGradient>
<clipPath id="clip0">
<rect width="36" height="36" fill="white" transform="translate(37 70.584)"/>
</clipPath>
</defs>
</svg>
