<svg width="646" height="486" viewBox="0 0 646 486" fill="none" xmlns="http://www.w3.org/2000/svg">
<rect x="19" y="397" width="626" height="17" fill="url(#paint0_linear)"/>
<path d="M595.895 479.87C595.895 482.56 582.4 483.047 570.2 485.445C558 487.842 533.164 481.823 530 479.87C530 477.181 544.751 475 562.947 475C585.546 475.3 597.247 477.273 595.895 479.87Z" fill="#CBDCE2" fill-opacity="0.47"/>
<g clip-path="url(#clip0)">
<rect x="349" y="347" width="127" height="81" fill="#1B2C49"/>
<rect x="349" y="134" width="127" height="213" fill="#D7E7ED"/>
<path fill-rule="evenodd" clip-rule="evenodd" d="M424.902 269.923C425.398 269.923 425.929 269.923 426.327 269.923C427.331 269.923 441.851 259.9 442.933 259.455C444.015 259.009 441.428 248.1 441.428 247.325C441.428 246.55 440.776 246.845 440.776 246.845L439.633 246.106L424.902 247.044L410.171 246.106L409.027 246.845C409.027 246.845 408.376 246.55 408.376 247.325C408.376 248.1 405.789 259.009 406.871 259.455C407.953 259.9 422.473 269.923 423.476 269.923C423.875 269.923 424.406 269.923 424.902 269.923Z" fill="#667F8B"/>
<path fill-rule="evenodd" clip-rule="evenodd" d="M409.313 163.16C409.366 163.077 409.313 159.532 411.478 158.591C412.765 158.03 414.197 158.591 414.197 158.591C414.197 158.591 416.204 156.874 417.84 157.095C419.477 157.317 421.14 159.006 421.14 159.006C421.14 159.006 424.699 157.898 426.853 159.92C429.007 161.941 428.453 164.988 428.347 165.154C428.241 165.32 430.406 166.926 431.541 169.806C432.677 172.686 430.169 174.625 429.535 176.702C428.902 178.779 432.413 182.351 432.413 182.351C432.413 182.351 429.298 185.647 422.434 180.717C415.57 175.788 409.313 163.16 409.313 163.16Z" fill="#DA4B4C"/>
<path fill-rule="evenodd" clip-rule="evenodd" d="M432.413 182.317L432.367 182.269C431.268 181.893 428.622 180.836 427.608 179.077C426.315 176.834 428.717 175.893 429.324 173.982C429.931 172.071 428.849 172.32 427.978 170.52C427.107 168.72 428.162 167.889 428.162 167.889C428.162 167.889 427.476 167.695 425.998 166.061C424.519 164.427 425.47 162.268 425.47 162.268C425.47 162.268 424.968 163.098 422.83 162.683C420.691 162.268 421.008 160.867 421.008 160.867C421.008 160.867 417.92 160.384 417.259 158.114C417.123 157.645 417.104 157.314 417.152 157.075C415.691 157.284 414.197 158.557 414.197 158.557C414.197 158.557 412.765 157.997 411.478 158.557C409.313 159.498 409.366 163.043 409.313 163.126C409.313 163.126 415.57 175.754 422.434 180.683C429.298 185.613 432.413 182.317 432.413 182.317Z" fill="#C63F42"/>
<path fill-rule="evenodd" clip-rule="evenodd" d="M425.094 161.837C425.094 161.837 425.781 160.812 425.358 160.065C424.936 159.317 423.378 159.109 423.378 159.109C423.378 159.109 425.648 159.87 425.094 161.837Z" fill="#E67E7D"/>
<path fill-rule="evenodd" clip-rule="evenodd" d="M430.6 172.512C430.6 172.512 431.062 171.418 430.521 169.673C429.98 167.929 428.713 167.25 428.713 167.25C428.713 167.25 431.023 170.366 430.6 172.512Z" fill="#E67E7D"/>
<path fill-rule="evenodd" clip-rule="evenodd" d="M413.953 302.009C415.264 301.99 416.702 301.927 418.252 301.8C426.143 301.157 438.381 293.286 445.139 296.357C451.898 299.428 446.547 307.243 446.547 307.243C446.547 307.243 453.165 302.665 453.024 290.406C452.883 278.147 446.595 252.355 443.948 232.657C441.302 212.958 444.823 207.917 434.069 206.071C428.173 205.059 420.07 205.379 413.953 205.874C407.836 205.379 399.733 205.059 393.837 206.071C383.083 207.917 386.604 212.958 383.958 232.657C381.311 252.355 375.023 278.147 374.882 290.406C374.741 302.665 381.359 307.243 381.359 307.243C381.359 307.243 376.008 299.428 382.767 296.357C389.525 293.286 401.763 301.157 409.654 301.8C411.204 301.927 412.642 301.99 413.953 302.009Z" fill="#1C4D75"/>
<path fill-rule="evenodd" clip-rule="evenodd" d="M439.106 203.88C439.106 203.88 458.398 277.136 456.92 294.729C455.441 312.321 440.236 313.43 440.869 313.651C441.502 313.872 448.48 303.681 448.054 282.856C447.627 262.031 435.019 208.092 435.019 208.092L439.106 203.88Z" fill="#236CA2"/>
<path fill-rule="evenodd" clip-rule="evenodd" d="M388.894 203.93C388.894 203.93 369.602 277.186 371.081 294.779C372.559 312.371 387.765 313.479 387.131 313.701C386.498 313.922 379.521 303.731 379.947 282.906C380.373 262.081 392.981 208.142 392.981 208.142L388.894 203.93Z" fill="#236CA2"/>
<path fill-rule="evenodd" clip-rule="evenodd" d="M427.517 328.017L429.226 333.015C429.226 333.015 431.054 335.106 433.113 337.1C435.173 339.094 439.396 339.592 440.663 341.032C441.931 342.472 441.297 346.203 441.297 346.203C441.297 346.203 435.911 346.682 431.74 346.072C427.57 345.463 425.881 342.86 424.614 342.583C423.345 342.306 422.659 344.189 422.659 344.189L419.122 343.469C419.122 343.469 418.541 334.441 420.072 332.226C421.603 330.01 427.517 328.017 427.517 328.017Z" fill="#CCDDE2"/>
<path fill-rule="evenodd" clip-rule="evenodd" d="M400.458 328.017L398.749 333.015C398.749 333.015 396.921 335.106 394.862 337.1C392.802 339.094 388.578 339.592 387.312 341.032C386.044 342.472 386.678 346.203 386.678 346.203C386.678 346.203 392.064 346.682 396.234 346.072C400.405 345.463 402.094 342.86 403.361 342.583C404.63 342.306 405.316 344.189 405.316 344.189L408.853 343.469C408.853 343.469 409.434 334.441 407.903 332.226C406.372 330.01 400.458 328.017 400.458 328.017Z" fill="#CCDDE2"/>
<path fill-rule="evenodd" clip-rule="evenodd" d="M429.037 291.896C429.037 291.896 430.477 292.318 430.566 294.238C430.653 296.158 430.143 299.038 430.566 303.174C430.988 307.309 428.471 333.304 428.26 333.229C428.049 333.156 420.921 335.113 420.991 334.891C421.061 334.67 419.654 313.385 419.302 308.206C418.95 303.026 417.753 299.124 419.302 296.423C420.85 293.721 429.037 291.896 429.037 291.896Z" fill="#343939"/>
<path fill-rule="evenodd" clip-rule="evenodd" d="M399.25 291.896C399.25 291.896 397.81 292.318 397.722 294.238C397.634 296.158 398.144 299.038 397.722 303.174C397.299 307.309 399.816 333.304 400.027 333.229C400.239 333.156 407.366 335.113 407.296 334.891C407.225 334.67 408.633 313.385 408.985 308.206C409.337 303.026 410.534 299.124 408.985 296.423C407.437 293.721 399.25 291.896 399.25 291.896Z" fill="#343939"/>
<path fill-rule="evenodd" clip-rule="evenodd" d="M436.507 198.517C436.507 198.517 441.435 197.483 444.321 199.772C447.208 202.062 447.56 207.009 447.278 210.406C446.997 213.803 447.041 218.751 446.926 223.404C446.81 228.161 447.595 228.684 447.595 228.684C447.595 228.684 449.283 233.166 449.531 237.952C449.769 242.544 446.117 259.7 446.117 259.7L439.506 258.039C439.506 258.039 438.725 247.988 438.303 242.272C437.88 236.557 437.211 234.943 437.352 231.398C437.493 227.853 433.597 222.043 431.52 215.366C429.442 208.689 436.507 198.517 436.507 198.517Z" fill="#343939"/>
<path fill-rule="evenodd" clip-rule="evenodd" d="M391.795 198.517C391.795 198.517 386.867 197.483 383.98 199.772C381.094 202.062 380.742 207.009 381.024 210.406C381.305 213.803 381.261 218.751 381.376 223.404C381.492 228.161 380.707 228.684 380.707 228.684C380.707 228.684 379.019 233.166 378.771 237.952C378.533 242.544 382.185 259.7 382.185 259.7L388.796 258.039C388.796 258.039 389.577 247.988 389.999 242.272C390.422 236.557 391.091 234.943 390.95 231.398C390.809 227.853 394.705 222.043 396.782 215.366C398.86 208.689 391.795 198.517 391.795 198.517Z" fill="#343939"/>
<path fill-rule="evenodd" clip-rule="evenodd" d="M414.103 260.162L416.177 259.944L418.881 296.736C422.401 297.327 431.162 293.832 431.162 293.832C431.162 293.832 431.703 265.258 431.421 257.43C431.14 249.602 429.978 237.601 429.978 237.601L426.986 236.199L414.103 235.424L401.221 236.199L398.228 237.601C398.228 237.601 397.067 249.602 396.785 257.43C396.504 265.258 397.045 293.832 397.045 293.832C397.045 293.832 405.805 297.327 409.325 296.736L412.029 259.944L414.103 260.162Z" fill="#343939"/>
<path fill-rule="evenodd" clip-rule="evenodd" d="M415.134 264.183C415.134 264.183 432.198 254.379 433.434 254.767C434.669 255.155 432.346 259.031 432.241 262.632C432.049 269.18 434.945 289.518 431.487 293.425C430.8 294.201 431.645 289.382 426.418 289.881C421.191 290.379 420.979 293.37 419.554 294.146C418.129 294.921 417.6 295.585 417.442 294.146C417.284 292.705 415.715 267.284 415.134 264.183Z" fill="#CCDDE2"/>
<path fill-rule="evenodd" clip-rule="evenodd" d="M412.94 264.183C412.94 264.183 395.876 254.379 394.64 254.767C393.405 255.155 395.728 259.031 395.834 262.632C396.026 269.18 393.129 289.518 396.588 293.425C397.274 294.201 396.429 289.382 401.656 289.881C406.883 290.379 407.094 293.37 408.52 294.146C409.946 294.921 410.474 295.585 410.632 294.146C410.791 292.705 412.359 267.284 412.94 264.183Z" fill="#CCDDE2"/>
<path fill-rule="evenodd" clip-rule="evenodd" d="M414.03 260.767C414.526 260.767 415.057 260.767 415.455 260.767C416.458 260.767 430.978 250.744 432.06 250.298C433.142 249.853 430.556 238.944 430.556 238.169C430.556 237.393 429.904 237.688 429.904 237.688L428.761 236.95L414.03 237.888L399.299 236.95L398.155 237.688C398.155 237.688 397.504 237.393 397.504 238.169C397.504 238.944 394.917 249.853 395.999 250.298C397.081 250.744 411.601 260.767 412.604 260.767C413.002 260.767 413.534 260.767 414.03 260.767Z" fill="#CCDDE2"/>
<path fill-rule="evenodd" clip-rule="evenodd" d="M414.029 260.511C414.526 260.511 415.057 260.511 415.455 260.511C418.992 260.511 430.978 250.489 432.06 250.043C432.473 249.873 432.351 248.179 432.043 246.106C428.031 249.138 421.692 251.095 414.555 251.095C414.379 251.095 414.204 251.094 414.029 251.092C413.855 251.094 413.68 251.095 413.504 251.095C406.367 251.095 400.028 249.138 396.016 246.106C395.708 248.179 395.586 249.873 395.999 250.043C397.081 250.489 409.066 260.511 412.604 260.511C413.002 260.511 413.533 260.511 414.029 260.511Z" fill="#9AAFB6"/>
<path fill-rule="evenodd" clip-rule="evenodd" d="M433.735 198.543L434.39 197.214C434.39 197.214 436.088 193.71 440.672 193.706C448.346 193.7 451.655 203.602 451.655 203.602C451.655 203.602 438.842 214.827 431.098 214.458C423.355 214.088 433.735 198.543 433.735 198.543Z" fill="#CCDDE2"/>
<path fill-rule="evenodd" clip-rule="evenodd" d="M394.74 198.543L394.085 197.214C394.085 197.214 392.387 193.71 387.802 193.706C380.129 193.7 376.82 203.602 376.82 203.602C376.82 203.602 389.633 214.827 397.376 214.458C405.12 214.088 394.74 198.543 394.74 198.543Z" fill="#CCDDE2"/>
<path fill-rule="evenodd" clip-rule="evenodd" d="M450.133 200.394C449.086 201.506 446.781 201.616 444.474 200.028C441.095 197.702 438.507 200.914 436.29 198.54C435.603 197.804 435.45 196.789 435.563 195.74C434.747 196.532 434.389 197.259 434.389 197.259L433.735 198.588C433.735 198.588 423.355 214.133 431.098 214.503C438.842 214.871 451.654 203.647 451.654 203.647C451.654 203.647 451.166 202.189 450.133 200.394Z" fill="#9AAFB6"/>
<path fill-rule="evenodd" clip-rule="evenodd" d="M378.342 200.394C379.388 201.506 381.693 201.616 384.001 200.028C387.38 197.702 389.967 200.914 392.185 198.54C392.872 197.804 393.025 196.789 392.912 195.74C393.728 196.532 394.085 197.259 394.085 197.259L394.74 198.588C394.74 198.588 405.12 214.133 397.376 214.503C389.633 214.871 376.82 203.647 376.82 203.647C376.82 203.647 377.309 202.189 378.342 200.394Z" fill="#9AAFB6"/>
<path fill-rule="evenodd" clip-rule="evenodd" d="M434.295 212.289C434.295 212.289 439.363 210.738 443.693 207.267C448.022 203.796 450.423 201.224 450.838 201.341C451.253 201.457 452.422 202.725 452.352 203.501C452.281 204.276 446.051 210.036 441.405 212.289C436.758 214.541 434.048 215.205 434.048 215.205L434.295 212.289Z" fill="#859AA1"/>
<path fill-rule="evenodd" clip-rule="evenodd" d="M393.91 212.289C393.91 212.289 388.841 210.738 384.512 207.267C380.182 203.796 377.781 201.224 377.366 201.341C376.951 201.457 375.782 202.725 375.853 203.501C375.923 204.276 382.154 210.036 386.8 212.289C391.446 214.541 394.156 215.205 394.156 215.205L393.91 212.289Z" fill="#859AA2"/>
<path fill-rule="evenodd" clip-rule="evenodd" d="M430.039 199.084L432.538 196.758L434.209 197.09C434.209 197.09 437.113 213.041 432.124 220.629C427.134 228.217 430.039 199.084 430.039 199.084Z" fill="#343939"/>
<path fill-rule="evenodd" clip-rule="evenodd" d="M398.321 199.084L395.822 196.758L394.15 197.09C394.15 197.09 391.246 213.041 396.235 220.629C401.225 228.217 398.321 199.084 398.321 199.084Z" fill="#343939"/>
<path fill-rule="evenodd" clip-rule="evenodd" d="M414.034 240.272C422.08 240.415 429.909 237.331 429.909 237.331L429.73 232.979L427.48 229.318C427.268 229.355 420.604 229.355 414.034 229.346C407.465 229.355 400.801 229.355 400.588 229.318L398.339 232.979L398.159 237.331C398.159 237.331 405.988 240.415 414.034 240.272Z" fill="#343939"/>
<path fill-rule="evenodd" clip-rule="evenodd" d="M414.226 236.665C428.597 236.689 430.136 232.714 430.136 232.714C436.19 210.56 432.671 196.677 432.671 196.677L423.202 194.682L421.688 192.688H406.764L405.251 194.682L395.782 196.677C395.782 196.677 392.262 210.56 398.316 232.714C398.316 232.714 399.856 236.689 414.226 236.665Z" fill="#9AAFB6"/>
<path fill-rule="evenodd" clip-rule="evenodd" d="M414.202 226.731C414.276 226.731 414.351 226.73 414.425 226.73C425.309 226.646 433.981 217.005 433.628 205.594C433.451 199.854 432.646 196.677 432.646 196.677L423.177 194.682L421.664 192.688H406.74L405.226 194.682L395.757 196.677C395.757 196.677 394.952 199.854 394.775 205.594C394.422 217.005 403.094 226.646 413.978 226.73C414.053 226.73 414.127 226.731 414.202 226.731Z" fill="#CCDDE2"/>
<path fill-rule="evenodd" clip-rule="evenodd" d="M413.925 198.324C415.682 198.324 417.44 198.033 419.123 197.452C422.229 196.378 422.9 194.993 422.9 194.993V186.02L413.925 185.565L404.949 186.02V194.993C404.949 194.993 405.62 196.378 408.727 197.452C410.41 198.033 412.167 198.324 413.925 198.324Z" fill="#859AA1"/>
<path fill-rule="evenodd" clip-rule="evenodd" d="M414.225 193.257C419.347 193.257 422.286 189.417 422.884 188.623C425.085 185.703 426.897 177.712 426.897 177.712L426.105 176.383L414.225 175.899L402.346 176.383L401.554 177.712C401.554 177.712 403.366 185.703 405.566 188.623C406.165 189.417 409.104 193.257 414.225 193.257Z" fill="#667F8B"/>
<path fill-rule="evenodd" clip-rule="evenodd" d="M414.209 190.993C418.327 190.993 423.185 186.942 426.343 179.988C426.634 178.908 426.819 178.13 426.865 177.927L425.102 176.49L423.092 176.408L414.209 178.598L405.326 176.408L403.317 176.49L401.554 177.927C401.6 178.13 401.785 178.908 402.076 179.988C405.234 186.942 410.091 190.993 414.209 190.993Z" fill="#4C5F67"/>
<path fill-rule="evenodd" clip-rule="evenodd" d="M414.225 178.143L426.897 171.297C426.264 166.977 423.267 163.577 421.595 162.791C419.26 161.694 416.742 161.146 414.225 161.146C411.708 161.146 409.191 161.694 406.856 162.791C405.184 163.577 402.187 166.977 401.554 171.297L414.225 178.143Z" fill="#CCDDE2"/>
<path fill-rule="evenodd" clip-rule="evenodd" d="M414.225 173.7C417.29 173.573 420.588 173.437 423.131 173.332L426.897 171.297C426.868 171.1 426.829 170.907 426.791 170.714C426.13 167.307 424.266 165.215 424.266 165.215C424.266 165.215 424.204 166.728 422.462 167.863C422.104 168.096 421.704 168.257 421.294 168.364C420.477 168.577 419.623 168.535 418.798 168.363C417.29 168.046 415.724 167.802 414.225 167.717C412.727 167.802 411.161 168.046 409.652 168.363C408.828 168.535 407.973 168.577 407.157 168.364C406.746 168.257 406.346 168.096 405.989 167.863C404.246 166.728 404.185 165.215 404.185 165.215C404.185 165.215 402.32 167.307 401.66 170.714C401.622 170.907 401.582 171.1 401.554 171.297L405.32 173.332C407.863 173.437 411.161 173.573 414.225 173.7Z" fill="#9AAFB6"/>
<path fill-rule="evenodd" clip-rule="evenodd" d="M414.023 168.268C415.358 168.268 416.694 168.433 418.001 168.765L426.694 170.968C426.694 170.968 427.328 173.849 426.694 177.504C426.694 177.504 424.209 183.945 417.109 188.534C416.162 189.146 415.092 189.452 414.023 189.452C412.953 189.452 411.883 189.146 410.936 188.534C403.836 183.945 401.351 177.504 401.351 177.504C400.717 173.849 401.351 170.968 401.351 170.968L410.044 168.765C411.351 168.433 412.687 168.268 414.023 168.268Z" fill="#CCDDE2"/>
<path fill-rule="evenodd" clip-rule="evenodd" d="M413.943 189.417C415.004 189.417 416.065 189.114 417.005 188.507C424.123 183.918 426.614 177.462 426.614 177.462C426.708 176.921 426.772 176.4 426.816 175.899C425.422 178.638 422.023 182.755 413.943 184.059C405.863 182.755 402.464 178.638 401.069 175.899C401.114 176.4 401.177 176.921 401.271 177.462C401.271 177.462 403.762 183.918 410.88 188.507C411.82 189.114 412.882 189.417 413.943 189.417Z" fill="#9AAFB6"/>
<path fill-rule="evenodd" clip-rule="evenodd" d="M416.27 186.246C415.911 186.246 415.619 185.94 415.619 185.563V171.495C415.619 171.117 415.911 170.812 416.27 170.812C416.63 170.812 416.921 171.117 416.921 171.495V185.563C416.921 185.94 416.63 186.246 416.27 186.246Z" fill="#444442"/>
<path fill-rule="evenodd" clip-rule="evenodd" d="M420.15 184.207C419.791 184.207 419.499 183.901 419.499 183.524V172.004C419.499 171.627 419.791 171.32 420.15 171.32C420.51 171.32 420.802 171.627 420.802 172.004V183.524C420.802 183.901 420.51 184.207 420.15 184.207Z" fill="#444442"/>
<path fill-rule="evenodd" clip-rule="evenodd" d="M424.029 180.303C423.669 180.303 423.378 179.997 423.378 179.62V172.512C423.378 172.135 423.669 171.829 424.029 171.829C424.389 171.829 424.68 172.135 424.68 172.512V179.62C424.68 179.997 424.389 180.303 424.029 180.303Z" fill="#444442"/>
<path fill-rule="evenodd" clip-rule="evenodd" d="M411.905 186.246C412.265 186.246 412.556 185.94 412.556 185.563V171.495C412.556 171.117 412.265 170.812 411.905 170.812C411.545 170.812 411.254 171.117 411.254 171.495V185.563C411.254 185.94 411.545 186.246 411.905 186.246Z" fill="#444442"/>
<path fill-rule="evenodd" clip-rule="evenodd" d="M408.025 184.207C408.385 184.207 408.676 183.901 408.676 183.524V172.004C408.676 171.627 408.385 171.32 408.025 171.32C407.666 171.32 407.374 171.627 407.374 172.004V183.524C407.374 183.901 407.666 184.207 408.025 184.207Z" fill="#444442"/>
<path fill-rule="evenodd" clip-rule="evenodd" d="M404.145 180.303C404.505 180.303 404.797 179.997 404.797 179.62V172.512C404.797 172.135 404.505 171.829 404.145 171.829C403.786 171.829 403.494 172.135 403.494 172.512V179.62C403.494 179.997 403.786 180.303 404.145 180.303Z" fill="#444442"/>
<path fill-rule="evenodd" clip-rule="evenodd" d="M422.913 282.694C419.26 279.902 419.011 267.902 419.127 261.879C416.799 263.182 415.134 264.139 415.134 264.139C415.684 267.075 417.118 289.998 417.404 293.66C417.442 294.102 417.404 294.464 417.602 294.754C417.77 295.002 417.985 295.017 418.245 294.845C418.562 294.698 418.984 294.412 419.554 294.102C420.979 293.327 421.191 290.336 426.418 289.838C431.645 289.339 430.8 294.157 431.487 293.382C431.722 293.116 433.314 290.688 433.167 285.463C429.961 285.162 425.183 284.428 422.913 282.694Z" fill="#9AAFB6"/>
<path fill-rule="evenodd" clip-rule="evenodd" d="M405.029 282.694C408.682 279.902 408.93 267.902 408.815 261.879C411.142 263.182 412.808 264.139 412.808 264.139C412.258 267.075 410.823 289.998 410.538 293.66C410.499 294.102 410.538 294.464 410.34 294.754C410.172 295.002 409.957 295.017 409.696 294.845C409.38 294.698 408.958 294.412 408.387 294.102C406.962 293.327 406.751 290.336 401.524 289.838C396.297 289.339 397.141 294.157 396.455 293.382C396.219 293.116 394.627 290.688 394.774 285.463C397.98 285.162 402.759 284.428 405.029 282.694Z" fill="#9AAFB6"/>
<path fill-rule="evenodd" clip-rule="evenodd" d="M433.082 222.331C433.082 222.331 432.889 220.124 435.195 218.197C437.5 216.269 446.55 208.202 448.389 209.027C450.229 209.851 448.569 214.313 448.119 217.248C447.669 220.184 448.804 227.491 448.072 228.821C447.34 230.153 447.396 229.183 443.478 230.45C439.559 231.718 437.815 233.592 436.986 233.004C436.156 232.416 435.929 228.211 435.081 226.587C434.232 224.964 433.007 223.201 433.082 222.331Z" fill="#CCDDE2"/>
<path fill-rule="evenodd" clip-rule="evenodd" d="M395.4 222.331C395.4 222.331 395.593 220.124 393.288 218.197C390.982 216.269 381.933 208.202 380.093 209.027C378.253 209.851 379.913 214.313 380.363 217.248C380.813 220.184 379.678 227.491 380.41 228.821C381.142 230.153 381.086 229.183 385.004 230.45C388.923 231.718 390.668 233.592 391.496 233.004C392.326 232.416 392.552 228.211 393.402 226.587C394.251 224.964 395.475 223.201 395.4 222.331Z" fill="#CCDDE2"/>
<path fill-rule="evenodd" clip-rule="evenodd" d="M448.072 229.034C448.291 228.635 448.341 227.693 448.318 226.498C445.223 226.827 440.569 226.903 438.788 224.737C437.277 222.9 436.512 219.936 436.126 217.617C435.758 217.932 435.433 218.209 435.195 218.409C432.889 220.337 433.082 222.543 433.082 222.543C433.007 223.413 434.232 225.176 435.081 226.8C435.929 228.424 436.156 232.629 436.986 233.217C437.815 233.804 439.56 231.93 443.478 230.663C447.396 229.396 447.34 230.366 448.072 229.034Z" fill="#9AAFB6"/>
<path fill-rule="evenodd" clip-rule="evenodd" d="M380.466 229.034C380.247 228.635 380.197 227.693 380.22 226.498C383.315 226.827 387.969 226.903 389.75 224.737C391.261 222.9 392.026 219.936 392.412 217.617C392.78 217.932 393.105 218.209 393.343 218.409C395.649 220.337 395.456 222.543 395.456 222.543C395.531 223.413 394.306 225.176 393.457 226.8C392.608 228.424 392.382 232.629 391.552 233.217C390.723 233.804 388.978 231.93 385.06 230.663C381.142 229.396 381.198 230.366 380.466 229.034Z" fill="#9AAFB6"/>
<path fill-rule="evenodd" clip-rule="evenodd" d="M437.613 236.253C437.613 236.253 440.809 233.993 444.627 233.656C448.445 233.319 450.659 233.051 450.967 234.487C451.274 235.922 450.705 237.132 450.325 239.873C449.945 242.614 447.448 256.393 446.993 257.13C446.537 257.866 440.087 257.285 439.175 256.105C438.263 254.925 436.687 244.238 436.998 241.419C437.307 238.616 437.044 237.015 437.613 236.253Z" fill="#CCDDE2"/>
<path fill-rule="evenodd" clip-rule="evenodd" d="M390.746 236.253C390.746 236.253 387.55 233.993 383.732 233.656C379.914 233.319 377.701 233.051 377.393 234.487C377.085 235.922 377.655 237.132 378.034 239.873C378.414 242.614 380.911 256.393 381.367 257.13C381.823 257.866 388.272 257.285 389.184 256.105C390.096 254.925 391.672 244.238 391.361 241.419C391.051 238.616 391.316 237.015 390.746 236.253Z" fill="#CCDDE2"/>
<path fill-rule="evenodd" clip-rule="evenodd" d="M443.069 249.651C441.331 246.629 440.872 238.272 440.751 234.406C438.871 235.153 437.613 236.041 437.613 236.041C437.044 236.804 437.307 238.405 436.998 241.208C436.687 244.027 438.263 254.714 439.175 255.894C440.087 257.074 446.537 257.655 446.993 256.919C447.13 256.696 447.454 255.279 447.85 253.34C446.099 252.665 444.154 251.536 443.069 249.651Z" fill="#9AAFB6"/>
<path fill-rule="evenodd" clip-rule="evenodd" d="M384.995 250.243C386.734 247.222 387.193 238.865 387.314 234.999C389.193 235.745 390.451 236.634 390.451 236.634C391.021 237.397 390.757 238.997 391.067 241.801C391.378 244.62 389.802 255.306 388.89 256.487C387.978 257.667 381.528 258.248 381.072 257.511C380.935 257.289 380.611 255.872 380.215 253.932C381.966 253.258 383.911 252.128 384.995 250.243Z" fill="#9AAFB6"/>
<path fill-rule="evenodd" clip-rule="evenodd" d="M439.7 257.878C439.7 257.878 437.629 260.119 437.507 261.155C437.385 262.19 435.705 264.831 436.1 265.354C436.493 265.877 438.377 265.047 439.017 263.957C439.657 262.866 439.658 263.176 439.756 263.391C439.854 263.606 439.224 269.02 438.866 270.397C438.508 271.774 435.38 275.149 436.094 275.844C436.808 276.539 440.662 273.094 441.082 271.879C441.502 270.663 442.029 269.13 442.029 269.13C442.029 269.13 441.865 271.687 441.467 272.456C441.069 273.226 438.773 275.386 439.54 275.923C440.307 276.459 442.783 274.502 443.589 272.908C444.395 271.314 444.525 269.594 444.525 269.594C444.525 269.594 444.294 271.858 444.021 272.707C443.747 273.556 442.891 274.184 443.27 274.48C443.648 274.775 445.494 273.206 445.832 272.088C446.169 270.969 446.284 269.416 446.284 269.416C446.284 269.416 446.222 271.767 446.017 272.347C445.811 272.928 445.471 273.342 445.614 273.369C445.759 273.396 446.965 272.608 447.258 271.031C447.552 269.455 447.624 266.487 447.444 264.541C447.32 263.196 446.938 261.17 446.715 260.048C446.613 259.535 446.27 259.114 445.803 258.924L445.045 258.616C443.345 257.926 441.511 257.673 439.7 257.878Z" fill="#CCDDE2"/>
<path fill-rule="evenodd" clip-rule="evenodd" d="M388.542 257.878C388.542 257.878 390.613 260.119 390.735 261.155C390.857 262.19 392.537 264.831 392.143 265.354C391.749 265.877 389.865 265.047 389.225 263.957C388.585 262.866 388.584 263.176 388.486 263.391C388.388 263.606 389.018 269.02 389.376 270.397C389.734 271.774 392.862 275.149 392.148 275.844C391.434 276.539 387.58 273.094 387.16 271.879C386.74 270.663 386.213 269.13 386.213 269.13C386.213 269.13 386.377 271.687 386.775 272.456C387.173 273.226 389.469 275.386 388.703 275.923C387.935 276.459 385.459 274.502 384.653 272.908C383.847 271.314 383.717 269.594 383.717 269.594C383.717 269.594 383.948 271.858 384.221 272.707C384.494 273.556 385.351 274.184 384.973 274.48C384.593 274.775 382.748 273.206 382.41 272.088C382.073 270.969 381.958 269.416 381.958 269.416C381.958 269.416 382.02 271.767 382.226 272.347C382.431 272.928 382.771 273.342 382.628 273.369C382.484 273.396 381.277 272.608 380.984 271.031C380.691 269.455 380.618 266.487 380.798 264.541C380.922 263.196 381.304 261.17 381.527 260.048C381.63 259.535 381.972 259.114 382.439 258.924L383.197 258.616C384.897 257.926 386.73 257.673 388.542 257.878Z" fill="#CCDDE2"/>
<path fill-rule="evenodd" clip-rule="evenodd" d="M418.553 296.896C418.419 296.126 418.847 295.362 419.553 295.109C420.343 294.824 421.395 294.314 422.201 293.438C423.653 291.86 425.95 291.001 428.405 291.555C430.86 292.109 431.441 292.857 431.441 294.214C431.441 295.57 432.022 298.838 429.989 299.807C427.956 300.777 424.867 302.134 422.967 300.5C421.066 298.866 418.743 297.979 418.558 296.927L418.553 296.896Z" fill="#CCDDE2"/>
<path fill-rule="evenodd" clip-rule="evenodd" d="M409.669 296.896C409.803 296.126 409.375 295.362 408.669 295.109C407.878 294.824 406.826 294.314 406.02 293.438C404.568 291.86 402.272 291.001 399.817 291.555C397.362 292.109 396.781 292.857 396.781 294.214C396.781 295.57 396.2 298.838 398.233 299.807C400.266 300.777 403.354 302.134 405.255 300.5C407.156 298.866 409.479 297.979 409.664 296.927L409.669 296.896Z" fill="#CCDDE2"/>
<path fill-rule="evenodd" clip-rule="evenodd" d="M431.507 295.896C430.121 296.729 427.43 297.95 424.412 297.227C422.319 296.725 421.06 295.79 420.308 294.948C420.043 295.074 419.786 295.185 419.553 295.269C418.847 295.523 418.419 296.286 418.553 297.057L418.558 297.088C418.743 298.14 421.066 299.027 422.967 300.661C424.867 302.295 427.956 300.938 429.989 299.968C431.445 299.274 431.559 297.401 431.507 295.896Z" fill="#9AAFB6"/>
<path fill-rule="evenodd" clip-rule="evenodd" d="M396.714 295.896C398.1 296.729 400.79 297.95 403.809 297.227C405.902 296.725 407.161 295.79 407.913 294.948C408.178 295.074 408.435 295.185 408.668 295.269C409.374 295.523 409.802 296.286 409.668 297.057L409.663 297.088C409.478 298.14 407.155 299.027 405.254 300.661C403.353 302.295 400.265 300.938 398.232 299.968C396.776 299.274 396.662 297.401 396.714 295.896Z" fill="#9AAFB6"/>
<path fill-rule="evenodd" clip-rule="evenodd" d="M418.008 298.942C418.008 298.942 419.381 300.216 421.387 301.544C423.393 302.874 425.611 303.594 427.406 302.763C429.201 301.932 431.788 299.606 432.316 300.326C432.844 301.046 432.21 301.046 431.894 304.037C431.577 307.028 430.363 327.335 429.834 330.548C429.307 333.76 429.729 333.323 428.515 334.148C427.3 334.973 422.179 336.253 420.753 334.148C419.328 332.043 419.4 311.902 418.836 308.744C418.272 305.588 417.321 302.153 417.268 300.825C417.216 299.495 417.477 298.476 418.008 298.942Z" fill="#CCDDE2"/>
<path fill-rule="evenodd" clip-rule="evenodd" d="M410.245 299.133C410.245 299.133 408.873 300.407 406.866 301.736C404.86 303.065 402.643 303.785 400.847 302.955C399.052 302.123 396.465 299.797 395.937 300.518C395.409 301.238 396.043 301.238 396.359 304.228C396.676 307.219 397.891 327.527 398.419 330.739C398.947 333.952 398.525 333.515 399.739 334.339C400.953 335.164 406.074 336.444 407.5 334.339C408.926 332.235 408.853 312.093 409.417 308.936C409.981 305.779 410.932 302.345 410.985 301.016C411.038 299.687 410.776 298.668 410.245 299.133Z" fill="#CCDDE2"/>
<path fill-rule="evenodd" clip-rule="evenodd" d="M427.429 331.792C425.282 332.394 422.73 317.521 423.258 312.204C423.636 308.39 422.036 303.907 421.099 301.668C419.148 300.364 417.819 299.133 417.819 299.133C417.288 298.668 417.027 299.687 417.08 301.016C417.133 302.345 418.083 305.779 418.647 308.936C419.211 312.093 419.139 332.235 420.565 334.339C421.99 336.444 427.112 335.164 428.326 334.339C429.54 333.515 429.118 333.952 429.646 330.739C429.678 330.543 429.713 330.322 429.75 330.081C428.997 330.89 428.176 331.581 427.429 331.792Z" fill="#9AAFB6"/>
<path fill-rule="evenodd" clip-rule="evenodd" d="M400.966 331.792C403.112 332.394 405.665 317.521 405.137 312.204C404.759 308.39 406.358 303.907 407.296 301.668C409.246 300.364 410.575 299.133 410.575 299.133C411.106 298.668 411.368 299.687 411.315 301.016C411.262 302.345 410.311 305.779 409.747 308.936C409.183 312.093 409.256 332.235 407.83 334.339C406.404 336.444 401.283 335.164 400.068 334.339C398.855 333.515 399.276 333.952 398.749 330.739C398.716 330.543 398.681 330.322 398.645 330.081C399.398 330.89 400.218 331.581 400.966 331.792Z" fill="#9AAFB6"/>
<path fill-rule="evenodd" clip-rule="evenodd" d="M441.297 346.498C441.297 346.498 441.408 345.833 441.443 344.961C439.637 345.09 435.615 345.202 432.26 344.041C427.78 342.49 427.871 340.219 424.631 340.718C421.391 341.216 421.286 340.108 421.286 338.502C421.286 336.896 421.286 336.01 421.286 336.01C421.286 336.01 420.17 335.441 419.37 334.631C418.757 338.086 419.121 343.764 419.121 343.764L422.659 344.484C422.659 344.484 423.345 342.6 424.613 342.878C425.881 343.155 427.569 345.758 431.74 346.367C435.911 346.976 441.297 346.498 441.297 346.498Z" fill="#9AAFB6"/>
<path fill-rule="evenodd" clip-rule="evenodd" d="M386.666 346.498C386.666 346.498 386.555 345.833 386.52 344.961C388.326 345.09 392.348 345.202 395.703 344.041C400.183 342.49 400.092 340.219 403.332 340.718C406.572 341.216 406.677 340.108 406.677 338.502C406.677 336.896 406.677 336.01 406.677 336.01C406.677 336.01 407.793 335.441 408.593 334.631C409.206 338.086 408.842 343.764 408.842 343.764L405.304 344.484C405.304 344.484 404.618 342.6 403.35 342.878C402.082 343.155 400.394 345.758 396.223 346.367C392.052 346.976 386.666 346.498 386.666 346.498Z" fill="#9AAFB6"/>
<path fill-rule="evenodd" clip-rule="evenodd" d="M413.91 199.955C414.914 199.9 416.002 199.657 417.078 199.081C420.809 197.088 423.202 192.951 423.202 192.951C423.202 192.951 424.822 192.36 426.23 192.951C427.638 193.543 427.567 194.355 427.567 194.355C427.567 194.355 429.499 194.134 430.927 194.429C432.355 194.724 434.026 196.903 434.026 196.903C434.026 196.903 429.961 202.405 428.483 207.278C427.199 211.511 420.713 214.741 413.91 215.47C407.108 214.741 400.622 211.511 399.338 207.278C397.86 202.405 393.794 196.903 393.794 196.903C393.794 196.903 395.466 194.724 396.893 194.429C398.321 194.134 400.253 194.355 400.253 194.355C400.253 194.355 400.183 193.543 401.591 192.951C402.998 192.36 404.618 192.951 404.618 192.951C404.618 192.951 407.011 197.088 410.742 199.081C411.818 199.657 412.907 199.9 413.91 199.955Z" fill="#FF3A53"/>
<path fill-rule="evenodd" clip-rule="evenodd" d="M413.91 215.477C420.713 214.748 427.199 211.518 428.483 207.285C429.961 202.412 434.026 196.91 434.026 196.91C434.026 196.91 433.587 196.338 432.966 195.74C432.14 196.247 430.597 197.473 428.272 200.399C424.575 205.051 425.227 206.879 420.07 208.596C418.021 209.279 415.82 209.458 413.91 209.426C412.001 209.458 409.799 209.279 407.75 208.596C402.594 206.879 403.245 205.051 399.549 200.399C397.224 197.473 395.681 196.247 394.854 195.74C394.234 196.338 393.794 196.91 393.794 196.91C393.794 196.91 397.86 202.412 399.338 207.285C400.622 211.518 407.108 214.748 413.91 215.477Z" fill="#DF354C"/>
<path fill-rule="evenodd" clip-rule="evenodd" d="M443.973 267.661C443.023 266.794 442.266 267.717 441.439 267.144C440.612 266.572 441.668 264.652 441.58 263.23C441.492 261.809 439.486 261.919 438.623 261.273C438.101 260.882 438.341 259.983 438.611 259.335C438.091 260.014 437.566 260.806 437.507 261.312C437.385 262.348 435.705 264.989 436.099 265.512C436.493 266.035 438.376 265.205 439.016 264.115C439.657 263.024 439.658 263.334 439.756 263.549C439.853 263.764 439.223 269.178 438.866 270.555C438.507 271.932 435.38 275.306 436.094 276.002C436.808 276.697 440.661 273.252 441.081 272.037C441.502 270.821 442.029 269.288 442.029 269.288C442.029 269.288 441.865 271.845 441.467 272.614C441.068 273.384 438.772 275.544 439.539 276.081C440.306 276.617 442.783 274.66 443.589 273.066C444.252 271.754 444.455 270.373 444.507 269.92C444.448 270.453 444.25 272.154 444.02 272.865C443.747 273.714 442.89 274.342 443.269 274.638C443.648 274.933 445.493 273.364 445.831 272.246C446.169 271.127 446.283 269.574 446.283 269.574C446.283 269.574 446.222 271.925 446.016 272.505C445.811 273.086 445.47 273.5 445.614 273.527C445.758 273.554 446.964 272.766 447.257 271.189C447.396 270.446 447.483 269.393 447.52 268.284C446.573 268.725 444.741 268.362 443.973 267.661Z" fill="#9AAFB6"/>
<path fill-rule="evenodd" clip-rule="evenodd" d="M384.247 267.661C385.198 266.794 385.955 267.717 386.782 267.144C387.609 266.572 386.553 264.652 386.641 263.23C386.729 261.809 388.735 261.919 389.598 261.273C390.12 260.882 389.88 259.983 389.61 259.335C390.13 260.014 390.655 260.806 390.714 261.312C390.836 262.348 392.516 264.989 392.122 265.512C391.728 266.035 389.844 265.205 389.204 264.115C388.564 263.024 388.563 263.334 388.465 263.549C388.367 263.764 388.997 269.178 389.355 270.555C389.713 271.932 392.841 275.306 392.127 276.002C391.413 276.697 387.559 273.252 387.139 272.037C386.719 270.821 386.192 269.288 386.192 269.288C386.192 269.288 386.356 271.845 386.754 272.614C387.152 273.384 389.448 275.544 388.681 276.081C387.914 276.617 385.438 274.66 384.632 273.066C383.969 271.754 383.766 270.373 383.714 269.92C383.773 270.453 383.971 272.154 384.2 272.865C384.473 273.714 385.33 274.342 384.952 274.638C384.572 274.933 382.727 273.364 382.389 272.246C382.052 271.127 381.937 269.574 381.937 269.574C381.937 269.574 381.999 271.925 382.205 272.505C382.41 273.086 382.75 273.5 382.606 273.527C382.463 273.554 381.256 272.766 380.964 271.189C380.825 270.446 380.738 269.393 380.7 268.284C381.647 268.725 383.48 268.362 384.247 267.661Z" fill="#9AAFB6"/>
<path fill-rule="evenodd" clip-rule="evenodd" d="M414.197 161.146C417.413 161.129 419.081 162.101 419.081 162.101C419.081 162.101 417.049 161.526 414.197 161.623C411.346 161.526 409.313 162.101 409.313 162.101C409.313 162.101 410.981 161.129 414.197 161.146Z" fill="#97B5C1"/>
<path fill-rule="evenodd" clip-rule="evenodd" d="M447.512 198.085C447.512 198.085 445.876 195.279 442.214 194.393C439.984 193.853 438.413 194.707 438.413 194.707C438.413 194.707 444.837 195.02 447.512 198.085Z" fill="white"/>
<path fill-rule="evenodd" clip-rule="evenodd" d="M381.185 198.085C381.185 198.085 382.821 195.279 386.482 194.393C388.712 193.853 390.283 194.707 390.283 194.707C390.283 194.707 383.86 195.02 381.185 198.085Z" fill="white"/>
<path fill-rule="evenodd" clip-rule="evenodd" d="M447.975 211.776C447.975 211.776 446.787 214.822 446.814 217.591C446.84 220.361 447.157 223.462 447.157 223.462C447.157 223.462 446.074 219.936 446.18 217.25C446.285 214.564 447.183 211.121 447.183 211.121C447.183 211.121 447.342 210.17 447.975 210.613C448.322 210.855 448.065 211.531 447.975 211.776Z" fill="white"/>
<path fill-rule="evenodd" clip-rule="evenodd" d="M380.391 211.776C380.391 211.776 381.579 214.822 381.553 217.591C381.526 220.361 381.209 223.462 381.209 223.462C381.209 223.462 382.292 219.936 382.186 217.25C382.081 214.564 381.183 211.121 381.183 211.121C381.183 211.121 381.025 210.17 380.391 210.613C380.044 210.855 380.301 211.531 380.391 211.776Z" fill="white"/>
<path fill-rule="evenodd" clip-rule="evenodd" d="M447.52 249.712C447.52 249.712 449.583 239.89 449.724 237.712C449.865 235.533 449.676 234.768 449.102 235.058C448.527 235.349 448.906 242.032 447.52 249.712Z" fill="white"/>
<path fill-rule="evenodd" clip-rule="evenodd" d="M380.524 249.119C380.524 249.119 378.46 239.297 378.319 237.119C378.178 234.94 378.367 234.175 378.942 234.465C379.516 234.756 379.138 241.439 380.524 249.119Z" fill="#97B5C1"/>
<path fill-rule="evenodd" clip-rule="evenodd" d="M432.215 258.906C432.215 258.906 431.163 262.542 431.768 267.324C432.373 272.106 432.664 280.138 432.664 280.138C432.664 280.138 431.483 271.331 431.031 268.008C430.578 264.685 430.48 260.697 431.031 259.589C431.581 258.481 432.215 258.906 432.215 258.906Z" fill="white"/>
<path fill-rule="evenodd" clip-rule="evenodd" d="M396.183 258.906C396.183 258.906 397.235 262.542 396.63 267.324C396.025 272.106 395.734 280.138 395.734 280.138C395.734 280.138 396.915 271.331 397.368 268.008C397.82 264.685 397.918 260.697 397.368 259.589C396.817 258.481 396.183 258.906 396.183 258.906Z" fill="white"/>
<path fill-rule="evenodd" clip-rule="evenodd" d="M447.077 266.453C447.06 266.398 446.672 261.671 446.356 260.675C446.039 259.678 444.913 258.865 444.455 258.828C443.998 258.791 444.297 259.216 444.895 259.603C445.493 259.991 446.012 261.008 446.272 261.922C446.532 262.834 447.077 266.453 447.077 266.453Z" fill="white"/>
<path fill-rule="evenodd" clip-rule="evenodd" d="M381.185 266.453C381.202 266.398 381.59 261.671 381.906 260.675C382.223 259.678 383.349 258.865 383.807 258.828C384.264 258.791 383.965 259.216 383.367 259.603C382.769 259.991 382.25 261.008 381.99 261.922C381.73 262.834 381.185 266.453 381.185 266.453Z" fill="white"/>
<path fill-rule="evenodd" clip-rule="evenodd" d="M431.302 212.021C431.302 212.021 429.084 218.076 425.882 220.328C422.678 222.581 420.953 222.765 420.953 222.765C420.953 222.765 428.345 218.039 431.302 212.021Z" fill="white"/>
<path fill-rule="evenodd" clip-rule="evenodd" d="M396.704 212.021C396.704 212.021 398.921 218.076 402.124 220.328C405.328 222.581 407.053 222.765 407.053 222.765C407.053 222.765 399.661 218.039 396.704 212.021Z" fill="white"/>
<path fill-rule="evenodd" clip-rule="evenodd" d="M429.946 238.984L431.205 245.853L429.198 239.262L429.946 238.984Z" fill="white"/>
<path fill-rule="evenodd" clip-rule="evenodd" d="M398.448 238.984L397.189 245.853L399.196 239.262L398.448 238.984Z" fill="#F2FBFF"/>
<path fill-rule="evenodd" clip-rule="evenodd" d="M426.773 291.896C426.773 291.896 428.78 291.859 429.765 292.413C430.751 292.967 430.822 293.872 430.822 293.872C430.822 293.872 429.801 292.247 426.773 291.896Z" fill="white"/>
<path fill-rule="evenodd" clip-rule="evenodd" d="M401.722 291.896C401.722 291.896 399.716 291.859 398.73 292.413C397.745 292.967 397.674 293.872 397.674 293.872C397.674 293.872 398.695 292.247 401.722 291.896Z" fill="white"/>
<path fill-rule="evenodd" clip-rule="evenodd" d="M429.198 328.751C429.198 328.64 431.451 302.074 431.345 301.704C431.24 301.336 430.619 301.797 430.619 301.797L429.198 328.751Z" fill="#F9FDFF"/>
<path fill-rule="evenodd" clip-rule="evenodd" d="M398.855 328.751C398.855 328.64 396.602 302.074 396.708 301.704C396.813 301.336 397.434 301.797 397.434 301.797L398.855 328.751Z" fill="white"/>
<path fill-rule="evenodd" clip-rule="evenodd" d="M430.168 334.631C430.195 334.614 433.363 337.964 435.105 338.823C436.847 339.681 439.091 340.153 439.962 340.816C440.833 341.481 440.622 342.533 440.622 342.533H440.015C440.015 342.533 439.302 340.789 437.956 340.485C436.61 340.179 434.947 339.339 433.943 338.582C432.94 337.826 430.168 334.631 430.168 334.631Z" fill="white"/>
<path fill-rule="evenodd" clip-rule="evenodd" d="M398.451 334.631C398.425 334.614 395.257 337.964 393.515 338.823C391.772 339.681 389.528 340.153 388.657 340.816C387.786 341.481 387.997 342.533 387.997 342.533H388.604C388.604 342.533 389.317 340.789 390.664 340.485C392.01 340.179 393.673 339.339 394.676 338.582C395.679 337.826 398.451 334.631 398.451 334.631Z" fill="white"/>
<path fill-rule="evenodd" clip-rule="evenodd" d="M414.155 208.589C418.548 208.702 422.392 206.068 422.392 205.916C422.392 205.916 418.775 207.657 414.155 207.796C409.535 207.657 405.919 205.916 405.919 205.916C405.919 206.068 409.762 208.702 414.155 208.589Z" fill="#E67E7D"/>
<path fill-rule="evenodd" clip-rule="evenodd" d="M424.353 197.898C424.215 197.994 427.416 195.664 429.07 195.313C430.724 194.962 432.273 195.867 432.22 195.886C432.168 195.904 428.137 195.276 424.353 197.898Z" fill="#E67E7D"/>
<path fill-rule="evenodd" clip-rule="evenodd" d="M404.088 197.898C404.226 197.994 401.025 195.664 399.371 195.313C397.717 194.962 396.168 195.867 396.221 195.886C396.273 195.904 400.304 195.276 404.088 197.898Z" fill="#E67E7D"/>
<path fill-rule="evenodd" clip-rule="evenodd" d="M427.176 194.63C427.176 194.63 425.733 193.369 424.642 193.793C423.551 194.218 421.404 197.449 421.439 197.393C421.474 197.338 424.765 193.029 427.176 194.63Z" fill="#E67E7D"/>
<path fill-rule="evenodd" clip-rule="evenodd" d="M401.069 194.63C401.069 194.63 402.513 193.369 403.604 193.793C404.695 194.218 406.842 197.449 406.807 197.393C406.772 197.338 403.481 193.029 401.069 194.63Z" fill="#E67E7D"/>
<rect x="388.72" y="366" width="30" height="3" fill="white"/>
<rect x="382" y="366" width="61" height="35" fill="#111B2C"/>
<rect x="382.5" y="363.5" width="60" height="34" fill="url(#paint1_linear)" stroke="#FFF59C"/>
<rect x="388.72" y="370" width="30" height="3" fill="white"/>
<rect x="388.72" y="376" width="48" height="3" fill="white"/>
<rect x="388.72" y="382" width="48" height="3" fill="white"/>
<rect x="388.72" y="388" width="48" height="3" fill="white"/>
<rect x="422.72" y="370" width="14" height="3" fill="white"/>
</g>
<path d="M418.5 133.74L476.5 174.74L476.5 220.24L361 133.74L418.5 133.74Z" fill="white" fill-opacity="0.4"/>
<path d="M349 184.5L475.999 280.499L475.999 291L349 194L349 184.5Z" fill="white" fill-opacity="0.4"/>
<g clip-path="url(#clip1)">
<path fill-rule="evenodd" clip-rule="evenodd" d="M584.309 324.775C586.551 332.159 588.578 338.566 590.902 345.894C593.747 354.859 592.919 350.555 598.3 354.666C599.341 355.464 601.977 359.444 603.274 360.981C601.227 363.284 599.923 361.283 596.825 358.654C598.232 361.07 598.971 362.321 600.419 363.854C601.429 364.927 602.85 366.03 603.373 366.907C603.969 367.907 603.5 368.605 601.689 368.601C602.699 369.962 601.463 370.922 600.022 370.389C600.268 371.152 599.995 371.571 599.519 371.705C598.012 372.125 596.797 370.176 596.777 370.186C596.938 370.416 597.393 371.093 597.437 371.337C597.489 371.599 597.187 372.008 596.588 372.052C595.804 372.111 594.654 370.867 593.915 369.791C592.515 367.763 591.566 364.841 590.231 362.363C583.073 349.084 575.74 324.878 572.026 315.738L584.309 324.775Z" fill="#E9BC79"/>
<path fill-rule="evenodd" clip-rule="evenodd" d="M560.838 400.833C561.853 407.909 562.3 414.074 564.11 420.498C565.445 425.238 566.211 429.94 566.644 434.646C567.459 443.419 568.735 456.567 567.151 464.536C565.92 470.739 560.376 472.83 554.313 474.52C547.851 476.321 544.377 473.668 543.868 480.817C547.532 485.163 559.004 484.442 566.225 482.3L570.354 480.247L570.298 483.842C573.509 483.842 576.549 483.68 579.756 483.501L580.272 479.564C583.593 472.481 580.231 471.195 580.193 465.464C580.13 456.532 583.174 444.185 583.008 432.272C582.911 425.39 579.69 420.425 579.381 416.751C578.941 411.442 579.354 406.198 579.527 397.466L560.838 400.833Z" fill="#FAD8A3"/>
<path fill-rule="evenodd" clip-rule="evenodd" d="M549.362 281.792C555.497 285.467 557.536 288.032 558.815 296.509L576.146 294.325L576.034 280.989L571.757 271.098L553.752 276.274L549.362 281.792Z" fill="#E9BC79"/>
<path fill-rule="evenodd" clip-rule="evenodd" d="M547.508 263.812C546.496 266.814 543.636 267.019 543.297 267.842C542.929 268.726 543.434 269.579 544.841 270.84C544.848 271.581 544.526 271.975 543.592 272.766C543.818 274.391 544.141 274.408 545.466 274.692C544.206 274.829 544.103 275.426 544.103 276.93L544.9 277.355C544.807 279.024 543.503 279.754 544.333 281.265C544.756 282.036 546.345 282.79 547.519 282.773C557.974 282.615 563.583 281.241 568.739 276.45C574.567 274.737 579.637 267.503 578.803 260.234C578.082 253.97 574.238 247.695 562.378 247.078C554.707 246.681 547.598 252.935 547.508 263.812Z" fill="#FAD8A3"/>
<path fill-rule="evenodd" clip-rule="evenodd" d="M572.58 285.521C577 292.173 580.197 295.852 581.835 301.11C584.666 310.196 583.77 323.115 583.073 337.308C593.204 359.746 598.925 385.55 600.184 411.289C596.932 413.409 592.835 410.349 591.035 410.793C587.263 411.722 586.376 414.84 584.094 414.844C581.452 414.851 578.321 412.449 574.631 412.566C571.662 412.662 571.266 415.825 567.811 415.993C563.431 416.207 560.097 414.187 556.276 413.712C551.165 413.078 552.655 415.701 547.038 415.756C544.176 415.78 539.207 413.942 537 411.289C541.365 381.475 545.076 366.591 553.197 337.762C552.417 322.781 547.362 309.487 555.707 295.194C561.61 291.443 566.276 288.563 572.58 285.521Z" fill="#FF3A53"/>
<path fill-rule="evenodd" clip-rule="evenodd" d="M552.627 414.311C551.314 414.932 550.582 415.974 547.058 416.008C544.19 416.032 539.211 414.19 537 411.53C541.374 381.639 545.092 366.716 553.228 337.812C552.447 322.793 547.382 309.464 555.743 295.135C553.356 318.704 560.162 330.522 561.724 337.633C555.256 366.999 553.957 385.717 552.627 414.311Z" fill="#FF6B7E"/>
<path fill-rule="evenodd" clip-rule="evenodd" d="M547.992 256.455C551.233 260.48 553.102 260.949 556.719 263.756C556.719 266.333 556.688 268.826 556.616 271.399C559.696 265.66 565.312 262.17 564.174 270.83C566.44 274.396 568.579 275.765 569.348 277.755C571.228 281.79 566.928 290.263 575.6 293.695C580.925 295.802 587.457 293.519 587.122 286.463C586.917 282.207 583.773 277.7 579.083 277.444C589.009 262.998 578.95 238.412 557.139 246.647C551.711 246.085 547.842 250.782 547.992 256.455Z" fill="#0D151B"/>
<path fill-rule="evenodd" clip-rule="evenodd" d="M576.775 317.112C578.838 323.836 580.571 330.305 582.795 336.53C585.07 342.9 588.245 349.651 590.875 355.972C592.864 356.937 593.928 357.556 594.412 359.425C595.012 361.747 592.11 365.712 596.063 372.051C590.517 372.215 591.189 367.622 587.43 362.063C583.481 356.223 579.422 352.684 575.032 346.754C571.751 342.326 571.526 340.983 569.882 335.682C568.224 330.326 566.713 324.98 565.158 319.5L576.775 317.112Z" fill="#FAD8A3"/>
<path fill-rule="evenodd" clip-rule="evenodd" d="M578.778 316.355L580.267 318.975C574.312 323.687 571.69 324.26 563.771 327.414L563.539 322.853C554.65 315.8 550.615 303.492 561.097 297.659C571.597 291.819 583.804 300.403 578.778 316.355Z" fill="#E72E46"/>
<path fill-rule="evenodd" clip-rule="evenodd" d="M569.279 277.381L580.267 275.905L579.979 277.054L569.859 280.713L569.279 277.381Z" fill="#236CA2"/>
<path fill-rule="evenodd" clip-rule="evenodd" d="M564.67 469.536C565.913 467.459 566.561 465.437 565.376 463.567C565.831 462.778 566.701 462.666 567.112 462.722C567.914 462.831 567.893 463.36 568.647 463.766C569.822 464.4 570.332 462.778 571.154 462.726C572.668 462.635 572.613 464.264 573.768 464.117C574.669 464.001 575.176 462.698 575.885 462.771C577.179 462.901 577.179 464.011 577.895 464.036C578.306 464.054 578.871 462.827 580.954 463.279C579.697 465.683 579.498 467.476 579.851 469.883L571.781 473.012L564.471 470.23L564.67 469.536Z" fill="#FF3A53"/>
<path fill-rule="evenodd" clip-rule="evenodd" d="M565.36 468.679C562.987 471.874 558.782 473.343 554.287 474.59C547.841 476.377 544.376 473.744 543.868 480.84C547.523 485.155 558.966 484.439 566.169 482.312L570.287 480.275L570.232 483.843C573.434 483.843 576.467 483.682 579.666 483.504L580.181 479.597C581.478 476.847 581.751 474.977 581.605 473.381C581.516 472.384 580.796 469.233 580.319 467.518C575.768 471.083 570.042 472.004 565.36 468.679Z" fill="#236CA2"/>
</g>
<rect x="70" y="362" width="173" height="5" fill="#9AAFB6" fill-opacity="0.71"/>
<rect x="61" y="54" width="189" height="308" fill="#1B2C49"/>
<path d="M642.574 313.611C643.694 314.667 643.251 316.54 641.776 316.982L626.667 321.512C625.192 321.954 623.792 320.635 624.146 319.137L627.773 303.777C628.127 302.278 629.971 301.725 631.092 302.782L642.574 313.611Z" fill="#FFE500" fill-opacity="0.64"/>
<path opacity="0.3" d="M4.93646 239.641C3.5072 239.078 3.21958 237.181 4.41779 236.22L16.9434 226.172C18.1458 225.208 19.9412 225.909 20.1723 227.433L22.5875 243.363C22.8186 244.887 21.3115 246.089 19.8774 245.524L4.93646 239.641Z" fill="#46B2FF"/>
<path d="M586.965 16.181C589.179 15.5271 591.271 17.5157 590.731 19.7607L583.168 51.1613C582.627 53.4065 579.858 54.2243 578.184 52.6334L554.768 30.3793C553.093 28.7882 553.77 25.9814 555.985 25.3274L586.965 16.181Z" fill="#FF3A53" fill-opacity="0.5"/>
<rect x="101" y="313" width="109" height="35" fill="#111B2C"/>
<rect x="101.5" y="312.5" width="108" height="32" fill="url(#paint2_linear)" stroke="#FFF59C"/>
<rect x="113" y="321" width="23" height="3" fill="white"/>
<rect x="140" y="321" width="10" height="3" fill="white"/>
<rect x="162" y="327" width="23" height="3" fill="white"/>
<rect x="189" y="327" width="10" height="3" fill="white"/>
<rect x="113" y="327" width="37" height="3" fill="white"/>
<rect x="113" y="333" width="37" height="3" fill="white"/>
<rect x="162" y="333" width="37" height="3" fill="white"/>
<rect x="162" y="321" width="37" height="3" fill="white"/>
<rect x="70" y="63" width="171" height="236" fill="#FF3A53"/>
<rect x="70.5" y="63.5" width="170" height="235" stroke="#DCFE93" stroke-opacity="0.45"/>
<path fill-rule="evenodd" clip-rule="evenodd" d="M168.158 190.389C168.181 190.5 168.195 190.55 168.195 190.55C168.195 190.55 164.063 195.848 160.391 197L159.932 173.735C159.932 173.735 167.506 172.583 165.44 167.284L154.506 170.012V174.278C154.506 175.255 154.997 176.162 155.81 176.692L153.051 179L152.996 178.955L150.292 176.692C151.105 176.162 151.596 175.255 151.596 174.278V170.012L140.662 167.284C138.596 172.583 146.171 173.735 146.171 173.735L145.711 197C142.039 195.848 137.908 190.55 137.908 190.55C137.908 190.55 137.922 190.5 137.945 190.389C138.045 189.836 138.367 187.758 138.367 182.949C138.367 177.19 131.022 166.594 135.383 157.379C138.367 151.072 146.359 148.115 150.948 146.871C151.752 146.659 152.45 146.489 152.996 146.373C153.014 146.369 153.033 146.364 153.051 146.359C153.607 146.479 154.323 146.65 155.154 146.871V167.206L168.465 163.677C168.465 163.677 171.298 175.729 162.346 175.195C162.346 175.195 161.809 188.477 162.805 193.236C162.805 193.236 165.941 192.071 168.158 190.389Z" fill="#9EA0A0"/>
<path fill-rule="evenodd" clip-rule="evenodd" d="M168.157 190.389C168.18 190.5 168.194 190.55 168.194 190.55C168.194 190.55 164.057 195.848 160.38 197L159.921 173.735C159.921 173.735 167.504 172.583 165.436 167.284L154.488 170.012V174.278C154.488 175.255 154.98 176.162 155.793 176.692L153.031 179L152.976 178.955L150.269 176.692C151.082 176.162 151.574 175.255 151.574 174.278V170.012L140.627 167.284C138.558 172.583 146.142 173.735 146.142 173.735L145.682 197C142.005 195.848 137.869 190.55 137.869 190.55C137.869 190.55 137.883 190.5 137.906 190.389C140.126 192.071 143.265 193.236 143.265 193.236C144.262 188.477 143.724 175.195 143.724 175.195C134.762 175.729 137.598 163.677 137.598 163.677L150.926 167.206V146.871C151.73 146.659 152.429 146.489 152.976 146.373C152.994 146.369 153.013 146.364 153.031 146.359C153.588 146.479 154.304 146.65 155.137 146.871V167.206L168.465 163.677C168.465 163.677 171.301 175.729 162.338 175.195C162.338 175.195 161.801 188.477 162.798 193.236C162.798 193.236 165.937 192.071 168.157 190.389Z" fill="#681A20"/>
<path fill-rule="evenodd" clip-rule="evenodd" d="M168.33 190.389C168.353 190.5 168.367 190.55 168.367 190.55C168.367 190.55 164.227 195.848 160.549 197L160.089 173.735C160.089 173.735 167.676 172.583 165.607 167.284L154.654 170.012V174.278C154.654 175.255 155.145 176.162 155.96 176.692L153.196 179L153.141 178.955V146.373C153.159 146.369 153.178 146.364 153.196 146.359C153.753 146.479 154.47 146.65 155.302 146.871C159.901 148.115 167.907 151.072 170.896 157.379C175.264 166.594 167.907 177.19 167.907 182.949C167.907 187.758 168.228 189.836 168.33 190.389Z" fill="#C5C5C5"/>
<path fill-rule="evenodd" clip-rule="evenodd" d="M168.373 190.389C168.396 190.5 168.41 190.55 168.41 190.55C168.41 190.55 164.259 195.848 160.57 197L160.109 173.735C160.109 173.735 167.718 172.583 165.643 167.284L154.658 170.012V174.278C154.658 175.255 155.151 176.162 155.968 176.692L153.196 179L153.141 178.955V146.373C153.159 146.369 153.178 146.364 153.196 146.359C153.754 146.479 154.473 146.65 155.309 146.871V167.206L168.682 163.677C168.682 163.677 171.528 175.729 162.534 175.195C162.534 175.195 161.995 188.477 162.996 193.236C162.996 193.236 166.146 192.071 168.373 190.389Z" fill="#AB2531"/>
<path fill-rule="evenodd" clip-rule="evenodd" d="M154.205 158.719H151.857L150.516 150.844H155.547L154.205 158.719Z" fill="#EA8A2F"/>
<path fill-rule="evenodd" clip-rule="evenodd" d="M155.599 150.844H150.463L149.094 127H156.969L155.599 150.844Z" fill="#F0A849"/>
<path fill-rule="evenodd" clip-rule="evenodd" d="M208.173 279.916H213.801V127.944H208.173V279.916Z" fill="#681A20"/>
<path fill-rule="evenodd" clip-rule="evenodd" d="M210.987 279.916H213.802V127.944H210.987V279.916Z" fill="#AB2531"/>
<path fill-rule="evenodd" clip-rule="evenodd" d="M210.87 290C204.404 281.022 207.994 279.915 207.994 279.915H213.745C213.745 279.915 217.336 281.022 210.87 290Z" fill="#3A3B39"/>
<path fill-rule="evenodd" clip-rule="evenodd" d="M219.228 119.11C219.228 120.356 218.211 121.362 216.961 121.362H214.86V113.194H216.961C218.211 113.194 219.228 114.2 219.228 115.441V119.11ZM224.937 93C224.937 93 224.725 94.5415 224.075 96.5279C222.891 100.127 220.271 105.181 214.86 105.181H207.469V128.034H214.86C219.974 128.034 222.917 137.653 224.242 143.573C224.836 146.211 225.103 148.113 225.103 148.113C225.103 148.113 232.328 142.717 232.328 115.522C232.328 95.6721 224.937 93 224.937 93Z" fill="#CCCDC9"/>
<path fill-rule="evenodd" clip-rule="evenodd" d="M207.469 127.944H210.987V104.961H207.469V127.944Z" fill="#9EA0A0"/>
<path fill-rule="evenodd" clip-rule="evenodd" d="M229.28 116.537C229.28 132.619 226.051 140.374 224.265 143.422C222.952 137.52 220.038 127.929 214.974 127.929V121.277H217.054C218.292 121.277 219.3 120.275 219.3 119.032V115.374C219.3 114.137 218.292 113.134 217.054 113.134H214.974V105.145C220.333 105.145 222.927 100.106 224.1 96.5176C226.216 98.6238 229.28 103.863 229.28 116.537Z" fill="#9EA0A0"/>
<path fill-rule="evenodd" clip-rule="evenodd" d="M210.752 290V279.915H213.715C213.715 279.915 217.414 281.022 210.752 290Z" fill="#676866"/>
<path fill-rule="evenodd" clip-rule="evenodd" d="M210.87 94.876C204.404 103.854 207.994 104.961 207.994 104.961H213.745C213.745 104.961 217.336 103.854 210.87 94.876Z" fill="#3A3B39"/>
<path fill-rule="evenodd" clip-rule="evenodd" d="M210.752 94.876V104.961H213.715C213.715 104.961 217.414 103.854 210.752 94.876Z" fill="#676866"/>
<path fill-rule="evenodd" clip-rule="evenodd" d="M190.664 241.951C190.664 262.566 173.949 279.28 153.334 279.28C132.714 279.28 116 262.566 116 241.951C116 228.402 123.216 216.541 134.013 210C139.649 213.414 146.263 215.38 153.334 215.38C160.405 215.38 167.015 213.414 172.65 210C183.447 216.541 190.664 228.402 190.664 241.951Z" fill="#681A20"/>
<path fill-rule="evenodd" clip-rule="evenodd" d="M190.765 241.951C190.765 262.566 174.027 279.28 153.383 279.28V215.38C160.464 215.38 167.083 213.414 172.726 210C183.538 216.541 190.765 228.402 190.765 241.951Z" fill="#AB2531"/>
<path fill-rule="evenodd" clip-rule="evenodd" d="M153.281 254.087V230.012C159.957 230.012 165.37 235.402 165.37 242.049C165.37 248.696 159.957 254.087 153.281 254.087Z" fill="#9EA0A0"/>
<path fill-rule="evenodd" clip-rule="evenodd" d="M190.765 241.951C190.765 262.566 174.027 279.28 153.383 279.28V275.862C172.106 275.862 187.342 260.652 187.342 241.951C187.342 236.012 185.784 230.167 182.837 225.053C180.3 220.66 176.791 216.866 172.615 213.995C166.719 217.144 160.117 218.798 153.383 218.798V215.38C160.464 215.38 167.083 213.414 172.726 210C183.538 216.541 190.765 228.402 190.765 241.951Z" fill="#9EA0A0"/>
<path fill-rule="evenodd" clip-rule="evenodd" d="M165.369 242.049C165.369 248.696 159.979 254.087 153.332 254.087C146.68 254.087 141.294 248.696 141.294 242.049C141.294 235.402 146.68 230.012 153.332 230.012C159.979 230.012 165.369 235.402 165.369 242.049Z" fill="#9EA0A0"/>
<path fill-rule="evenodd" clip-rule="evenodd" d="M153.281 254.087V230.012C159.957 230.012 165.37 235.402 165.37 242.049C165.37 248.696 159.957 254.087 153.281 254.087Z" fill="#CCCDC9"/>
<path fill-rule="evenodd" clip-rule="evenodd" d="M153.334 275.862C134.633 275.862 119.418 260.652 119.418 241.951C119.418 236.012 120.977 230.167 123.921 225.053C126.45 220.66 129.954 216.866 134.129 213.995C140.012 217.144 146.608 218.798 153.334 218.798C160.059 218.798 166.651 217.144 172.539 213.995C176.709 216.866 180.213 220.66 182.746 225.053C185.689 230.167 187.245 236.012 187.245 241.951C187.245 260.652 172.031 275.862 153.334 275.862ZM172.65 210C167.015 213.414 160.405 215.38 153.334 215.38C146.263 215.38 139.649 213.414 134.013 210C123.216 216.541 116 228.402 116 241.951C116 262.566 132.714 279.28 153.334 279.28C173.949 279.28 190.664 262.566 190.664 241.951C190.664 228.402 183.447 216.541 172.65 210Z" fill="#9EA0A0"/>
<path fill-rule="evenodd" clip-rule="evenodd" d="M190.765 241.951C190.765 262.566 174.027 279.28 153.383 279.28V275.862C172.106 275.862 187.342 260.652 187.342 241.951C187.342 236.012 185.784 230.167 182.837 225.053C180.3 220.66 176.791 216.866 172.615 213.995C166.719 217.144 160.117 218.798 153.383 218.798V215.38C160.464 215.38 167.083 213.414 172.726 210C183.538 216.541 190.765 228.402 190.765 241.951Z" fill="#CCCDC9"/>
<path fill-rule="evenodd" clip-rule="evenodd" d="M160.597 269.426C160.03 269.426 159.454 269.337 158.902 269.157C156.208 268.278 154.431 265.203 155.019 262.441C155.274 261.246 155.9 260.216 156.781 259.536C157.701 258.829 158.848 258.556 159.63 258.412C161.794 258.016 164.155 258.225 166.438 258.427C170.514 258.788 174.36 259.129 177.244 256.352C179.424 254.254 180.819 250.329 179.271 247.647C178.632 246.538 177.635 245.958 176.468 246.025C175.255 246.089 174.054 246.859 173.613 247.857C173.268 248.636 173.418 249.452 174.047 250.216C174.272 250.488 174.232 250.891 173.958 251.115C173.685 251.339 173.28 251.299 173.055 251.026C172.112 249.882 171.893 248.573 172.439 247.341C173.074 245.904 174.703 244.838 176.399 244.748C178.059 244.66 179.504 245.484 180.384 247.009C182.265 250.268 180.718 254.787 178.135 257.272C174.83 260.453 170.506 260.07 166.324 259.701C164.026 259.497 161.854 259.304 159.862 259.671C158.813 259.863 158.105 260.133 157.566 260.549C156.925 261.042 156.466 261.808 156.274 262.706C155.815 264.859 157.202 267.257 159.301 267.942C160.358 268.287 161.511 268.197 162.385 267.705C163.294 267.193 163.905 266.205 163.905 265.245C163.904 264.256 163.233 263.313 162.342 263.051C161.067 262.675 160.341 263.641 159.959 264.518C159.818 264.842 159.44 264.991 159.115 264.85C158.79 264.71 158.641 264.333 158.782 264.01C159.589 262.155 161.057 261.34 162.707 261.825C164.144 262.248 165.187 263.686 165.187 265.244C165.188 266.673 164.336 268.076 163.017 268.818C162.303 269.22 161.46 269.426 160.597 269.426Z" fill="#CCCDC9"/>
<path fill-rule="evenodd" clip-rule="evenodd" d="M173.903 254.798C173.158 254.798 172.395 254.627 171.642 254.282C169.487 253.294 168.028 251.134 168.011 248.905C167.984 245.341 170.632 242.635 173.119 241.29C174.977 240.285 177.521 238.91 178.802 236.789C179.965 234.863 180.039 231.991 178.974 230.11C178.493 229.261 177.568 228.247 175.893 228.241C175.888 228.241 175.883 228.241 175.878 228.241C174.773 228.241 173.822 228.659 173.392 229.333C173.1 229.791 173.083 230.321 173.343 230.866C173.671 231.557 174.611 231.716 175.33 231.473C175.664 231.357 176.03 231.536 176.145 231.87C176.26 232.204 176.081 232.567 175.745 232.682C174.511 233.102 172.843 232.8 172.182 231.414C171.73 230.465 171.774 229.483 172.308 228.648C172.981 227.593 174.314 226.964 175.877 226.964C175.884 226.964 175.89 226.964 175.897 226.964C177.687 226.97 179.177 227.864 180.093 229.482C181.389 231.771 181.308 235.121 179.903 237.448C178.442 239.867 175.719 241.339 173.732 242.414C171.572 243.581 169.273 245.897 169.296 248.896C169.309 250.612 170.494 252.349 172.18 253.12C173.609 253.776 175.085 253.602 176.227 252.644C176.771 252.187 177.232 250.99 177.011 250.13C176.877 249.607 176.516 249.293 175.908 249.17C175.56 249.099 175.336 248.762 175.407 248.416C175.477 248.07 175.816 247.847 176.164 247.917C177.256 248.138 177.999 248.812 178.255 249.814C178.62 251.237 177.916 252.898 177.055 253.62C176.126 254.4 175.038 254.797 173.903 254.798Z" fill="#CCCDC9"/>
<path fill-rule="evenodd" clip-rule="evenodd" d="M172.8 237.53C171.472 237.53 169.987 236.781 169.308 236.114C167.687 234.524 166.938 232.208 166.594 230.545L166.578 230.466C165.911 227.236 165.336 224.447 162.754 222.419C161.334 221.302 159.728 221.044 158.46 221.728C157.422 222.288 156.785 223.549 156.796 225.019C156.807 226.531 157.481 227.817 158.555 228.374C158.919 228.563 159.252 228.658 159.566 228.653C160.177 228.645 160.402 228.369 160.518 228.162C160.937 227.418 160.696 225.976 160.218 225.148C160.041 224.84 160.144 224.445 160.45 224.266C160.754 224.088 161.147 224.192 161.324 224.5C161.898 225.492 162.372 227.483 161.632 228.798C161.344 229.313 160.753 229.928 159.582 229.943C159.062 229.95 158.52 229.808 157.968 229.521C156.471 228.743 155.531 227.022 155.516 225.028C155.501 223.078 156.398 221.376 157.856 220.59C159.585 219.659 161.71 219.962 163.541 221.401C166.493 223.721 167.143 226.869 167.831 230.203L167.848 230.282C168.155 231.769 168.812 233.827 170.201 235.189C170.784 235.761 172.36 236.445 173.258 236.181C173.585 236.086 173.77 235.876 173.858 235.503C173.94 235.156 174.282 234.943 174.63 235.024C174.973 235.107 175.185 235.454 175.104 235.802C174.911 236.621 174.382 237.196 173.616 237.42C173.357 237.496 173.082 237.53 172.8 237.53Z" fill="#CCCDC9"/>
<path fill-rule="evenodd" clip-rule="evenodd" d="M145.661 269.426C146.227 269.426 146.802 269.337 147.355 269.157C150.049 268.278 151.826 265.203 151.238 262.441C150.984 261.246 150.357 260.216 149.476 259.536C148.556 258.829 147.41 258.556 146.627 258.412C144.463 258.016 142.103 258.225 139.82 258.427C135.744 258.788 131.897 259.129 129.013 256.352C126.834 254.254 125.438 250.329 126.986 247.647C127.626 246.538 128.622 245.958 129.79 246.025C131.003 246.089 132.203 246.859 132.644 247.857C132.989 248.636 132.839 249.452 132.21 250.216C131.985 250.488 132.025 250.891 132.299 251.115C132.572 251.339 132.977 251.299 133.202 251.026C134.145 249.882 134.364 248.573 133.818 247.341C133.183 245.904 131.554 244.838 129.858 244.748C128.198 244.66 126.753 245.484 125.873 247.009C123.993 250.268 125.54 254.787 128.122 257.272C131.427 260.453 135.751 260.07 139.933 259.701C142.231 259.497 144.402 259.304 146.395 259.671C147.444 259.863 148.152 260.133 148.691 260.549C149.332 261.042 149.791 261.808 149.983 262.706C150.441 264.859 149.055 267.257 146.956 267.942C145.899 268.287 144.746 268.197 143.872 267.705C142.963 267.193 142.352 266.205 142.353 265.245C142.353 264.256 143.024 263.313 143.915 263.051C145.19 262.675 145.915 263.641 146.298 264.518C146.438 264.842 146.817 264.991 147.142 264.85C147.467 264.71 147.616 264.333 147.475 264.01C146.668 262.155 145.2 261.34 143.55 261.825C142.114 262.248 141.07 263.686 141.069 265.244C141.069 266.673 141.921 268.076 143.24 268.818C143.955 269.22 144.797 269.426 145.661 269.426Z" fill="#9EA0A0"/>
<path fill-rule="evenodd" clip-rule="evenodd" d="M132.456 254.798C133.201 254.798 133.964 254.627 134.717 254.282C136.872 253.294 138.331 251.134 138.348 248.905C138.375 245.341 135.727 242.635 133.241 241.29C131.383 240.285 128.838 238.91 127.557 236.789C126.394 234.863 126.319 231.991 127.385 230.11C127.866 229.261 128.79 228.247 130.467 228.241C130.471 228.241 130.477 228.241 130.481 228.241C131.586 228.241 132.538 228.659 132.967 229.333C133.259 229.791 133.277 230.321 133.017 230.866C132.688 231.557 131.748 231.716 131.029 231.473C130.696 231.357 130.329 231.536 130.214 231.87C130.099 232.204 130.278 232.567 130.613 232.682C131.848 233.102 133.516 232.8 134.177 231.414C134.629 230.465 134.585 229.483 134.052 228.648C133.378 227.593 132.045 226.964 130.482 226.964C130.475 226.964 130.469 226.964 130.462 226.964C128.672 226.97 127.182 227.864 126.266 229.482C124.971 231.771 125.051 235.121 126.456 237.448C127.917 239.867 130.639 241.339 132.628 242.414C134.787 243.581 137.086 245.897 137.064 248.896C137.051 250.612 135.865 252.349 134.18 253.12C132.749 253.776 131.275 253.602 130.132 252.644C129.588 252.187 129.127 250.99 129.348 250.13C129.482 249.607 129.843 249.293 130.452 249.17C130.799 249.099 131.023 248.762 130.953 248.416C130.882 248.07 130.544 247.847 130.195 247.917C129.103 248.138 128.36 248.812 128.103 249.814C127.739 251.237 128.443 252.898 129.304 253.62C130.234 254.4 131.322 254.797 132.456 254.798Z" fill="#9EA0A0"/>
<path fill-rule="evenodd" clip-rule="evenodd" d="M133.559 237.53C134.886 237.53 136.371 236.781 137.05 236.114C138.671 234.524 139.421 232.208 139.764 230.545L139.78 230.466C140.447 227.236 141.023 224.447 143.604 222.419C145.024 221.302 146.63 221.044 147.899 221.728C148.936 222.288 149.574 223.549 149.562 225.019C149.551 226.531 148.877 227.817 147.804 228.374C147.44 228.563 147.106 228.658 146.793 228.653C146.181 228.645 145.957 228.369 145.84 228.162C145.421 227.418 145.662 225.976 146.14 225.148C146.318 224.84 146.214 224.445 145.908 224.266C145.604 224.088 145.212 224.192 145.034 224.5C144.461 225.492 143.987 227.483 144.727 228.798C145.015 229.313 145.605 229.928 146.775 229.943C147.296 229.95 147.838 229.808 148.391 229.521C149.888 228.743 150.827 227.022 150.843 225.028C150.857 223.078 149.961 221.376 148.502 220.59C146.773 219.659 144.648 219.962 142.817 221.401C139.865 223.721 139.215 226.869 138.527 230.203L138.51 230.282C138.204 231.769 137.547 233.827 136.158 235.189C135.574 235.761 133.999 236.445 133.1 236.181C132.773 236.086 132.588 235.876 132.5 235.503C132.418 235.156 132.076 234.943 131.729 235.024C131.385 235.107 131.173 235.454 131.255 235.802C131.448 236.621 131.976 237.196 132.743 237.42C133.002 237.496 133.276 237.53 133.559 237.53Z" fill="#9EA0A0"/>
<path fill-rule="evenodd" clip-rule="evenodd" d="M173.293 221.58C173.293 222.814 172.292 223.814 171.058 223.814C169.823 223.814 168.823 222.814 168.823 221.58C168.823 220.345 169.823 219.345 171.058 219.345C172.292 219.345 173.293 220.345 173.293 221.58Z" fill="#CCCDC9"/>
<path fill-rule="evenodd" clip-rule="evenodd" d="M137.942 221.58C137.942 222.814 136.942 223.814 135.707 223.814C134.473 223.814 133.473 222.814 133.473 221.58C133.473 220.345 134.473 219.345 135.707 219.345C136.942 219.345 137.942 220.345 137.942 221.58Z" fill="#9EA0A0"/>
<path fill-rule="evenodd" clip-rule="evenodd" d="M185.483 241.897C185.483 243.131 184.483 244.132 183.248 244.132C182.014 244.132 181.014 243.131 181.014 241.897C181.014 240.663 182.014 239.662 183.248 239.662C184.483 239.662 185.483 240.663 185.483 241.897Z" fill="#CCCDC9"/>
<path fill-rule="evenodd" clip-rule="evenodd" d="M125.752 241.897C125.752 243.131 124.751 244.132 123.517 244.132C122.283 244.132 121.282 243.131 121.282 241.897C121.282 240.663 122.283 239.662 123.517 239.662C124.751 239.662 125.752 240.663 125.752 241.897Z" fill="#9EA0A0"/>
<path fill-rule="evenodd" clip-rule="evenodd" d="M172.887 265.362C172.887 266.597 171.886 267.598 170.652 267.598C169.417 267.598 168.417 266.597 168.417 265.362C168.417 264.129 169.417 263.128 170.652 263.128C171.886 263.128 172.887 264.129 172.887 265.362Z" fill="#CCCDC9"/>
<path fill-rule="evenodd" clip-rule="evenodd" d="M138.349 265.362C138.349 266.597 137.348 267.598 136.114 267.598C134.88 267.598 133.879 266.597 133.879 265.362C133.879 264.129 134.88 263.128 136.114 263.128C137.348 263.128 138.349 264.129 138.349 265.362Z" fill="#9EA0A0"/>
<path fill-rule="evenodd" clip-rule="evenodd" d="M154.206 286.749C154.383 286.749 154.512 286.761 154.662 286.786L154.704 286.524C154.704 286.524 154.292 286.399 153.751 286.442L153.709 286.299C153.877 286.264 154.003 286.118 154.003 285.941C154.003 285.741 153.836 285.578 153.631 285.578C153.427 285.578 153.261 285.741 153.261 285.941C153.261 286.118 153.387 286.264 153.555 286.299L153.601 286.459C153.027 286.537 152.57 286.757 152.57 286.757L152.651 287C152.999 286.886 153.3 286.817 153.573 286.788C153.841 286.76 154.042 286.749 154.206 286.749Z" fill="#EA8A2F"/>
<path fill-rule="evenodd" clip-rule="evenodd" d="M97.1797 123L101 109.379L94.5 85L88 109.379L91.8203 123H97.1797Z" fill="#676866"/>
<path fill-rule="evenodd" clip-rule="evenodd" d="M96.8851 123L101 109L94 116.632V123H96.8851Z" fill="#9EA0A0"/>
<path fill-rule="evenodd" clip-rule="evenodd" d="M88 109.527L94.4998 117L101 109.527L94.4998 85L88 109.527Z" fill="#CCCDC9"/>
<path fill-rule="evenodd" clip-rule="evenodd" d="M92 280H97V130H92V280Z" fill="#681A20"/>
<path fill-rule="evenodd" clip-rule="evenodd" d="M94 280H97V130H94V280Z" fill="#AB2531"/>
<path fill-rule="evenodd" clip-rule="evenodd" d="M94.5 290C88.6516 281.097 91.8992 280 91.8992 280H97.1008C97.1008 280 100.348 281.097 94.5 290Z" fill="#3A3B39"/>
<path fill-rule="evenodd" clip-rule="evenodd" d="M94 290V280H96.9723C96.9723 280 100.684 281.097 94 290Z" fill="#676866"/>
<path fill-rule="evenodd" clip-rule="evenodd" d="M91 131H98V123H91V131Z" fill="#3A3B39"/>
<path fill-rule="evenodd" clip-rule="evenodd" d="M94 131H98V123H94V131Z" fill="#676866"/>
<path d="M321.786 473.183C321.786 478.807 294.388 479.826 269.618 484.839C244.848 489.851 194.423 477.267 188 473.183C188 467.559 217.949 463 254.893 463C300.775 463.628 324.531 467.752 321.786 473.183Z" fill="#CBDCE2" fill-opacity="0.47"/>
<path d="M192 54L250 95.0001L250 140.5L134.5 54L192 54Z" fill="white" fill-opacity="0.4"/>
<g clip-path="url(#clip2)">
<path fill-rule="evenodd" clip-rule="evenodd" d="M283.092 311.338C282.981 312.905 285.668 320.229 286.259 323.553C286.68 325.934 286.493 326.019 285.905 328.231C285.436 329.992 285.053 332.638 284.965 332.922C284.836 333.343 282.044 336.659 282.044 336.659C279.208 338.01 277.987 339.16 277.115 337.848C276.585 337.048 277.613 335.942 279.966 333.871L280.832 332.467C279.752 333.553 278.962 334.438 277.648 334.759C276.495 335.045 274.838 334.96 274.384 332.739C274.276 332.211 274.741 332.214 275.268 331.975L276.667 331.335C277.083 329.63 277.516 328.119 278.037 326.444C277.168 328.7 276.547 330.054 275.874 330.703C274.926 331.627 274.001 330.925 273.088 330.223C271.811 329.237 273.825 327.606 274.633 324.102C274.179 325.267 273.679 326.998 272.619 327.759C271.612 328.488 270.927 327.181 270.807 326.187C270.433 323.105 270.415 317.881 270.802 314.029C271.044 311.633 272.388 310.961 272.385 307.672L282.899 308.843L283.092 311.338Z" fill="#E9BC79"/>
<path fill-rule="evenodd" clip-rule="evenodd" d="M268.89 269.388C268.137 283.051 270.497 296.018 271.515 309.963C277.878 309.702 279.465 310.022 283.893 311.812C283.893 311.812 285.755 283.001 286.168 271.021C286.321 269.821 287.752 244.502 286.687 233.592C286.236 228.962 269.406 262.355 268.89 269.388Z" fill="#FFCE52"/>
<path fill-rule="evenodd" clip-rule="evenodd" d="M292.122 473.983C284.4 478.612 272.156 474.756 264.425 474.033C261.806 475.737 257.585 474.561 255.993 474.24C252.467 473.535 253.18 465.016 254.206 459.876C255.032 455.748 254.248 452.534 254.161 447.996L268.863 444.289C268.189 451.743 267.434 454.347 269.352 457.523C273.307 464.075 281.906 464.541 287.639 464.774C296.664 465.14 297.246 470.913 292.122 473.983Z" fill="#141412"/>
<path fill-rule="evenodd" clip-rule="evenodd" d="M244.477 327.179C242.116 317.743 241.578 314.134 242.677 307.951C244.054 300.215 246.622 295.531 250.114 288.746L275.672 294.236L278.207 316.798L272.375 373.028L269.792 458.426L252.301 460.257L248.536 397.939L253.518 372.595C252.401 359.68 247.1 337.697 244.477 327.179Z" fill="#132135"/>
<path fill-rule="evenodd" clip-rule="evenodd" d="M275.562 475.959C267.84 480.445 255.596 476.268 247.865 475.356C245.243 477.015 241.026 475.73 239.433 475.371C235.907 474.571 236.62 466 237.646 460.845C238.47 456.701 237.688 453.442 237.602 448.867L252.303 445.472C251.629 452.972 250.875 455.583 252.792 458.826C256.747 465.524 265.343 466.199 271.079 466.568C280.105 467.147 280.686 472.98 275.562 475.959Z" fill="#191817"/>
<path fill-rule="evenodd" clip-rule="evenodd" d="M234.534 327.221C232.514 317.774 232.106 314.161 233.445 307.971C235.12 300.227 237.88 295.538 241.652 288.746L267.935 295.764L268.744 318.115L265.915 326.547L261.534 372.461L261.245 374.721L254.752 460.793L237.074 462.623L235.973 398.057L238.948 371.998C238.302 359.069 236.782 337.75 234.534 327.221Z" fill="#1B2C49"/>
<path fill-rule="evenodd" clip-rule="evenodd" d="M234.521 327.221C232.516 317.774 232.111 314.161 233.44 307.971C235.103 300.227 237.844 295.538 241.59 288.746L252.776 292.139L244.03 461.893L237.044 462.623L235.951 398.057L238.905 371.998C238.264 359.069 236.754 337.75 234.521 327.221Z" fill="#132135"/>
<path fill-rule="evenodd" clip-rule="evenodd" d="M261.969 192.937L254.851 198.057L252.185 202.809L253.431 215.081L259.946 297.151L276.731 297.617C277.466 275.375 277.72 255.307 277.579 233.062L276.07 219.984C275.936 211.569 271.671 205.895 269.971 202.818C268.435 200.037 266.663 199.041 261.969 192.937Z" fill="#B4DBCA"/>
<path fill-rule="evenodd" clip-rule="evenodd" d="M245.021 207.012C235.957 211.099 233.398 213.841 230.848 218.306C230.085 219.813 229.762 221.883 229.748 224.37C229.629 226.257 229.804 228.365 230.203 230.657C231.839 243.431 237.368 261.921 237.853 276.659C238.246 280.878 235.921 299.596 235.356 305.358C241.453 305.778 263.773 310.134 276.753 305.687C278.303 278.139 281.596 272.779 284.497 252.872C286.891 236.47 288.109 221.93 282.314 216.061C276.445 212.555 271.905 207.042 267.583 200.735L253.901 200.625C253.295 201.848 252.792 202.757 252.31 203.459C252.218 203.035 252.135 202.624 252.061 202.218C250.952 204.164 247.408 205.727 245.021 207.012Z" fill="#F6C036"/>
<path fill-rule="evenodd" clip-rule="evenodd" d="M253.142 202.564L263.032 213.637L267.034 212.687C271.638 202.213 269.504 202.85 270.519 191.259L255.483 182.883C255.114 187.004 253.448 189.969 252.881 194.433C252.595 196.661 252.965 199.263 253.142 202.564Z" fill="#F3CB91"/>
<path fill-rule="evenodd" clip-rule="evenodd" d="M262.369 221.325C257.085 215.54 253.525 212.032 251.002 203.21C251.537 202.06 252.874 200.271 253.217 198.26C253.945 202.396 257.254 208.641 265.196 212.571C264.933 214.299 263.697 218.097 262.369 221.325Z" fill="#132135"/>
<path fill-rule="evenodd" clip-rule="evenodd" d="M265.196 212.887C268.557 211.237 270.121 203.663 270.326 201.217L272.814 207.027C273.2 211.234 271.924 217.891 270.994 220.734C270.216 218.397 267.212 215.412 265.196 212.887Z" fill="#1B2C49"/>
<path fill-rule="evenodd" clip-rule="evenodd" d="M280.804 189.282C280.804 190.233 281.005 190.741 281.952 191.222C282.174 191.849 281.896 192.658 281.248 193.009C278.313 193.291 279.724 194.985 279.952 194.967C282.094 194.816 281.964 195.636 281.719 196.376C281.153 196.617 280.934 196.902 280.923 197.214C280.893 198.168 282.887 199.693 281.872 201.518C280.645 203.717 271.324 201.244 266.99 200.112C263.398 199.173 264.016 196.697 263.658 193.089C261.848 193.716 260.3 193.448 259.623 190.548C256.498 187.605 255.11 184.978 252.776 181.388C252.776 181.388 255.705 164.596 256.066 164.423C256.427 164.251 268.801 163.365 268.801 163.365C270.727 165.401 273.532 167.071 275.6 169.485C278.467 172.819 278.985 175.084 279.843 176.781C280.571 178.226 280.491 178.998 280.313 179.827C280.23 180.208 280.047 180.692 280.124 181.067C280.713 184.045 284.112 186.063 284.121 186.919C284.127 187.62 282.988 189.082 280.804 189.282Z" fill="#FAD8A3"/>
<path fill-rule="evenodd" clip-rule="evenodd" d="M266.818 182.732C266.93 184.107 266.998 185.354 266.963 186.252C267.057 187.24 267.113 187.792 266.792 188.197C265.198 187.168 264.209 186.294 263.347 185.145C261.447 183.686 258.941 182.201 257.335 183.087C255.606 184.044 256.949 187.317 258.696 189.477C259.634 190.635 259.876 191.968 259.685 192.878C259.257 194.892 257.359 194.251 255.848 196.381C254.617 198.117 254.177 200.659 253.652 201.808C251.745 197.172 251.09 195.56 248.826 192.878C245.718 189.188 243.322 181.034 245.107 176.004L244.857 176.332C246.329 172.439 246.619 171.013 249.951 168.387C251.589 164.174 255.603 161.764 259.938 161C258.324 161.647 257.182 162.256 256.146 163.115C270.375 157.435 276.009 168.169 279.981 166.233C277.93 172.37 273.89 172.665 268.524 172.63C266.434 176.165 266.6 180.261 268.022 183.373L266.83 182.448L266.818 182.732Z" fill="#3A3A3A"/>
<path fill-rule="evenodd" clip-rule="evenodd" d="M221.851 240.875C220.79 247.311 219.289 258.79 221.08 267.099C222.931 275.683 232.037 282.137 236.737 273.233C240.106 260.34 241.29 257.239 245.491 239.473C252.29 221.905 249.473 213.021 239.781 210.894C226.958 208.083 223.047 233.629 221.851 240.875Z" fill="#E2B133"/>
<path fill-rule="evenodd" clip-rule="evenodd" d="M225.744 453.172C226.676 463.346 251.094 470.662 251.594 475.242C249.447 476.223 238.02 476.584 233.59 475.795C227.773 474.752 224.748 472.303 219.774 472.043L219.614 474.892L213.626 474.826L213.256 469.065C212.537 458.132 215.749 458.386 216.198 453.16L225.744 453.172Z" fill="#E9BC79"/>
<path fill-rule="evenodd" clip-rule="evenodd" d="M243.165 468.685C247.705 471.277 251.402 473.458 251.594 475.232C249.455 476.221 238.072 476.589 233.659 475.79C227.864 474.737 224.85 472.266 219.895 472.004L219.739 474.879L213.773 474.812L213.514 469.002C213.063 465.168 212.766 462.764 214.307 459.074C218.136 464.728 234.884 470.954 243.165 468.685Z" fill="#254764"/>
<path fill-rule="evenodd" clip-rule="evenodd" d="M249.031 383.243L225.637 455.526L211.968 453.349C215.439 443.712 216.857 428.45 217.901 416.586C219.127 402.605 220.324 399.732 225.555 391.664L231.505 378.87C229.945 370.659 251.496 371.109 249.031 383.243Z" fill="#E9BC79"/>
<path fill-rule="evenodd" clip-rule="evenodd" d="M249.819 381.003C248.915 388.685 237.18 393.371 232.025 384.357L218.632 346.386C210.778 342.114 207.305 333.483 206.093 329.146C203.164 318.675 206.155 313.071 208.26 306.545L237.003 305.306C240.304 331.664 246.999 349.555 249.819 381.003Z" fill="#E9BC79"/>
<path fill-rule="evenodd" clip-rule="evenodd" d="M229.93 213.859C218.329 222.233 229.638 242.48 230.303 243.798L208.42 229.479C210.107 222.065 211.097 216.315 209.531 207.722L229.93 213.859Z" fill="#E9BC79"/>
<path fill-rule="evenodd" clip-rule="evenodd" d="M234.246 215.989C236.445 216.063 238.121 215.843 238.543 214.651C239.081 213.123 238.378 211.452 238.274 210.898C238.217 210.598 238.528 210.287 238.886 209.533C239.541 207.818 237.583 207.875 236.361 207.685C238.337 207.228 239.329 207.091 238.979 205.276L238.25 204.982C237.742 204.178 237.745 203.288 237.76 202.882C237.799 201.814 239.807 200.873 238.97 199.138C237.324 198.426 235.285 196.996 234.111 195.065C232.868 193.018 233.977 191.074 231.422 187.209C229.404 184.153 226.15 182.038 222.056 181.75C215.168 181.267 205.148 184.254 202.659 189.624C195.804 204.416 217.544 214.446 217.867 214.556C222.49 216.155 228.457 215.793 234.246 215.989Z" fill="#FAD8A3"/>
<path fill-rule="evenodd" clip-rule="evenodd" d="M220.235 441.488C219.761 446.592 219.61 450.773 219.977 453.426C221.37 463.485 246.157 470.721 246.862 475.254C244.756 476.221 233.33 476.582 228.857 475.798C222.984 474.769 219.841 472.341 214.848 472.087L214.821 474.902L208.118 474.843L207.487 469.142C206.27 458.331 209.904 458.583 209.712 453.414L209.238 440.74L220.235 441.488Z" fill="#FAD8A3"/>
<path fill-rule="evenodd" clip-rule="evenodd" d="M238.013 469.276C242.737 471.871 246.59 474.052 246.862 475.826C244.737 476.813 233.203 477.181 228.688 476.381C222.76 475.331 219.588 472.857 214.547 472.595L214.52 475.467L207.755 475.407L207.229 469.596C206.598 465.758 206.188 463.356 207.581 459.666C211.728 465.317 229.714 471.548 238.013 469.276Z" fill="#407395"/>
<path fill-rule="evenodd" clip-rule="evenodd" d="M231.638 381.018L220.02 456.508L209.313 456.709C210.995 446.58 208.112 431.422 207.003 419.54C205.693 405.535 206.354 402.487 210.051 393.585L213.6 379.892L209.874 339.878C203.312 333.817 202.05 324.619 201.929 320.124C201.64 309.28 205.9 304.595 209.523 298.801L237.636 304.666C236.641 312.806 237.299 322.615 237.497 332.777C239.624 349.599 234.361 363.79 231.638 381.018Z" fill="#FAD8A3"/>
<path fill-rule="evenodd" clip-rule="evenodd" d="M230.686 381.008L218.645 346.935C210.784 342.667 207.307 334.046 206.094 329.713C203.162 319.253 206.156 313.655 208.263 307.133L237.032 305.897C240.334 332.219 247.092 349.515 249.819 381.008H230.686Z" fill="#1F5582"/>
<path fill-rule="evenodd" clip-rule="evenodd" d="M209.657 221.916C208.897 228.306 202.307 234.387 202.363 241.205C202.496 257.361 213.755 274.7 212.818 286.026C212.312 292.167 210.544 296.363 208.412 300.245C205.083 305.324 201.669 310.106 201.929 319.863C202.003 322.639 202.514 327.207 204.43 331.722C212.827 351.501 207.635 358.444 207.463 380.624L239.985 381.007C238.894 364.441 239.693 349.313 237.573 332.545C237.375 322.357 236.715 312.528 237.712 304.37L237.656 304.358C238.605 291.242 240.79 279.693 238.424 262.773C241.993 260.514 244.246 258.493 245.68 248.091C239.483 242.096 234.832 238.812 229.292 233.165C224.425 229.7 216.011 225.89 209.657 221.916Z" fill="#236CA2"/>
<path fill-rule="evenodd" clip-rule="evenodd" d="M227.777 183.788C225.247 180.954 213.108 179.182 205.843 184.732C203.155 186.782 200.328 190.164 198.537 194.447C194.443 204.243 194.678 223.31 203.927 230.549C210.179 235.443 218.766 230.523 227.637 253.261C235.882 238.46 215.238 217.899 221.936 208.509C225.542 202.122 240.166 183.25 227.777 183.788Z" fill="#3A3A3A"/>
<path fill-rule="evenodd" clip-rule="evenodd" d="M219.549 246.353C219.75 258.135 219.735 273.754 218.941 285.539L207.865 289.929C207.396 289.233 207.185 288.894 207.128 288.287C206.758 284.358 203.938 266.508 202.876 255.868C201.314 240.237 204.967 237.489 208.901 235.898C213.388 234.08 219.428 238.997 219.549 246.353Z" fill="#FAD8A3"/>
<path fill-rule="evenodd" clip-rule="evenodd" d="M233.851 317.168C229.221 310.317 224.783 291.83 218.696 280.855C215.34 274.808 209.643 276.966 208.452 279.188C206.903 282.085 205.968 285.236 207.243 288.765C207.606 289.772 209.324 292.545 210.084 293.535C216.792 302.292 225.002 314.901 226.799 319.5L233.851 317.168Z" fill="#FAD8A3"/>
<path fill-rule="evenodd" clip-rule="evenodd" d="M238.582 331.73L236.949 332.511L234.593 331.245L234.442 326.597L237.494 328.237L238.582 331.73Z" fill="#FAD8A3"/>
<path fill-rule="evenodd" clip-rule="evenodd" d="M239.366 323.566C240.583 325.173 241.973 327.653 242.458 329.02C242.842 330.1 242.645 331.119 242.705 332.442C242.836 335.211 242.312 334.201 238.985 333.601L238.848 332.855C238.279 332.146 237.91 331.23 237.238 330.39C236.568 329.55 235.693 328.443 234.919 327.471L229.711 316.862L232.548 315.36C235.306 318.575 237.178 320.674 239.366 323.566Z" fill="#FAD8A3"/>
<path fill-rule="evenodd" clip-rule="evenodd" d="M237.52 325.657L239.765 334.285L232.056 332.321C229.871 331.761 229.01 330.22 227.785 327.441C226.052 323.522 227.098 321.355 226.795 318.511L230.884 315.951C230.884 315.951 237.432 325.762 237.52 325.657Z" fill="#FAD8A3"/>
</g>
<defs>
<linearGradient id="paint0_linear" x1="645" y1="397" x2="-23.1076" y2="397" gradientUnits="userSpaceOnUse">
<stop stop-color="#CBDCE2" stop-opacity="0"/>
<stop offset="0.244792" stop-color="#CBDCE2"/>
<stop offset="0.591617" stop-color="#CBDCE2"/>
<stop offset="0.93345" stop-color="#CBDCE2" stop-opacity="0"/>
</linearGradient>
<linearGradient id="paint1_linear" x1="441" y1="365" x2="382" y2="398" gradientUnits="userSpaceOnUse">
<stop stop-color="#D8B666"/>
<stop offset="1" stop-color="#E3B379"/>
</linearGradient>
<linearGradient id="paint2_linear" x1="206.426" y1="313.886" x2="141.251" y2="382.972" gradientUnits="userSpaceOnUse">
<stop stop-color="#D8B666"/>
<stop offset="1" stop-color="#E3B379"/>
</linearGradient>
<clipPath id="clip0">
<rect width="284.615" height="314.022" fill="white" transform="translate(201.72 144)"/>
</clipPath>
<clipPath id="clip1">
<rect width="66.6178" height="239" fill="white" transform="matrix(-1 0 0 1 603.618 245)"/>
</clipPath>
<clipPath id="clip2">
<rect width="99.3582" height="317" fill="white" transform="matrix(-1 0 0 1 295.358 161)"/>
</clipPath>
</defs>
</svg>
