<svg width="26" height="20" viewBox="0 0 26 20" fill="none" xmlns="http://www.w3.org/2000/svg">
<path d="M21.2046 6.34591C19.1936 4.15191 16.5742 2.86316 13.7614 2.66557V1.66206H15.0563V0H10.943V1.66206H12.2379V2.66557C9.42511 2.86316 6.80571 4.15191 4.79469 6.34591C2.7202 8.60917 1.52863 11.5786 1.40723 14.7573H24.592C24.4706 11.5786 23.2791 8.60917 21.2046 6.34591ZM5.37729 12.8559L3.86952 12.6182C3.884 12.5079 4.24602 9.90051 5.90633 8.30857L6.91203 9.55685C5.68872 10.73 5.38007 12.8349 5.37729 12.8559Z" fill="#FF3A53"/>
<path d="M0 16.4189V16.6479C0 18.4961 1.37823 19.9997 3.07227 19.9997H22.9277C24.6218 19.9997 26 18.4961 26 16.6479V16.4189H0Z" fill="#FF3A53"/>
</svg>
