<svg width="18" height="20" viewBox="0 0 18 20" fill="none" xmlns="http://www.w3.org/2000/svg">
<path d="M17.7996 5.6001C17.7996 5.1001 17.4996 4.6001 16.9996 4.4001L9.59961 0.200098C9.09961 -0.0999023 8.59961 -0.0999023 8.09961 0.200098L0.999609 4.4001C0.499609 4.6001 0.199609 5.1001 0.199609 5.6001C-0.100391 9.8001 -0.100391 14.3001 0.199609 18.6001C0.199609 19.4001 0.899609 20.0001 1.69961 20.0001H4.99961C5.59961 20.0001 5.99961 19.6001 5.99961 19.0001V14.3001C5.99961 13.5001 6.69961 12.8001 7.49961 12.8001H10.4996C11.2996 12.8001 11.9996 13.5001 11.9996 14.3001V19.0001C11.9996 19.6001 12.3996 20.0001 12.9996 20.0001H16.2996C17.0996 20.0001 17.7996 19.4001 17.7996 18.6001C18.0996 14.3001 18.0996 9.8001 17.7996 5.6001Z" fill="#00AAE5"/>
</svg>
