<svg width="137" height="53" viewBox="0 0 137 53" fill="none" xmlns="http://www.w3.org/2000/svg">
<path d="M1.48075 15.222C0.814325 14.8566 0 15.3388 0 16.0989V23.6917C0 24.4516 0.814178 24.9338 1.4806 24.5686L8.40646 20.773C9.09892 20.3935 9.09901 19.3988 8.40661 19.0192L1.48075 15.222Z" fill="#FF3A53"/>
<path d="M2.4335 25.8791C1.74137 26.2587 1.74137 27.253 2.4335 27.6326L9.36035 31.4319C10.0268 31.7974 10.8412 31.3152 10.8412 30.5551V22.9566C10.8412 22.1965 10.0268 21.7143 9.36035 22.0798L2.4335 25.8791Z" fill="#FF3A53"/>
<path d="M2.43383 12.1611C1.74162 12.5408 1.74171 13.5352 2.43398 13.9148L9.3605 17.7123C10.0269 18.0777 10.8412 17.5955 10.8412 16.8355V9.23883C10.8412 8.47874 10.0268 7.99653 9.36035 8.36206L2.43383 12.1611Z" fill="#FF3A53"/>
<path d="M13.9896 8.36182C13.3232 7.99638 12.5088 8.4786 12.5088 9.23864V16.8357C12.5088 17.5956 13.323 18.0779 13.9895 17.7126L20.9179 13.9148C21.6103 13.5353 21.6104 12.5407 20.9181 12.1611L13.9896 8.36182Z" fill="#FFE500"/>
<path d="M13.9896 22.0796C13.3232 21.7142 12.5088 22.1964 12.5088 22.9564V30.5553C12.5088 31.3154 13.3232 31.7976 13.9896 31.4322L20.9184 27.6327C21.6107 27.2531 21.6107 26.2586 20.9184 25.879L13.9896 22.0796Z" fill="#FF3A53"/>
<path d="M13.9894 35.7969C13.323 35.4317 12.5088 35.9139 12.5088 36.6739V44.269C12.5088 45.0289 13.323 45.5112 13.9895 45.1459L20.9176 41.3483C21.6101 40.9688 21.6101 39.9741 20.9176 39.5945L13.9894 35.7969Z" fill="#FF3A53"/>
<path d="M14.9434 46.4541C14.2513 46.8339 14.2516 47.8283 14.9439 48.2078L21.8704 52.0037C22.5368 52.369 23.351 51.8867 23.351 51.1268V43.5302C23.351 42.77 22.5364 42.2878 21.8699 42.6535L14.9434 46.4541Z" fill="#46B2FF"/>
<path d="M14.9436 32.7363C14.2514 33.116 14.2515 34.1104 14.9437 34.49L21.8702 38.2875C22.5367 38.6529 23.351 38.1707 23.351 37.4107V29.814C23.351 29.0539 22.5365 28.5717 21.8701 28.9373L14.9436 32.7363Z" fill="#46B2FF"/>
<path d="M2.37718 39.5547C1.68498 39.9344 1.68507 40.9288 2.37733 41.3083L9.30384 45.1059C9.97027 45.4713 10.7846 44.9891 10.7846 44.229V36.6324C10.7846 35.8723 9.97012 35.3901 9.30369 35.7556L2.37718 39.5547Z" fill="#FF3A53"/>
<path d="M14.9444 19.0192C14.252 19.3988 14.2521 20.3935 14.9445 20.773L21.8704 24.5686C22.5368 24.9338 23.351 24.4516 23.351 23.6917V16.0989C23.351 15.3388 22.5367 14.8566 21.8702 15.222L14.9444 19.0192Z" fill="#FF3A53"/>
<path d="M1.64188 28.7357C0.975457 28.3703 0.161133 28.8525 0.161133 29.6125V37.2072C0.161133 37.9673 0.975457 38.4495 1.64188 38.0841L8.56806 34.2867C9.2604 33.9072 9.2604 32.9126 8.56807 32.533L1.64188 28.7357Z" fill="#FF3A53"/>
<path d="M26.909 1.27025C26.2424 0.894462 25.418 1.37613 25.418 2.14137V9.83222C25.418 10.5975 26.2426 11.0792 26.9092 10.7032L33.7292 6.85704C34.4076 6.47443 34.4075 5.49739 33.729 5.11489L26.909 1.27025Z" fill="#FFE500"/>
<path d="M26.4993 15.222C25.8329 14.8566 25.0186 15.3388 25.0186 16.0989V23.6917C25.0186 24.4516 25.8327 24.9339 26.4992 24.5686L33.425 20.773C34.1175 20.3935 34.1176 19.3988 33.4252 19.0192L26.4993 15.222Z" fill="#FFE500"/>
<path d="M26.4995 28.9373C25.833 28.5717 25.0186 29.0539 25.0186 29.814V37.4107C25.0186 38.1707 25.8329 38.6529 26.4993 38.2875L33.4258 34.49C34.1181 34.1104 34.1182 33.116 33.426 32.7363L26.4995 28.9373Z" fill="#46B2FF"/>
<path d="M26.4996 42.6535C25.8332 42.2878 25.0186 42.77 25.0186 43.5302V51.1268C25.0186 51.8867 25.8327 52.369 26.4992 52.0037L33.4257 48.2078C34.118 47.8283 34.1183 46.8339 33.4261 46.4541L26.4996 42.6535Z" fill="#46B2FF"/>
<path d="M27.4529 39.5946C26.7605 39.9741 26.7605 40.9687 27.4529 41.3483L34.379 45.1456C35.0455 45.511 35.8598 45.0288 35.8598 44.2688V36.674C35.8598 35.914 35.0455 35.4318 34.379 35.7972L27.4529 39.5946Z" fill="#46B2FF"/>
<path d="M27.4521 25.8791C26.7599 26.2587 26.7599 27.253 27.4521 27.6326L34.3789 31.4319C35.0453 31.7974 35.8598 31.3152 35.8598 30.5551V22.9566C35.8598 22.1965 35.0453 21.7143 34.3789 22.0798L27.4521 25.8791Z" fill="#FFE500"/>
<path d="M27.4524 12.1611C26.7602 12.5408 26.7603 13.5352 27.4525 13.9148L34.379 17.7123C35.0455 18.0777 35.8598 17.5955 35.8598 16.8355V9.23883C35.8598 8.47874 35.0453 7.99653 34.3789 8.36206L27.4524 12.1611Z" fill="#FFE500"/>
<path d="M15.3118 5.04103C14.6196 5.42069 14.6196 6.41512 15.3119 6.79467L22.2384 10.5922C22.9048 10.9576 23.7192 10.4754 23.7192 9.71535V2.11871C23.7192 1.35863 22.9047 0.876413 22.2383 1.24194L15.3118 5.04103Z" fill="#FFE500"/>
<path d="M39.0051 8.36158C38.3387 7.99623 37.5244 8.47845 37.5244 9.23845V16.8359C37.5244 17.5958 38.3386 18.078 39.005 17.7128L45.9355 13.9149C46.6279 13.5354 46.628 12.5407 45.9356 12.1611L39.0051 8.36158Z" fill="#FFE500"/>
<path d="M39.0051 22.0794C38.3387 21.714 37.5244 22.1962 37.5244 22.9562V30.5555C37.5244 31.3155 38.3387 31.7977 39.0051 31.4324L45.9359 27.6327C46.6283 27.2532 46.6283 26.2586 45.9359 25.879L39.0051 22.0794Z" fill="#46B2FF"/>
<path d="M39.962 19.0192C39.2696 19.3988 39.2697 20.3935 39.9621 20.773L46.888 24.5686C47.5544 24.9339 48.3686 24.4516 48.3686 23.6917V16.0988C48.3686 15.3388 47.5543 14.8566 46.8879 15.222L39.962 19.0192Z" fill="#FFE500"/>
<path d="M39.2182 35.5935C38.5518 35.228 37.7373 35.7102 37.7373 36.4703V44.0669C37.7373 44.8269 38.5516 45.3091 39.2181 44.9438L46.1446 41.1462C46.8368 40.7667 46.8369 39.7722 46.1447 39.3926L39.2182 35.5935Z" fill="#46B2FF"/>
<path d="M40.1713 32.5353C39.479 32.9149 39.479 33.9093 40.1713 34.2889L47.1001 38.0884C47.7665 38.4538 48.5809 37.9716 48.5809 37.2116V29.6127C48.5809 28.8526 47.7665 28.3704 47.1001 28.7358L40.1713 32.5353Z" fill="#46B2FF"/>
<path d="M60.8467 13.7853C60.8467 13.557 60.8995 13.3805 61.0052 13.256C61.1109 13.1315 61.2588 13.0692 61.449 13.0692H67.4722C67.8526 13.0692 68.0428 13.2871 68.0428 13.7231V30.6303C68.0428 30.7964 68.064 30.9106 68.1062 30.9728C68.1696 31.0351 68.2753 31.0662 68.4232 31.0662H77.9653C78.4514 31.0662 78.6944 31.2634 78.6944 31.6578V35.4877C78.6944 35.6952 78.6204 35.8613 78.4725 35.9858C78.3457 36.1104 78.1555 36.1727 77.9019 36.1727H61.7026C61.3856 36.1727 61.1637 36.1104 61.0369 35.9858C60.9101 35.8613 60.8467 35.6641 60.8467 35.3942V13.7853Z" fill="#212D38"/>
<path d="M95.863 19.2654C95.3558 18.7257 94.8063 18.3105 94.2146 18.0199C93.644 17.7293 92.8092 17.584 91.7102 17.584C90.6112 17.584 89.7976 17.7397 89.2692 18.0511C88.7409 18.3624 88.4767 18.7361 88.4767 19.172C88.4767 19.9193 89.153 20.4486 90.5056 20.76L95.7679 22.0988C97.6911 22.5763 99.1388 23.417 100.111 24.6209C101.083 25.8041 101.569 27.226 101.569 28.8867C101.569 30.4227 101.157 31.7616 100.333 32.9033C99.5087 34.045 98.3252 34.9272 96.7824 35.5499C95.2607 36.1727 93.4749 36.484 91.4249 36.484C89.1001 36.484 86.9762 36.1104 85.053 35.3631C83.1509 34.5951 81.83 33.5987 81.0903 32.374C80.9846 32.1664 80.9318 32.0107 80.9318 31.9069C80.9318 31.6993 81.0481 31.5125 81.2805 31.3465L84.5457 29.1358C84.7782 28.9904 84.9896 28.9178 85.1798 28.9178C85.4122 28.9178 85.6024 29.0112 85.7504 29.198C86.4689 30.1114 87.1981 30.7549 87.9378 31.1285C88.6775 31.5021 89.6602 31.689 90.886 31.689C92.0695 31.689 92.9994 31.5333 93.6757 31.2219C94.3731 30.8898 94.7218 30.4435 94.7218 29.883C94.7218 29.4886 94.5527 29.1461 94.2146 28.8555C93.8764 28.5649 93.3798 28.347 92.7246 28.2017L87.9061 27.0496C86.004 26.5929 84.4929 25.7418 83.3728 24.4964C82.2527 23.2301 81.6926 21.7771 81.6926 20.1372C81.6926 18.788 82.0942 17.5529 82.8973 16.432C83.7004 15.2903 84.8416 14.3977 86.321 13.7542C87.8004 13.0899 89.5123 12.7578 91.4566 12.7578C93.3587 12.7578 95.1233 13.0692 96.7507 13.6919C98.378 14.2939 99.5509 15.1034 100.269 16.1206C100.417 16.3074 100.491 16.4838 100.491 16.6499C100.491 16.7952 100.417 16.9301 100.269 17.0547L96.8141 19.5145C96.7084 19.5975 96.5922 19.639 96.4654 19.639C96.3174 19.639 96.1167 19.5145 95.863 19.2654Z" fill="#212D38"/>
<path d="M109.31 13.0692C111.825 13.0692 113.389 13.0796 114.002 13.1003C118.123 13.2456 121.24 14.3458 123.353 16.4008C125.467 18.4351 126.523 21.1544 126.523 24.5586C126.523 26.842 126.048 28.8555 125.097 30.5992C124.146 32.3428 122.73 33.7129 120.849 34.7092C118.968 35.6849 116.675 36.1727 113.97 36.1727H105.632C105.315 36.1727 105.083 36.1 104.935 35.9547C104.787 35.8094 104.713 35.5707 104.713 35.2386V13.8476C104.713 13.557 104.777 13.3598 104.903 13.256C105.03 13.1315 105.252 13.0692 105.569 13.0692H109.31ZM112.226 17.9577C112.121 17.9577 112.036 17.9888 111.973 18.0511C111.93 18.1133 111.909 18.2275 111.909 18.3936V30.8171C111.909 31.004 111.941 31.1285 112.004 31.1908C112.068 31.2531 112.184 31.2842 112.353 31.2842H112.575C114.667 31.2842 116.252 30.7549 117.33 29.6962C118.429 28.6168 118.979 26.8731 118.979 24.4652C118.979 22.3895 118.566 20.843 117.742 19.8259C116.918 18.8087 115.713 18.2275 114.128 18.0822L112.226 17.9577Z" fill="#212D38"/>
<path d="M136.43 13.0692C136.81 13.0692 137 13.2871 137 13.7231V35.2697C137 35.6018 136.916 35.8405 136.747 35.9858C136.578 36.1104 136.313 36.1727 135.954 36.1727H130.66C130.343 36.1727 130.121 36.1104 129.994 35.9858C129.867 35.8613 129.804 35.6641 129.804 35.3942V13.7853C129.804 13.557 129.857 13.3805 129.963 13.256C130.068 13.1315 130.216 13.0692 130.406 13.0692H136.43Z" fill="#212D38"/>
<path d="M62.7255 46.4338C62.352 46.4338 62.0013 46.3839 61.6734 46.2839C61.35 46.184 61.0744 46.0408 60.8467 45.8546L61.1473 45.214C61.3841 45.3912 61.6301 45.5229 61.8852 45.6092C62.1448 45.691 62.4272 45.7319 62.7323 45.7319C63.0694 45.7319 63.329 45.6728 63.5112 45.5547C63.6979 45.4366 63.7913 45.2708 63.7913 45.0572C63.7913 44.8755 63.7048 44.7369 63.5317 44.6415C63.3632 44.5416 63.083 44.4484 62.6913 44.3621C62.081 44.2304 61.6369 44.06 61.3591 43.851C61.0812 43.642 60.9423 43.3376 60.9423 42.9378C60.9423 42.6516 61.0198 42.3972 61.1746 42.1745C61.3295 41.9519 61.5481 41.777 61.8305 41.6498C62.1174 41.5226 62.4477 41.459 62.8211 41.459C63.1628 41.459 63.4861 41.5112 63.7913 41.6157C64.101 41.7157 64.3538 41.8565 64.5497 42.0382L64.2559 42.6788C63.8232 42.3336 63.3449 42.1609 62.8211 42.1609C62.5069 42.1609 62.2586 42.2268 62.0765 42.3585C61.8943 42.4858 61.8032 42.6607 61.8032 42.8833C61.8032 43.0741 61.8829 43.2195 62.0423 43.3194C62.2063 43.4194 62.4841 43.5125 62.8758 43.5989C63.2812 43.6943 63.6114 43.7988 63.8665 43.9123C64.1215 44.0214 64.3174 44.1645 64.454 44.3417C64.5907 44.5143 64.659 44.7324 64.659 44.9959C64.659 45.2867 64.5815 45.5411 64.4267 45.7592C64.2718 45.9727 64.0486 46.1385 63.7571 46.2567C63.4656 46.3748 63.1218 46.4338 62.7255 46.4338Z" fill="#212D38"/>
<path d="M66.5689 41.5203H67.4503V46.3725H66.5689V41.5203Z" fill="#212D38"/>
<path d="M73.6552 43.7488V46.0795C73.432 46.1885 73.1632 46.2748 72.849 46.3384C72.5347 46.402 72.2136 46.4338 71.8857 46.4338C71.3846 46.4338 70.9497 46.3339 70.5807 46.134C70.2118 45.9341 69.9294 45.6479 69.7335 45.2753C69.5377 44.9028 69.4398 44.4575 69.4398 43.9396C69.4398 43.4308 69.5377 42.9901 69.7335 42.6175C69.9294 42.245 70.2072 41.9587 70.5671 41.7588C70.9314 41.5589 71.3573 41.459 71.8447 41.459C72.1863 41.459 72.5051 41.509 72.8011 41.6089C73.1018 41.7089 73.3523 41.8497 73.5527 42.0314L73.2521 42.672C73.0243 42.4948 72.8011 42.3676 72.5825 42.2904C72.3639 42.2132 72.1248 42.1745 71.8652 42.1745C71.3641 42.1745 70.9838 42.3245 70.7242 42.6243C70.4691 42.9242 70.3416 43.3626 70.3416 43.9396C70.3416 44.5348 70.4737 44.9845 70.7379 45.2889C71.002 45.5888 71.396 45.7387 71.9198 45.7387C72.2386 45.7387 72.5529 45.6956 72.8626 45.6092V44.3826H71.8105V43.7488H73.6552Z" fill="#212D38"/>
<path d="M79.8399 41.5203V46.3725H79.1841L76.5605 42.9719V46.3725H75.7407V41.5203H76.3966L79.0133 44.9141V41.5203H79.8399Z" fill="#212D38"/>
<path d="M83.6378 46.4338C83.2643 46.4338 82.9136 46.3839 82.5856 46.2839C82.2623 46.184 81.9867 46.0408 81.759 45.8546L82.0596 45.214C82.2964 45.3912 82.5424 45.5229 82.7974 45.6092C83.057 45.691 83.3394 45.7319 83.6446 45.7319C83.9817 45.7319 84.2413 45.6728 84.4235 45.5547C84.6102 45.4366 84.7036 45.2708 84.7036 45.0572C84.7036 44.8755 84.617 44.7369 84.444 44.6415C84.2754 44.5416 83.9953 44.4484 83.6036 44.3621C82.9933 44.2304 82.5492 44.06 82.2714 43.851C81.9935 43.642 81.8546 43.3376 81.8546 42.9378C81.8546 42.6516 81.932 42.3972 82.0869 42.1745C82.2418 41.9519 82.4604 41.777 82.7428 41.6498C83.0297 41.5226 83.3599 41.459 83.7334 41.459C84.075 41.459 84.3984 41.5112 84.7036 41.6157C85.0133 41.7157 85.2661 41.8565 85.4619 42.0382L85.1682 42.6788C84.7355 42.3336 84.2572 42.1609 83.7334 42.1609C83.4191 42.1609 83.1709 42.2268 82.9887 42.3585C82.8065 42.4858 82.7154 42.6607 82.7154 42.8833C82.7154 43.0741 82.7952 43.2195 82.9546 43.3194C83.1185 43.4194 83.3964 43.5125 83.7881 43.5989C84.1934 43.6943 84.5237 43.7988 84.7787 43.9123C85.0338 44.0214 85.2296 44.1645 85.3663 44.3417C85.5029 44.5143 85.5713 44.7324 85.5713 44.9959C85.5713 45.2867 85.4938 45.5411 85.339 45.7592C85.1841 45.9727 84.9609 46.1385 84.6694 46.2567C84.3779 46.3748 84.034 46.4338 83.6378 46.4338Z" fill="#212D38"/>
<path d="M94.3366 46.4338C93.9449 46.2975 93.6078 46.1022 93.3254 45.8478C92.9018 46.2339 92.4145 46.427 91.8634 46.427C91.5354 46.427 91.2439 46.3725 90.9889 46.2635C90.7384 46.1499 90.5425 45.9931 90.4013 45.7932C90.2647 45.5933 90.1963 45.3639 90.1963 45.1049C90.1963 44.8096 90.2783 44.5484 90.4423 44.3212C90.6063 44.0941 90.8682 43.8805 91.228 43.6806C91.0458 43.4807 90.9137 43.2967 90.8317 43.1286C90.7497 42.9605 90.7088 42.7879 90.7088 42.6107C90.7088 42.27 90.8317 41.9951 91.0777 41.7861C91.3236 41.5771 91.6447 41.4726 92.041 41.4726C92.4054 41.4726 92.6969 41.568 92.9155 41.7588C93.1341 41.9497 93.2435 42.2041 93.2435 42.5221C93.2435 42.7674 93.1706 42.9901 93.0248 43.19C92.8836 43.3899 92.6491 43.5852 92.3211 43.776L93.2844 44.771C93.4757 44.3848 93.5805 43.9464 93.5987 43.4557H94.3229C94.291 44.1645 94.1134 44.7756 93.79 45.2889C94.0587 45.5388 94.3821 45.7251 94.7602 45.8478L94.3366 46.4338ZM92.0478 42.0587C91.8793 42.0587 91.7427 42.1087 91.6379 42.2086C91.5377 42.3086 91.4876 42.4426 91.4876 42.6107C91.4876 42.7152 91.5149 42.8174 91.5696 42.9174C91.6288 43.0173 91.7358 43.1536 91.8907 43.3263C92.1321 43.1854 92.3006 43.0582 92.3963 42.9446C92.4965 42.8265 92.5466 42.697 92.5466 42.5562C92.5466 42.4063 92.501 42.2859 92.4099 42.195C92.3188 42.1041 92.1981 42.0587 92.0478 42.0587ZM91.0299 45.0572C91.0299 45.2753 91.1073 45.448 91.2621 45.5752C91.417 45.7024 91.6265 45.766 91.8907 45.766C92.246 45.766 92.5671 45.6342 92.854 45.3707L91.6584 44.1372C91.4398 44.2735 91.2804 44.4144 91.1802 44.5597C91.08 44.7051 91.0299 44.871 91.0299 45.0572Z" fill="#212D38"/>
<path d="M99.2139 41.5203H102.466V42.2154H100.075V43.558H102.323V44.2531H100.075V45.6774H102.466V46.3725H99.2139V41.5203Z" fill="#212D38"/>
<path d="M108.436 46.3725H107.405L106.086 44.5597L104.768 46.3725H103.736L105.588 43.8987L103.798 41.5203H104.829L106.086 43.2581L107.357 41.5203H108.382L106.585 43.9055L108.436 46.3725Z" fill="#212D38"/>
<path d="M114.236 41.5203V46.3725H113.362V44.2667H110.868V46.3725H110V41.5203H110.868V43.5511H113.362V41.5203H114.236Z" fill="#212D38"/>
<path d="M116.384 41.5203H117.266V46.3725H116.384V41.5203Z" fill="#212D38"/>
<path d="M122.405 43.8646C122.687 43.9464 122.903 44.0895 123.054 44.294C123.209 44.4984 123.286 44.7506 123.286 45.0504C123.286 45.4639 123.138 45.7887 122.842 46.0249C122.551 46.2567 122.143 46.3725 121.619 46.3725H119.412V41.5203H121.551C122.052 41.5203 122.446 41.6339 122.733 41.8611C123.02 42.0837 123.163 42.3926 123.163 42.7879C123.163 43.0423 123.095 43.2649 122.958 43.4557C122.826 43.642 122.642 43.7783 122.405 43.8646ZM120.273 43.5648H121.407C122.018 43.5648 122.323 43.3376 122.323 42.8833C122.323 42.6561 122.248 42.4858 122.097 42.3722C121.947 42.2586 121.717 42.2018 121.407 42.2018H120.273V43.5648ZM121.523 45.691C121.842 45.691 122.075 45.6342 122.22 45.5206C122.371 45.4071 122.446 45.2276 122.446 44.9823C122.446 44.7324 122.371 44.5484 122.22 44.4303C122.075 44.3121 121.842 44.2531 121.523 44.2531H120.273V45.691H121.523Z" fill="#212D38"/>
<path d="M125.223 41.5203H126.104V46.3725H125.223V41.5203Z" fill="#212D38"/>
<path d="M129.391 42.2427H127.806V41.5203H131.871V42.2427H130.28V46.3725H129.391V42.2427Z" fill="#212D38"/>
<path d="M135.067 46.4338C134.693 46.4338 134.343 46.3839 134.015 46.2839C133.691 46.184 133.416 46.0408 133.188 45.8546L133.489 45.214C133.725 45.3912 133.971 45.5229 134.226 45.6092C134.486 45.691 134.768 45.7319 135.074 45.7319C135.411 45.7319 135.67 45.6728 135.852 45.5547C136.039 45.4366 136.133 45.2708 136.133 45.0572C136.133 44.8755 136.046 44.7369 135.873 44.6415C135.704 44.5416 135.424 44.4484 135.033 44.3621C134.422 44.2304 133.978 44.06 133.7 43.851C133.422 43.642 133.284 43.3376 133.284 42.9378C133.284 42.6516 133.361 42.3972 133.516 42.1745C133.671 41.9519 133.889 41.777 134.172 41.6498C134.459 41.5226 134.789 41.459 135.162 41.459C135.504 41.459 135.827 41.5112 136.133 41.6157C136.442 41.7157 136.695 41.8565 136.891 42.0382L136.597 42.6788C136.164 42.3336 135.686 42.1609 135.162 42.1609C134.848 42.1609 134.6 42.2268 134.418 42.3585C134.235 42.4858 134.144 42.6607 134.144 42.8833C134.144 43.0741 134.224 43.2195 134.384 43.3194C134.547 43.4194 134.825 43.5125 135.217 43.5989C135.622 43.6943 135.953 43.7988 136.208 43.9123C136.463 44.0214 136.659 44.1645 136.795 44.3417C136.932 44.5143 137 44.7324 137 44.9959C137 45.2867 136.923 45.5411 136.768 45.7592C136.613 45.9727 136.39 46.1385 136.098 46.2567C135.807 46.3748 135.463 46.4338 135.067 46.4338Z" fill="#212D38"/>
</svg>
