<svg width="573" height="384" viewBox="0 0 573 384" fill="none" xmlns="http://www.w3.org/2000/svg">
<path d="M459.276 165.495H456.714V189.742H459.276V165.495Z" fill="#3A5B6E"/>
<path d="M542.945 165.495H540.384V189.742H542.945V165.495Z" fill="#3A5B6E"/>
<path d="M379.705 165.495H377.144V189.742H379.705V165.495Z" fill="#3A5B6E"/>
<path d="M562.071 189.4H237.637L251.298 289.463H556.948L562.071 189.4Z" fill="#9EB0B7"/>
<path d="M561 197H245C243.343 197 242 198.343 242 200V203C242 204.657 243.343 206 245 206H561C562.657 206 564 204.657 564 203V200C564 198.343 562.657 197 561 197Z" fill="#CEE2E9"/>
<path d="M562 186H234V202.5L564.715 219C580 190 570.145 186.052 562 186Z" fill="#BDD0D7"/>
<path d="M557.77 191H237L246.237 194.738C355.814 195.883 403.372 194.161 564 204C570.5 194 565.91 191.02 557.77 191Z" fill="#D0EBF4"/>
<path d="M566.119 126.479C566.268 123.539 563.857 121.107 560.915 121.231L346.205 130.281C343.366 130.4 341.197 132.859 341.433 135.691L344.887 177.203C345.103 179.795 347.27 181.789 349.87 181.789H558.569C561.232 181.789 563.428 179.701 563.563 177.041L566.119 126.479Z" fill="#FF3A53"/>
<path d="M561.621 129.075C561.324 128.284 560.703 127.65 559.918 127.338L559.733 127.803C559.42 127.678 559.075 127.615 558.712 127.629L556.698 127.709L556.678 127.209L552.649 127.367L552.669 127.867L548.64 128.025L548.62 127.525L544.591 127.684L544.611 128.183L540.582 128.341L540.562 127.842L536.533 128L536.552 128.5L532.523 128.658L532.504 128.158L528.475 128.317L528.494 128.816L524.465 128.974L524.446 128.475L520.416 128.633L520.436 129.133L516.407 129.291L516.387 128.791L512.358 128.949L512.378 129.449L508.349 129.607L508.329 129.108L504.3 129.266L504.32 129.765L500.291 129.924L500.271 129.424L496.242 129.582L496.261 130.082L492.232 130.24L492.213 129.74L488.184 129.899L488.203 130.398L484.174 130.557L484.155 130.057L480.125 130.215L480.145 130.715L476.116 130.873L476.096 130.373L472.067 130.532L472.087 131.031L468.058 131.189L468.038 130.69L464.009 130.848L464.029 131.348L460 131.506L459.98 131.006L455.951 131.164L455.971 131.664L451.941 131.822L451.922 131.323L447.893 131.481L447.912 131.981L443.883 132.139L443.864 131.639L439.835 131.797L439.854 132.297L435.825 132.455L435.805 131.956L431.776 132.114L431.796 132.613L427.767 132.772L427.747 132.272L423.718 132.43L423.738 132.93L419.709 133.088L419.689 132.588L415.66 132.747L415.68 133.246L411.65 133.404L411.631 132.905L407.602 133.063L407.621 133.563L403.592 133.721L403.573 133.221L399.544 133.38L399.563 133.879L395.534 134.037L395.514 133.538L391.485 133.696L391.505 134.196L387.476 134.354L387.456 133.854L383.427 134.012L383.447 134.512L379.418 134.67L379.398 134.171L375.369 134.329L375.389 134.828L371.36 134.987L371.34 134.487L367.311 134.645L367.33 135.145L363.301 135.303L363.282 134.804L359.253 134.962L359.272 135.461L355.243 135.62L355.224 135.12L351.194 135.278L351.214 135.778L349.199 135.857C348.846 135.871 348.515 135.957 348.217 136.099L348.001 135.648C347.258 136.005 346.69 136.657 346.439 137.442L346.915 137.594C346.815 137.908 346.775 138.248 346.81 138.6L347.029 140.828L346.532 140.877L346.971 145.333L347.468 145.284L347.907 149.739L347.41 149.788L347.849 154.244L348.346 154.195L348.785 158.65L348.288 158.699L348.727 163.155L349.224 163.106L349.663 167.562L349.166 167.611L349.605 172.066L350.102 172.017L350.322 174.245C350.353 174.561 350.442 174.857 350.576 175.124L350.13 175.349C350.464 176.013 351.036 176.532 351.73 176.799L351.91 176.333C352.189 176.441 352.493 176.5 352.81 176.5H354.844V177H358.912V176.5H362.981V177H367.049V176.5H371.117V177H375.186V176.5H379.254V177H383.322V176.5H387.391V177H391.459V176.5H395.527V177H399.596V176.5H403.664V177H407.732V176.5H411.801V177H415.869V176.5H419.937V177H424.006V176.5H428.074V177H432.142V176.5H436.211V177H440.279V176.5H444.347V177H448.415V176.5H452.484V177H456.552V176.5H460.62V177H464.689V176.5H468.757V177H472.825V176.5H476.894V177H480.962V176.5H485.03V177H489.099V176.5H493.167V177H497.235V176.5H501.304V177H505.372V176.5H509.44V177H513.509V176.5H517.577V177H521.645V176.5H525.714V177H529.782V176.5H533.85V177H537.919V176.5H541.987V177H546.055V176.5H550.124V177H554.192V176.5H556.226C556.552 176.5 556.863 176.438 557.149 176.324L557.333 176.789C558.043 176.507 558.622 175.961 558.945 175.269L558.492 175.058C558.622 174.78 558.703 174.473 558.722 174.147L558.851 171.953L559.35 171.983L559.609 167.596L559.109 167.566L559.368 163.179L559.867 163.208L560.125 158.821L559.626 158.792L559.885 154.404L560.384 154.434L560.642 150.047L560.143 150.017L560.402 145.63L560.901 145.659L561.159 141.272L560.66 141.243L560.919 136.855L561.418 136.885L561.676 132.498L561.177 132.468L561.306 130.275C561.328 129.912 561.271 129.566 561.153 129.251L561.621 129.075Z" fill="#FF3A53" stroke="#FF8292" stroke-dasharray="4 4"/>
<path d="M556.87 229.038C556.941 227.919 556.08 226.961 554.96 226.913L337.086 217.589C335.948 217.541 335 218.449 335 219.587V272C335 273.105 335.895 274 337 274H552.128C553.183 274 554.057 273.18 554.124 272.127L556.87 229.038Z" fill="#3A5B6E"/>
<path d="M554 230L338 220.5V271H551.041L554 230Z" fill="#A1BAC3"/>
<path opacity="0.6" d="M447 225.5L375 271H502.846C524.368 255.613 532.823 245.104 552 230L447 225.5Z" fill="#D0EBF4"/>
<path d="M407 223H404V273H407V223Z" fill="#3A5B6E"/>
<path d="M479 225H476V273H479V225Z" fill="#3A5B6E"/>
<path d="M328 219V218H327H292H291V219V288V289H292H327H328V288V219Z" fill="#CEE2E9" stroke="#3A5B6E" stroke-width="2"/>
<path d="M324 227H295V281H324V227Z" fill="#A1BAC3"/>
<path d="M554 273H335V276H553.855L554 273Z" fill="#CEE2E9"/>
<path d="M550 121H441.5C422 161.839 373.5 143.229 365 182H500.337C528.27 177.529 540.273 163.283 550 121Z" fill="white" fill-opacity="0.3"/>
<path d="M378.168 129.93H367.582L366.045 136.76H376.632L378.168 129.93Z" fill="#E14055"/>
<path d="M379.705 126.173H369.118V133.345H379.705V126.173Z" fill="#F4C9DA"/>
<path d="M374.754 119H373.388V129.587H374.754V119Z" fill="#F4C9DA"/>
<path d="M452.124 127.93H441.537L440 134.76H450.587L452.124 127.93Z" fill="#E14055"/>
<path d="M453.66 124.173H443.073V131.345H453.66V124.173Z" fill="#F4C9DA"/>
<path d="M448.709 117H447.343V127.587H448.709V117Z" fill="#F4C9DA"/>
<path d="M533.124 123.93H522.537L521 130.76H531.587L533.124 123.93Z" fill="#E14055"/>
<path d="M534.66 120.173H524.073V127.345H534.66V120.173Z" fill="#F4C9DA"/>
<path d="M529.709 113H528.343V123.587H529.709V113Z" fill="#F4C9DA"/>
<path d="M325.126 239H292V242H325.126V239Z" fill="#CEE2E9"/>
<path d="M278.448 193.84H276.398V210.574H278.448V193.84Z" fill="#ACBEC5"/>
<path d="M190.508 16.4037C190.423 14.8985 189.234 13.6902 187.73 13.581L3.97075 0.233689C2.23287 0.107459 0.753418 1.48335 0.753418 3.22581V286.747C0.753418 288.404 2.09656 289.747 3.75342 289.747H202.79C204.513 289.747 205.882 288.298 205.785 286.577L190.508 16.4037Z" fill="#4E5F88"/>
<path d="M188.681 21.1055H131.967V60.0961H188.681V21.1055Z" fill="#5F74A5"/>
<path d="M20 60H1V98H20V60Z" fill="#5F74A5"/>
<path d="M18.8736 135.214H0.751953V174.205H18.8736V135.214Z" fill="#5F74A5"/>
<path d="M188.681 135.214H132.471V174.205H188.681V135.214Z" fill="#5F74A5"/>
<path d="M132 97H75V135H132V97Z" fill="#5F74A5"/>
<path d="M131.632 173.312H75.4209V212.302H131.632V173.312Z" fill="#D8F4FF"/>
<path d="M19 249H1V250H19V249Z" fill="#455478"/>
<path d="M20.3848 250.22H74.9175V249.146H20.3848V250.22Z" fill="#DBC1CB"/>
<path d="M184 250H203.731L203.684 249H184V250Z" fill="#455478"/>
<path d="M76.4258 250.22H130.959V249.146H76.4258V250.22Z" fill="#DBC1CB"/>
<path d="M188.681 212.073H201.601L201.433 211H188.681V212.073Z" fill="#455478"/>
<path d="M130.959 211.05H76.4258V212.123H130.959V211.05Z" fill="#DBC1CB"/>
<path d="M74.9175 211.05H20.3848V212.123H74.9175V211.05Z" fill="#DBC1CB"/>
<path d="M18.7058 211.05H0.751953V212.123H18.7058V211.05Z" fill="#455478"/>
<path d="M130.959 173.133H76.4258V174.206H130.959V173.133Z" fill="#ACC1C9"/>
<path d="M130.959 135.036H76.4258V136.109H130.959V135.036Z" fill="#ACC1C9"/>
<path d="M188.681 98.0126H195.057V96.9395H188.681V98.0126Z" fill="#455478"/>
<path d="M187 97H1V99H187V97Z" fill="#455478"/>
<path d="M197.125 134H1V136H197.248L197.125 134Z" fill="#455478"/>
<path d="M199 173H1V175H199V173Z" fill="#455478"/>
<path d="M190.7 20H1V22H190.814L190.7 20Z" fill="#455478"/>
<path d="M193 59H1V61H193V59Z" fill="#455478"/>
<path d="M20.384 287.243V250.22V249.146V212.123V211.05V174.206V173.133V136.109V135.036V98.0131V96.94V60.0956V59.0224V21.9993V20.9261V1.43082L18.7061 1.25195V20.9261V21.9993V59.0224V60.0956V96.94V98.0131V135.036V136.109V173.133V174.206V211.05V212.123V249.146V250.22V287.243V288.316V289.747H20.384V288.316V287.243Z" fill="#455478"/>
<path d="M77 284.526V247.943V246.882V210.299V209.239V172.833V171.772V135.189V134.129V97.5459V96.4855V60.0792V59.0188V22.4359V21.3755V5.53551L75 5.41211V21.3755V22.4359V59.0188V60.0792V96.4855V97.5459V134.129V135.189V171.772V172.833V209.239V210.299V246.882V247.943V284.526V285.586V287H77V285.586V284.526Z" fill="#455478"/>
<path d="M132.637 287.242V250.219V249.146V212.122V211.049V174.205V173.132V136.109V135.035V98.0123V96.9391V60.0948V59.0216V21.9984V20.9253V9.58798L130.959 9.47852V20.9253V21.9984V59.0216V60.0948V96.9391V98.0123V135.035V136.109V173.132V174.205V211.049V212.122V249.146V250.219V287.242V288.315V289.746H132.637V288.315V287.242Z" fill="#455478"/>
<path d="M188.68 287.244V250.22V249.147V212.124V211.051V174.207V173.133V136.11V135.037V98.0138V96.9407V60.0963V59.0232V22V20.9269V13.7353L187.17 13.5938V20.9269V22V59.0232V60.0963V96.9407V98.0138V135.037V136.11V173.133V174.207V211.051V212.124V249.147V250.22V287.244V288.317V289.748H188.68V288.317V287.244Z" fill="#455478"/>
<path d="M182.888 210H20V287H189L182.888 210Z" fill="#A1BAC4"/>
<path opacity="0.6" d="M132 210C132 210 131.89 188.001 85.1952 210C38.4999 232 33.0968 254.112 19.9995 287L94.7232 287L132 210Z" fill="#D8F4FF"/>
<path d="M147 210H144V287H147V210Z" fill="#455478"/>
<path d="M62 210H59V287H62V210Z" fill="#455478"/>
<path d="M185 231H19V232H185V231Z" fill="#455478"/>
<path d="M98.4081 206.758H97.4014V287.064H98.4081V206.758Z" fill="#133A50"/>
<path d="M114.349 256.123H113.342V288.317H114.349V256.123Z" fill="#133A50"/>
<path d="M18.75 40.3744C18.4167 40.182 18 40.4225 18 40.8074V47.6612C18 48.0461 18.4166 48.2866 18.7499 48.0943L24.6868 44.6681C25.0202 44.4757 25.0202 43.9945 24.6869 43.802L18.75 40.3744Z" fill="#FF3A53"/>
<path d="M19.3707 49.1711C19.0375 49.3635 19.0375 49.8445 19.3707 50.037L25.3081 53.4663C25.6414 53.6588 26.0581 53.4182 26.0581 53.0333V46.1748C26.0581 45.7898 25.6414 45.5493 25.3081 45.7418L19.3707 49.1711Z" fill="#FF3A53"/>
<path d="M19.3709 38.4356C19.0376 38.6281 19.0377 39.1092 19.371 39.3016L25.3081 42.7294C25.6415 42.9218 26.0581 42.6813 26.0581 42.2964V35.4394C26.0581 35.0545 25.6414 34.8139 25.3081 35.0065L19.3709 38.4356Z" fill="#FF3A53"/>
<path d="M28.0474 35.0063C27.7141 34.8139 27.2974 35.0544 27.2974 35.4393V42.2965C27.2974 42.6813 27.714 42.9219 28.0473 42.7295L33.9861 39.3016C34.3194 39.1092 34.3195 38.6281 33.9861 38.4356L28.0474 35.0063Z" fill="#FFE500"/>
<path d="M28.0474 45.7417C27.7141 45.5492 27.2974 45.7898 27.2974 46.1747V53.0334C27.2974 53.4183 27.7141 53.6589 28.0474 53.4664L33.9863 50.037C34.3196 49.8446 34.3196 49.3635 33.9863 49.171L28.0474 45.7417Z" fill="#FF3A53"/>
<path d="M28.0473 56.4768C27.714 56.2844 27.2974 56.525 27.2974 56.9099V63.7654C27.2974 64.1503 27.714 64.3909 28.0473 64.1985L33.9859 60.7707C34.3193 60.5782 34.3193 60.097 33.9859 59.9046L28.0473 56.4768Z" fill="#FF3A53"/>
<path d="M28.6667 65.2751C28.3335 65.4677 28.3336 65.9487 28.6669 66.1411L34.6041 69.5675C34.9374 69.7599 35.354 69.5193 35.354 69.1344V62.2775C35.354 61.8925 34.9372 61.652 34.6039 61.8446L28.6667 65.2751Z" fill="#46B2FF"/>
<path d="M28.6668 54.5391C28.3335 54.7316 28.3336 55.2127 28.6669 55.4051L34.604 58.8329C34.9374 59.0253 35.354 58.7848 35.354 58.3999V51.543C35.354 51.158 34.9373 50.9175 34.604 51.11L28.6668 54.5391Z" fill="#46B2FF"/>
<path d="M19.3284 59.8751C18.9951 60.0676 18.9952 60.5486 19.3285 60.7411L25.2657 64.1688C25.599 64.3613 26.0157 64.1207 26.0157 63.7358V56.8789C26.0157 56.494 25.5989 56.2534 25.2656 56.4459L19.3284 59.8751Z" fill="#FF3A53"/>
<path d="M28.6672 43.802C28.3338 43.9945 28.3338 44.4757 28.6672 44.6681L34.6041 48.0943C34.9374 48.2866 35.354 48.0461 35.354 47.6612V40.8074C35.354 40.4225 34.9374 40.182 34.604 40.3744L28.6672 43.802Z" fill="#FF3A53"/>
<path d="M18.8701 50.9516C18.5368 50.7591 18.1201 50.9997 18.1201 51.3846V58.2399C18.1201 58.6248 18.5368 58.8654 18.8701 58.6729L24.8071 55.2453C25.1405 55.0528 25.1405 54.5717 24.8071 54.3792L18.8701 50.9516Z" fill="#FF3A53"/>
<path d="M37.6463 29.4483C37.313 29.2505 36.8911 29.4907 36.8911 29.8783V36.8204C36.8911 37.208 37.3131 37.4482 37.6464 37.2503L43.4924 33.7785C43.8187 33.5848 43.8187 33.1124 43.4923 32.9187L37.6463 29.4483Z" fill="#FFE500"/>
<path d="M37.3433 40.3744C37.0099 40.182 36.5933 40.4225 36.5933 40.8074V47.6612C36.5933 48.0461 37.0098 48.2866 37.3432 48.0943L43.2801 44.6681C43.6135 44.4757 43.6135 43.9945 43.2801 43.802L37.3433 40.3744Z" fill="#FFE500"/>
<path d="M37.3433 51.11C37.01 50.9175 36.5933 51.158 36.5933 51.543V58.3999C36.5933 58.7848 37.0099 59.0253 37.3433 58.8329L43.2804 55.4051C43.6138 55.2127 43.6138 54.7316 43.2805 54.5391L37.3433 51.11Z" fill="#46B2FF"/>
<path d="M37.3434 61.8446C37.0101 61.652 36.5933 61.8925 36.5933 62.2775V69.1344C36.5933 69.5193 37.0098 69.7599 37.3432 69.5675L43.2804 66.1411C43.6137 65.9487 43.6138 65.4677 43.2806 65.2751L37.3434 61.8446Z" fill="#46B2FF"/>
<path d="M37.9658 59.9046C37.6325 60.0971 37.6325 60.5782 37.9658 60.7707L43.9029 64.1983C44.2362 64.3908 44.6529 64.1502 44.6529 63.7653V56.91C44.6529 56.5251 44.2362 56.2845 43.9029 56.4769L37.9658 59.9046Z" fill="#46B2FF"/>
<path d="M37.9655 49.1711C37.6322 49.3635 37.6322 49.8445 37.9655 50.037L43.9028 53.4663C44.2361 53.6588 44.6529 53.4182 44.6529 53.0333V46.1748C44.6529 45.7898 44.2361 45.5493 43.9028 45.7418L37.9655 49.1711Z" fill="#FFE500"/>
<path d="M37.9656 38.4356C37.6323 38.6281 37.6324 39.1092 37.9657 39.3016L43.9029 42.7294C44.2362 42.9218 44.6529 42.6813 44.6529 42.2964V35.4394C44.6529 35.0545 44.2361 34.8139 43.9028 35.0065L37.9656 38.4356Z" fill="#FFE500"/>
<path d="M28.9417 32.8624C28.6084 33.0549 28.6085 33.5359 28.9418 33.7284L34.8789 37.1561C35.2123 37.3486 35.6289 37.108 35.6289 36.7231V29.8662C35.6289 29.4813 35.2122 29.2407 34.8789 29.4332L28.9417 32.8624Z" fill="#FFE500"/>
<path d="M46.6406 35.0062C46.3073 34.8138 45.8906 35.0543 45.8906 35.4392V42.2966C45.8906 42.6814 46.3072 42.922 46.6405 42.7296L52.5809 39.3017C52.9143 39.1093 52.9143 38.628 52.5809 38.4356L46.6406 35.0062Z" fill="#FFE500"/>
<path d="M46.6406 45.7416C46.3073 45.5491 45.8906 45.7897 45.8906 46.1746V53.0335C45.8906 53.4184 46.3073 53.6589 46.6406 53.4665L52.5811 50.0371C52.9144 49.8446 52.9144 49.3635 52.5811 49.171L46.6406 45.7416Z" fill="#46B2FF"/>
<path d="M47.2619 43.802C46.9285 43.9945 46.9286 44.4757 47.262 44.6681L53.1989 48.0943C53.5322 48.2866 53.9488 48.0461 53.9488 47.6612V40.8074C53.9488 40.4225 53.5321 40.182 53.1988 40.3744L47.2619 43.802Z" fill="#FFE500"/>
<path d="M46.7979 56.319C46.4646 56.1264 46.0479 56.367 46.0479 56.7519V63.6089C46.0479 63.9938 46.4645 64.2343 46.7978 64.0419L52.735 60.6141C53.0683 60.4217 53.0684 59.9406 52.7351 59.7481L46.7979 56.319Z" fill="#46B2FF"/>
<path d="M47.4173 54.381C47.084 54.5735 47.084 55.0545 47.4173 55.247L53.3563 58.6763C53.6896 58.8688 54.1063 58.6283 54.1063 58.2433V51.3846C54.1063 50.9997 53.6896 50.7592 53.3563 50.9516L47.4173 54.381Z" fill="#46B2FF"/>
<path d="M62 38.9961C62 38.7747 62.0472 38.6037 62.1415 38.4829C62.2359 38.3622 62.368 38.3018 62.5378 38.3018H67.9162C68.2558 38.3018 68.4257 38.5131 68.4257 38.9357V55.3255C68.4257 55.4864 68.4446 55.5971 68.4823 55.6575C68.5389 55.7178 68.6333 55.748 68.7654 55.748H77.2858C77.7198 55.748 77.9368 55.9392 77.9368 56.3215V60.0341C77.9368 60.2353 77.8708 60.3963 77.7387 60.5171C77.6255 60.6378 77.4556 60.6982 77.2292 60.6982H62.7643C62.4812 60.6982 62.2831 60.6378 62.1698 60.5171C62.0566 60.3963 62 60.2052 62 59.9436V38.9961Z" fill="white"/>
<path d="M93.2673 44.3084C92.8144 43.7852 92.3237 43.3828 91.7953 43.1011C91.2858 42.8193 90.5404 42.6785 89.5591 42.6785C88.5777 42.6785 87.8512 42.8294 87.3794 43.1312C86.9076 43.4331 86.6717 43.7953 86.6717 44.2178C86.6717 44.9423 87.2756 45.4554 88.4834 45.7572L93.1823 47.0551C94.8996 47.5179 96.1923 48.3329 97.0604 49.5C97.9285 50.647 98.3625 52.0254 98.3625 53.6352C98.3625 55.1242 97.9945 56.4221 97.2586 57.5289C96.5226 58.6356 95.4658 59.4908 94.0882 60.0945C92.7294 60.6982 91.1348 61 89.3043 61C87.2284 61 85.3319 60.6378 83.6146 59.9134C81.9162 59.1689 80.7367 58.203 80.0762 57.0157C79.9819 56.8145 79.9347 56.6636 79.9347 56.563C79.9347 56.3618 80.0385 56.1807 80.2461 56.0197L83.1617 53.8766C83.3693 53.7358 83.558 53.6654 83.7278 53.6654C83.9354 53.6654 84.1052 53.7559 84.2373 53.937C84.879 54.8224 85.53 55.4462 86.1905 55.8084C86.851 56.1706 87.7285 56.3517 88.8231 56.3517C89.8799 56.3517 90.7102 56.2008 91.3141 55.899C91.9368 55.577 92.2482 55.1444 92.2482 54.6011C92.2482 54.2187 92.0972 53.8867 91.7953 53.605C91.4934 53.3233 91.0499 53.112 90.4649 52.9711L86.1622 51.8543C84.4638 51.4116 83.1145 50.5866 82.1143 49.3793C81.1141 48.1518 80.614 46.7432 80.614 45.1535C80.614 43.8456 80.9726 42.6483 81.6897 41.5617C82.4068 40.4549 83.4259 39.5897 84.7469 38.9659C86.0679 38.322 87.5964 38 89.3326 38C91.031 38 92.6068 38.3018 94.0599 38.9055C95.513 39.4891 96.5603 40.2738 97.2019 41.2598C97.334 41.4409 97.4001 41.612 97.4001 41.773C97.4001 41.9138 97.334 42.0446 97.2019 42.1654L94.1165 44.5499C94.0221 44.6304 93.9183 44.6706 93.8051 44.6706C93.673 44.6706 93.4937 44.5499 93.2673 44.3084Z" fill="white"/>
<path d="M105.274 38.3018C107.52 38.3018 108.916 38.3119 109.464 38.332C113.144 38.4729 115.927 39.5394 117.814 41.5315C119.701 43.5035 120.645 46.1395 120.645 49.4396C120.645 51.6531 120.22 53.605 119.371 55.2953C118.522 56.9856 117.258 58.3136 115.578 59.2795C113.898 60.2253 111.851 60.6982 109.435 60.6982H101.991C101.708 60.6982 101.5 60.6277 101.368 60.4869C101.236 60.346 101.17 60.1146 101.17 59.7927V39.0564C101.17 38.7747 101.226 38.5836 101.34 38.4829C101.453 38.3622 101.651 38.3018 101.934 38.3018H105.274ZM107.879 43.0407C107.784 43.0407 107.709 43.0709 107.652 43.1312C107.614 43.1916 107.595 43.3023 107.595 43.4633V55.5066C107.595 55.6877 107.624 55.8084 107.68 55.8688C107.737 55.9291 107.841 55.9593 107.992 55.9593H108.19C110.058 55.9593 111.474 55.4462 112.436 54.4199C113.417 53.3736 113.908 51.6833 113.908 49.3491C113.908 47.3368 113.54 45.8377 112.804 44.8517C112.068 43.8657 110.992 43.3023 109.577 43.1614L107.879 43.0407Z" fill="white"/>
<path d="M129.49 38.3018C129.83 38.3018 130 38.5131 130 38.9357V59.8228C130 60.1448 129.925 60.3762 129.774 60.5171C129.623 60.6378 129.387 60.6982 129.066 60.6982H124.339C124.056 60.6982 123.857 60.6378 123.744 60.5171C123.631 60.3963 123.574 60.2052 123.574 59.9436V38.9961C123.574 38.7747 123.621 38.6037 123.716 38.4829C123.81 38.3622 123.942 38.3018 124.112 38.3018H129.49Z" fill="white"/>
<path d="M302.048 103.537C302.048 103.537 322.461 145.275 324.284 151.29C326.106 157.305 313.53 200.684 313.53 200.684C313.53 200.684 306.422 200.319 304.599 197.767L308.609 157.305C308.609 157.305 295.668 148.738 291.112 132.699C286.555 116.66 302.048 103.537 302.048 103.537Z" fill="#293856"/>
<path d="M322.278 175.349L277.441 176.078C275.436 176.078 273.978 177.354 273.978 178.812L277.077 210.708C277.259 212.166 278.899 213.259 280.904 213.259L325.559 212.53C328.84 211.984 329.933 211.072 329.933 209.614L327.017 177.9C327.017 176.442 326.106 175.531 322.278 175.349Z" fill="#EDEDED"/>
<path d="M321.183 175.349L276.346 176.078C274.341 176.078 272.883 177.354 272.883 178.812L275.982 210.89C276.164 212.348 277.804 213.442 279.809 213.442L324.646 212.713C326.833 212.713 328.292 211.437 328.292 209.979L325.375 178.083C325.193 176.26 323.188 175.167 321.183 175.349Z" fill="#46B2FF"/>
<path d="M189.953 158.946C189.953 158.946 183.392 159.858 182.116 160.222C180.84 160.404 176.101 162.592 175.19 163.503C174.279 164.414 171.727 168.606 172.091 168.971C172.456 169.335 173.914 169.518 174.461 169.518C175.008 169.335 175.737 169.335 178.106 169.882C180.476 170.611 182.298 171.522 184.121 170.611C185.944 169.7 186.855 169.335 188.131 167.877C189.407 166.237 191.958 164.961 192.323 164.961L189.953 158.946Z" fill="#FEC4AD"/>
<ellipse rx="159.495" ry="4.08931" transform="matrix(-0.999999 0.00132484 0.00132484 0.999999 196.5 379.68)" fill="#D5E3E8"/>
<path d="M168.993 160.768L174.278 161.315L178.106 160.222L179.746 161.315L185.396 168.241L178.653 171.522H175.19C175.19 171.522 173.003 168.97 171.909 168.606C170.633 168.241 166.988 167.148 166.988 167.148L168.993 160.768Z" fill="#FEC4AD"/>
<path d="M173.368 161.316L169.905 170.064C169.905 170.064 140.925 160.587 139.285 159.311C137.827 158.035 114.497 128.508 114.497 128.508C114.497 128.508 116.32 114.109 121.241 110.829C126.344 107.548 130.536 107.548 130.536 107.548L150.403 145.459L173.368 161.316Z" fill="#FF3A53"/>
<path d="M82.6016 370.736V379.849H109.112C109.112 379.849 108.315 374.269 91.1679 375.111L89.8921 370.736H82.6016Z" fill="#3A3A3A"/>
<path d="M116.502 370.736V379.849H145.385C145.385 379.849 145.385 373.871 125.068 375.111L123.792 370.736H116.502Z" fill="#3A3A3A"/>
<path d="M101.5 87C101.5 91.7389 100.645 94.2413 99.734 96.4284C98.8227 98.7979 90.9853 101.532 90.9853 101.532C90.9853 101.532 115.044 128.507 124.34 128.325C133.635 128.142 120.33 102.99 120.33 102.99C120.33 102.99 116.502 100.621 115.591 98.0688C114.68 95.5171 114.315 89.6847 114.315 89.6847L103.379 75.6504L101.5 87Z" fill="#FEC4AD"/>
<path d="M119.419 60.7051C121.06 61.7987 123.794 63.8035 123.794 65.4439C123.976 67.0843 124.523 71.6409 124.158 74.3748C123.976 77.1088 123.365 83.7193 123 87C122.636 90.2807 120.73 93.9532 120 94.5C119.271 95.0468 113.405 96.0642 111.946 95.3352C110.306 94.6061 102.469 86.7688 102.833 80.025C102.833 80.025 99.917 81.4831 97.3653 75.2862C96.8186 73.6458 102.104 67.6311 102.651 65.8085C104.291 61.2519 113.405 62.5277 115.956 62.1632C118.508 61.6164 119.419 60.7051 119.419 60.7051Z" fill="#FEC4AD"/>
<path d="M123.793 65.4444C123.793 65.4444 122.882 63.2573 121.059 64.1686C119.236 65.0799 115.409 65.6267 112.493 65.4444C109.576 65.2622 106.66 63.9864 106.66 63.9864C106.66 63.9864 106.66 68.1784 105.931 69.272C105.202 70.3656 103.379 71.8237 103.197 73.0995C103.015 74.3754 103.197 75.8335 103.197 75.8335C103.197 75.8335 101.374 73.4641 99.9164 73.8286C98.4582 74.1931 98.4582 76.7448 99.9164 77.8384C101.374 78.932 102.833 79.8433 102.833 79.8433C102.833 79.8433 102.833 81.8482 102.468 83.3063C102.104 84.7644 101.374 87.3161 101.374 87.3161C101.374 87.3161 98.2759 78.7497 95.542 75.2867C92.9903 71.8237 91.7145 64.5331 96.8179 61.7992C96.8179 61.7992 96.8178 55.0554 103.926 53.7796C111.034 52.5037 117.231 54.3264 120.33 53.4151C123.428 52.3215 124.157 51.4102 124.157 51.4102C124.157 51.4102 129.305 58.0942 127.847 61.3749C126.571 64.6557 123.793 65.4444 123.793 65.4444Z" fill="#3A3A3A"/>
<path d="M123.507 82.389C123.325 84.0294 122.96 85.3052 121.867 85.3052C120.773 85.123 120.591 84.0294 117.857 83.8471C115.305 83.8471 113.483 85.6698 111.66 86.2166C110.02 86.5811 105.645 82.7535 104.734 79.1083C103.823 75.463 103.276 72 103.276 72L102 73.2758C102 73.2758 102.729 79.8373 102.911 83.6648C103.094 87.4924 105.099 93.1426 109.473 95.3297C113.847 97.5169 120.409 96.6056 121.502 95.3297C122.778 94.0539 123.427 88.8843 123.974 86.8794C124.703 84.8745 123.507 82.389 123.507 82.389Z" fill="#3A3A3A"/>
<path d="M89.5272 188.655C89.5272 188.655 81.6899 217.635 81.6899 248.62C81.5076 279.787 81.3253 370.736 81.3253 370.736H93.9015C93.9015 370.736 103.744 282.885 108.483 262.836C113.221 242.787 125.433 184.463 125.433 184.463L89.5272 188.655Z" fill="#293856"/>
<path d="M110.67 220.368C110.67 220.368 113.039 267.757 113.404 277.052C113.951 286.348 113.404 370.736 113.404 370.736C113.404 370.736 125.251 371.1 125.251 370.736C125.251 370.371 136.369 281.791 137.827 258.826C139.285 235.861 138.374 208.704 140.379 205.423C142.202 202.324 135.276 184.28 135.276 184.28L118.69 188.655L110.67 220.368Z" fill="#293856"/>
<path d="M303.322 370.736V379.849H272.934C272.934 379.849 278.115 373.871 294.756 375.111L296.032 370.736H303.322Z" fill="#3A3A3A"/>
<path d="M264.681 370.736V379.849H236.898C236.898 379.849 241.046 373.871 255.395 373.871L257.391 370.736H264.681Z" fill="#3A3A3A"/>
<path d="M299.496 188.655C299.496 188.655 307.334 217.635 307.334 248.62C307.516 279.787 307.698 370.736 307.698 370.736H295.122C295.122 370.736 285.28 282.885 280.541 262.836C275.802 242.787 263.59 184.463 263.59 184.463L299.496 188.655Z" fill="#E5E5E5"/>
<path d="M278.169 220.368C278.169 220.368 275.8 267.757 275.435 277.052C274.889 286.348 267.78 370.736 267.78 370.736C267.78 370.736 255.933 371.1 255.933 370.736C255.933 370.371 251.012 281.791 249.554 258.826C248.096 235.861 252.834 207.352 251.012 204.071C249.189 200.973 253.746 184.28 253.746 184.28L270.332 188.655L278.169 220.368Z" fill="#E5E5E5"/>
<path d="M93.7189 99.3447L76.0394 110.827C76.0394 110.827 83.3299 128.142 83.5122 135.068C83.6945 141.994 89.5269 188.654 89.5269 188.654C89.5269 188.654 106.66 191.57 118.507 188.654C130.536 185.738 135.093 184.28 135.093 184.28C135.093 184.28 134.546 135.251 133.635 128.325C132.723 121.399 130.354 107.729 130.354 107.729L121.058 102.99L115.955 107L93.7189 99.3447Z" fill="#FF3A53"/>
<path d="M96.8169 97.8877L115.955 106.636L110.669 112.651L93.7184 99.3458L96.8169 97.8877Z" fill="white"/>
<path d="M115.956 106.636L121.06 110.828V102.627L118.508 101.897L115.956 106.636Z" fill="white"/>
<path d="M118.871 208.702L114.314 183.549C113.949 181.727 112.127 180.633 110.122 180.998L66.1965 189.199C64.1916 189.564 62.9157 191.204 63.2803 193.027L67.6546 218.179C68.9304 220.913 70.2063 221.825 72.2112 221.46L115.954 213.44C117.959 212.894 118.871 211.982 118.871 208.702Z" fill="#97A3CC"/>
<path d="M118.939 208.101L114.404 183.541C114.041 181.774 112.045 180.714 110.05 181.068L65.9649 189.195C63.9693 189.549 62.6994 191.139 63.0623 192.906L67.4163 217.289C67.7792 219.056 69.7747 220.293 71.7704 219.94L115.674 211.988C118.032 211.635 119.302 209.868 118.939 208.101Z" fill="url(#paint0_linear)"/>
<path d="M93.8994 201.048L96.2688 204.693C96.2688 204.693 101.737 208.156 102.101 208.885C102.283 209.432 103.195 212.166 103.195 212.166L101.919 212.713L99.5496 210.344C99.5496 210.344 99.5496 212.348 99.7318 213.442C99.9141 214.353 100.643 216.176 100.643 216.176C101.218 217.019 99.2685 218.599 97.553 218.022C98.3594 219.131 91.7206 219.115 91.7206 219.115C91.7206 219.115 86.9734 213.807 86.7911 212.348C86.6089 210.708 85.8798 205.058 85.8798 205.058L88.4315 200.684L93.8994 201.048Z" fill="#FEC4AD"/>
<path d="M76.0409 110.828C76.0409 110.828 66.9277 156.029 66.9277 158.034C66.9277 160.039 81.3265 200.502 86.0654 204.876C86.0654 204.876 89.7106 206.699 93.7204 201.048C93.7204 201.048 90.2574 191.388 88.2525 184.462C86.0654 177.536 84.425 155.118 84.425 155.118C84.425 155.118 96.0899 138.897 96.0899 129.419C96.4544 109.005 76.0409 110.828 76.0409 110.828Z" fill="#FF3A53"/>
<path d="M258.667 58.5186C256.298 59.9767 255.387 63.8042 255.387 63.8042C255.387 63.8042 254.475 68.3608 253.929 71.6415C253.382 75.1045 250.466 77.6562 250.83 78.5676C251.195 79.4789 253.2 79.4789 253.2 80.7547C253.2 82.0306 253.746 85.6758 253.746 88.0453C253.746 90.5969 256.298 90.9615 258.485 91.1437C260.855 91.326 263.771 91.8728 264.318 92.9664C264.864 94.0599 264.318 99.7101 264.318 99.7101L282.544 98.0698C282.544 98.0698 280.721 92.6018 280.721 87.863C280.721 83.1241 281.086 77.2917 281.086 77.2917C281.086 77.2917 279.992 66.9027 273.613 62.8929C267.416 58.8831 258.667 58.5186 258.667 58.5186Z" fill="#EEA886"/>
<path d="M95.3357 130.028L111.353 127.243L112.375 133.127L96.3587 135.912L95.3357 130.028Z" fill="white"/>
<path d="M110.357 188.304L110.912 191.258L108.076 190.262L110.357 188.304Z" fill="#FF3A53"/>
<path d="M110.769 191.668L108.488 193.627L107.932 190.672L110.769 191.668Z" fill="#FF3A53"/>
<path d="M110.075 187.974L107.794 189.932L107.238 186.977L110.075 187.974Z" fill="#FF3A53"/>
<path d="M106.812 187.059L107.368 190.014L104.531 189.018L106.812 187.059Z" fill="#FFE500"/>
<path d="M107.506 190.751L108.062 193.707L105.225 192.71L107.506 190.751Z" fill="#FF3A53"/>
<path d="M108.201 194.445L108.757 197.4L105.92 196.404L108.201 194.445Z" fill="#FF3A53"/>
<path d="M108.612 197.81L106.331 199.768L105.775 196.813L108.612 197.81Z" fill="#46B2FF"/>
<path d="M107.918 194.116L105.637 196.075L105.081 193.12L107.918 194.116Z" fill="#46B2FF"/>
<path d="M111.477 195.348L109.196 197.306L108.64 194.351L111.477 195.348Z" fill="#FF3A53"/>
<path d="M107.223 190.423L104.942 192.38L104.386 189.427L107.223 190.423Z" fill="#FF3A53"/>
<path d="M111 191.95L111.556 194.905L108.719 193.909L111 191.95Z" fill="#FF3A53"/>
<path d="M103.151 185.762L103.714 188.755L100.912 187.732L103.151 185.762Z" fill="#FFE500"/>
<path d="M103.961 189.507L104.517 192.461L101.681 191.465L103.961 189.507Z" fill="#FFE500"/>
<path d="M104.655 193.199L105.211 196.154L102.375 195.158L104.655 193.199Z" fill="#46B2FF"/>
<path d="M105.35 196.893L105.906 199.848L103.069 198.852L105.35 196.893Z" fill="#46B2FF"/>
<path d="M105.067 196.564L102.786 198.523L102.23 195.568L105.067 196.564Z" fill="#46B2FF"/>
<path d="M104.372 192.871L102.091 194.83L101.536 191.875L104.372 192.871Z" fill="#FFE500"/>
<path d="M103.677 189.177L101.397 191.135L100.841 188.18L103.677 189.177Z" fill="#FFE500"/>
<path d="M106.421 186.676L104.14 188.635L103.584 185.679L106.421 186.676Z" fill="#FFE500"/>
<path d="M100.415 188.261L100.97 191.216L98.1326 190.22L100.415 188.261Z" fill="#FFE500"/>
<path d="M101.109 191.954L101.665 194.91L98.8274 193.913L101.109 191.954Z" fill="#46B2FF"/>
<path d="M100.826 191.627L98.5452 193.584L97.9897 190.631L100.826 191.627Z" fill="#FFE500"/>
<path d="M101.74 195.604L102.296 198.559L99.459 197.563L101.74 195.604Z" fill="#46B2FF"/>
<path d="M101.457 195.276L99.1753 197.235L98.6194 194.279L101.457 195.276Z" fill="#46B2FF"/>
<path d="M263.225 63.9868C261.585 63.8045 257.757 63.9868 255.388 63.9868C252.836 63.9868 249.906 60.14 251 58.4996C251 55.9996 253.5 54.1445 253.5 54.1445C253.5 54.1445 255.896 55.3694 261 53C266.103 50.6306 280.233 49.3014 283.696 56.5919C283.696 56.5919 289.31 61.055 289.675 66.1584C290.039 71.2617 290.449 73.829 285.279 77.6565C280.108 81.484 283.696 87.5111 283.696 87.5111C283.696 87.5111 277.806 88.41 274.708 88.2278C271.609 88.0455 268.875 83.6712 267.599 81.484C267.599 81.484 271.974 78.0211 270.88 74.7403C269.787 71.2773 265.23 72.9177 264.683 74.558C264.136 76.1984 262.496 78.5678 262.496 78.5678L260.491 78.7501C260.491 78.7501 259.944 73.829 260.127 70.7305C260.673 67.2675 263.225 63.9868 263.225 63.9868Z" fill="#FCE88B"/>
<path d="M283.455 96.0645C283.455 96.0645 276.164 97.3403 272.519 97.8871C268.874 98.4339 263.77 97.8871 263.77 97.8871L250.283 103.537C250.283 103.537 248.46 125.044 248.095 136.345C247.731 147.827 249.189 198.132 248.825 201.96C248.825 201.96 252.47 210.161 277.804 209.615C292.568 209.25 303.139 204.876 303.139 204.876C303.139 204.876 303.504 161.133 304.05 151.108C304.597 141.084 302.41 114.838 302.41 109.005C302.41 103.355 302.41 103.355 302.41 103.355L283.455 96.0645Z" fill="#293856"/>
<path d="M250.1 103.721C250.1 103.721 260.489 110.829 255.385 129.42C253.563 135.981 229.504 158.4 229.504 158.4L189.77 167.695C189.77 167.695 186.672 162.41 187.583 158.582L220.937 145.641C220.755 145.641 244.449 103.721 250.1 103.721Z" fill="#293856"/>
<path d="M311.889 212.349L309.519 208.886C307.154 208.161 305.939 208.005 304.234 208.886L304.416 213.26L307.332 213.807C310.677 214.565 312.533 214.979 312.618 213.807L311.889 212.349Z" fill="#FEC4AD"/>
<path d="M376.855 152.753C376.904 152.508 376.929 152.174 376.929 151.749C376.929 151.504 376.912 151.267 376.88 151.038C376.847 150.793 376.79 150.581 376.708 150.401C376.626 150.205 376.503 150.058 376.339 149.96C376.175 149.846 375.962 149.789 375.7 149.789C375.405 149.789 375.135 149.854 374.889 149.985C374.643 150.115 374.422 150.287 374.225 150.499C374.045 150.695 373.898 150.932 373.783 151.21C373.685 151.471 373.636 151.749 373.636 152.043C373.636 152.468 373.742 152.794 373.955 153.023C374.184 153.252 374.479 153.44 374.84 153.587C375.2 153.734 375.61 153.856 376.069 153.954C376.527 154.052 377.003 154.166 377.494 154.297C377.904 154.411 378.313 154.558 378.723 154.738C379.133 154.918 379.493 155.163 379.804 155.473C380.132 155.767 380.394 156.159 380.591 156.649C380.787 157.123 380.886 157.719 380.886 158.438C380.886 159.467 380.681 160.333 380.271 161.035C379.862 161.738 379.296 162.309 378.575 162.75C377.855 163.191 376.994 163.51 375.995 163.706C375.012 163.902 373.939 164 372.775 164C371.596 164 370.629 163.926 369.875 163.779C369.138 163.616 368.557 163.445 368.131 163.265C367.623 163.053 367.246 162.808 367 162.53L367.836 159.173H372.161C372.145 159.32 372.128 159.524 372.112 159.786C372.095 160.031 372.087 160.227 372.087 160.374C372.087 160.57 372.112 160.774 372.161 160.986C372.21 161.199 372.284 161.395 372.382 161.574C372.497 161.754 372.653 161.901 372.849 162.015C373.046 162.13 373.292 162.187 373.586 162.187C373.914 162.187 374.201 162.113 374.447 161.966C374.709 161.819 374.922 161.64 375.086 161.427C375.266 161.199 375.397 160.954 375.479 160.692C375.577 160.414 375.626 160.145 375.626 159.884C375.626 159.524 375.536 159.222 375.356 158.977C375.192 158.732 374.963 158.528 374.668 158.364C374.373 158.185 374.029 158.038 373.636 157.923C373.259 157.793 372.866 157.662 372.456 157.531C372.063 157.417 371.645 157.278 371.203 157.115C370.777 156.952 370.383 156.723 370.023 156.429C369.662 156.135 369.359 155.767 369.114 155.326C368.884 154.869 368.769 154.289 368.769 153.587C368.769 152.541 369.032 151.667 369.556 150.965C370.097 150.246 370.768 149.666 371.571 149.225C372.39 148.784 373.283 148.474 374.25 148.294C375.217 148.098 376.134 148 377.003 148C378.149 148 379.133 148.139 379.952 148.417C380.787 148.678 381.418 148.988 381.844 149.348L380.935 152.753H376.855Z" fill="#F4FFB2"/>
<path d="M391.943 157.09C392.434 157.09 392.844 156.886 393.172 156.478C393.516 156.069 393.794 155.571 394.007 154.983C394.237 154.395 394.401 153.783 394.499 153.145C394.597 152.508 394.646 151.953 394.646 151.479C394.646 151.038 394.573 150.671 394.425 150.377C394.278 150.066 393.958 149.911 393.467 149.911H392.361L390.812 157.09H391.943ZM390.468 158.658L389.362 163.804H384.054L387.372 148.245H393.049C393.983 148.245 394.835 148.294 395.605 148.392C396.375 148.49 397.038 148.686 397.595 148.98C398.152 149.274 398.587 149.699 398.898 150.254C399.209 150.793 399.365 151.52 399.365 152.435C399.365 153.284 399.226 154.093 398.947 154.861C398.685 155.612 398.251 156.274 397.645 156.845C397.055 157.401 396.285 157.842 395.334 158.168C394.384 158.495 393.229 158.658 391.869 158.658H390.468Z" fill="#F4FFB2"/>
<path d="M404.566 148.245H414.912L414.519 150.107H409.505L408.473 154.836H412.676L412.282 156.674H408.08L406.949 161.917H411.963L411.594 163.804H401.248L404.566 148.245Z" fill="#F4FFB2"/>
<path d="M419.383 148.245H429.73L429.337 150.107H424.323L423.291 154.836H427.493L427.1 156.674H422.898L421.767 161.917H426.781L426.412 163.804H416.065L419.383 148.245Z" fill="#F4FFB2"/>
<path d="M430.883 163.804L434.201 148.245H440.812C441.828 148.245 442.713 148.351 443.466 148.564C444.236 148.76 444.867 149.094 445.359 149.568C445.867 150.042 446.244 150.663 446.489 151.43C446.751 152.198 446.882 153.137 446.882 154.248C446.882 155.441 446.727 156.608 446.416 157.752C446.121 158.895 445.621 159.916 444.916 160.815C444.212 161.713 443.286 162.44 442.139 162.995C441.009 163.534 439.608 163.804 437.937 163.804H430.883ZM437.617 162.089C438.158 162.089 438.633 161.868 439.043 161.427C439.469 160.97 439.829 160.398 440.124 159.712C440.435 159.01 440.689 158.242 440.886 157.409C441.099 156.559 441.263 155.743 441.377 154.959C441.508 154.175 441.599 153.472 441.648 152.851C441.713 152.231 441.746 151.79 441.746 151.528C441.746 151.022 441.64 150.63 441.427 150.352C441.23 150.058 440.878 149.911 440.37 149.911H439.19L436.56 162.089H437.617Z" fill="#F4FFB2"/>
<path d="M458.069 157.923L456.816 163.804H451.483L452.835 157.507L450.426 148.245H456.324L457.996 154.395L461.682 148.245H464.336L458.069 157.923Z" fill="#F4FFB2"/>
<path d="M481.156 152.753C481.205 152.508 481.229 152.174 481.229 151.749C481.229 151.504 481.213 151.267 481.18 151.038C481.148 150.793 481.09 150.581 481.008 150.401C480.926 150.205 480.803 150.058 480.64 149.96C480.476 149.846 480.263 149.789 480.001 149.789C479.706 149.789 479.435 149.854 479.19 149.985C478.944 150.115 478.723 150.287 478.526 150.499C478.346 150.695 478.198 150.932 478.084 151.21C477.985 151.471 477.936 151.749 477.936 152.043C477.936 152.468 478.043 152.794 478.256 153.023C478.485 153.252 478.78 153.44 479.14 153.587C479.501 153.734 479.911 153.856 480.369 153.954C480.828 154.052 481.303 154.166 481.795 154.297C482.204 154.411 482.614 154.558 483.024 154.738C483.433 154.918 483.794 155.163 484.105 155.473C484.433 155.767 484.695 156.159 484.891 156.649C485.088 157.123 485.186 157.719 485.186 158.438C485.186 159.467 484.981 160.333 484.572 161.035C484.162 161.738 483.597 162.309 482.876 162.75C482.155 163.191 481.295 163.51 480.296 163.706C479.313 163.902 478.239 164 477.076 164C475.896 164 474.93 163.926 474.176 163.779C473.439 163.616 472.857 163.445 472.431 163.265C471.923 163.053 471.546 162.808 471.301 162.53L472.136 159.173H476.462C476.445 159.32 476.429 159.524 476.413 159.786C476.396 160.031 476.388 160.227 476.388 160.374C476.388 160.57 476.412 160.774 476.462 160.986C476.511 161.199 476.585 161.395 476.683 161.574C476.798 161.754 476.953 161.901 477.15 162.015C477.346 162.13 477.592 162.187 477.887 162.187C478.215 162.187 478.501 162.113 478.747 161.966C479.009 161.819 479.222 161.64 479.386 161.427C479.566 161.199 479.698 160.954 479.779 160.692C479.878 160.414 479.927 160.145 479.927 159.884C479.927 159.524 479.837 159.222 479.657 158.977C479.493 158.732 479.263 158.528 478.968 158.364C478.674 158.185 478.329 158.038 477.936 157.923C477.559 157.793 477.166 157.662 476.757 157.531C476.363 157.417 475.946 157.278 475.503 157.115C475.077 156.952 474.684 156.723 474.324 156.429C473.963 156.135 473.66 155.767 473.414 155.326C473.185 154.869 473.07 154.289 473.07 153.587C473.07 152.541 473.332 151.667 473.857 150.965C474.397 150.246 475.069 149.666 475.872 149.225C476.691 148.784 477.584 148.474 478.551 148.294C479.517 148.098 480.435 148 481.303 148C482.45 148 483.433 148.139 484.252 148.417C485.088 148.678 485.719 148.988 486.145 149.348L485.235 152.753H481.156Z" fill="#F4FFB2"/>
<path d="M493.663 163.804H488.354L491.672 148.245H497.005L493.663 163.804Z" fill="#F4FFB2"/>
<path d="M507.553 156.698H513.918L512.493 163.804H509.593L509.126 162.236H509.027C508.601 162.726 508.094 163.142 507.504 163.485C506.93 163.828 506.177 164 505.243 164C504.522 164 503.825 163.886 503.154 163.657C502.498 163.412 501.908 163.036 501.384 162.53C500.876 162.007 500.467 161.329 500.155 160.496C499.844 159.663 499.688 158.658 499.688 157.482C499.688 156.208 499.885 154.999 500.278 153.856C500.671 152.713 501.261 151.708 502.048 150.842C502.834 149.96 503.817 149.266 504.997 148.76C506.177 148.253 507.553 148 509.126 148C510.338 148 511.395 148.139 512.296 148.417C513.197 148.694 514.049 149.005 514.852 149.348L513.918 154.101H509.765C509.781 153.921 509.806 153.709 509.838 153.464C509.871 153.219 509.896 152.966 509.912 152.704C509.929 152.427 509.945 152.157 509.961 151.896C509.978 151.635 509.986 151.406 509.986 151.21C509.986 151.079 509.978 150.932 509.961 150.769C509.945 150.589 509.904 150.418 509.838 150.254C509.773 150.091 509.675 149.96 509.544 149.862C509.412 149.748 509.224 149.691 508.978 149.691C508.552 149.691 508.159 149.87 507.799 150.23C507.455 150.573 507.143 151.038 506.865 151.626C506.586 152.198 506.34 152.851 506.127 153.587C505.931 154.322 505.759 155.073 505.611 155.841C505.48 156.592 505.374 157.335 505.292 158.07C505.226 158.789 505.194 159.418 505.194 159.957C505.194 160.12 505.202 160.325 505.218 160.57C505.234 160.815 505.284 161.06 505.366 161.305C505.464 161.533 505.595 161.738 505.759 161.917C505.939 162.081 506.193 162.162 506.521 162.162C507.061 162.162 507.586 161.868 508.094 161.28C508.601 160.692 508.986 159.712 509.249 158.34H507.184L507.553 156.698Z" fill="#F4FFB2"/>
<path d="M530.153 163.804H524.402L521.674 152.557L519.266 163.804H517.054L520.372 148.245H526.246L528.826 159.639L531.259 148.245H533.52L530.153 163.804Z" fill="#F4FFB2"/>
<path d="M545.011 152.753C545.06 152.508 545.085 152.174 545.085 151.749C545.085 151.504 545.068 151.267 545.036 151.038C545.003 150.793 544.945 150.581 544.864 150.401C544.782 150.205 544.659 150.058 544.495 149.96C544.331 149.846 544.118 149.789 543.856 149.789C543.561 149.789 543.291 149.854 543.045 149.985C542.799 150.115 542.578 150.287 542.381 150.499C542.201 150.695 542.054 150.932 541.939 151.21C541.841 151.471 541.792 151.749 541.792 152.043C541.792 152.468 541.898 152.794 542.111 153.023C542.34 153.252 542.635 153.44 542.996 153.587C543.356 153.734 543.766 153.856 544.225 153.954C544.683 154.052 545.158 154.166 545.65 154.297C546.06 154.411 546.469 154.558 546.879 154.738C547.288 154.918 547.649 155.163 547.96 155.473C548.288 155.767 548.55 156.159 548.747 156.649C548.943 157.123 549.042 157.719 549.042 158.438C549.042 159.467 548.837 160.333 548.427 161.035C548.018 161.738 547.452 162.309 546.731 162.75C546.01 163.191 545.15 163.51 544.151 163.706C543.168 163.902 542.095 164 540.931 164C539.752 164 538.785 163.926 538.031 163.779C537.294 163.616 536.712 163.445 536.286 163.265C535.779 163.053 535.402 162.808 535.156 162.53L535.991 159.173H540.317C540.301 159.32 540.284 159.524 540.268 159.786C540.251 160.031 540.243 160.227 540.243 160.374C540.243 160.57 540.268 160.774 540.317 160.986C540.366 161.199 540.44 161.395 540.538 161.574C540.653 161.754 540.808 161.901 541.005 162.015C541.202 162.13 541.447 162.187 541.742 162.187C542.07 162.187 542.357 162.113 542.603 161.966C542.865 161.819 543.078 161.64 543.242 161.427C543.422 161.199 543.553 160.954 543.635 160.692C543.733 160.414 543.782 160.145 543.782 159.884C543.782 159.524 543.692 159.222 543.512 158.977C543.348 158.732 543.119 158.528 542.824 158.364C542.529 158.185 542.185 158.038 541.792 157.923C541.415 157.793 541.021 157.662 540.612 157.531C540.219 157.417 539.801 157.278 539.358 157.115C538.932 156.952 538.539 156.723 538.179 156.429C537.818 156.135 537.515 155.767 537.269 155.326C537.04 154.869 536.925 154.289 536.925 153.587C536.925 152.541 537.188 151.667 537.712 150.965C538.253 150.246 538.924 149.666 539.727 149.225C540.546 148.784 541.439 148.474 542.406 148.294C543.373 148.098 544.29 148 545.158 148C546.305 148 547.288 148.139 548.108 148.417C548.943 148.678 549.574 148.988 550 149.348L549.091 152.753H545.011Z" fill="#F4FFB2"/>
<defs>
<linearGradient id="paint0_linear" x1="116" y1="209" x2="67.1938" y2="190.977" gradientUnits="userSpaceOnUse">
<stop stop-color="#F4F4F4"/>
<stop offset="0.668326" stop-color="white"/>
</linearGradient>
</defs>
</svg>
