<svg xmlns="http://www.w3.org/2000/svg" xmlns:xlink="http://www.w3.org/1999/xlink" width="752px" height="480px" viewBox="0 0 741.82 494.3">
  <defs>
    <style>
      .a {
        fill: #4e5f88;
      }

      .b, .z {
        fill: none;
      }

      .c, .d {
        fill: #b5c3c2;
      }

      .d {
        opacity: 0.29;
      }

      .ab, .af, .aj, .al, .an, .ao, .ap, .ar, .at, .be, .d, .i, .j, .k, .l, .x, .y {
        isolation: isolate;
      }

      .e {
        fill: #95a9a7;
      }

      .f {
        fill: #e8f3f6;
      }

      .g {
        fill: #d6e5ea;
      }

      .h, .i {
        opacity: 0.52;
      }

      .ae, .i, .j, .k, .l {
        fill: #fff;
      }

      .ab, .j {
        opacity: 0.5;
      }

      .k {
        opacity: 0.33;
      }

      .ak, .al, .l, .x, .y {
        opacity: 0.4;
      }

      .m {
        fill: #d5e3e8;
      }

      .n, .y {
        fill: #3a3a3a;
      }

      .o {
        mask: url(#a);
      }

      .az, .ba, .bf, .p, .q, .t, .u {
        fill: #ff3a53;
      }

      .p {
        fill-opacity: 0.78;
      }

      .bb, .bc, .bd, .r {
        fill: #ffe500;
      }

      .be, .s {
        fill: #46b2ff;
      }

      .t {
        fill-opacity: 0.63;
      }

      .u {
        fill-opacity: 0.72;
      }

      .v {
        fill: #eff2f3;
      }

      .w {
        fill: #26211e;
      }

      .ai, .x {
        fill: #2e2e2e;
      }

      .z {
        stroke: #36466a;
        stroke-miterlimit: 10;
        stroke-opacity: 0.66;
        stroke-width: 0.5px;
      }

      .aa {
        fill: #adbec4;
      }

      .ab {
        fill: url(#b);
      }

      .ac, .af, .aj, .ap, .be {
        opacity: 0.3;
      }

      .ad {
        fill: #8ca0b9;
      }

      .af {
        fill: url(#c);
      }

      .ag {
        fill: #27a3e0;
      }

      .ah {
        fill: url(#d);
      }

      .aj {
        fill: url(#e);
      }

      .am {
        fill: #5b5b5b;
      }

      .an, .ao, .av {
        fill: #242422;
      }

      .an {
        opacity: 0.11;
      }

      .ao {
        opacity: 0.22;
      }

      .aq {
        fill: #828282;
      }

      .ar, .at {
        opacity: 0.6;
      }

      .ar {
        fill: url(#f);
      }

      .as {
        fill: #959594;
      }

      .at {
        fill: url(#g);
      }

      .au {
        fill: url(#h);
      }

      .aw {
        fill: url(#i);
      }

      .ax {
        fill: #edf3f6;
      }

      .ay {
        mask: url(#j);
      }

      .az, .bd {
        fill-opacity: 0.64;
      }

      .ba, .bc {
        fill-opacity: 0.66;
      }

      .bb {
        fill-opacity: 0.34;
      }

      .bf {
        fill-opacity: 0.5;
      }

      .bg {
        clip-path: url(#k);
      }
    </style>
    <mask id="a" x="291.66" y="148.61" width="422.39" height="236.53" maskUnits="userSpaceOnUse">
      <g transform="translate(-3.67 0)">
        <path class="a" d="M369.17,268.29c9.27-2.3,39.81-77.46,55.61-82.53,32.36-10.36,173.39-18.16,236.09-11,32.63-.52,39.26,204.1,14.28,204.5l-369.07,5.87c-10.09.16-17.35-92.09-1.57-98.61S352.88,272.37,369.17,268.29Z"/>
      </g>
    </mask>
    <radialGradient id="b" cx="96.66" cy="667.62" r="1" gradientTransform="matrix(75.2, -1.2, -1.2, -75.2, -6009.79, 50520.23)" gradientUnits="userSpaceOnUse">
      <stop offset="0" stop-color="#fff"/>
      <stop offset="0.27" stop-color="#fff" stop-opacity="0.79"/>
      <stop offset="1" stop-color="#fff" stop-opacity="0"/>
    </radialGradient>
    <radialGradient id="c" cx="98" cy="669.59" r="1" gradientTransform="matrix(41768.59, 564, 7.86, -581.9, -3997268.4, 337005.99)" gradientUnits="userSpaceOnUse">
      <stop offset="0" stop-color="#fff"/>
      <stop offset="1" stop-color="#fff" stop-opacity="0"/>
    </radialGradient>
    <radialGradient id="d" cx="96.52" cy="666.6" r="1" gradientTransform="matrix(20.12, 7.48, 20.72, -55.69, -15334.28, 36595.9)" gradientUnits="userSpaceOnUse">
      <stop offset="0" stop-color="#fff"/>
      <stop offset="0.39" stop-color="#fff" stop-opacity="0.79"/>
      <stop offset="1" stop-color="#fff" stop-opacity="0"/>
    </radialGradient>
    <radialGradient id="e" cx="94.72" cy="653.71" r="1" gradientTransform="matrix(30.73, -0.49, -0.17, -10.53, -485.83, 7806.14)" xlink:href="#c"/>
    <radialGradient id="f" cx="97.92" cy="669.75" r="1" gradientTransform="matrix(1238.84, -19.7, -19.7, -1238.84, -96582.61, 840945.43)" xlink:href="#c"/>
    <radialGradient id="g" cx="97.92" cy="669.75" r="1" gradientTransform="matrix(1238.84, -19.7, -19.7, -1238.84, -96329.81, 840945.16)" xlink:href="#c"/>
    <radialGradient id="h" cx="96.05" cy="666.6" r="1" gradientTransform="matrix(51.74, -0.82, -0.82, -51.74, -3736.34, 34854.37)" gradientUnits="userSpaceOnUse">
      <stop offset="0" stop-color="#fff"/>
      <stop offset="0.12" stop-color="#f2d1cf" stop-opacity="0.85"/>
      <stop offset="0.45" stop-color="#d05b53" stop-opacity="0.46"/>
      <stop offset="0.6" stop-color="#c32b21" stop-opacity="0.31"/>
      <stop offset="0.84" stop-color="#b20f0b" stop-opacity="0.11"/>
      <stop offset="1" stop-color="#a90000" stop-opacity="0"/>
    </radialGradient>
    <radialGradient id="i" cx="93.12" cy="661.63" r="1" gradientTransform="matrix(20.63, -0.33, -0.33, -20.63, -1302, 13915.58)" gradientUnits="userSpaceOnUse">
      <stop offset="0" stop-color="#97999c" stop-opacity="0.99"/>
      <stop offset="0.05" stop-color="#afb1b3" stop-opacity="0.76"/>
      <stop offset="0.11" stop-color="#c4c6c7" stop-opacity="0.56"/>
      <stop offset="0.18" stop-color="#d7d8d9" stop-opacity="0.38"/>
      <stop offset="0.25" stop-color="#e6e6e7" stop-opacity="0.24"/>
      <stop offset="0.34" stop-color="#f1f1f2" stop-opacity="0.13"/>
      <stop offset="0.44" stop-color="#f9f9f9" stop-opacity="0.06"/>
      <stop offset="0.59" stop-color="#fefefe" stop-opacity="0.01"/>
      <stop offset="1" stop-color="#fff" stop-opacity="0"/>
    </radialGradient>
    <mask id="j" x="97.36" y="86.01" width="183.97" height="371.99" maskUnits="userSpaceOnUse">
      <g transform="translate(-3.67 0)">
        <path class="a" d="M103.18,100.71a4.87,4.87,0,0,1,3.74-5c18.08-4.22,94.46-20.09,139.2,1C354,147.41,204.73,403.18,188.84,429.77a4.63,4.63,0,0,1-4.15,2.23H123a5,5,0,0,1-5-4.77Z"/>
      </g>
    </mask>
    <clipPath id="k" transform="translate(-3.67 0)">
      <rect class="b" x="132" y="233.01" width="10" height="10"/>
    </clipPath>
  </defs>
  <title>slide_4_img</title>
  <path class="c" d="M314.51,168.1h-3.67v10.12h3.67V168.1Z" transform="translate(-3.67 0)"/>
  <path class="c" d="M321.79,168.1h-3.67v10.12h3.67V168.1Z" transform="translate(-3.67 0)"/>
  <path class="c" d="M329.08,168.1h-3.67v10.12h3.67V168.1Z" transform="translate(-3.67 0)"/>
  <path class="c" d="M336.37,168.1H332.7v10.12h3.67V168.1Z" transform="translate(-3.67 0)"/>
  <path class="c" d="M314.51,183.88h-3.67V194h3.67V183.88Z" transform="translate(-3.67 0)"/>
  <path class="d" d="M321.79,183.88h-3.67V194h3.67V183.88Z" transform="translate(-3.67 0)"/>
  <path class="d" d="M329.08,183.88h-3.67V194h3.67V183.88Z" transform="translate(-3.67 0)"/>
  <path class="c" d="M336.37,183.88H332.7V194h3.67V183.88Z" transform="translate(-3.67 0)"/>
  <path class="c" d="M314.51,199.65h-3.67v10.12h3.67V199.65Z" transform="translate(-3.67 0)"/>
  <path class="c" d="M321.79,199.65h-3.67v10.12h3.67V199.65Z" transform="translate(-3.67 0)"/>
  <path class="c" d="M329.08,199.65h-3.67v10.12h3.67V199.65Z" transform="translate(-3.67 0)"/>
  <path class="c" d="M336.37,199.65H332.7v10.12h3.67V199.65Z" transform="translate(-3.67 0)"/>
  <path class="d" d="M343.7,199.65H340v10.12h3.67V199.65Z" transform="translate(-3.67 0)"/>
  <path class="c" d="M351,199.65h-3.67v10.12H351V199.65Z" transform="translate(-3.67 0)"/>
  <path class="c" d="M314.51,215.43h-3.67v10.12h3.67V215.43Z" transform="translate(-3.67 0)"/>
  <path class="d" d="M321.79,215.43h-3.67v10.12h3.67V215.43Z" transform="translate(-3.67 0)"/>
  <path class="c" d="M329.08,215.43h-3.67v10.12h3.67V215.43Z" transform="translate(-3.67 0)"/>
  <path class="c" d="M336.37,215.43H332.7v10.12h3.67V215.43Z" transform="translate(-3.67 0)"/>
  <path class="c" d="M343.7,215.43H340v10.12h3.67V215.43Z" transform="translate(-3.67 0)"/>
  <path class="c" d="M351,215.43h-3.67v10.12H351V215.43Z" transform="translate(-3.67 0)"/>
  <path class="c" d="M314.51,231.26h-3.67v10.12h3.67V231.26Z" transform="translate(-3.67 0)"/>
  <path class="c" d="M321.79,231.26h-3.67v10.12h3.67V231.26Z" transform="translate(-3.67 0)"/>
  <path class="c" d="M329.08,231.26h-3.67v10.12h3.67V231.26Z" transform="translate(-3.67 0)"/>
  <path class="d" d="M336.37,231.26H332.7v10.12h3.67V231.26Z" transform="translate(-3.67 0)"/>
  <path class="c" d="M343.7,231.26H340v10.12h3.67V231.26Z" transform="translate(-3.67 0)"/>
  <path class="d" d="M351,231.26h-3.67v10.12H351V231.26Z" transform="translate(-3.67 0)"/>
  <path class="d" d="M314.51,247h-3.67v10.12h3.67V247Z" transform="translate(-3.67 0)"/>
  <path class="c" d="M321.79,247h-3.67v10.12h3.67V247Z" transform="translate(-3.67 0)"/>
  <path class="d" d="M329.08,247h-3.67v10.12h3.67V247Z" transform="translate(-3.67 0)"/>
  <path class="c" d="M336.37,247H332.7v10.12h3.67V247Z" transform="translate(-3.67 0)"/>
  <path class="c" d="M343.7,247H340v10.12h3.67V247Z" transform="translate(-3.67 0)"/>
  <path class="c" d="M351,247h-3.67v10.12H351V247Z" transform="translate(-3.67 0)"/>
  <path class="e" d="M658.54,280H613.16l17.68-90.82h27.71V280Z" transform="translate(-3.67 0)"/>
  <path class="f" d="M733,283.52H28.88v70.4H733v-70.4Z" transform="translate(-3.67 0)"/>
  <path class="f" d="M705,158.12h-70.5v1.3h3.2V278.6h64.09V159.42H705v-1.3Z" transform="translate(-3.67 0)"/>
  <path class="f" d="M383.66,187.82H321.14v99.27h62.51V187.82Z" transform="translate(-3.67 0)"/>
  <path class="f" d="M311.72,238.69H204.24v48.41H311.72V238.69Z" transform="translate(-3.67 0)"/>
  <path class="f" d="M285.41,130.5H261.83v118.9h23.58V130.5Z" transform="translate(-3.67 0)"/>
  <path class="f" d="M268.24,98.81H267v64.65h1.21V98.81Z" transform="translate(-3.67 0)"/>
  <path class="f" d="M272.23,103.73H271v64.65h1.21V103.73Z" transform="translate(-3.67 0)"/>
  <path class="f" d="M278.08,123.17H263.64v15.92h14.43V123.17Z" transform="translate(-3.67 0)"/>
  <path class="f" d="M348.57,205.6H307.5v81.5h41.07V205.6Z" transform="translate(-3.67 0)"/>
  <path class="f" d="M470.86,119.32H393.78V287.09h77.09V119.32Z" transform="translate(-3.67 0)"/>
  <path class="f" d="M463.3,113.56h-62V141.5h62V113.56Z" transform="translate(-3.67 0)"/>
  <path class="f" d="M476.8,122.85h-89v1.95h89v-1.95Z" transform="translate(-3.67 0)"/>
  <path class="f" d="M416.15,202.39H379.81v84.74h36.34V202.39Z" transform="translate(-3.67 0)"/>
  <path class="f" d="M216.16,175.24h-83V287.09h83V175.24Z" transform="translate(-3.67 0)"/>
  <path class="f" d="M218.3,171h-90v4.27h90V171Z" transform="translate(-3.67 0)"/>
  <path class="f" d="M173.28,159.32H136.8V182h36.48v-22.7Z" transform="translate(-3.67 0)"/>
  <path class="f" d="M191.34,159.32h-6.13v13.78h6.13V159.32Z" transform="translate(-3.67 0)"/>
  <path class="f" d="M204.24,159.32h-6.73v13.78h6.73V159.32Z" transform="translate(-3.67 0)"/>
  <path class="e" d="M710.06,218.36H672.47v49.89h37.59V218.36Z" transform="translate(-3.67 0)"/>
  <path class="g" d="M741.59,291v-0.83h-2.51V267.09h2.51v-1.86h-2.51V242.17h2.51v-1.86h-2.51V217.25h2.51v-1.81h-2.51V192.37h2.51v-1.86h-2.51V167.45h2.51v-1.86h-2.51V141.74h4.27v-1.86h2.14v-5.06H705.21v-5.66h1.3v-1.62h-22v1.63h1.3v5.66h-10v5.06h2.18v1.86h4.22v23.85h-2.46v1.86h2.46v23.07h-2.46v1.86h2.46v23.07h-2.46v1.81h2.46v23.07h-2.46v1.86h2.46v23.07h-2.46v1.86h2.46v23.07h-2.46V292h2.46v18.84H668.54V238H613.18v53h-9V126h-6.64v4.27l-12.3,3v-2.74H578.6v4.36l-12.25,3v-3.16h-6.68v4.78l-12.25,3v-2.65h-6.64v4.27l-12.3,3v-2.23h-6.64V306.91h-9.37V220.49H477.8v53.14H442.3v-45.3h-4.36v-14.9h2.6V212H429v-4.69h-1.21V212H424.1V188h-0.93v24h-4.78v1.49h2.83v14.9H397.79v34.57H375l-11.93,44h-23.9V163.18h-31.7V158h1.81v-1.76h-24V158h1.9V269.92H272.2V232.75h5.29v-3.39H239.95V206.9h-7.19v-4.64h-16v4.64h-13v80.24h-42.7V227.59h-36v47H93.85v30.07H71.39V266.86H41.78v32.26H15v54.81H742Z" transform="translate(-3.67 0)"/>
  <g class="h">
    <path class="i" d="M200.25,212.7h-2.74v2.74h2.74V212.7Z" transform="translate(-3.67 0)"/>
    <path class="i" d="M205.72,212.7H203v2.74h2.74V212.7Z" transform="translate(-3.67 0)"/>
    <path class="i" d="M200.25,219.15h-2.74v2.74h2.74v-2.74Z" transform="translate(-3.67 0)"/>
    <path class="i" d="M205.72,219.15H203v2.74h2.74v-2.74Z" transform="translate(-3.67 0)"/>
    <path class="i" d="M200.25,225.37h-2.74v2.74h2.74v-2.74Z" transform="translate(-3.67 0)"/>
    <path class="i" d="M211.85,212.7h-2.74v2.74h2.74V212.7Z" transform="translate(-3.67 0)"/>
  </g>
  <path class="j" d="M399.81,130.46H398v10.35h1.86V130.46Z" transform="translate(-3.67 0)"/>
  <path class="j" d="M406.26,130.46H404.4v10.35h1.86V130.46Z" transform="translate(-3.67 0)"/>
  <path class="j" d="M412.67,130.46h-1.86v10.35h1.86V130.46Z" transform="translate(-3.67 0)"/>
  <path class="j" d="M419.12,130.46h-1.86v10.35h1.86V130.46Z" transform="translate(-3.67 0)"/>
  <path class="j" d="M425.57,130.46h-1.86v10.35h1.86V130.46Z" transform="translate(-3.67 0)"/>
  <path class="j" d="M432,130.46h-1.86v10.35H432V130.46Z" transform="translate(-3.67 0)"/>
  <path class="j" d="M438.42,130.46h-1.86v10.35h1.86V130.46Z" transform="translate(-3.67 0)"/>
  <path class="j" d="M444.87,130.46H443v10.35h1.86V130.46Z" transform="translate(-3.67 0)"/>
  <path class="j" d="M451.33,130.46h-1.86v10.35h1.86V130.46Z" transform="translate(-3.67 0)"/>
  <path class="j" d="M457.73,130.46h-1.86v10.35h1.86V130.46Z" transform="translate(-3.67 0)"/>
  <path class="j" d="M464.18,130.46h-1.86v10.35h1.86V130.46Z" transform="translate(-3.67 0)"/>
  <path class="j" d="M399.81,144.85H398v10.35h1.86V144.85Z" transform="translate(-3.67 0)"/>
  <path class="j" d="M406.26,144.85H404.4v10.35h1.86V144.85Z" transform="translate(-3.67 0)"/>
  <path class="j" d="M412.67,144.85h-1.86v10.35h1.86V144.85Z" transform="translate(-3.67 0)"/>
  <path class="j" d="M419.12,144.85h-1.86v10.35h1.86V144.85Z" transform="translate(-3.67 0)"/>
  <path class="j" d="M425.57,144.85h-1.86v10.35h1.86V144.85Z" transform="translate(-3.67 0)"/>
  <path class="j" d="M432,144.85h-1.86v10.35H432V144.85Z" transform="translate(-3.67 0)"/>
  <path class="j" d="M438.42,144.85h-1.86v10.35h1.86V144.85Z" transform="translate(-3.67 0)"/>
  <path class="j" d="M444.87,144.85H443v10.35h1.86V144.85Z" transform="translate(-3.67 0)"/>
  <path class="j" d="M451.33,144.85h-1.86v10.35h1.86V144.85Z" transform="translate(-3.67 0)"/>
  <path class="j" d="M457.73,144.85h-1.86v10.35h1.86V144.85Z" transform="translate(-3.67 0)"/>
  <path class="j" d="M464.18,144.85h-1.86v10.35h1.86V144.85Z" transform="translate(-3.67 0)"/>
  <path class="j" d="M399.81,159.23H398v10.35h1.86V159.23Z" transform="translate(-3.67 0)"/>
  <path class="j" d="M406.26,159.23H404.4v10.35h1.86V159.23Z" transform="translate(-3.67 0)"/>
  <path class="j" d="M412.67,159.23h-1.86v10.35h1.86V159.23Z" transform="translate(-3.67 0)"/>
  <path class="j" d="M419.12,159.23h-1.86v10.35h1.86V159.23Z" transform="translate(-3.67 0)"/>
  <path class="j" d="M425.57,159.23h-1.86v10.35h1.86V159.23Z" transform="translate(-3.67 0)"/>
  <path class="j" d="M432,159.23h-1.86v10.35H432V159.23Z" transform="translate(-3.67 0)"/>
  <path class="j" d="M438.42,159.23h-1.86v10.35h1.86V159.23Z" transform="translate(-3.67 0)"/>
  <path class="j" d="M444.87,159.23H443v10.35h1.86V159.23Z" transform="translate(-3.67 0)"/>
  <path class="j" d="M451.33,159.23h-1.86v10.35h1.86V159.23Z" transform="translate(-3.67 0)"/>
  <path class="j" d="M457.73,159.23h-1.86v10.35h1.86V159.23Z" transform="translate(-3.67 0)"/>
  <path class="j" d="M464.18,159.23h-1.86v10.35h1.86V159.23Z" transform="translate(-3.67 0)"/>
  <path class="j" d="M419.12,173.62h-1.86V184h1.86V173.62Z" transform="translate(-3.67 0)"/>
  <path class="j" d="M425.57,173.62h-1.86V184h1.86V173.62Z" transform="translate(-3.67 0)"/>
  <path class="j" d="M432,173.62h-1.86V184H432V173.62Z" transform="translate(-3.67 0)"/>
  <path class="j" d="M438.42,173.62h-1.86V184h1.86V173.62Z" transform="translate(-3.67 0)"/>
  <path class="j" d="M444.87,173.62H443V184h1.86V173.62Z" transform="translate(-3.67 0)"/>
  <path class="j" d="M451.33,173.62h-1.86V184h1.86V173.62Z" transform="translate(-3.67 0)"/>
  <path class="j" d="M457.73,173.62h-1.86V184h1.86V173.62Z" transform="translate(-3.67 0)"/>
  <path class="j" d="M464.18,173.62h-1.86V184h1.86V173.62Z" transform="translate(-3.67 0)"/>
  <path class="j" d="M425.57,188.84h-1.86v10.35h1.86V188.84Z" transform="translate(-3.67 0)"/>
  <path class="j" d="M432,188.84h-1.86v10.35H432V188.84Z" transform="translate(-3.67 0)"/>
  <path class="j" d="M438.42,188.84h-1.86v10.35h1.86V188.84Z" transform="translate(-3.67 0)"/>
  <path class="j" d="M444.87,188.84H443v10.35h1.86V188.84Z" transform="translate(-3.67 0)"/>
  <path class="j" d="M451.33,188.84h-1.86v10.35h1.86V188.84Z" transform="translate(-3.67 0)"/>
  <path class="j" d="M457.73,188.84h-1.86v10.35h1.86V188.84Z" transform="translate(-3.67 0)"/>
  <path class="j" d="M464.18,188.84h-1.86v10.35h1.86V188.84Z" transform="translate(-3.67 0)"/>
  <path class="k" d="M526.83,156.12h-4.41v11.18h4.41V156.12Z" transform="translate(-3.67 0)"/>
  <path class="k" d="M526.83,177.52h-4.41V188.7h4.41V177.52Z" transform="translate(-3.67 0)"/>
  <path class="k" d="M526.83,198.91h-4.41V210.1h4.41V198.91Z" transform="translate(-3.67 0)"/>
  <path class="k" d="M526.83,220.35h-4.41v11.18h4.41V220.35Z" transform="translate(-3.67 0)"/>
  <path class="k" d="M526.83,240.54h-4.41v11.18h4.41V240.54Z" transform="translate(-3.67 0)"/>
  <path class="k" d="M526.83,261.94h-4.41v11.18h4.41V261.94Z" transform="translate(-3.67 0)"/>
  <path class="k" d="M545.72,156.12h-4.41v11.18h4.41V156.12Z" transform="translate(-3.67 0)"/>
  <path class="k" d="M545.72,177.52h-4.41V188.7h4.41V177.52Z" transform="translate(-3.67 0)"/>
  <path class="k" d="M545.72,198.91h-4.41V210.1h4.41V198.91Z" transform="translate(-3.67 0)"/>
  <path class="k" d="M545.72,220.35h-4.41v11.18h4.41V220.35Z" transform="translate(-3.67 0)"/>
  <path class="k" d="M545.72,240.54h-4.41v11.18h4.41V240.54Z" transform="translate(-3.67 0)"/>
  <path class="k" d="M545.72,261.94h-4.41v11.18h4.41V261.94Z" transform="translate(-3.67 0)"/>
  <path class="k" d="M564.66,156.12h-4.41v11.18h4.41V156.12Z" transform="translate(-3.67 0)"/>
  <path class="k" d="M564.66,177.52h-4.41V188.7h4.41V177.52Z" transform="translate(-3.67 0)"/>
  <path class="k" d="M564.66,198.91h-4.41V210.1h4.41V198.91Z" transform="translate(-3.67 0)"/>
  <path class="k" d="M564.66,220.35h-4.41v11.18h4.41V220.35Z" transform="translate(-3.67 0)"/>
  <path class="k" d="M564.66,240.54h-4.41v11.18h4.41V240.54Z" transform="translate(-3.67 0)"/>
  <path class="k" d="M564.66,261.94h-4.41v11.18h4.41V261.94Z" transform="translate(-3.67 0)"/>
  <path class="k" d="M583.59,156.12h-4.41v11.18h4.41V156.12Z" transform="translate(-3.67 0)"/>
  <path class="k" d="M583.59,177.52h-4.41V188.7h4.41V177.52Z" transform="translate(-3.67 0)"/>
  <path class="k" d="M583.59,198.91h-4.41V210.1h4.41V198.91Z" transform="translate(-3.67 0)"/>
  <path class="k" d="M583.59,220.35h-4.41v11.18h4.41V220.35Z" transform="translate(-3.67 0)"/>
  <path class="k" d="M583.59,240.54h-4.41v11.18h4.41V240.54Z" transform="translate(-3.67 0)"/>
  <path class="k" d="M583.59,261.94h-4.41v11.18h4.41V261.94Z" transform="translate(-3.67 0)"/>
  <path class="j" d="M455,0h-3.67V9.79H455V0Z" transform="translate(-3.67 0)"/>
  <path class="j" d="M464,0h-3.67V9.79H464V0Z" transform="translate(-3.67 0)"/>
  <path class="j" d="M473.09,0h-3.67V9.79h3.67V0Z" transform="translate(-3.67 0)"/>
  <path class="j" d="M482.19,0h-3.67V9.79h3.67V0Z" transform="translate(-3.67 0)"/>
  <path class="j" d="M455,16.34h-3.67v9.79H455V16.34Z" transform="translate(-3.67 0)"/>
  <path class="j" d="M464,16.34h-3.67v9.79H464V16.34Z" transform="translate(-3.67 0)"/>
  <path class="j" d="M473.09,16.34h-3.67v9.79h3.67V16.34Z" transform="translate(-3.67 0)"/>
  <path class="j" d="M482.19,16.34h-3.67v9.79h3.67V16.34Z" transform="translate(-3.67 0)"/>
  <path class="j" d="M455,32.63h-3.67v9.79H455V32.63Z" transform="translate(-3.67 0)"/>
  <path class="j" d="M464,32.63h-3.67v9.79H464V32.63Z" transform="translate(-3.67 0)"/>
  <path class="j" d="M492.44,0h-3.67V9.79h3.67V0Z" transform="translate(-3.67 0)"/>
  <path class="l" d="M209.11,99.27h-2.32v9h2.32v-9Z" transform="translate(-3.67 0)"/>
  <path class="l" d="M217.32,99.27H215v9h2.32v-9Z" transform="translate(-3.67 0)"/>
  <path class="l" d="M227,99.27h-2.32v9H227v-9Z" transform="translate(-3.67 0)"/>
  <path class="l" d="M235.19,99.27h-2.32v9h2.32v-9Z" transform="translate(-3.67 0)"/>
  <path class="l" d="M209.11,114.86h-2.32v9h2.32v-9Z" transform="translate(-3.67 0)"/>
  <path class="l" d="M217.32,114.86H215v9h2.32v-9Z" transform="translate(-3.67 0)"/>
  <path class="l" d="M227,114.86h-2.32v9H227v-9Z" transform="translate(-3.67 0)"/>
  <path class="l" d="M235.19,114.86h-2.32v9h2.32v-9Z" transform="translate(-3.67 0)"/>
  <path class="l" d="M190.78,114.86h-2.32v9h2.32v-9Z" transform="translate(-3.67 0)"/>
  <path class="l" d="M199,114.86h-2.32v9H199v-9Z" transform="translate(-3.67 0)"/>
  <path class="l" d="M209.11,130.46h-2.32v9h2.32v-9Z" transform="translate(-3.67 0)"/>
  <path class="l" d="M217.32,130.46H215v9h2.32v-9Z" transform="translate(-3.67 0)"/>
  <path class="l" d="M227,130.46h-2.32v9H227v-9Z" transform="translate(-3.67 0)"/>
  <path class="l" d="M235.19,130.46h-2.32v9h2.32v-9Z" transform="translate(-3.67 0)"/>
  <path class="l" d="M190.78,130.46h-2.32v9h2.32v-9Z" transform="translate(-3.67 0)"/>
  <path class="l" d="M199,130.46h-2.32v9H199v-9Z" transform="translate(-3.67 0)"/>
  <path class="j" d="M646.2,168.1h-3.62V182h3.62V168.1Z" transform="translate(-3.67 0)"/>
  <path class="j" d="M657.29,168.1h-3.62V182h3.62V168.1Z" transform="translate(-3.67 0)"/>
  <path class="j" d="M667.69,168.1h-3.62V182h3.62V168.1Z" transform="translate(-3.67 0)"/>
  <path class="k" d="M680.36,147.72h-3v12.2h3v-12.2Z" transform="translate(-3.67 0)"/>
  <path class="k" d="M695.07,147.72h-3v12.2h3v-12.2Z" transform="translate(-3.67 0)"/>
  <path class="k" d="M709.73,147.72h-3v12.2h3v-12.2Z" transform="translate(-3.67 0)"/>
  <path class="k" d="M724.4,147.72h-3v12.2h3v-12.2Z" transform="translate(-3.67 0)"/>
  <path class="k" d="M680.36,172.88h-3v12.21h3V172.88Z" transform="translate(-3.67 0)"/>
  <path class="k" d="M695.07,172.88h-3v12.21h3V172.88Z" transform="translate(-3.67 0)"/>
  <path class="k" d="M709.73,172.88h-3v12.21h3V172.88Z" transform="translate(-3.67 0)"/>
  <path class="k" d="M724.4,172.88h-3v12.21h3V172.88Z" transform="translate(-3.67 0)"/>
  <path class="k" d="M680.36,198.63h-3v12.21h3V198.63Z" transform="translate(-3.67 0)"/>
  <path class="k" d="M695.07,198.63h-3v12.21h3V198.63Z" transform="translate(-3.67 0)"/>
  <path class="k" d="M709.73,198.63h-3v12.21h3V198.63Z" transform="translate(-3.67 0)"/>
  <path class="k" d="M724.4,198.63h-3v12.21h3V198.63Z" transform="translate(-3.67 0)"/>
  <path class="k" d="M680.36,224.39h-3V236.6h3V224.39Z" transform="translate(-3.67 0)"/>
  <path class="k" d="M695.07,224.39h-3V236.6h3V224.39Z" transform="translate(-3.67 0)"/>
  <path class="k" d="M709.73,224.39h-3V236.6h3V224.39Z" transform="translate(-3.67 0)"/>
  <path class="k" d="M724.4,224.39h-3V236.6h3V224.39Z" transform="translate(-3.67 0)"/>
  <path class="k" d="M680.36,247.78h-3V260h3V247.78Z" transform="translate(-3.67 0)"/>
  <path class="k" d="M695.07,247.78h-3V260h3V247.78Z" transform="translate(-3.67 0)"/>
  <path class="k" d="M709.73,247.78h-3V260h3V247.78Z" transform="translate(-3.67 0)"/>
  <path class="k" d="M680.36,273.86h-3v12.21h3V273.86Z" transform="translate(-3.67 0)"/>
  <path class="k" d="M695.07,273.86h-3v12.21h3V273.86Z" transform="translate(-3.67 0)"/>
  <path class="k" d="M709.73,273.86h-3v12.21h3V273.86Z" transform="translate(-3.67 0)"/>
  <path class="k" d="M724.4,247.78h-3V260h3V247.78Z" transform="translate(-3.67 0)"/>
  <ellipse class="m" cx="184.99" cy="430.5" rx="88.98" ry="6.26" transform="matrix(1, 0, 0, 1, -4.54, 0.38)"/>
  <ellipse class="m" cx="483.4" cy="339.77" rx="109.19" ry="5.13" transform="translate(-10.89 10.52) rotate(-1.24)"/>
  <ellipse class="m" cx="495.27" cy="414.79" rx="5.13" ry="203.35" transform="translate(76.15 909.51) rotate(-89.92)"/>
  <path class="n" d="M614.39,365.57l-313.67,5a0.94,0.94,0,0,0-.92,1l0.27,17.18a0.94,0.94,0,0,0,.95.92l313.67-5a0.94,0.94,0,0,0,.92-1l-0.27-17.18A0.94,0.94,0,0,0,614.39,365.57Z" transform="translate(-3.67 0)"/>
  <path class="a" d="M369.17,268.28c9.27-2.3,39.81-77.46,55.61-82.53,32.36-10.36,173.39-18.16,236.09-11,32.63-.52,39.26,204.11,14.28,204.5l-369.07,5.87c-10.09.16-17.35-92.09-1.57-98.61S352.88,272.37,369.17,268.28Z" transform="translate(-3.67 0)"/>
  <g class="o">
    <g>
      <path class="p" d="M528.47,202.77a0.82,0.82,0,0,0-1.37.36l-9.86,36.29a0.82,0.82,0,0,0,1,1l36.36-9.6a0.82,0.82,0,0,0,.37-1.37Z" transform="translate(-3.67 0)"/>
      <path class="q" d="M532.58,255.51a0.82,0.82,0,0,0,0,1.42l36.6,21.14a0.82,0.82,0,0,0,1.23-.71V235.08a0.82,0.82,0,0,0-1.23-.71Z" transform="translate(-3.67 0)"/>
      <path class="q" d="M532.58,199.13a0.82,0.82,0,0,0,0,1.42l36.6,21.13a0.82,0.82,0,0,0,1.23-.71V178.69a0.82,0.82,0,0,0-1.23-.71Z" transform="translate(-3.67 0)"/>
      <path class="r" d="M578.15,178a0.82,0.82,0,0,0-1.23.71V221a0.82,0.82,0,0,0,1.23.71l36.61-21.13a0.82,0.82,0,0,0,0-1.42Z" transform="translate(-3.67 0)"/>
      <path class="q" d="M578.15,234.37a0.82,0.82,0,0,0-1.23.71v42.28a0.82,0.82,0,0,0,1.23.71l36.61-21.14a0.82,0.82,0,0,0,0-1.42Z" transform="translate(-3.67 0)"/>
      <path class="s" d="M581.41,340.08a0.82,0.82,0,0,0,0,1.42L618,362.62a0.82,0.82,0,0,0,1.23-.71V319.64a0.82,0.82,0,0,0-1.23-.71Z" transform="translate(-3.67 0)"/>
      <path class="s" d="M581.41,283.7a0.82,0.82,0,0,0,0,1.42L618,306.25a0.82,0.82,0,0,0,1.23-.71V263.27a0.82,0.82,0,0,0-1.23-.71Z" transform="translate(-3.67 0)"/>
      <path class="t" d="M562.09,333.6a0.82,0.82,0,0,0,.59,1.29L575.42,336a0.82,0.82,0,0,0,.82-1.16l-5.34-11.6a0.82,0.82,0,0,0-1.41-.13Z" transform="translate(-3.67 0)"/>
      <path class="q" d="M581.41,227.31a0.82,0.82,0,0,0,0,1.42L618,249.85a0.82,0.82,0,0,0,1.23-.71V206.89a0.82,0.82,0,0,0-1.23-.71Z" transform="translate(-3.67 0)"/>
      <path class="u" d="M526.72,258.88a0.82,0.82,0,0,0-1.41.14l-13.72,30.16a0.82,0.82,0,0,0,.82,1.15l33-3.2a0.82,0.82,0,0,0,.59-1.29Z" transform="translate(-3.67 0)"/>
      <path class="r" d="M628.55,148.74a0.82,0.82,0,0,0-1.24.7v42.81a0.82,0.82,0,0,0,1.24.7l36.05-21.41a0.82,0.82,0,0,0,0-1.41Z" transform="translate(-3.67 0)"/>
      <path class="r" d="M627,206.18a0.82,0.82,0,0,0-1.23.71v42.26a0.82,0.82,0,0,0,1.23.71l36.6-21.12a0.82,0.82,0,0,0,0-1.42Z" transform="translate(-3.67 0)"/>
      <path class="s" d="M627,262.56a0.82,0.82,0,0,0-1.23.71v42.27a0.82,0.82,0,0,0,1.23.71l36.6-21.13a0.82,0.82,0,0,0,0-1.42Z" transform="translate(-3.67 0)"/>
      <path class="s" d="M627,318.93a0.82,0.82,0,0,0-1.23.71v42.27a0.82,0.82,0,0,0,1.23.71l36.6-21.12a0.82,0.82,0,0,0,0-1.42Z" transform="translate(-3.67 0)"/>
      <path class="s" d="M630.24,311.88a0.82,0.82,0,0,0,0,1.42l36.6,21.13a0.82,0.82,0,0,0,1.23-.71V291.46a0.82,0.82,0,0,0-1.23-.71Z" transform="translate(-3.67 0)"/>
      <path class="r" d="M630.24,255.51a0.82,0.82,0,0,0,0,1.42l36.61,21.14a0.82,0.82,0,0,0,1.23-.71V235.08a0.82,0.82,0,0,0-1.23-.71Z" transform="translate(-3.67 0)"/>
      <path class="r" d="M630.24,199.13a0.82,0.82,0,0,0,0,1.42l36.6,21.13a0.82,0.82,0,0,0,1.23-.71V178.69a0.82,0.82,0,0,0-1.23-.71Z" transform="translate(-3.67 0)"/>
      <path class="r" d="M582.85,169.86a0.82,0.82,0,0,0,0,1.42l36.6,21.13a0.82,0.82,0,0,0,1.23-.71V149.42a0.82,0.82,0,0,0-1.23-.71Z" transform="translate(-3.67 0)"/>
      <path class="r" d="M675.8,178a0.82,0.82,0,0,0-1.23.71V221a0.82,0.82,0,0,0,1.23.71l36.62-21.13a0.82,0.82,0,0,0,0-1.42Z" transform="translate(-3.67 0)"/>
      <path class="s" d="M675.8,234.37a0.82,0.82,0,0,0-1.23.71v42.28a0.82,0.82,0,0,0,1.23.71l36.62-21.14a0.82,0.82,0,0,0,0-1.42Z" transform="translate(-3.67 0)"/>
      <path class="r" d="M679.07,227.31a0.82,0.82,0,0,0,0,1.42l36.6,21.12a0.82,0.82,0,0,0,1.23-.71V206.89a0.82,0.82,0,0,0-1.23-.71Z" transform="translate(-3.67 0)"/>
      <path class="s" d="M676.63,289.92a0.82,0.82,0,0,0-1.23.71V332.9a0.82,0.82,0,0,0,1.23.71l36.6-21.13a0.82,0.82,0,0,0,0-1.42Z" transform="translate(-3.67 0)"/>
      <path class="s" d="M679.89,282.87a0.82,0.82,0,0,0,0,1.42l36.61,21.14a0.82,0.82,0,0,0,1.23-.71V262.44a0.82,0.82,0,0,0-1.23-.71Z" transform="translate(-3.67 0)"/>
    </g>
  </g>
  <path d="M400.26,245.33c3.12-6.86,23.84-49.07,32.38-50.12s31.34-1.61,33.7-1.42,4.07,2.43,4,6.29,2.86,44.37,1.23,59.2c-0.17,1.59-2.23,5.71-5.58,5.76s-60.31,1-63.31,1.23-5-3.1-5.2-9.25A21.41,21.41,0,0,1,400.26,245.33Z" transform="translate(-3.67 0)"/>
  <path class="v" d="M306.57,343.76c1.69-11.37,7.63-17.54,7.61-18.92l-0.3-18.63c-0.08-5.23-2-5.67-2.68-5.65l-0.49,0-14.38.23a2,2,0,0,0-1.91,1.62c-2.21,12.91-2,31.27-.55,47.38a1.9,1.9,0,0,0,2.09,1.75C300.93,351,305.78,349.07,306.57,343.76Z" transform="translate(-3.67 0)"/>
  <path class="w" d="M324,348.3l-28.07.45c-2.83,0-6.82-.63-6.73,4.67l0.24,14.91a3.23,3.23,0,0,0,2.09,2.8s-1.93,0-1.44,2.38a53.48,53.48,0,0,0,5.29,11.43c1,1.15,4.42,1.83,11.68,1.71l19.85-.32Z" transform="translate(-3.67 0)"/>
  <path class="x" d="M324,348.3l-28.07.45c-2.83,0-6.82-.63-6.73,4.67l0.24,14.91a3.23,3.23,0,0,0,2.09,2.8s-1.93,0-1.44,2.38a53.48,53.48,0,0,0,5.29,11.43c1,1.15,4.42,1.83,11.68,1.71l19.85-.32Z" transform="translate(-3.67 0)"/>
  <path class="w" d="M662.58,342.91l28.1-.45c2.83,0,6.79-.85,6.88,4.46l0.24,14.91a3.23,3.23,0,0,1-2,2.87s1.93,0,1.51,2.33a53.44,53.44,0,0,1-4.92,11.59c-1,1.18-4.39,2-11.65,2.08L661,381Z" transform="translate(-3.67 0)"/>
  <path class="y" d="M662.58,342.91l28.1-.45c2.83,0,6.79-.85,6.88,4.46l0.24,14.91a3.23,3.23,0,0,1-2,2.87s1.93,0,1.51,2.33a53.44,53.44,0,0,1-4.92,11.59c-1,1.18-4.39,2-11.65,2.08L661,381Z" transform="translate(-3.67 0)"/>
  <path class="z" d="M388,254.4a13.85,13.85,0,0,0-1.22,5.1l1.53,46.06a4.65,4.65,0,0,0,2.58,3.79c35.9,14.38,38.66,50.43,38.66,50.43a5.48,5.48,0,0,0,4.21,2.26l44.46-.71a3,3,0,0,0,2.79-2.88s1.83-113-1.68-162.79c0-1.47-.1-6.35-4.3-6.28-14.18.23-29.15,0.46-48.18,1.67-1.5,0-7.31,7.49-8.23,8.64C409,212.89,396.1,236.55,388,254.4Z" transform="translate(-3.67 0)"/>
  <path class="aa" d="M468,209.8c-0.29-5.67-.45-8.7-0.41-9.78,0-1.67-.39-3.43-1.45-3.52l-4.57.07c-8.14.13-22.37,0.64-28.59,1.42-4.7.56-19.64,26.15-28.64,45.12,0,1.64.53,5,5.35,10.35,3.81,4.25,5.77,6.15,6.69,7a9.39,9.39,0,0,0,6.31,2.74l40.12-.64,3.06,0c1.47,0,2.79-2.62,3-3.45C469.88,248.28,468.68,223.25,468,209.8Z" transform="translate(-3.67 0)"/>
  <path class="ab" d="M406.85,242s21.16-39.1,25.88-41.73,30.91-2.19,31.93-1.7,1.66,18.52,1.55,22.66c-3.42-1.31-9.09,6.1-9.37,10.33s1.26,4.57,1.26,4.57a90.66,90.66,0,0,1-2.14,15,46.54,46.54,0,0,1-1.76,7l-34.33.72s2.36-1.4.77-4.95S410.41,241.43,406.85,242Z" transform="translate(-3.67 0)"/>
  <g class="ac">
    <path class="ad" d="M325.81,296.63S666.73,282.7,687.1,284.87,341.45,297.45,325.81,296.63Z" transform="translate(-3.67 0)"/>
  </g>
  <path class="ae" d="M420.33,275.13a0.39,0.39,0,0,1,.07-0.26,0.25,0.25,0,0,1,.21-0.09l2.83-.05a0.26,0.26,0,0,1,.27.31l0.16,8.13a0.31,0.31,0,0,0,0,.16,0.2,0.2,0,0,0,.15,0l4.48-.09a0.28,0.28,0,0,1,.35.28l0,1.84a0.3,0.3,0,0,1-.1.24,0.37,0.37,0,0,1-.27.1l-7.6.15a0.43,0.43,0,0,1-.31-0.08,0.39,0.39,0,0,1-.1-0.28Z" transform="translate(-3.67 0)"/>
  <path class="ae" d="M436.82,277.44a2.68,2.68,0,0,0-.79-0.58,2.61,2.61,0,0,0-1.18-.19,2.27,2.27,0,0,0-1.14.25,0.64,0.64,0,0,0-.36.55,1,1,0,0,0,1,.75l2.48,0.6a3.64,3.64,0,0,1,2.06,1.17,3.17,3.17,0,0,1,.72,2A3.26,3.26,0,0,1,439,284a3.71,3.71,0,0,1-1.64,1.3,6.48,6.48,0,0,1-2.5.5,8,8,0,0,1-3-.48,3.7,3.7,0,0,1-1.89-1.4,0.58,0.58,0,0,1-.08-0.22,0.34,0.34,0,0,1,.16-0.27l1.51-1.09a0.57,0.57,0,0,1,.3-0.11,0.33,0.33,0,0,1,.27.13,3.21,3.21,0,0,0,1,.91,3,3,0,0,0,1.39.24,3.12,3.12,0,0,0,1.3-.25,0.73,0.73,0,0,0,.48-0.65,0.64,0.64,0,0,0-.25-0.49,1.58,1.58,0,0,0-.7-0.3l-2.27-.51a4,4,0,0,1-2.15-1.19,3.12,3.12,0,0,1-.83-2.08,3,3,0,0,1,.53-1.79,3.73,3.73,0,0,1,1.58-1.32,5.71,5.71,0,0,1,2.4-.52,6.72,6.72,0,0,1,2.49.4,3.39,3.39,0,0,1,1.67,1.14,0.43,0.43,0,0,1,.11.25,0.26,0.26,0,0,1-.1.2l-1.6,1.21a0.25,0.25,0,0,1-.16.06A0.5,0.5,0,0,1,436.82,277.44Z" transform="translate(-3.67 0)"/>
  <path class="ae" d="M443.07,274.34l2.2,0a6.3,6.3,0,0,1,4.42,1.5,5.26,5.26,0,0,1,1.56,3.89,6.09,6.09,0,0,1-.61,2.92,4.77,4.77,0,0,1-2,2,6.8,6.8,0,0,1-3.21.77l-3.91.08a0.44,0.44,0,0,1-.33-0.1,0.47,0.47,0,0,1-.11-0.34l-0.2-10.28a0.36,0.36,0,0,1,.08-0.29,0.44,0.44,0,0,1,.31-0.1Zm1.41,2.32a0.16,0.16,0,0,0-.12,0,0.32,0.32,0,0,0,0,.17l0.11,6a0.26,0.26,0,0,0,0,.18,0.22,0.22,0,0,0,.16,0h0.1a3,3,0,0,0,2.22-.81,3.47,3.47,0,0,0,.73-2.53,3.57,3.57,0,0,0-.62-2.22,2.33,2.33,0,0,0-1.71-.8Z" transform="translate(-3.67 0)"/>
  <path class="ae" d="M455.79,274.09a0.26,0.26,0,0,1,.27.31l0.2,10.36a0.44,0.44,0,0,1-.11.35,0.61,0.61,0,0,1-.37.1l-2.48,0a0.44,0.44,0,0,1-.31-0.08,0.39,0.39,0,0,1-.1-0.28l-0.2-10.39a0.39,0.39,0,0,1,.07-0.26,0.26,0.26,0,0,1,.21-0.09Z" transform="translate(-3.67 0)"/>
  <path class="q" d="M397.92,275.74a0.4,0.4,0,0,0-.6.35V279a0.4,0.4,0,0,0,.6.35l2.51-1.45a0.4,0.4,0,0,0,0-.69Z" transform="translate(-3.67 0)"/>
  <path class="q" d="M398.23,279.86a0.4,0.4,0,0,0,0,.69l2.51,1.45a0.4,0.4,0,0,0,.6-0.35v-2.9a0.4,0.4,0,0,0-.6-0.35Z" transform="translate(-3.67 0)"/>
  <path class="q" d="M398.23,274.51a0.4,0.4,0,0,0,0,.69l2.51,1.45a0.4,0.4,0,0,0,.6-0.35v-2.9a0.4,0.4,0,0,0-.6-0.35Z" transform="translate(-3.67 0)"/>
  <path class="r" d="M402.56,273.06a0.4,0.4,0,0,0-.6.35v2.9a0.4,0.4,0,0,0,.6.35l2.51-1.45a0.4,0.4,0,0,0,0-.69Z" transform="translate(-3.67 0)"/>
  <path class="q" d="M402.56,278.42a0.4,0.4,0,0,0-.6.35v2.9a0.4,0.4,0,0,0,.6.35l2.51-1.45a0.4,0.4,0,0,0,0-.69Z" transform="translate(-3.67 0)"/>
  <path class="q" d="M402.56,283.77a0.4,0.4,0,0,0-.6.35V287a0.4,0.4,0,0,0,.6.35l2.51-1.45a0.4,0.4,0,0,0,0-.69Z" transform="translate(-3.67 0)"/>
  <path class="s" d="M402.87,287.89a0.4,0.4,0,0,0,0,.69l2.51,1.45a0.4,0.4,0,0,0,.6-0.35v-2.9a0.4,0.4,0,0,0-.6-0.35Z" transform="translate(-3.67 0)"/>
  <path class="s" d="M402.87,282.54a0.4,0.4,0,0,0,0,.69l2.51,1.45a0.4,0.4,0,0,0,.6-0.35v-2.9a0.4,0.4,0,0,0-.6-0.35Z" transform="translate(-3.67 0)"/>
  <path class="q" d="M398.21,285.2a0.4,0.4,0,0,0,0,.69l2.51,1.45a0.4,0.4,0,0,0,.6-0.35v-2.9a0.4,0.4,0,0,0-.6-0.35Z" transform="translate(-3.67 0)"/>
  <path class="q" d="M402.87,277.19a0.4,0.4,0,0,0,0,.69l2.51,1.45A0.4,0.4,0,0,0,406,279v-2.89a0.4,0.4,0,0,0-.6-0.35Z" transform="translate(-3.67 0)"/>
  <path class="q" d="M398,281a0.4,0.4,0,0,0-.6.35v2.9a0.4,0.4,0,0,0,.6.35l2.51-1.45a0.4,0.4,0,0,0,0-.69Z" transform="translate(-3.67 0)"/>
  <path class="r" d="M407.35,270.3a0.4,0.4,0,0,0-.6.34v2.93a0.4,0.4,0,0,0,.6.34l2.47-1.47a0.4,0.4,0,0,0,0-.69Z" transform="translate(-3.67 0)"/>
  <path class="r" d="M407.19,275.74a0.4,0.4,0,0,0-.6.35V279a0.4,0.4,0,0,0,.6.35l2.51-1.45a0.4,0.4,0,0,0,0-.69Z" transform="translate(-3.67 0)"/>
  <path class="s" d="M407.19,281.09a0.4,0.4,0,0,0-.6.35v2.9a0.4,0.4,0,0,0,.6.35l2.51-1.45a0.4,0.4,0,0,0,0-.69Z" transform="translate(-3.67 0)"/>
  <path class="s" d="M407.19,286.44a0.4,0.4,0,0,0-.6.35v2.9a0.4,0.4,0,0,0,.6.35l2.51-1.45a0.4,0.4,0,0,0,0-.69Z" transform="translate(-3.67 0)"/>
  <path class="s" d="M407.5,285.22a0.4,0.4,0,0,0,0,.69l2.51,1.45a0.4,0.4,0,0,0,.6-0.35v-2.89a0.4,0.4,0,0,0-.6-0.35Z" transform="translate(-3.67 0)"/>
  <path class="r" d="M407.5,279.86a0.4,0.4,0,0,0,0,.69L410,282a0.4,0.4,0,0,0,.6-0.35v-2.9a0.4,0.4,0,0,0-.6-0.35Z" transform="translate(-3.67 0)"/>
  <path class="r" d="M407.5,274.51a0.4,0.4,0,0,0,0,.69l2.51,1.45a0.4,0.4,0,0,0,.6-0.35v-2.9a0.4,0.4,0,0,0-.6-0.35Z" transform="translate(-3.67 0)"/>
  <path class="r" d="M403,271.73a0.4,0.4,0,0,0,0,.69l2.51,1.45a0.4,0.4,0,0,0,.6-0.35v-2.9a0.4,0.4,0,0,0-.6-0.35Z" transform="translate(-3.67 0)"/>
  <path class="r" d="M411.83,273.06a0.4,0.4,0,0,0-.6.35v2.9a0.4,0.4,0,0,0,.6.35l2.51-1.45a0.4,0.4,0,0,0,0-.69Z" transform="translate(-3.67 0)"/>
  <path class="s" d="M411.83,278.42a0.4,0.4,0,0,0-.6.35v2.9a0.4,0.4,0,0,0,.6.35l2.51-1.45a0.4,0.4,0,0,0,0-.69Z" transform="translate(-3.67 0)"/>
  <path class="r" d="M412.14,277.19a0.4,0.4,0,0,0,0,.69l2.51,1.45a0.4,0.4,0,0,0,.6-0.35v-2.89a0.4,0.4,0,0,0-.6-0.35Z" transform="translate(-3.67 0)"/>
  <path class="s" d="M411.91,283.69a0.4,0.4,0,0,0-.6.35v2.9a0.4,0.4,0,0,0,.6.35l2.51-1.45a0.4,0.4,0,0,0,0-.69Z" transform="translate(-3.67 0)"/>
  <path class="s" d="M412.22,282.46a0.4,0.4,0,0,0,0,.69l2.51,1.45a0.4,0.4,0,0,0,.6-0.35v-2.9a0.4,0.4,0,0,0-.6-0.35Z" transform="translate(-3.67 0)"/>
  <g class="ac">
    <path class="ad" d="M421.38,185.92s230.77-10,244.6-9.25S432,186.15,421.38,185.92Z" transform="translate(-3.67 0)"/>
  </g>
  <g class="ac">
    <path class="ad" d="M305.38,342s363.92-13.76,385.71-11.49S322.07,342.88,305.38,342Z" transform="translate(-3.67 0)"/>
  </g>
  <path class="af" d="M305.36,344.4S671.68,331.79,691,332.9C712.9,334.17,322,345.27,305.36,344.4Z" transform="translate(-3.67 0)"/>
  <path d="M376.64,268.58c15.3-27.67,44.07-73.19,44.07-73.19l-5.4.77C403,213.74,387.87,239.81,376,259.74a52.92,52.92,0,0,1-6,8.06A21.83,21.83,0,0,1,376.64,268.58Z" transform="translate(-3.67 0)"/>
  <path class="ag" d="M373,264c0.69-1,1.32-2,1.92-2.88l4.86-8.33c10.74-18.36,22.86-39.17,33.13-54.21l3.1,0.19c-8,12.91-27.36,44.52-39.25,66.12C376,264.72,373.89,264.11,373,264Z" transform="translate(-3.67 0)"/>
  <path class="ah" d="M372.94,263.6c0.69-1,1.33-2,1.94-2.87l4.92-8.3c10.86-18.29,23.12-39,33.49-54l3.09,0.21c-8,12.86-27.65,44.34-39.68,65.86C375.87,264.32,373.79,263.7,372.94,263.6Z" transform="translate(-3.67 0)"/>
  <path class="ai" d="M576.91,380.77S576.45,351.32,587,336.4a29,29,0,0,1,17.72-10.95c13.73-3.28,33.69-2.15,39.2-1.53,12.27,1.39,19.91,3.77,25.87,21.82A134.47,134.47,0,0,1,675,379.56Z" transform="translate(-3.67 0)"/>
  <path class="aj" d="M315.85,304.89v-0.62a3.15,3.15,0,0,0-3.2-3.1l-4.71.07a3.15,3.15,0,0,0-3.1,3.2V305Z" transform="translate(-3.67 0)"/>
  <path class="ai" d="M325.09,386.49s-0.48-30.37,10-45.74a28.74,28.74,0,0,1,17.72-11.27,94.78,94.78,0,0,1,38.31-.14c9.49,3.09,18.22,4.39,24,23a305.07,305.07,0,0,1,7.9,32.94Z" transform="translate(-3.67 0)"/>
  <g class="ak">
    <path class="al" d="M374.34,357.82a2,2,0,1,1-2-1.9A1.9,1.9,0,0,1,374.34,357.82Z" transform="translate(-3.67 0)"/>
    <path class="al" d="M392.55,379.28a2,2,0,1,1,1.37-.6A2,2,0,0,1,392.55,379.28Z" transform="translate(-3.67 0)"/>
    <path class="al" d="M352.86,379.91a2,2,0,1,1,1.37-.6A2,2,0,0,1,352.86,379.91Z" transform="translate(-3.67 0)"/>
    <path class="al" d="M387.9,364.78a2,2,0,0,1-2.84,0A2,2,0,1,1,387.9,364.78Z" transform="translate(-3.67 0)"/>
    <path class="al" d="M360.36,393.21a2,2,0,1,1,0-2.84,1.93,1.93,0,0,1,.64,1.41A1.92,1.92,0,0,1,360.36,393.21Z" transform="translate(-3.67 0)"/>
    <path class="al" d="M385.56,392.81a1.91,1.91,0,0,1-.47-0.64,1.93,1.93,0,0,1,.42-2.2A2,2,0,1,1,385.56,392.81Z" transform="translate(-3.67 0)"/>
    <path class="al" d="M357.14,365.27a2,2,0,1,1,2.83,0A2,2,0,0,1,357.14,365.27Z" transform="translate(-3.67 0)"/>
    <path class="al" d="M390.81,369.41a1.93,1.93,0,0,1-2.15-.13,1.9,1.9,0,0,1-.5-0.57,2,2,0,0,1,.7-2.68,2,2,0,0,1,2.68.72A1.9,1.9,0,0,1,390.81,369.41Z" transform="translate(-3.67 0)"/>
    <path class="al" d="M356.55,389.24a1.94,1.94,0,0,1-1.47.19,1.94,1.94,0,0,1-1-3.06,1.92,1.92,0,0,1,.57-0.5A1.94,1.94,0,1,1,356.55,389.24Z" transform="translate(-3.67 0)"/>
    <path class="al" d="M361.07,361.49a1.93,1.93,0,0,1,.13-2.15,2,2,0,0,1,3.25.19,2,2,0,0,1-.72,2.68A2,2,0,0,1,361.07,361.49Z" transform="translate(-3.67 0)"/>
    <path class="al" d="M391.33,384.63a2,2,0,1,1,1.48-.19A2,2,0,0,1,391.33,384.63Z" transform="translate(-3.67 0)"/>
    <path class="al" d="M353.09,374.58a2,2,0,0,1-1.37-2.39A2,2,0,1,1,353.09,374.58Z" transform="translate(-3.67 0)"/>
    <path class="al" d="M375.94,358a1.92,1.92,0,0,1,.33-0.68,1.93,1.93,0,0,1,2.05-.69A1.9,1.9,0,0,1,379.7,359a1.92,1.92,0,0,1-.33.68A2,2,0,0,1,375.94,358Z" transform="translate(-3.67 0)"/>
    <path class="al" d="M392.47,374.35a2,2,0,1,1,1.18-.9A2,2,0,0,1,392.47,374.35Z" transform="translate(-3.67 0)"/>
    <path class="al" d="M354.13,384.69a1.93,1.93,0,0,1-.76.07,1.93,1.93,0,0,1-1.64-1.42,2,2,0,0,1,3.78-1A1.93,1.93,0,0,1,354.13,384.69Z" transform="translate(-3.67 0)"/>
    <path class="al" d="M365.66,359.06a2,2,0,1,1,2.4,1.38A2,2,0,0,1,365.66,359.06Z" transform="translate(-3.67 0)"/>
    <path class="al" d="M388.91,389.18a2,2,0,1,1,2.59-2.9,1.94,1.94,0,0,1,.41.7,1.95,1.95,0,0,1-.16,1.59,1.94,1.94,0,0,1-.54.61A2,2,0,0,1,388.91,389.18Z" transform="translate(-3.67 0)"/>
    <path class="al" d="M354.59,369.48a1.93,1.93,0,0,1-.72-2.65A2,2,0,1,1,354.59,369.48Z" transform="translate(-3.67 0)"/>
    <path class="al" d="M380.89,359.5a2,2,0,1,1,.72,2.68A2,2,0,0,1,380.89,359.5Z" transform="translate(-3.67 0)"/>
  </g>
  <path class="al" d="M375,397.4a2,2,0,1,1-2-1.92,1.93,1.93,0,0,1,1.38.55A1.93,1.93,0,0,1,375,397.4Z" transform="translate(-3.67 0)"/>
  <path class="al" d="M380.93,395.75a2,2,0,0,1,.72-2.65,1.93,1.93,0,0,1,2.15.13,1.9,1.9,0,0,1,.5.57,2,2,0,0,1-.7,2.68A2,2,0,0,1,380.93,395.75Z" transform="translate(-3.67 0)"/>
  <path class="al" d="M365.74,396.27a2,2,0,1,1,.19,1.48A2,2,0,0,1,365.74,396.27Z" transform="translate(-3.67 0)"/>
  <path class="al" d="M376,397.24a2,2,0,1,1,.34.69A2,2,0,0,1,376,397.24Z" transform="translate(-3.67 0)"/>
  <path class="al" d="M361.16,393.85a2,2,0,0,1,1.18-.92,2,2,0,0,1,2.07.68A2,2,0,1,1,361.16,393.85Z" transform="translate(-3.67 0)"/>
  <path class="am" d="M332.1,378.29a40.35,40.35,0,1,1,12.27,28.34A40.35,40.35,0,0,1,332.1,378.29Z" transform="translate(-3.67 0)"/>
  <path class="an" d="M334.8,378.24a37.66,37.66,0,1,1,11.45,26.45A37.66,37.66,0,0,1,334.8,378.24Z" transform="translate(-3.67 0)"/>
  <path class="ao" d="M335,378.24a37.46,37.46,0,1,1,11.39,26.31A37.45,37.45,0,0,1,335,378.24Z" transform="translate(-3.67 0)"/>
  <path class="ap" d="M372,349.12a28.53,28.53,0,1,0,11,2A28.56,28.56,0,0,0,372,349.12Z" transform="translate(-3.67 0)"/>
  <path class="aq" d="M345.8,378.07A26.62,26.62,0,1,1,348,388.24,26.65,26.65,0,0,1,345.8,378.07Z" transform="translate(-3.67 0)"/>
  <path class="ar" d="M345.8,378.07A26.62,26.62,0,1,1,348,388.24,26.65,26.65,0,0,1,345.8,378.07Z" transform="translate(-3.67 0)"/>
  <path class="as" d="M347,378.05A25.52,25.52,0,1,1,354.72,396,25.52,25.52,0,0,1,347,378.05Z" transform="translate(-3.67 0)"/>
  <path class="m" d="M347,378.05A25.52,25.52,0,1,1,354.72,396,25.52,25.52,0,0,1,347,378.05Z" transform="translate(-3.67 0)"/>
  <path class="al" d="M627.75,397.13a1.93,1.93,0,1,1-1.21-1.79,1.94,1.94,0,0,1,1.06,1A1.94,1.94,0,0,1,627.75,397.13Z" transform="translate(-3.67 0)"/>
  <path class="al" d="M633.71,395.48a2,2,0,0,1,.72-2.65,1.93,1.93,0,0,1,2.15.13,2,2,0,0,1-.2,3.24A2,2,0,0,1,633.71,395.48Z" transform="translate(-3.67 0)"/>
  <path class="al" d="M618.52,396a2,2,0,1,1,.19,1.48A2,2,0,0,1,618.52,396Z" transform="translate(-3.67 0)"/>
  <path class="al" d="M628.77,397a2,2,0,1,1,.34.69A2,2,0,0,1,628.77,397Z" transform="translate(-3.67 0)"/>
  <path class="al" d="M613.94,393.58a2,2,0,0,1,.5-0.58,1.95,1.95,0,0,1,1.44-.4A2,2,0,1,1,613.94,393.58Z" transform="translate(-3.67 0)"/>
  <path class="am" d="M584.88,378a40.35,40.35,0,1,1,12.27,28.34A40.35,40.35,0,0,1,584.88,378Z" transform="translate(-3.67 0)"/>
  <path class="an" d="M587.57,378A37.66,37.66,0,1,1,599,404.42,37.66,37.66,0,0,1,587.57,378Z" transform="translate(-3.67 0)"/>
  <path class="ao" d="M587.77,378a37.46,37.46,0,1,1,11.39,26.31A37.46,37.46,0,0,1,587.77,378Z" transform="translate(-3.67 0)"/>
  <path class="ap" d="M624.77,348.85a28.52,28.52,0,1,0,11,2A28.56,28.56,0,0,0,624.77,348.85Z" transform="translate(-3.67 0)"/>
  <path class="aq" d="M598.57,377.8A26.63,26.63,0,1,1,600.76,388,26.66,26.66,0,0,1,598.57,377.8Z" transform="translate(-3.67 0)"/>
  <path class="at" d="M598.57,377.8A26.63,26.63,0,1,1,600.76,388,26.66,26.66,0,0,1,598.57,377.8Z" transform="translate(-3.67 0)"/>
  <path class="as" d="M599.73,377.78a25.52,25.52,0,1,1,7.76,17.92A25.52,25.52,0,0,1,599.73,377.78Z" transform="translate(-3.67 0)"/>
  <path class="m" d="M599.73,377.78a25.52,25.52,0,1,1,7.76,17.92A25.52,25.52,0,0,1,599.73,377.78Z" transform="translate(-3.67 0)"/>
  <path class="ai" d="M679.05,289s12.57-1.22,13.61-.22c2.88,2.79,2.62,41.9,0,41.94l-12.7.2S682,302.13,679.05,289Z" transform="translate(-3.67 0)"/>
  <path class="q" d="M681.35,290.77s11.67-1.12,12.62-.2c2.88,2.79,2.43,38.53,0,38.57l-11.77.19S684.07,302.81,681.35,290.77Z" transform="translate(-3.67 0)"/>
  <path class="au" d="M681.35,290.77a64.16,64.16,0,0,1,1.21,9.76,37.92,37.92,0,0,1,13.36,11.13c0.08-9.53-.51-19.7-2-21.07C693,289.77,681.35,290.77,681.35,290.77Z" transform="translate(-3.67 0)"/>
  <path class="av" d="M419.31,227l-7.57.12c-4.42.07-8,2.74-7.93,6l0.37,23.14c0.05,3.23,3.69,5.81,8.12,5.74l7.57-.12Z" transform="translate(-3.67 0)"/>
  <path class="aw" d="M419.31,227l-7.57.12c-4.42.07-8,2.74-7.93,6l0.37,23.14c0.05,3.23,3.69,5.81,8.12,5.74l7.57-.12Z" transform="translate(-3.67 0)"/>
  <circle class="ax" cx="610.83" cy="367.51" r="5.5"/>
  <circle class="ax" cx="358.33" cy="368.01" r="6"/>
  <path class="a" d="M103.18,100.71a4.87,4.87,0,0,1,3.74-5c18.08-4.22,94.46-20.09,139.2,1C354,147.41,204.73,403.18,188.84,429.77a4.63,4.63,0,0,1-4.15,2.23H123a5,5,0,0,1-5-4.77Z" transform="translate(-3.67 0)"/>
  <path class="q" d="M134.23,128.15a0.82,0.82,0,0,0-1.23.71v4.57a0.82,0.82,0,0,0,1.23.71l4-2.29a0.82,0.82,0,0,0,0-1.42Z" transform="translate(-3.67 0)"/>
  <path class="q" d="M134.76,135.07a0.82,0.82,0,0,0,0,1.42l4,2.29a0.82,0.82,0,0,0,1.23-.71v-4.57a0.82,0.82,0,0,0-1.23-.71Z" transform="translate(-3.67 0)"/>
  <path class="q" d="M134.76,125.81a0.82,0.82,0,0,0,0,1.42l4,2.29a0.82,0.82,0,0,0,1.23-.71v-4.57a0.82,0.82,0,0,0-1.23-.71Z" transform="translate(-3.67 0)"/>
  <path class="r" d="M142.24,123.52a0.82,0.82,0,0,0-1.23.71v4.57a0.82,0.82,0,0,0,1.23.71l4-2.29a0.82,0.82,0,0,0,0-1.42Z" transform="translate(-3.67 0)"/>
  <path class="q" d="M142.24,132.78a0.82,0.82,0,0,0-1.23.71v4.57a0.82,0.82,0,0,0,1.23.71l4-2.29a0.82,0.82,0,0,0,0-1.42Z" transform="translate(-3.67 0)"/>
  <path class="q" d="M142.24,142a0.82,0.82,0,0,0-1.23.71v4.57a0.82,0.82,0,0,0,1.23.71l4-2.29a0.82,0.82,0,0,0,0-1.42Z" transform="translate(-3.67 0)"/>
  <path class="s" d="M142.78,149a0.82,0.82,0,0,0,0,1.42l4,2.29a0.82,0.82,0,0,0,1.23-.71v-4.57a0.82,0.82,0,0,0-1.23-.71Z" transform="translate(-3.67 0)"/>
  <path class="s" d="M142.78,139.7a0.82,0.82,0,0,0,0,1.42l4,2.29a0.82,0.82,0,0,0,1.23-.71v-4.57a0.82,0.82,0,0,0-1.23-.71Z" transform="translate(-3.67 0)"/>
  <path class="q" d="M134.73,144.3a0.82,0.82,0,0,0,0,1.42l4,2.29a0.82,0.82,0,0,0,1.23-.71v-4.57a0.82,0.82,0,0,0-1.23-.71Z" transform="translate(-3.67 0)"/>
  <path class="q" d="M142.78,130.44a0.82,0.82,0,0,0,0,1.42l4,2.29a0.82,0.82,0,0,0,1.23-.71v-4.57a0.82,0.82,0,0,0-1.23-.71Z" transform="translate(-3.67 0)"/>
  <path class="q" d="M134.33,137.27a0.82,0.82,0,0,0-1.23.71v4.57a0.82,0.82,0,0,0,1.23.71l4-2.29a0.82,0.82,0,0,0,0-1.42Z" transform="translate(-3.67 0)"/>
  <path class="r" d="M150.53,118.74a0.82,0.82,0,0,0-1.24.7v4.63a0.82,0.82,0,0,0,1.24.7l3.9-2.31a0.82,0.82,0,0,0,0-1.41Z" transform="translate(-3.67 0)"/>
  <path class="r" d="M150.26,128.15a0.82,0.82,0,0,0-1.23.71v4.57a0.82,0.82,0,0,0,1.23.71l4-2.29a0.82,0.82,0,0,0,0-1.42Z" transform="translate(-3.67 0)"/>
  <path class="s" d="M150.26,137.41a0.82,0.82,0,0,0-1.23.71v4.57a0.82,0.82,0,0,0,1.23.71l4-2.29a0.82,0.82,0,0,0,0-1.42Z" transform="translate(-3.67 0)"/>
  <path class="s" d="M150.26,146.67a0.82,0.82,0,0,0-1.23.71v4.57a0.82,0.82,0,0,0,1.23.71l4-2.29a0.82,0.82,0,0,0,0-1.42Z" transform="translate(-3.67 0)"/>
  <path class="s" d="M150.8,144.33a0.82,0.82,0,0,0,0,1.42l4,2.29a0.82,0.82,0,0,0,1.23-.71v-4.57a0.82,0.82,0,0,0-1.23-.71Z" transform="translate(-3.67 0)"/>
  <path class="r" d="M150.8,135.07a0.82,0.82,0,0,0,0,1.42l4,2.29a0.82,0.82,0,0,0,1.23-.71v-4.57a0.82,0.82,0,0,0-1.23-.71Z" transform="translate(-3.67 0)"/>
  <path class="r" d="M150.8,125.81a0.82,0.82,0,0,0,0,1.42l4,2.29a0.82,0.82,0,0,0,1.23-.71v-4.57a0.82,0.82,0,0,0-1.23-.71Z" transform="translate(-3.67 0)"/>
  <path class="r" d="M143,121a0.82,0.82,0,0,0,0,1.42l4,2.29a0.82,0.82,0,0,0,1.23-.71v-4.57a0.82,0.82,0,0,0-1.23-.71Z" transform="translate(-3.67 0)"/>
  <path class="r" d="M158.28,123.52a0.82,0.82,0,0,0-1.23.71v4.57a0.82,0.82,0,0,0,1.23.71l4-2.29a0.82,0.82,0,0,0,0-1.42Z" transform="translate(-3.67 0)"/>
  <path class="s" d="M158.28,132.78a0.82,0.82,0,0,0-1.23.71v4.58a0.82,0.82,0,0,0,1.23.71l4-2.29a0.82,0.82,0,0,0,0-1.42Z" transform="translate(-3.67 0)"/>
  <path class="r" d="M158.82,130.44a0.82,0.82,0,0,0,0,1.42l4,2.29a0.82,0.82,0,0,0,1.23-.71v-4.57a0.82,0.82,0,0,0-1.23-.71Z" transform="translate(-3.67 0)"/>
  <path class="s" d="M158.42,141.9a0.82,0.82,0,0,0-1.23.71v4.57a0.82,0.82,0,0,0,1.23.71l4-2.29a0.82,0.82,0,0,0,0-1.42Z" transform="translate(-3.67 0)"/>
  <path class="s" d="M159,139.56a0.82,0.82,0,0,0,0,1.42l4,2.29a0.82,0.82,0,0,0,1.23-.71V138a0.82,0.82,0,0,0-1.23-.71Z" transform="translate(-3.67 0)"/>
  <g class="ay">
    <g>
      <path class="az" d="M130.49,337.24a0.82,0.82,0,0,0-1.41.16L118,362.82a0.82,0.82,0,0,0,.84,1.14l27.54-3.13a0.82,0.82,0,0,0,.57-1.3Z" transform="translate(-3.67 0)"/>
      <path class="q" d="M102.87,318.74a0.82,0.82,0,0,0-1.24.68L101,347.13a0.82,0.82,0,0,0,1.21.73l24.3-13.33a0.82,0.82,0,0,0,0-1.42Z" transform="translate(-3.67 0)"/>
      <path class="q" d="M119.37,368.35a0.82,0.82,0,0,0-.57,1.3l16.49,22.29a0.82,0.82,0,0,0,1.41-.16l11.06-25.43a0.82,0.82,0,0,0-.84-1.14Z" transform="translate(-3.67 0)"/>
      <path class="q" d="M134.61,333.32a0.82,0.82,0,0,0-.57,1.3l16.49,22.29a0.82,0.82,0,0,0,1.41-.16L163,331.32a0.82,0.82,0,0,0-.84-1.14Z" transform="translate(-3.67 0)"/>
      <path class="ba" d="M134.14,315.72a0.82,0.82,0,0,0,.23,1.4l25.94,9.79a0.82,0.82,0,0,0,1.1-.9l-4.49-27.36a0.82,0.82,0,0,0-1.33-.5Z" transform="translate(-3.67 0)"/>
      <path class="r" d="M168.45,332.92a0.82,0.82,0,0,0-1.41.16L156,358.5a0.82,0.82,0,0,0,.84,1.14l27.55-3.13a0.82,0.82,0,0,0,.57-1.3Z" transform="translate(-3.67 0)"/>
      <path class="q" d="M153.21,367.95a0.82,0.82,0,0,0-1.41.16l-11.06,25.43a0.82,0.82,0,0,0,.84,1.14l27.55-3.14a0.82,0.82,0,0,0,.56-1.3Z" transform="translate(-3.67 0)"/>
      <path class="q" d="M138,403a0.82,0.82,0,0,0-1.41.16l-11.06,25.42a0.82,0.82,0,0,0,.84,1.14l27.55-3.13a0.82,0.82,0,0,0,.57-1.3Z" transform="translate(-3.67 0)"/>
      <path class="s" d="M126.86,434.09a0.82,0.82,0,0,0-.56,1.3l16.49,22.28a0.82,0.82,0,0,0,1.41-.16l11.06-25.43a0.82,0.82,0,0,0-.84-1.14Z" transform="translate(-3.67 0)"/>
      <path class="s" d="M142.09,399.06a0.82,0.82,0,0,0-.57,1.3L158,422.64a0.82,0.82,0,0,0,1.41-.16l11.06-25.43a0.82,0.82,0,0,0-.84-1.14Z" transform="translate(-3.67 0)"/>
      <path class="q" d="M104,403.21a0.82,0.82,0,0,0-.56,1.3L120,426.8a0.82,0.82,0,0,0,1.41-.16l11.06-25.43a0.82,0.82,0,0,0-.84-1.14Z" transform="translate(-3.67 0)"/>
      <path class="q" d="M157.33,364a0.82,0.82,0,0,0-.57,1.3l16.49,22.28a0.82,0.82,0,0,0,1.41-.16L185.71,362a0.82,0.82,0,0,0-.84-1.14Z" transform="translate(-3.67 0)"/>
      <path class="q" d="M115.88,371.92a0.82,0.82,0,0,0-1.41.16L103.42,397.5a0.82,0.82,0,0,0,.84,1.14l27.54-3.14a0.82,0.82,0,0,0,.57-1.3Z" transform="translate(-3.67 0)"/>
      <path class="r" d="M207.66,328.37a0.82,0.82,0,0,0-1.41.15L195,354.27a0.82,0.82,0,0,0,.85,1.14L223.18,352a0.82,0.82,0,0,0,.56-1.29Z" transform="translate(-3.67 0)"/>
      <path class="bb" d="M209.76,324.93a0.82,0.82,0,0,0,.34,1.38l18.57,5.33a0.82,0.82,0,0,0,1-1l-4.8-18.31a0.82,0.82,0,0,0-1.35-.39Z" transform="translate(-3.67 0)"/>
      <path class="r" d="M191.16,363.63a0.82,0.82,0,0,0-1.41.16L178.7,389.2a0.82,0.82,0,0,0,.84,1.14l27.54-3.13a0.82,0.82,0,0,0,.57-1.3Z" transform="translate(-3.67 0)"/>
      <path class="s" d="M175.93,398.65a0.82,0.82,0,0,0-1.41.16l-11.06,25.43a0.82,0.82,0,0,0,.84,1.14l27.54-3.14a0.82,0.82,0,0,0,.57-1.3Z" transform="translate(-3.67 0)"/>
      <path class="s" d="M164.81,429.76a0.82,0.82,0,0,0-.57,1.3l16.49,22.28a0.82,0.82,0,0,0,1.41-.16l11.05-25.42a0.82,0.82,0,0,0-.84-1.14Z" transform="translate(-3.67 0)"/>
      <path class="r" d="M180,394.74a0.82,0.82,0,0,0-.57,1.3L196,418.32a0.82,0.82,0,0,0,1.41-.16l11.06-25.43a0.82,0.82,0,0,0-.84-1.14Z" transform="translate(-3.67 0)"/>
      <path class="r" d="M195.28,359.71a0.82,0.82,0,0,0-.57,1.3l16.49,22.28a0.82,0.82,0,0,0,1.41-.16l11.06-25.43a0.82,0.82,0,0,0-.84-1.14Z" transform="translate(-3.67 0)"/>
      <path class="bc" d="M173.75,328.72a0.82,0.82,0,0,0-.56,1.3l16.49,22.28a0.82,0.82,0,0,0,1.41-.16l11.06-25.43a0.82,0.82,0,0,0-.84-1.14Z" transform="translate(-3.67 0)"/>
      <path class="r" d="M229.11,359.3a0.82,0.82,0,0,0-1.41.16l-11.06,25.43a0.82,0.82,0,0,0,.84,1.14L245,382.89a0.82,0.82,0,0,0,.57-1.3Z" transform="translate(-3.67 0)"/>
      <path class="s" d="M213.88,394.33a0.82,0.82,0,0,0-1.41.16l-11.06,25.43a0.82,0.82,0,0,0,.84,1.14l27.56-3.14a0.82,0.82,0,0,0,.57-1.3Z" transform="translate(-3.67 0)"/>
      <path class="r" d="M218,390.41a0.82,0.82,0,0,0-.57,1.3L233.92,414a0.82,0.82,0,0,0,1.41-.16l11.05-25.41a0.82,0.82,0,0,0-.84-1.14Z" transform="translate(-3.67 0)"/>
      <path class="s" d="M199.39,429.06a0.82,0.82,0,0,0-1.41.16l-11.06,25.42a0.82,0.82,0,0,0,.84,1.14l27.54-3.14a0.82,0.82,0,0,0,.56-1.3Z" transform="translate(-3.67 0)"/>
      <path class="s" d="M203.5,425.15a0.82,0.82,0,0,0-.57,1.3l16.49,22.29a0.82,0.82,0,0,0,1.41-.16l11.06-25.43A0.82,0.82,0,0,0,231,422Z" transform="translate(-3.67 0)"/>
    </g>
  </g>
  <path class="ae" d="M173,126.83a0.65,0.65,0,0,1,.12-0.42,0.42,0.42,0,0,1,.34-0.15h4.67a0.43,0.43,0,0,1,.44.52v13.54a0.54,0.54,0,0,0,0,.27,0.34,0.34,0,0,0,.25.07h7.39a0.46,0.46,0,0,1,.57.47v3.07a0.51,0.51,0,0,1-.17.4,0.6,0.6,0,0,1-.44.15H173.66a0.71,0.71,0,0,1-.52-0.15,0.66,0.66,0,0,1-.15-0.47v-17.3Z" transform="translate(-3.67 0)"/>
  <path class="ae" d="M200.13,131.22a4.46,4.46,0,0,0-1.28-1,4.27,4.27,0,0,0-1.94-.35,3.73,3.73,0,0,0-1.89.37,1.06,1.06,0,0,0-.61.9q0,0.9,1.57,1.27l4.08,1.07a6,6,0,0,1,3.37,2,5.32,5.32,0,0,1,1.13,3.42,5.47,5.47,0,0,1-1,3.22,6.13,6.13,0,0,1-2.75,2.12,10.61,10.61,0,0,1-4.15.75,13.12,13.12,0,0,1-4.94-.9,6.1,6.1,0,0,1-3.07-2.39,1,1,0,0,1-.12-0.37,0.56,0.56,0,0,1,.27-0.45l2.53-1.77a0.93,0.93,0,0,1,.49-0.17,0.53,0.53,0,0,1,.44.22,5.32,5.32,0,0,0,1.69,1.55,5,5,0,0,0,2.28.45,5.12,5.12,0,0,0,2.16-.37,1.2,1.2,0,0,0,.81-1.07,1.07,1.07,0,0,0-.39-0.82,2.6,2.6,0,0,0-1.15-.52l-3.73-.92a6.63,6.63,0,0,1-3.51-2,5.21,5.21,0,0,1-1.3-3.49,5.1,5.1,0,0,1,.93-3,6.17,6.17,0,0,1,2.65-2.14,9.36,9.36,0,0,1,4-.8,11,11,0,0,1,4.1.75,5.59,5.59,0,0,1,2.73,1.94,0.71,0.71,0,0,1,.17.42,0.43,0.43,0,0,1-.17.32l-2.68,2a0.42,0.42,0,0,1-.27.1A0.8,0.8,0,0,1,200.13,131.22Z" transform="translate(-3.67 0)"/>
  <path class="ae" d="M210.55,126.26q2.92,0,3.64,0,4.79,0.17,7.24,2.64a8.81,8.81,0,0,1,2.46,6.53,10.21,10.21,0,0,1-1.1,4.84,7.92,7.92,0,0,1-3.29,3.29,11.16,11.16,0,0,1-5.33,1.17H207.7a0.73,0.73,0,0,1-.54-0.17A0.8,0.8,0,0,1,207,144V126.88a0.6,0.6,0,0,1,.15-0.47,0.71,0.71,0,0,1,.52-0.15h2.9Zm2.26,3.92a0.26,0.26,0,0,0-.2.07,0.53,0.53,0,0,0,0,.27v9.95a0.44,0.44,0,0,0,.07.3,0.38,0.38,0,0,0,.27.07h0.17a5,5,0,0,0,3.68-1.27,5.81,5.81,0,0,0,1.28-4.19,6,6,0,0,0-1-3.71,3.83,3.83,0,0,0-2.8-1.4Z" transform="translate(-3.67 0)"/>
  <path class="ae" d="M231.56,126.26a0.43,0.43,0,0,1,.44.52V144a0.73,0.73,0,0,1-.2.57,1,1,0,0,1-.61.15h-4.1a0.71,0.71,0,0,1-.52-0.15,0.66,0.66,0,0,1-.15-0.47v-17.3a0.65,0.65,0,0,1,.12-0.42,0.42,0.42,0,0,1,.34-0.15h4.67Z" transform="translate(-3.67 0)"/>
  <path class="ae" d="M447,357.34a5,5,0,0,1,3-4.59v1.11a1.5,1.5,0,0,0,1.5,1.49,0.5,0.5,0,1,1,0,1,1.5,1.5,0,0,0-1.5,1.49,0.5,0.5,0,0,1-.5.5h-2.4A5,5,0,0,1,447,357.34Z" transform="translate(-3.67 0)"/>
  <path class="ae" d="M453,358.83a0.5,0.5,0,0,1,.5-0.5,1.5,1.5,0,0,0,1.5-1.49,0.5,0.5,0,0,1,.5-0.5h1.4a4.93,4.93,0,0,1-1.9,5v-0.47a1.5,1.5,0,0,0-1.5-1.49A0.5,0.5,0,0,1,453,358.83Z" transform="translate(-3.67 0)"/>
  <path class="ae" d="M447.42,359.33h2.08a1.5,1.5,0,0,0,1.5-1.5,0.5,0.5,0,0,1,.5-0.5,1.5,1.5,0,1,0,0-3,0.5,0.5,0,0,1-.5-0.5v-1.43a5,5,0,0,1,5.58,2.92H455.5a1.5,1.5,0,0,0-1.5,1.5,0.5,0.5,0,0,1-.5.5,1.5,1.5,0,1,0,0,3,0.5,0.5,0,0,1,.5.5v1.07A5,5,0,0,1,447.42,359.33Z" transform="translate(-3.67 0)"/>
  <path class="ae" d="M464.93,352.08l1.2,0,0.14,8.83-1.2,0Zm5.23,8.83a3.75,3.75,0,0,1-2.51-.73l0.35-.88a3.5,3.5,0,0,0,2.18.68,1.79,1.79,0,0,0,.94-0.22,0.68,0.68,0,0,0,.31-0.61,0.6,0.6,0,0,0-.24-0.5,1.8,1.8,0,0,0-.75-0.31l-1-.22a2.37,2.37,0,0,1-1.22-.57,1.5,1.5,0,0,1-.43-1.06,1.59,1.59,0,0,1,.63-1.33,2.79,2.79,0,0,1,1.73-.53,3.63,3.63,0,0,1,1.23.18,2.84,2.84,0,0,1,1,.56l-0.36.86a2.92,2.92,0,0,0-1.86-.66,1.57,1.57,0,0,0-.91.24,0.7,0.7,0,0,0-.31.62,0.66,0.66,0,0,0,.21.5,1.45,1.45,0,0,0,.65.29l1,0.23a2.48,2.48,0,0,1,1.28.59,1.42,1.42,0,0,1,.44,1.06,1.52,1.52,0,0,1-.64,1.31A3,3,0,0,1,470.17,360.91Zm9.25-9.07,0.15,8.83-1.2,0,0-1a1.85,1.85,0,0,1-.78.84,2.45,2.45,0,0,1-1.21.31,2.51,2.51,0,0,1-1.4-.37,2.7,2.7,0,0,1-1-1.09,3.87,3.87,0,0,1-.36-1.65,3.8,3.8,0,0,1,.31-1.65,2.57,2.57,0,0,1,.92-1.11,2.61,2.61,0,0,1,1.41-.41,2.42,2.42,0,0,1,1.2.27,1.86,1.86,0,0,1,.81.8l-0.06-3.74Zm-2.8,8a1.52,1.52,0,0,0,1.26-.58,2.53,2.53,0,0,0,.43-1.62,2.48,2.48,0,0,0-.48-1.59,1.5,1.5,0,0,0-1.27-.55,1.59,1.59,0,0,0-1.29.58,2.46,2.46,0,0,0-.43,1.59,2.58,2.58,0,0,0,.48,1.61A1.56,1.56,0,0,0,476.62,359.85Zm4.62-5.25,1.2,0,0.1,6-1.2,0Zm1.25-2.66,0,1.27-1.4,0,0-1.27Zm7.3,2.52,0.1,5.94a2.74,2.74,0,0,1-.7,2.09,3,3,0,0,1-2.14.74,4.72,4.72,0,0,1-2.42-.56l0.19-1a5.43,5.43,0,0,0,1.09.43,4.2,4.2,0,0,0,1.12.13,1.51,1.51,0,0,0,1.66-1.76l0-1.31a2.08,2.08,0,0,1-.79.85,2.43,2.43,0,0,1-1.22.32,2.7,2.7,0,0,1-1.42-.35,2.56,2.56,0,0,1-1-1,3.84,3.84,0,0,1-.05-3.14,2.57,2.57,0,0,1,.94-1.07,2.65,2.65,0,0,1,1.41-.41,2.43,2.43,0,0,1,1.23.28,1.92,1.92,0,0,1,.82.82l0-1Zm-2.87,4.94a1.61,1.61,0,0,0,1.27-.56,2.6,2.6,0,0,0,0-3,1.57,1.57,0,0,0-1.29-.53,1.63,1.63,0,0,0-1.29.57,2.2,2.2,0,0,0-.44,1.5,2.22,2.22,0,0,0,.49,1.48A1.65,1.65,0,0,0,486.93,359.4Zm7.66-5.17a2.12,2.12,0,0,1,.58.07v1.1a2,2,0,0,0-.71-0.11,1.53,1.53,0,0,0-1.24.52,1.89,1.89,0,0,0-.39,1.26l0.05,3.37-1.2,0-0.07-4.34a13.44,13.44,0,0,0-.12-1.7l1.13,0,0.13,1.09a1.85,1.85,0,0,1,.73-0.92A2,2,0,0,1,494.59,354.24Zm4.09,6.21a3.09,3.09,0,0,1-1.57-.36A2.64,2.64,0,0,1,496,359a4,4,0,0,1-.05-3.31,2.63,2.63,0,0,1,1-1.12,3.1,3.1,0,0,1,1.55-.41,3.07,3.07,0,0,1,1.55.36,2.56,2.56,0,0,1,1,1.09,3.87,3.87,0,0,1,.05,3.31,2.56,2.56,0,0,1-1,1.11A3.06,3.06,0,0,1,498.67,360.45Zm0-1a1.55,1.55,0,0,0,1.27-.57,2.54,2.54,0,0,0,.42-1.63,2.5,2.5,0,0,0-.48-1.6,1.51,1.51,0,0,0-1.27-.54,1.56,1.56,0,0,0-1.28.59,2.5,2.5,0,0,0-.43,1.61,2.54,2.54,0,0,0,.47,1.61A1.57,1.57,0,0,0,498.65,359.49Zm9.55-5.33,0.1,6-1.17,0,0-1a2,2,0,0,1-.78.83,2.33,2.33,0,0,1-1.14.3q-2.18,0-2.22-2.39l-0.06-3.71,1.2,0,0.06,3.7a1.7,1.7,0,0,0,.32,1.1,1.19,1.19,0,0,0,.94.33,1.54,1.54,0,0,0,1.18-.5,1.77,1.77,0,0,0,.43-1.28l-0.05-3.4Zm5-.23a2.51,2.51,0,0,1,1.4.37,2.61,2.61,0,0,1,1,1.1,3.75,3.75,0,0,1,.38,1.65,3.8,3.8,0,0,1-.31,1.65,2.54,2.54,0,0,1-.93,1.1,2.58,2.58,0,0,1-1.4.41,2.5,2.5,0,0,1-1.23-.27,1.92,1.92,0,0,1-.79-0.84l0.06,3.65-1.2,0L510,355.83a13.42,13.42,0,0,0-.12-1.7l1.13,0,0.14,1.11a1.84,1.84,0,0,1,.76-0.94A2.36,2.36,0,0,1,513.17,353.93ZM513,359.25a1.54,1.54,0,0,0,1.26-.58,2.46,2.46,0,0,0,.43-1.59,2.53,2.53,0,0,0-.48-1.6,1.52,1.52,0,0,0-1.28-.57,1.54,1.54,0,0,0-1.27.58,3.13,3.13,0,0,0,.05,3.22A1.56,1.56,0,0,0,513,359.25Zm5.46-.65,0,1.44-1.44,0,0-1.44Zm4.08,1.46a3.21,3.21,0,0,1-1.6-.36,2.58,2.58,0,0,1-1-1.06,3.9,3.9,0,0,1,0-3.3,2.76,2.76,0,0,1,1-1.13,3.14,3.14,0,0,1,1.59-.42,3.51,3.51,0,0,1,1.23.2,2.45,2.45,0,0,1,1,.55l-0.36.88a2.77,2.77,0,0,0-1.73-.64,1.7,1.7,0,0,0-1.36.6,2.84,2.84,0,0,0,.05,3.19,1.74,1.74,0,0,0,1.38.53,2.69,2.69,0,0,0,1.7-.7l0.39,0.87a2.68,2.68,0,0,1-1,.58A3.76,3.76,0,0,1,522.52,360.06Zm6-.1a3.09,3.09,0,0,1-1.57-.36,2.65,2.65,0,0,1-1.06-1.07,4,4,0,0,1-.05-3.31,2.62,2.62,0,0,1,1-1.12,3.33,3.33,0,0,1,3.11-.05,2.55,2.55,0,0,1,1,1.09,3.87,3.87,0,0,1,.05,3.31,2.57,2.57,0,0,1-1,1.11A3.06,3.06,0,0,1,528.48,360Zm0-1a1.56,1.56,0,0,0,1.27-.57,2.54,2.54,0,0,0,.42-1.63,2.5,2.5,0,0,0-.48-1.6,1.51,1.51,0,0,0-1.27-.54,1.55,1.55,0,0,0-1.27.58,2.5,2.5,0,0,0-.43,1.61,2.54,2.54,0,0,0,.47,1.61A1.57,1.57,0,0,0,528.46,359Zm11.19-5.5q2,0,2.06,2.39l0.06,3.77-1.21,0L540.49,356a1.88,1.88,0,0,0-.29-1.14,1,1,0,0,0-.87-0.35,1.37,1.37,0,0,0-1.1.5,2,2,0,0,0-.37,1.31l0.06,3.42-1.21,0L536.64,356a1.88,1.88,0,0,0-.29-1.14,1,1,0,0,0-.87-0.35,1.38,1.38,0,0,0-1.1.5,2,2,0,0,0-.39,1.31l0.06,3.42-1.2,0-0.07-4.34a13.8,13.8,0,0,0-.12-1.7l1.13,0,0.12,1a2,2,0,0,1,.74-0.87,2.17,2.17,0,0,1,1.15-.32,1.76,1.76,0,0,1,1.85,1.13,2.06,2.06,0,0,1,.79-0.86A2.38,2.38,0,0,1,539.65,353.5Z" transform="translate(-3.67 0)"/>
  <path class="ae" d="M452,335.64a5,5,0,1,0,5,5A5,5,0,0,0,452,335.64Zm2.64,7.3-0.4.4a0.74,0.74,0,0,1-.29.12,4.72,4.72,0,0,1-4.77-4.78,0.74,0.74,0,0,1,.12-0.27l0.4-.4a0.67,0.67,0,0,1,.63-0.15l0.08,0a0.79,0.79,0,0,1,.46.48l0.2,0.74a0.73,0.73,0,0,1-.17.63l-0.27.27a2.84,2.84,0,0,0,2,2l0.27-.27a0.73,0.73,0,0,1,.63-0.17l0.74,0.2a0.79,0.79,0,0,1,.48.46l0,0.09A0.67,0.67,0,0,1,454.64,342.94Z" transform="translate(-3.67 0)"/>
  <path class="ae" d="M468.06,339.92a2.45,2.45,0,0,1,1.3.76,2,2,0,0,1,.49,1.32,2.05,2.05,0,0,1-.82,1.75,3.72,3.72,0,0,1-2.26.66,3.78,3.78,0,0,1-2.29-.59,2.07,2.07,0,0,1-.87-1.73,2,2,0,0,1,.45-1.35,2.46,2.46,0,0,1,1.3-.79,2.41,2.41,0,0,1-1.18-.74,1.9,1.9,0,0,1-.43-1.2,2,2,0,0,1,.35-1.21,2.35,2.35,0,0,1,1-.81,4.11,4.11,0,0,1,3,0,2.36,2.36,0,0,1,1,.77,2,2,0,0,1,.39,1.19,2,2,0,0,1-.39,1.23A2.26,2.26,0,0,1,468.06,339.92Zm-3.13-1.81a1.27,1.27,0,0,0,.48,1,1.86,1.86,0,0,0,2.52,0,1.28,1.28,0,0,0,.45-1,1.22,1.22,0,0,0-.49-1,1.94,1.94,0,0,0-1.27-.35,2,2,0,0,0-1.27.39A1.22,1.22,0,0,0,464.93,338.12Zm1.81,5.31a2.37,2.37,0,0,0,1.42-.39,1.26,1.26,0,0,0,.49-1.09,1.22,1.22,0,0,0-.55-1,2.82,2.82,0,0,0-1.41-.48,2.9,2.9,0,0,0-1.41.53,1.23,1.23,0,0,0-.5,1.05,1.26,1.26,0,0,0,.52,1.07A2.37,2.37,0,0,0,466.75,343.43Zm7.93-4.63a2.6,2.6,0,0,1,1.36.33,2.35,2.35,0,0,1,1,.94,3.11,3.11,0,0,1,0,2.86,2.61,2.61,0,0,1-1,1,2.87,2.87,0,0,1-1.43.38,3,3,0,0,1-2.46-1,4.9,4.9,0,0,1-.9-3.08,6.78,6.78,0,0,1,.36-2.45,3.41,3.41,0,0,1,1.14-1.59,3.09,3.09,0,0,1,1.82-.57,4.12,4.12,0,0,1,1.47.24,3.56,3.56,0,0,1,1.26.75l-0.43.92a3.52,3.52,0,0,0-2.25-.9,1.78,1.78,0,0,0-1.59,1,5,5,0,0,0-.52,2.61h0a2.08,2.08,0,0,1,.85-1A2.64,2.64,0,0,1,474.67,338.8Zm-0.15,4.5a1.58,1.58,0,0,0,1.19-.5,1.78,1.78,0,0,0,.43-1.28,1.76,1.76,0,0,0-.48-1.25,1.59,1.59,0,0,0-1.22-.46,1.66,1.66,0,0,0-1.7,1.77,1.75,1.75,0,0,0,.5,1.26A1.71,1.71,0,0,0,474.52,343.3Zm7.71-4.63a2.61,2.61,0,0,1,1.36.33,2.35,2.35,0,0,1,1,.94,3.11,3.11,0,0,1,0,2.86,2.62,2.62,0,0,1-1,1,2.88,2.88,0,0,1-1.43.38,3,3,0,0,1-2.46-1,4.9,4.9,0,0,1-.9-3.08,6.8,6.8,0,0,1,.36-2.45,3.4,3.4,0,0,1,1.14-1.59,3.08,3.08,0,0,1,1.82-.57,4.16,4.16,0,0,1,1.47.24,3.56,3.56,0,0,1,1.26.75l-0.43.92a3.52,3.52,0,0,0-2.25-.9,1.78,1.78,0,0,0-1.59.95A5,5,0,0,0,480,340h0a2.08,2.08,0,0,1,.85-1A2.65,2.65,0,0,1,482.23,338.67Zm-0.15,4.5a1.58,1.58,0,0,0,1.19-.5,2,2,0,0,0,0-2.53,1.59,1.59,0,0,0-1.22-.46,1.66,1.66,0,0,0-1.7,1.77,1.75,1.75,0,0,0,.5,1.26A1.7,1.7,0,0,0,482.07,343.18Zm13.66-7.86,0,0.92-3.82,7.68-1.33,0,3.81-7.59-4.44.07,0-1Zm7.55-.12,0,0.92-3.82,7.68-1.33,0,3.81-7.59-4.44.07,0-1Zm7.55-.12V336L507,343.68l-1.33,0,3.81-7.59-4.44.07,0-1Zm2,4.79,3.49-.06,0,1-3.49.06Zm8.68-1.84a2.76,2.76,0,0,1,1.41.33,2.27,2.27,0,0,1,1,.95,2.89,2.89,0,0,1,.36,1.41,2.78,2.78,0,0,1-.35,1.46,2.46,2.46,0,0,1-1,1,3.47,3.47,0,0,1-1.59.37,4.58,4.58,0,0,1-1.56-.25,3.58,3.58,0,0,1-1.29-.73l0.42-.92a3.87,3.87,0,0,0,2.43.9,1.81,1.81,0,0,0,1.31-.48,1.93,1.93,0,0,0,0-2.54,1.68,1.68,0,0,0-1.27-.46,2.24,2.24,0,0,0-1.83.91h-0.8l-0.08-5,5.23-.09,0,1-4,.07,0,2.71A2.55,2.55,0,0,1,521.52,338Zm10-3.3,0,0.92-3.82,7.68-1.33,0,3.81-7.59-4.44.07,0-1Zm6,4.05a2.11,2.11,0,0,1,1.15.73,2.39,2.39,0,0,1-.34,3.1,3.27,3.27,0,0,1-2.11.67,5.08,5.08,0,0,1-1.64-.24,3.6,3.6,0,0,1-1.3-.75l0.43-.92a3.81,3.81,0,0,0,2.45.9q1.75,0,1.73-1.51a1.26,1.26,0,0,0-.47-1.06,2.21,2.21,0,0,0-1.39-.34l-1,0,0-1h0.85a2.14,2.14,0,0,0,1.35-.39,1.3,1.3,0,0,0,.45-1.09,1.26,1.26,0,0,0-.41-1,1.57,1.57,0,0,0-1.1-.33,3.8,3.8,0,0,0-2.36,1l-0.46-.9a3.55,3.55,0,0,1,1.26-.78,4.8,4.8,0,0,1,1.6-.3,2.86,2.86,0,0,1,1.92.57,2,2,0,0,1,.75,1.58,2.3,2.3,0,0,1-.33,1.28A2,2,0,0,1,537.49,338.79Zm9.59,2.46-1.26,0,0,1.78-1.22,0,0-1.78-3.83.06,0-.92,4-5.91,1,0,0.09,5.77,1.26,0Zm-2.5-1-0.06-3.77L542,340.33Z" transform="translate(-3.67 0)"/>
  <path class="ae" d="M136.77,189.14a7.87,7.87,0,0,1-2.31-.33,5.3,5.3,0,0,1-1.82-.94l0.66-1.41a5.81,5.81,0,0,0,1.62.87,6.15,6.15,0,0,0,1.86.27,3.14,3.14,0,0,0,1.71-.39,1.23,1.23,0,0,0,.62-1.1,1,1,0,0,0-.57-0.91,6.7,6.7,0,0,0-1.84-.62,7.69,7.69,0,0,1-2.93-1.12,2.36,2.36,0,0,1-.92-2,2.88,2.88,0,0,1,.51-1.68,3.41,3.41,0,0,1,1.44-1.15,5.31,5.31,0,0,1,2.18-.42,6.51,6.51,0,0,1,2.13.35,4.39,4.39,0,0,1,1.66.93l-0.64,1.41a4.92,4.92,0,0,0-3.15-1.14,2.73,2.73,0,0,0-1.63.43,1.33,1.33,0,0,0-.6,1.15,1.07,1.07,0,0,0,.53,1,6.44,6.44,0,0,0,1.83.61,12.49,12.49,0,0,1,2.17.69,3.15,3.15,0,0,1,1.29.95A2.25,2.25,0,0,1,141,186a2.83,2.83,0,0,1-.51,1.68,3.28,3.28,0,0,1-1.47,1.1A6,6,0,0,1,136.77,189.14Zm5.9-7.71h1.86V189h-1.86v-7.57Zm2-3.44v1.85h-2.09V178h2.09Zm9.27,3.44v7.33a3.51,3.51,0,0,1-1,2.68,4,4,0,0,1-2.87.92,6.3,6.3,0,0,1-3.09-.74l0.3-1.43a5.89,5.89,0,0,0,2.74.72,1.78,1.78,0,0,0,2-2v-1.5a2.69,2.69,0,0,1-1,1,3,3,0,0,1-1.49.38,3.39,3.39,0,0,1-1.77-.46,3.31,3.31,0,0,1-1.2-1.34,4.5,4.5,0,0,1-.42-2,4.4,4.4,0,0,1,.42-2,3.18,3.18,0,0,1,1.2-1.34,3.31,3.31,0,0,1,1.77-.48,3,3,0,0,1,1.49.36,2.37,2.37,0,0,1,1,1v-1.14h1.86ZM150,187.33a1.81,1.81,0,0,0,1.46-.61A2.48,2.48,0,0,0,152,185a2.53,2.53,0,0,0-.53-1.69,1.83,1.83,0,0,0-1.47-.62,1.86,1.86,0,0,0-1.47.62,3,3,0,0,0,0,3.39A1.86,1.86,0,0,0,150,187.33Zm10.22-6.09q2.71,0,2.71,3.12V189H161.1v-4.56a2,2,0,0,0-.35-1.31,1.3,1.3,0,0,0-1.06-.42,1.81,1.81,0,0,0-1.38.55,2,2,0,0,0-.53,1.44V189h-1.86v-5.43a17.17,17.17,0,0,0-.12-2.14h1.76l0.13,1.24a2.76,2.76,0,0,1,1.05-1.07A3.07,3.07,0,0,1,160.26,181.24Zm11.95,0.2V189h-1.85v-1.21a2.48,2.48,0,0,1-1,1,3.07,3.07,0,0,1-1.47.35,3.23,3.23,0,0,1-1.76-.48,3.17,3.17,0,0,1-1.18-1.37,4.74,4.74,0,0,1-.42-2.05,4.84,4.84,0,0,1,.42-2.07,3.34,3.34,0,0,1,1.2-1.41,3.06,3.06,0,0,1,1.74-.51,3,3,0,0,1,1.47.36,2.39,2.39,0,0,1,1,1v-1.14h1.85Zm-3.79,6.22a1.73,1.73,0,0,0,1.44-.65,2.86,2.86,0,0,0,.51-1.81,2.92,2.92,0,0,0-.51-1.85,1.93,1.93,0,0,0-2.91,0,3,3,0,0,0-.51,1.85,2.8,2.8,0,0,0,.51,1.8A1.81,1.81,0,0,0,168.42,187.66Zm13.16-6.22v7.33a3.51,3.51,0,0,1-1,2.68,4,4,0,0,1-2.87.92,6.3,6.3,0,0,1-3.09-.74l0.3-1.43a5.89,5.89,0,0,0,2.74.72,1.78,1.78,0,0,0,2-2v-1.5a2.69,2.69,0,0,1-1,1,3,3,0,0,1-1.49.38,3.39,3.39,0,0,1-1.77-.46,3.31,3.31,0,0,1-1.2-1.34,4.5,4.5,0,0,1-.42-2,4.4,4.4,0,0,1,.42-2,3.18,3.18,0,0,1,1.2-1.34,3.31,3.31,0,0,1,1.77-.48,3,3,0,0,1,1.49.36,2.37,2.37,0,0,1,1,1v-1.14h1.86Zm-3.85,5.89a1.81,1.81,0,0,0,1.46-.61,2.48,2.48,0,0,0,.54-1.7,2.53,2.53,0,0,0-.52-1.69,1.83,1.83,0,0,0-1.47-.62,1.86,1.86,0,0,0-1.47.62,3,3,0,0,0,0,3.39A1.86,1.86,0,0,0,177.72,187.33Zm12.51-2H185a2.8,2.8,0,0,0,.6,1.8,2.18,2.18,0,0,0,1.64.57,3.74,3.74,0,0,0,2.31-.81l0.54,1.29a4.32,4.32,0,0,1-1.33.7,5.09,5.09,0,0,1-1.59.26,4,4,0,0,1-2.93-1.05,3.86,3.86,0,0,1-1.07-2.88,4.41,4.41,0,0,1,.46-2.06,3.38,3.38,0,0,1,1.31-1.4,3.6,3.6,0,0,1,1.9-.51,3.11,3.11,0,0,1,2.46,1,4,4,0,0,1,.92,2.77v0.29Zm-3.33-2.73a1.73,1.73,0,0,0-1.23.45,2.15,2.15,0,0,0-.6,1.27h3.52a2.07,2.07,0,0,0-.52-1.29A1.55,1.55,0,0,0,186.9,182.59Zm6.82,4.32v1.38a3.7,3.7,0,0,1-.27,1.44,4.11,4.11,0,0,1-.91,1.29l-0.76-.62a2.81,2.81,0,0,0,.81-1.39h-1v-2.1h2.1Zm6.11-8.58H207v1.53h-5.25v3h4.93v1.53h-4.93v3.14H207V189h-7.14V178.33ZM216,189h-2.23l-2-2.57-2,2.57h-2.22l3.18-3.9-3-3.67h2.22l1.85,2.35,1.85-2.35h2.24l-3,3.67Zm5.2-7.77q2.71,0,2.71,3.12V189H222v-4.56a2,2,0,0,0-.35-1.31,1.3,1.3,0,0,0-1.07-.42,1.81,1.81,0,0,0-1.38.55,2,2,0,0,0-.53,1.44V189h-1.86V178h1.86v4.56a2.62,2.62,0,0,1,1-.94A3,3,0,0,1,221.19,181.24Zm4.7,0.2h1.86V189h-1.86v-7.57Zm2-3.44v1.85h-2.09V178h2.09Zm6.27,3.24a3.09,3.09,0,0,1,1.74.49A3.17,3.17,0,0,1,237,183.1a4.74,4.74,0,0,1,.42,2.05,4.8,4.8,0,0,1-.43,2.09,3.25,3.25,0,0,1-1.18,1.4,3.28,3.28,0,0,1-3.23.13,2.36,2.36,0,0,1-1-1V189H229.8V178h1.86v4.61a2.39,2.39,0,0,1,1-1A3,3,0,0,1,234.12,181.24Zm-0.49,6.42a1.71,1.71,0,0,0,1.44-.66,3,3,0,0,0,.51-1.85,2.8,2.8,0,0,0-.51-1.8,2,2,0,0,0-2.91,0,3.57,3.57,0,0,0,0,3.67A1.78,1.78,0,0,0,233.63,187.66Zm5.48-6.22H241V189H239.1v-7.57Zm2-3.44v1.85H239V178h2.09Zm4.33,4.85v3.39a1.14,1.14,0,0,0,1.25,1.34,2.65,2.65,0,0,0,.75-0.12v1.49a3.53,3.53,0,0,1-1.2.18,2.61,2.61,0,0,1-2-.72,2.88,2.88,0,0,1-.69-2.07v-3.48h-1.45v-1.41h1.45v-1.85l1.88-.63v2.48h2v1.41h-2Zm-103.71,26.3a6.42,6.42,0,0,1-2.22-1.29,4.62,4.62,0,0,1-3.21,1.27,4.83,4.83,0,0,1-1.92-.36,3.11,3.11,0,0,1-1.29-1,2.62,2.62,0,0,1-.45-1.51,2.88,2.88,0,0,1,.54-1.72,5.2,5.2,0,0,1,1.73-1.41,5.37,5.37,0,0,1-.87-1.21,2.58,2.58,0,0,1-.27-1.14,2.27,2.27,0,0,1,.81-1.82,3.15,3.15,0,0,1,2.11-.69,2.81,2.81,0,0,1,1.92.63,2.12,2.12,0,0,1,.72,1.68,2.44,2.44,0,0,1-.48,1.47,4.85,4.85,0,0,1-1.54,1.29l2.12,2.19a7.05,7.05,0,0,0,.69-2.89h1.59a8.13,8.13,0,0,1-1.17,4,5.63,5.63,0,0,0,2.13,1.23Zm-5-9.63a1.25,1.25,0,0,0-.9.33,1.2,1.2,0,0,0-.33.89,1.39,1.39,0,0,0,.18.67,6.36,6.36,0,0,0,.71.9,4.37,4.37,0,0,0,1.11-.84,1.3,1.3,0,0,0,.33-0.86A1,1,0,0,0,136.66,199.51Zm-2.24,6.6a1.4,1.4,0,0,0,.51,1.14,2.11,2.11,0,0,0,1.38.42,3,3,0,0,0,2.11-.87l-2.62-2.71a3.5,3.5,0,0,0-1.05.93A1.89,1.89,0,0,0,134.43,206.11Zm13.17-7.79h7.14v1.53h-5.25v3h4.93v1.53h-4.93v3.14h5.25V209H147.6V198.33Zm13.12,2.91q2.72,0,2.72,3.12V209h-1.87v-4.56a2,2,0,0,0-.35-1.31,1.3,1.3,0,0,0-1.07-.42,1.81,1.81,0,0,0-1.38.55,2,2,0,0,0-.52,1.44V209h-1.86v-5.43a17.18,17.18,0,0,0-.12-2.14H158l0.14,1.24a2.76,2.76,0,0,1,1-1.07A3.07,3.07,0,0,1,160.72,201.24Zm11.87,0.21L169.28,209h-1.63l-3.27-7.56h2l2.17,5.43,2.22-5.43h1.86Zm1,0h1.86V209h-1.86v-7.57Zm2-3.44v1.85h-2.08V198h2.08Zm6,3.26a2.11,2.11,0,0,1,.75.12v1.71a2.61,2.61,0,0,0-1-.2,1.9,1.9,0,0,0-1.47.56,2.13,2.13,0,0,0-.49,1.47V209h-1.86v-5.43a17.17,17.17,0,0,0-.12-2.14h1.76l0.15,1.33a2.25,2.25,0,0,1,.9-1.12A2.55,2.55,0,0,1,181.56,201.25Zm5.08,7.88a4.21,4.21,0,0,1-2-.48,3.35,3.35,0,0,1-1.35-1.37,4.51,4.51,0,0,1-.47-2.1,4.42,4.42,0,0,1,.47-2.09,3.33,3.33,0,0,1,1.35-1.38,4.21,4.21,0,0,1,2-.48,4.09,4.09,0,0,1,2,.48A3.23,3.23,0,0,1,190,203.1a4.31,4.31,0,0,1,.48,2.09,4.4,4.4,0,0,1-.48,2.1,3.25,3.25,0,0,1-1.33,1.37A4.09,4.09,0,0,1,186.64,209.13Zm0-1.47a1.76,1.76,0,0,0,1.45-.61,3.62,3.62,0,0,0,0-3.71,1.95,1.95,0,0,0-2.89,0,2.88,2.88,0,0,0-.51,1.85,3,3,0,0,0,.5,1.86A1.78,1.78,0,0,0,186.63,207.66Zm9.79-6.42q2.71,0,2.71,3.12V209h-1.87v-4.56a2,2,0,0,0-.35-1.31,1.3,1.3,0,0,0-1.06-.42,1.81,1.81,0,0,0-1.38.55,2,2,0,0,0-.53,1.44V209h-1.86v-5.43a17.17,17.17,0,0,0-.12-2.14h1.76l0.13,1.24a2.76,2.76,0,0,1,1.05-1.07A3.07,3.07,0,0,1,196.42,201.24Zm13.64,0A2.32,2.32,0,0,1,212,202a3.63,3.63,0,0,1,.63,2.34V209h-1.87v-4.59a2.15,2.15,0,0,0-.3-1.29,1.09,1.09,0,0,0-1-.4,1.5,1.5,0,0,0-1.23.55,2.33,2.33,0,0,0-.43,1.5V209h-1.87v-4.59a2.11,2.11,0,0,0-.32-1.29,1.12,1.12,0,0,0-1-.4,1.5,1.5,0,0,0-1.23.55,2.28,2.28,0,0,0-.45,1.5V209h-1.86v-5.43a17.18,17.18,0,0,0-.12-2.14h1.75l0.14,1.2a2.37,2.37,0,0,1,.94-1,2.85,2.85,0,0,1,1.44-.36,2.16,2.16,0,0,1,2.26,1.44,2.58,2.58,0,0,1,1-1.05A2.94,2.94,0,0,1,210.06,201.24Zm11.18,4.08H216a2.8,2.8,0,0,0,.6,1.8,2.18,2.18,0,0,0,1.64.57,3.74,3.74,0,0,0,2.31-.81l0.54,1.29a4.32,4.32,0,0,1-1.33.7,5.09,5.09,0,0,1-1.59.26,4,4,0,0,1-2.93-1.05,3.86,3.86,0,0,1-1.07-2.88,4.41,4.41,0,0,1,.46-2.06,3.38,3.38,0,0,1,1.31-1.4,3.6,3.6,0,0,1,1.9-.51,3.11,3.11,0,0,1,2.46,1,4,4,0,0,1,.92,2.77v0.29Zm-3.33-2.73a1.73,1.73,0,0,0-1.23.45,2.15,2.15,0,0,0-.6,1.27h3.52a2.07,2.07,0,0,0-.52-1.29A1.55,1.55,0,0,0,217.91,202.59Zm9.25-1.35q2.72,0,2.72,3.12V209H228v-4.56a2,2,0,0,0-.35-1.31,1.3,1.3,0,0,0-1.07-.42,1.81,1.81,0,0,0-1.38.55,2,2,0,0,0-.52,1.44V209h-1.86v-5.43a17.18,17.18,0,0,0-.12-2.14h1.75l0.14,1.24a2.76,2.76,0,0,1,1-1.07A3.07,3.07,0,0,1,227.16,201.24Zm7.09,1.6v3.39a1.14,1.14,0,0,0,1.24,1.34,2.65,2.65,0,0,0,.75-0.12v1.49a3.53,3.53,0,0,1-1.2.18,2.61,2.61,0,0,1-2-.72,2.88,2.88,0,0,1-.69-2.07v-3.48h-1.46v-1.41h1.46v-1.85l1.88-.63v2.48h2v1.41h-2Zm6.07,6.29a5.13,5.13,0,0,1-3.27-1l0.52-1.32a4.54,4.54,0,0,0,2.78.9,2,2,0,0,0,1-.22,0.7,0.7,0,0,0,.38-0.63,0.64,0.64,0,0,0-.26-0.54,2.26,2.26,0,0,0-.87-0.36l-1.26-.29q-2.07-.45-2.07-2.12a2,2,0,0,1,.39-1.21,2.54,2.54,0,0,1,1.1-.84,4.15,4.15,0,0,1,1.63-.3,4.81,4.81,0,0,1,1.56.26,4,4,0,0,1,1.32.71l-0.56,1.27a3.91,3.91,0,0,0-2.34-.84,1.8,1.8,0,0,0-1,.24,0.75,0.75,0,0,0-.36.66,0.68,0.68,0,0,0,.21.53,1.89,1.89,0,0,0,.75.33l1.29,0.29a3.17,3.17,0,0,1,1.64.79,1.87,1.87,0,0,1,.52,1.38,2,2,0,0,1-.84,1.66A3.81,3.81,0,0,1,240.33,209.13Z" transform="translate(-3.67 0)"/>
  <path class="bd" d="M514.87,32.47a2,2,0,0,1-.8,3.37L499,40.38A2,2,0,0,1,496.45,38l3.63-15.36a2,2,0,0,1,3.32-1Z" transform="translate(-3.67 0)"/>
  <path class="be" d="M4.94,445.65a2,2,0,0,1-.52-3.42l12.53-10a2,2,0,0,1,3.23,1.26l2.42,15.93a2,2,0,0,1-2.71,2.16Z" transform="translate(-3.67 0)"/>
  <path class="bf" d="M709.3,461.74a3,3,0,0,1,4.74,2.12L716.85,491a3,3,0,0,1-4.21,3l-24.9-11.13a3,3,0,0,1-.53-5.17Z" transform="translate(-3.67 0)"/>
  <path class="ae" d="M149,253.44h1.3V263H149v-9.57Zm5.51,9.66a4.06,4.06,0,0,1-2.7-.83l0.39-.95a3.78,3.78,0,0,0,2.35.78,2,2,0,0,0,1-.22,0.74,0.74,0,0,0,.35-0.65,0.66,0.66,0,0,0-.25-0.55,2,2,0,0,0-.81-0.35l-1.09-.26a2.56,2.56,0,0,1-1.31-.64,1.62,1.62,0,0,1-.44-1.16,1.73,1.73,0,0,1,.7-1.43,3,3,0,0,1,1.88-.55,4,4,0,0,1,1.33.22,3.07,3.07,0,0,1,1.08.62l-0.4.92a3.17,3.17,0,0,0-2-.75,1.7,1.7,0,0,0-1,.25,0.75,0.75,0,0,0-.35.66,0.71,0.71,0,0,0,.22.55,1.55,1.55,0,0,0,.7.32l1.12,0.27a2.71,2.71,0,0,1,1.38.66,1.54,1.54,0,0,1,.46,1.16,1.65,1.65,0,0,1-.71,1.4A3.23,3.23,0,0,1,154.48,263.1Zm10.18-9.66V263h-1.3v-1.12a2,2,0,0,1-.86.9,2.65,2.65,0,0,1-1.31.31,2.72,2.72,0,0,1-1.51-.43,2.93,2.93,0,0,1-1-1.2,4.21,4.21,0,0,1-.36-1.79,4.12,4.12,0,0,1,.36-1.78,2.78,2.78,0,0,1,1-1.18,2.83,2.83,0,0,1,1.53-.42,2.62,2.62,0,0,1,1.3.31,2,2,0,0,1,.86.88v-4.06h1.31Zm-3.17,8.62a1.65,1.65,0,0,0,1.38-.61,2.74,2.74,0,0,0,.49-1.74,2.68,2.68,0,0,0-.49-1.73,1.62,1.62,0,0,0-1.37-.62,1.73,1.73,0,0,0-1.4.61,2.66,2.66,0,0,0-.49,1.72,2.8,2.8,0,0,0,.49,1.76A1.7,1.7,0,0,0,161.48,262.06Zm5.1-5.6h1.3V263h-1.3v-6.55Zm1.4-2.86V255h-1.52v-1.38H168Zm7.87,2.86v6.44a3,3,0,0,1-.79,2.25,3.19,3.19,0,0,1-2.33.77,5.11,5.11,0,0,1-2.61-.65l0.22-1a5.83,5.83,0,0,0,1.17.48,4.57,4.57,0,0,0,1.21.16,1.64,1.64,0,0,0,1.83-1.87v-1.42a2.26,2.26,0,0,1-.87.91,2.64,2.64,0,0,1-1.33.33,2.93,2.93,0,0,1-1.53-.4,2.78,2.78,0,0,1-1-1.14,4.17,4.17,0,0,1,0-3.41,2.78,2.78,0,0,1,1-1.14,2.87,2.87,0,0,1,1.53-.42,2.64,2.64,0,0,1,1.33.32,2.08,2.08,0,0,1,.87.9v-1.07h1.3Zm-3.2,5.3a1.74,1.74,0,0,0,1.39-.58,2.82,2.82,0,0,0,0-3.22,1.7,1.7,0,0,0-1.39-.6,1.76,1.76,0,0,0-1.4.6,2.38,2.38,0,0,0-.51,1.61,2.41,2.41,0,0,0,.51,1.61A1.78,1.78,0,0,0,172.65,261.76ZM181,256.3a2.29,2.29,0,0,1,.62.09l0,1.2a2.18,2.18,0,0,0-.77-0.13,1.66,1.66,0,0,0-1.35.55,2,2,0,0,0-.44,1.35V263h-1.3V258.3a14.63,14.63,0,0,0-.1-1.85h1.22l0.12,1.18a2,2,0,0,1,.81-1A2.21,2.21,0,0,1,181,256.3Zm4.32,6.8a3.35,3.35,0,0,1-1.69-.42,2.87,2.87,0,0,1-1.13-1.18,4.32,4.32,0,0,1,0-3.59,2.85,2.85,0,0,1,1.13-1.2,3.61,3.61,0,0,1,3.37,0,2.77,2.77,0,0,1,1.12,1.2,4.19,4.19,0,0,1,0,3.59,2.78,2.78,0,0,1-1.12,1.18A3.32,3.32,0,0,1,185.36,263.1Zm0-1a1.68,1.68,0,0,0,1.39-.6,2.75,2.75,0,0,0,.48-1.76,2.71,2.71,0,0,0-.49-1.74,1.64,1.64,0,0,0-1.37-.61A1.69,1.69,0,0,0,184,258a2.71,2.71,0,0,0-.49,1.74,2.75,2.75,0,0,0,.48,1.76A1.7,1.7,0,0,0,185.35,262.06Zm10.44-5.6V263h-1.27v-1.09a2.22,2.22,0,0,1-.86.88,2.53,2.53,0,0,1-1.24.3q-2.37,0-2.37-2.63v-4h1.3v4a1.84,1.84,0,0,0,.32,1.2,1.29,1.29,0,0,0,1,.38,1.67,1.67,0,0,0,1.29-.52,1.92,1.92,0,0,0,.49-1.38v-3.68h1.31Zm5.39-.16a2.72,2.72,0,0,1,1.51.43,2.82,2.82,0,0,1,1,1.21,4.5,4.5,0,0,1,0,3.57,2.76,2.76,0,0,1-1,1.17,2.8,2.8,0,0,1-1.52.42,2.72,2.72,0,0,1-1.33-.31,2.08,2.08,0,0,1-.85-0.92v4h-1.3V258.3a14.83,14.83,0,0,0-.1-1.85h1.22l0.13,1.21a2,2,0,0,1,.84-1A2.55,2.55,0,0,1,201.18,256.3Zm-0.3,5.76a1.67,1.67,0,0,0,1.38-.61,2.66,2.66,0,0,0,.49-1.72,2.74,2.74,0,0,0-.49-1.74,1.64,1.64,0,0,0-1.38-.64,1.67,1.67,0,0,0-1.39.61,3.39,3.39,0,0,0,0,3.48A1.69,1.69,0,0,0,200.88,262.06Zm5.93-.61V263h-1.56v-1.56h1.56Zm4.39,1.65a3.48,3.48,0,0,1-1.73-.42,2.79,2.79,0,0,1-1.12-1.17,4.23,4.23,0,0,1,0-3.57,3,3,0,0,1,1.16-1.21,3.39,3.39,0,0,1,1.73-.43,3.82,3.82,0,0,1,1.33.23,2.66,2.66,0,0,1,1,.61l-0.4.95a3,3,0,0,0-1.86-.73,1.84,1.84,0,0,0-1.48.62,3.07,3.07,0,0,0,0,3.46,1.88,1.88,0,0,0,1.48.6,2.92,2.92,0,0,0,1.86-.73l0.4,0.95a2.9,2.9,0,0,1-1.07.61A4.07,4.07,0,0,1,211.2,263.1Zm6.46,0a3.35,3.35,0,0,1-1.69-.42,2.87,2.87,0,0,1-1.13-1.18,4.32,4.32,0,0,1,0-3.59,2.85,2.85,0,0,1,1.13-1.2,3.61,3.61,0,0,1,3.37,0,2.77,2.77,0,0,1,1.12,1.2,4.19,4.19,0,0,1,0,3.59,2.78,2.78,0,0,1-1.12,1.18A3.32,3.32,0,0,1,217.66,263.1Zm0-1a1.68,1.68,0,0,0,1.39-.6,2.75,2.75,0,0,0,.48-1.76A2.71,2.71,0,0,0,219,258a1.64,1.64,0,0,0-1.37-.61,1.69,1.69,0,0,0-1.39.61,2.71,2.71,0,0,0-.49,1.74,2.75,2.75,0,0,0,.48,1.76A1.7,1.7,0,0,0,217.65,262.06Zm12.22-5.76q2.18,0,2.18,2.63V263h-1.31v-4a2,2,0,0,0-.3-1.23,1.08,1.08,0,0,0-.94-0.39,1.49,1.49,0,0,0-1.2.52,2.16,2.16,0,0,0-.43,1.42V263h-1.31v-4a2,2,0,0,0-.3-1.23,1.08,1.08,0,0,0-.94-0.39,1.49,1.49,0,0,0-1.2.52,2.12,2.12,0,0,0-.44,1.42V263h-1.3V258.3a14.83,14.83,0,0,0-.1-1.85h1.22l0.12,1.09a2.12,2.12,0,0,1,.82-0.92,2.35,2.35,0,0,1,1.25-.32,1.9,1.9,0,0,1,2,1.26,2.23,2.23,0,0,1,.87-0.92A2.58,2.58,0,0,1,229.87,256.3Z" transform="translate(-3.67 0)"/>
  <path class="ae" d="M132,259a5,5,0,0,1,3-4.59v1.11a1.5,1.5,0,0,0,1.5,1.5,0.5,0.5,0,1,1,0,1,1.5,1.5,0,0,0-1.5,1.49,0.5,0.5,0,0,1-.5.5h-2.4A5,5,0,0,1,132,259Z" transform="translate(-3.67 0)"/>
  <path class="ae" d="M138,260.52a0.5,0.5,0,0,1,.5-0.5,1.5,1.5,0,0,0,1.5-1.49,0.5,0.5,0,0,1,.5-0.5h1.4a4.93,4.93,0,0,1-1.9,5v-0.47a1.5,1.5,0,0,0-1.5-1.49A0.5,0.5,0,0,1,138,260.52Z" transform="translate(-3.67 0)"/>
  <path class="ae" d="M132.42,261h2.08a1.5,1.5,0,0,0,1.5-1.49,0.5,0.5,0,0,1,.5-0.5,1.5,1.5,0,1,0,0-3,0.5,0.5,0,0,1-.5-0.5v-1.43a5,5,0,0,1,5.58,2.92H140.5a1.5,1.5,0,0,0-1.5,1.49,0.5,0.5,0,0,1-.5.5,1.5,1.5,0,1,0,0,3,0.5,0.5,0,0,1,.5.5v1.07A5,5,0,0,1,132.42,261Z" transform="translate(-3.67 0)"/>
  <path class="ae" d="M153.38,238.25a2.66,2.66,0,0,1,1.39.85,2.16,2.16,0,0,1,.51,1.44,2.23,2.23,0,0,1-.92,1.88,4,4,0,0,1-2.46.68,4.09,4.09,0,0,1-2.47-.68,2.24,2.24,0,0,1-.91-1.88,2.18,2.18,0,0,1,.51-1.46,2.66,2.66,0,0,1,1.42-.83,2.6,2.6,0,0,1-1.26-.82,2.05,2.05,0,0,1-.44-1.31,2.16,2.16,0,0,1,.4-1.3,2.55,2.55,0,0,1,1.12-.86,4.46,4.46,0,0,1,3.28,0,2.55,2.55,0,0,1,1.12.86,2.16,2.16,0,0,1,.4,1.3,2.1,2.1,0,0,1-.44,1.33A2.45,2.45,0,0,1,153.38,238.25Zm-3.35-2a1.38,1.38,0,0,0,.51,1.11,2,2,0,0,0,2.73,0,1.38,1.38,0,0,0,.51-1.11,1.31,1.31,0,0,0-.51-1.1,2.1,2.1,0,0,0-1.37-.4,2.15,2.15,0,0,0-1.38.4A1.33,1.33,0,0,0,150,236.23ZM151.9,242a2.57,2.57,0,0,0,1.55-.4,1.37,1.37,0,0,0,.55-1.17,1.33,1.33,0,0,0-.57-1.13,3.07,3.07,0,0,0-1.52-.55,3.15,3.15,0,0,0-1.53.55,1.33,1.33,0,0,0-.56,1.13,1.37,1.37,0,0,0,.55,1.17A2.57,2.57,0,0,0,151.9,242Zm8.28-4.87a2.83,2.83,0,0,1,1.47.38,2.55,2.55,0,0,1,1,1,3.36,3.36,0,0,1,0,3.09,2.83,2.83,0,0,1-1.08,1.07,3.11,3.11,0,0,1-1.56.39,3.2,3.2,0,0,1-2.65-1.17,5.31,5.31,0,0,1-.92-3.35,7.33,7.33,0,0,1,.43-2.65,3.69,3.69,0,0,1,1.26-1.7,3.35,3.35,0,0,1,2-.58,4.49,4.49,0,0,1,1.59.29,3.86,3.86,0,0,1,1.35.83l-0.48,1a3.81,3.81,0,0,0-2.42-1,1.93,1.93,0,0,0-1.74,1,5.39,5.39,0,0,0-.61,2.82h0a2.25,2.25,0,0,1,.94-1.05A2.88,2.88,0,0,1,160.18,237.14ZM159.93,242a1.71,1.71,0,0,0,1.3-.52,2.15,2.15,0,0,0,0-2.74,1.72,1.72,0,0,0-1.31-.52,1.8,1.8,0,0,0-1.87,1.89,1.89,1.89,0,0,0,.52,1.38A1.85,1.85,0,0,0,159.93,242Zm8-4.87a2.83,2.83,0,0,1,1.47.38,2.55,2.55,0,0,1,1,1,3.36,3.36,0,0,1,0,3.09,2.83,2.83,0,0,1-1.08,1.07,3.11,3.11,0,0,1-1.56.39,3.2,3.2,0,0,1-2.65-1.17,5.31,5.31,0,0,1-.92-3.35,7.33,7.33,0,0,1,.43-2.65,3.69,3.69,0,0,1,1.26-1.7,3.35,3.35,0,0,1,2-.58,4.49,4.49,0,0,1,1.59.29,3.86,3.86,0,0,1,1.35.83l-0.48,1a3.81,3.81,0,0,0-2.42-1,1.93,1.93,0,0,0-1.74,1,5.39,5.39,0,0,0-.61,2.82h0a2.25,2.25,0,0,1,.94-1.05A2.88,2.88,0,0,1,168,237.14ZM167.72,242a1.71,1.71,0,0,0,1.3-.52,2.15,2.15,0,0,0,0-2.74,1.72,1.72,0,0,0-1.31-.52,1.8,1.8,0,0,0-1.87,1.89,1.89,1.89,0,0,0,.52,1.38A1.85,1.85,0,0,0,167.72,242Zm14.16-8.27v1L177.61,243h-1.44l4.26-8.15h-4.81v-1.1h6.27Zm7.79,0v1L185.4,243H184l4.26-8.15h-4.81v-1.1h6.27Zm7.79,0v1L193.2,243h-1.44l4.26-8.15h-4.81v-1.1h6.27Zm1.68,5.23h3.78V240h-3.78V239Zm9-1.83a3,3,0,0,1,1.52.38,2.45,2.45,0,0,1,1,1,3.13,3.13,0,0,1,.36,1.53,3,3,0,0,1-.4,1.57,2.66,2.66,0,0,1-1.13,1.05,3.77,3.77,0,0,1-1.73.38,5,5,0,0,1-1.69-.3,3.85,3.85,0,0,1-1.38-.82l0.47-1a4.2,4.2,0,0,0,2.61,1,2,2,0,0,0,1.43-.49,2.09,2.09,0,0,0,0-2.76,1.82,1.82,0,0,0-1.37-.52,2.43,2.43,0,0,0-2,.95H205v-5.43h5.67v1.08h-4.34v2.94A2.75,2.75,0,0,1,208.2,237.14Zm10.49-3.39v1L214.41,243H213l4.26-8.15h-4.81v-1.1h6.27Zm6,4.5a2.28,2.28,0,0,1,1.24.81,2.59,2.59,0,0,1-.43,3.35,3.54,3.54,0,0,1-2.3.69,5.47,5.47,0,0,1-1.77-.29,3.9,3.9,0,0,1-1.39-.83l0.48-1a4.12,4.12,0,0,0,2.64,1q1.9,0,1.9-1.6a1.36,1.36,0,0,0-.49-1.16,2.39,2.39,0,0,0-1.49-.39H222v-1.09h0.92a2.31,2.31,0,0,0,1.47-.4,1.41,1.41,0,0,0,.51-1.17,1.36,1.36,0,0,0-.43-1.08,1.7,1.7,0,0,0-1.18-.38,4.12,4.12,0,0,0-2.57,1l-0.48-1a3.85,3.85,0,0,1,1.38-.82,5.2,5.2,0,0,1,1.74-.3,3.09,3.09,0,0,1,2.07.65,2.11,2.11,0,0,1,.78,1.73,2.48,2.48,0,0,1-.38,1.38A2.11,2.11,0,0,1,224.71,238.25Zm10,2.83H233.3V243H232v-1.92h-4.15v-1l4.39-6.33h1.08V240h1.37v1.08ZM232,240v-4.08L229.14,240H232Z" transform="translate(-3.67 0)"/>
  <g class="bg">
    <path class="ae" d="M137,233a5,5,0,1,0,5,5A5,5,0,0,0,137,233Zm2.64,7.29-0.4.4a0.75,0.75,0,0,1-.29.12,4.72,4.72,0,0,1-4.76-4.78,0.74,0.74,0,0,1,.12-0.27l0.4-.4a0.67,0.67,0,0,1,.63-0.15l0.08,0a0.79,0.79,0,0,1,.46.48l0.2,0.74a0.73,0.73,0,0,1-.17.63l-0.27.27a2.84,2.84,0,0,0,2,2l0.27-.27a0.72,0.72,0,0,1,.63-0.17l0.74,0.2a0.79,0.79,0,0,1,.48.46l0,0.09A0.66,0.66,0,0,1,139.64,240.3Z" transform="translate(-3.67 0)"/>
  </g>
  <path class="ae" d="M397.36,318a6.79,6.79,0,0,1-2-.25,4.59,4.59,0,0,1-1.59-.79l0.55-1.23a5.05,5.05,0,0,0,1.42.73,5.34,5.34,0,0,0,1.62.2,2.71,2.71,0,0,0,1.48-.37,1.06,1.06,0,0,0,.51-1,0.86,0.86,0,0,0-.51-0.78,5.8,5.8,0,0,0-1.61-.5,6.65,6.65,0,0,1-2.55-.93,2,2,0,0,1-.83-1.73,2.49,2.49,0,0,1,.42-1.46,3,3,0,0,1,1.23-1,4.61,4.61,0,0,1,1.88-.4,5.64,5.64,0,0,1,1.85.27,3.8,3.8,0,0,1,1.46.78l-0.54,1.23a4.27,4.27,0,0,0-2.75-.94,2.37,2.37,0,0,0-1.41.4,1.16,1.16,0,0,0-.5,1,0.93,0.93,0,0,0,.47.82,5.63,5.63,0,0,0,1.6.5,10.81,10.81,0,0,1,1.9.56,2.73,2.73,0,0,1,1.13.8,2,2,0,0,1,.41,1.24,2.46,2.46,0,0,1-.42,1.46,2.84,2.84,0,0,1-1.26,1A5.19,5.19,0,0,1,397.36,318Zm5-6.78,1.61,0,0.12,6.56-1.61,0Zm1.65-3,0,1.6-1.81,0,0-1.6Zm8.09,2.83,0.12,6.36a3,3,0,0,1-.8,2.34,3.5,3.5,0,0,1-2.47.84,5.46,5.46,0,0,1-2.69-.59l0.24-1.24a5.11,5.11,0,0,0,2.39.58,1.54,1.54,0,0,0,1.72-1.77l0-1.3a2.32,2.32,0,0,1-.85.89,2.56,2.56,0,0,1-1.28.35,2.93,2.93,0,0,1-1.54-.37,2.87,2.87,0,0,1-1.06-1.14,3.9,3.9,0,0,1-.4-1.71,3.82,3.82,0,0,1,.33-1.71,2.76,2.76,0,0,1,1-1.18,2.87,2.87,0,0,1,1.53-.44,2.6,2.6,0,0,1,1.29.29,2,2,0,0,1,.89.83l0-1Zm-3.24,5.17a1.57,1.57,0,0,0,1.25-.56,2.15,2.15,0,0,0,.44-1.48,2.19,2.19,0,0,0-.48-1.46,1.58,1.58,0,0,0-1.28-.51,1.61,1.61,0,0,0-1.26.56,2.6,2.6,0,0,0,.05,2.94A1.61,1.61,0,0,0,408.84,316.25Zm8.75-5.44q2.35,0,2.4,2.66l0.08,4-1.62,0-0.07-4a1.73,1.73,0,0,0-.32-1.12,1.13,1.13,0,0,0-.93-0.35,1.57,1.57,0,0,0-1.19.5,1.71,1.71,0,0,0-.43,1.26l0.07,3.72-1.61,0-0.09-4.71a15,15,0,0,0-.14-1.86l1.52,0,0.14,1.08a2.39,2.39,0,0,1,.89-0.94A2.66,2.66,0,0,1,417.59,310.81Zm10.36,0,0.12,6.56-1.6,0,0-1.05a2.14,2.14,0,0,1-.84.87,2.65,2.65,0,0,1-1.27.32,2.8,2.8,0,0,1-1.53-.39,2.75,2.75,0,0,1-1-1.16,4.11,4.11,0,0,1-.4-1.77,4.21,4.21,0,0,1,.33-1.8,2.89,2.89,0,0,1,1-1.24,2.65,2.65,0,0,1,1.5-.47,2.57,2.57,0,0,1,1.28.29,2.06,2.06,0,0,1,.87.83l0-1Zm-3.19,5.46a1.5,1.5,0,0,0,1.24-.58,2.48,2.48,0,0,0,.41-1.58,2.53,2.53,0,0,0-.47-1.59,1.68,1.68,0,0,0-2.52.07,2.56,2.56,0,0,0-.41,1.61,2.43,2.43,0,0,0,.47,1.55A1.56,1.56,0,0,0,424.76,316.24Zm11.3-5.61,0.12,6.36a3,3,0,0,1-.8,2.34,3.5,3.5,0,0,1-2.47.84,5.46,5.46,0,0,1-2.69-.59l0.24-1.24a5.1,5.1,0,0,0,2.39.58,1.55,1.55,0,0,0,1.72-1.77l0-1.3a2.34,2.34,0,0,1-.85.89,2.57,2.57,0,0,1-1.28.35,3,3,0,0,1-1.54-.37,2.86,2.86,0,0,1-1.06-1.14,3.88,3.88,0,0,1-.4-1.71,3.82,3.82,0,0,1,.33-1.71,2.77,2.77,0,0,1,1-1.18,2.87,2.87,0,0,1,1.53-.45,2.6,2.6,0,0,1,1.29.29,2,2,0,0,1,.89.83l0-1Zm-3.24,5.17a1.57,1.57,0,0,0,1.25-.56,2.15,2.15,0,0,0,.44-1.48,2.18,2.18,0,0,0-.48-1.46,1.58,1.58,0,0,0-1.28-.51,1.61,1.61,0,0,0-1.26.56,2.6,2.6,0,0,0,.06,2.94A1.61,1.61,0,0,0,432.82,315.8Zm10.81-1.95-4.52.08a2.42,2.42,0,0,0,.55,1.55,1.89,1.89,0,0,0,1.43.47,3.24,3.24,0,0,0,2-.74l0.49,1.11a3.75,3.75,0,0,1-1.15.63,4.4,4.4,0,0,1-1.37.25,3.46,3.46,0,0,1-2.55-.86,3.35,3.35,0,0,1-1-2.48,3.83,3.83,0,0,1,.37-1.79,2.93,2.93,0,0,1,1.11-1.23,3.12,3.12,0,0,1,1.64-.47,2.7,2.7,0,0,1,2.15.84,3.45,3.45,0,0,1,.84,2.39v0.25Zm-2.93-2.31a1.5,1.5,0,0,0-1.06.41,1.87,1.87,0,0,0-.5,1.11l3.05-.06a1.8,1.8,0,0,0-.48-1.11A1.34,1.34,0,0,0,440.69,311.54Zm6,3.63,0,1.2a3.19,3.19,0,0,1-.21,1.25,3.56,3.56,0,0,1-.77,1.13l-0.67-.52a2.44,2.44,0,0,0,.68-1.22l-0.83,0,0-1.82Zm5.15-7.53,6.19-.12,0,1.33-4.55.08,0,2.56,4.28-.08,0,1.33-4.28.08,0.05,2.72,4.55-.08,0,1.33-6.19.12Zm14.17,9-1.94,0-1.81-2.19-1.73,2.26-1.92,0,2.69-3.43-2.65-3.14,1.92,0,1.64,2,1.56-2.07,1.94,0-2.53,3.23Zm4.38-6.82q2.35,0,2.4,2.66l0.08,4-1.62,0-0.07-4a1.73,1.73,0,0,0-.32-1.12,1.12,1.12,0,0,0-.93-0.35,1.57,1.57,0,0,0-1.19.5,1.71,1.71,0,0,0-.43,1.26l0.07,3.72-1.61,0-0.18-9.57,1.61,0,0.07,4a2.27,2.27,0,0,1,.88-0.83A2.6,2.6,0,0,1,470.38,309.81Zm4.08,0.09,1.61,0,0.12,6.56-1.61,0Zm1.65-3,0,1.6-1.81,0,0-1.6Zm5.48,2.71a2.68,2.68,0,0,1,1.52.4,2.75,2.75,0,0,1,1,1.16,4.53,4.53,0,0,1,.05,3.59,2.81,2.81,0,0,1-1,1.23,2.84,2.84,0,0,1-2.79.17,2,2,0,0,1-.86-0.86l0,1.08-1.6,0-0.18-9.57,1.61,0,0.08,4a2.07,2.07,0,0,1,.84-0.86A2.57,2.57,0,0,1,481.59,309.6Zm-0.32,5.57a1.49,1.49,0,0,0,1.24-.6,2.56,2.56,0,0,0,.41-1.61,2.43,2.43,0,0,0-.47-1.55,1.7,1.7,0,0,0-2.52,0,3.09,3.09,0,0,0,.06,3.19A1.55,1.55,0,0,0,481.27,315.17Zm4.64-5.48,1.61,0,0.12,6.56-1.61,0Zm1.65-3,0,1.6-1.81,0,0-1.6Zm3.83,4.13,0.05,2.94a1,1,0,0,0,1.1,1.14,2.33,2.33,0,0,0,.65-0.12l0,1.29a3.08,3.08,0,0,1-1,.17,2.27,2.27,0,0,1-1.73-.59,2.49,2.49,0,0,1-.63-1.78l-0.06-3-1.26,0,0-1.22,1.26,0,0-1.6,1.62-.58,0,2.14,1.74,0,0,1.22Zm14,5.2a5.56,5.56,0,0,1-1.95-1.08,4,4,0,0,1-2.76,1.16,4.2,4.2,0,0,1-1.67-.28,2.7,2.7,0,0,1-1.14-.88,2.27,2.27,0,0,1-.41-1.3,2.49,2.49,0,0,1,.44-1.5,4.5,4.5,0,0,1,1.47-1.25,4.69,4.69,0,0,1-.77-1,2.25,2.25,0,0,1-.25-1,2,2,0,0,1,.67-1.59,2.73,2.73,0,0,1,1.82-.63,2.43,2.43,0,0,1,1.67.52,1.84,1.84,0,0,1,.65,1.44,2.11,2.11,0,0,1-.39,1.28A4.2,4.2,0,0,1,501.5,311l1.87,1.86a6.11,6.11,0,0,0,.55-2.52l1.38,0a7,7,0,0,1-.95,3.51,4.87,4.87,0,0,0,1.87,1Zm-4.51-8.26a1.08,1.08,0,0,0-.77.3,1,1,0,0,0-.27.77,1.2,1.2,0,0,0,.17.58,5.48,5.48,0,0,0,.63.77,3.81,3.81,0,0,0,.95-0.75,1.13,1.13,0,0,0,.27-0.75A0.89,0.89,0,0,0,500.92,307.74Zm-1.83,5.76a1.21,1.21,0,0,0,.46,1,1.83,1.83,0,0,0,1.2.34,2.64,2.64,0,0,0,1.82-.79l-2.32-2.31a3,3,0,0,0-.9.82A1.63,1.63,0,0,0,499.09,313.5Zm11.28-7,6.19-.12,0,1.33-4.55.09,0,2.56,4.28-.08,0,1.33-4.28.08,0.05,2.72,4.55-.08,0,1.33-6.19.12Zm11.42,2.31q2.35,0,2.4,2.66l0.08,4-1.62,0-0.07-4a1.73,1.73,0,0,0-.32-1.12,1.12,1.12,0,0,0-.93-0.35,1.57,1.57,0,0,0-1.19.5,1.71,1.71,0,0,0-.43,1.26l0.07,3.72-1.61,0-0.09-4.71a14.82,14.82,0,0,0-.14-1.86l1.52,0,0.14,1.08a2.39,2.39,0,0,1,.89-0.94A2.65,2.65,0,0,1,521.79,308.85Zm10.29,0-2.75,6.6-1.42,0-3-6.5,1.7,0,2,4.67,1.84-4.74Zm0.84,0,1.61,0,0.12,6.56-1.61,0Zm1.65-3,0,1.6-1.81,0,0-1.6Zm5.28,2.72a1.84,1.84,0,0,1,.65.09v1.48a2.28,2.28,0,0,0-.86-0.15,1.64,1.64,0,0,0-1.26.51,1.84,1.84,0,0,0-.41,1.28l0.07,3.55-1.61,0-0.09-4.71a14.78,14.78,0,0,0-.14-1.86l1.52,0,0.15,1.15a2,2,0,0,1,.76-1A2.21,2.21,0,0,1,539.85,308.52Zm4.53,6.74a3.65,3.65,0,0,1-1.77-.38,2.9,2.9,0,0,1-1.19-1.16,3.91,3.91,0,0,1-.44-1.81,3.83,3.83,0,0,1,.37-1.81,2.88,2.88,0,0,1,1.15-1.22,3.64,3.64,0,0,1,1.76-.45,3.54,3.54,0,0,1,1.75.38,2.8,2.8,0,0,1,1.18,1.17,3.73,3.73,0,0,1,.45,1.8,3.82,3.82,0,0,1-.38,1.83,2.82,2.82,0,0,1-1.14,1.21A3.54,3.54,0,0,1,544.38,315.26Zm0-1.27a1.52,1.52,0,0,0,1.25-.56,3.13,3.13,0,0,0-.06-3.21,1.69,1.69,0,0,0-2.51,0,2.49,2.49,0,0,0-.41,1.61,2.58,2.58,0,0,0,.46,1.6A1.55,1.55,0,0,0,544.34,314Zm8.38-5.72q2.35,0,2.4,2.66l0.08,4-1.62,0-0.07-4a1.73,1.73,0,0,0-.32-1.12,1.12,1.12,0,0,0-.93-0.35,1.57,1.57,0,0,0-1.19.5,1.71,1.71,0,0,0-.43,1.26L550.7,315l-1.61,0L549,310.37a14.82,14.82,0,0,0-.14-1.86l1.52,0,0.14,1.08a2.39,2.39,0,0,1,.89-0.94A2.66,2.66,0,0,1,552.72,308.27Zm11.82-.22a2,2,0,0,1,1.68.64,3.15,3.15,0,0,1,.58,2l0.08,4-1.62,0-0.08-4a1.86,1.86,0,0,0-.28-1.11,0.94,0.94,0,0,0-.84-0.33,1.3,1.3,0,0,0-1.06.5,2,2,0,0,0-.35,1.31l0.07,3.67-1.62,0-0.08-4a1.84,1.84,0,0,0-.29-1.11,1,1,0,0,0-.84-0.33,1.3,1.3,0,0,0-1.06.5,2,2,0,0,0-.37,1.31l0.07,3.67-1.61,0-0.09-4.71a14.79,14.79,0,0,0-.14-1.86l1.52,0,0.14,1a2.06,2.06,0,0,1,.8-0.91,2.47,2.47,0,0,1,1.24-.34,1.87,1.87,0,0,1,2,1.21,2.24,2.24,0,0,1,.87-0.93A2.55,2.55,0,0,1,564.54,308Zm9.76,3.35-4.52.09a2.42,2.42,0,0,0,.55,1.55,1.89,1.89,0,0,0,1.43.47,3.24,3.24,0,0,0,2-.74l0.49,1.11a3.74,3.74,0,0,1-1.15.63,4.41,4.41,0,0,1-1.37.25,3.46,3.46,0,0,1-2.55-.86,3.35,3.35,0,0,1-1-2.48,3.82,3.82,0,0,1,.37-1.79,2.93,2.93,0,0,1,1.11-1.23,3.13,3.13,0,0,1,1.64-.47,2.7,2.7,0,0,1,2.15.84,3.44,3.44,0,0,1,.84,2.39v0.25Zm-2.93-2.31a1.5,1.5,0,0,0-1.06.41,1.87,1.87,0,0,0-.5,1.11l3.05-.06a1.79,1.79,0,0,0-.48-1.11A1.34,1.34,0,0,0,571.37,309.09Zm8-1.32q2.35,0,2.4,2.66l0.08,4-1.62,0-0.08-4a1.72,1.72,0,0,0-.32-1.12,1.12,1.12,0,0,0-.93-0.35,1.57,1.57,0,0,0-1.19.5,1.72,1.72,0,0,0-.43,1.26l0.07,3.72-1.61,0-0.09-4.71a14.79,14.79,0,0,0-.14-1.86l1.52,0,0.14,1.08a2.38,2.38,0,0,1,.89-0.94A2.65,2.65,0,0,1,579.36,307.77Zm6.17,1.27,0.06,2.94a1,1,0,0,0,1.1,1.14,2.27,2.27,0,0,0,.65-0.12l0,1.29a3.07,3.07,0,0,1-1,.18,2.27,2.27,0,0,1-1.73-.59,2.49,2.49,0,0,1-.63-1.78l-0.06-3-1.26,0,0-1.22,1.26,0,0-1.6,1.61-.58,0,2.15,1.74,0,0,1.22Zm5.36,5.35a4.45,4.45,0,0,1-2.85-.78l0.43-1.15a3.94,3.94,0,0,0,2.42.73,1.71,1.71,0,0,0,.89-0.21,0.61,0.61,0,0,0,.32-0.55,0.56,0.56,0,0,0-.23-0.46,2,2,0,0,0-.76-0.3l-1.1-.23q-1.8-.36-1.83-1.8a1.72,1.72,0,0,1,.32-1.06,2.2,2.2,0,0,1,.93-0.74,3.59,3.59,0,0,1,1.41-.29,4.17,4.17,0,0,1,1.36.2,3.45,3.45,0,0,1,1.15.59l-0.46,1.11a3.38,3.38,0,0,0-2-.69,1.56,1.56,0,0,0-.87.22,0.65,0.65,0,0,0-.3.58,0.59,0.59,0,0,0,.19.45,1.64,1.64,0,0,0,.65.27l1.12,0.23a2.76,2.76,0,0,1,1.43.66,1.62,1.62,0,0,1,.48,1.19,1.7,1.7,0,0,1-.7,1.46A3.3,3.3,0,0,1,590.9,314.39Z" transform="translate(-3.67 0)"/>
</svg>
